<svg width="248" height="800" viewBox="0 0 248 800" fill="none" xmlns="http://www.w3.org/2000/svg">
<rect x="216.043" y="31.1113" width="31.1111" height="31.5063" transform="rotate(-90 216.043 31.1113)" fill="black"/>
<rect x="235.397" y="92.444" width="20.8889" height="12.1524" transform="rotate(-90 235.397 92.444)" fill="black"/>
<rect x="235.397" y="51.9993" width="20.8889" height="12.1524" transform="rotate(-90 235.397 51.9993)" fill="black"/>
<rect x="17.1035" y="800" width="17.7778" height="19.2242" transform="rotate(-90 17.1035 800)" fill="black"/>
<rect x="0.450195" y="784" width="17.7778" height="19.2242" transform="rotate(-90 0.450195 784)" fill="black"/>
<rect width="21.9095" height="22.1873" transform="matrix(0.030715 -0.999528 0.999551 0.0299499 58.0615 759.78)" fill="black"/>
<rect width="21.9095" height="22.1873" transform="matrix(0.030715 -0.999528 0.999551 0.0299499 40.0586 743.335)" fill="black"/>
<rect width="21.9095" height="22.1873" transform="matrix(0.030715 -0.999528 0.999551 0.0299499 20.2539 721.113)" fill="black"/>
<rect width="21.9095" height="22.1873" transform="matrix(0.030715 -0.999528 0.999551 0.0299499 0.450195 698.891)" fill="black"/>
<rect width="21.9092" height="22.1876" transform="matrix(-0.0040503 -0.999992 0.999992 -0.00394931 80.6553 778.222)" fill="black"/>
<rect width="21.9092" height="22.1876" transform="matrix(-0.00402569 -0.999992 0.999992 -0.00397345 101.81 800)" fill="black"/>
<rect x="59.0117" y="799.5" width="20.9092" height="21.1876" transform="rotate(-90 59.0117 799.5)" fill="white" stroke="#BEBEBE"/>
<rect x="36.457" y="782.222" width="21.9092" height="22.1876" transform="rotate(-90 36.457 782.222)" fill="black"/>
<rect x="20.3037" y="765.722" width="21.2222" height="21.5045" transform="rotate(-90 20.3037 765.722)" fill="white" stroke="#BEBEBE"/>
<rect x="0.450195" y="744" width="22.6667" height="22.9546" transform="rotate(-90 0.450195 744)" fill="black"/>
<rect x="13.3027" y="32.1946" width="17.2778" height="17.5036" transform="rotate(-90 13.3027 32.1946)" fill="white" stroke="#B9B9B9" stroke-width="0.5"/>
<rect x="225.895" y="359.195" width="17.2778" height="17.5036" transform="rotate(-90 225.895 359.195)" fill="white" stroke="#B9B9B9" stroke-width="0.5"/>
<rect x="215.742" y="376.333" width="20.8889" height="19.3539" transform="rotate(-90 215.742 376.333)" fill="black"/>
<rect x="0.444336" y="20.8887" width="20.8889" height="19.3539" transform="rotate(-90 0.444336 20.8887)" fill="black"/>
<rect x="216.043" y="31.1113" width="31.1111" height="31.5063" transform="rotate(-90 216.043 31.1113)" fill="black"/>
<rect x="235.397" y="51.9993" width="20.8889" height="12.1524" transform="rotate(-90 235.397 51.9993)" fill="black"/>
<rect x="196.689" y="16" width="15.5556" height="21.1683" transform="rotate(-90 196.689 16)" fill="black"/>
<rect x="17.1035" y="800" width="17.7778" height="19.2242" transform="rotate(-90 17.1035 800)" fill="black"/>
<rect x="0.450195" y="784" width="17.7778" height="19.2242" transform="rotate(-90 0.450195 784)" fill="black"/>
<rect width="21.9095" height="22.1873" transform="matrix(0.030715 -0.999528 0.999551 0.0299499 58.0615 759.78)" fill="black"/>
<rect width="21.9095" height="22.1873" transform="matrix(0.030715 -0.999528 0.999551 0.0299499 40.0586 743.335)" fill="black"/>
<rect width="21.9095" height="22.1873" transform="matrix(0.030715 -0.999528 0.999551 0.0299499 20.2539 721.113)" fill="black"/>
<rect width="21.9095" height="22.1873" transform="matrix(0.030715 -0.999528 0.999551 0.0299499 0.450195 698.891)" fill="black"/>
<rect width="21.9092" height="22.1876" transform="matrix(-0.0040503 -0.999992 0.999992 -0.00394931 80.6553 778.222)" fill="black"/>
<rect width="21.9092" height="22.1876" transform="matrix(-0.00402569 -0.999992 0.999992 -0.00397345 101.81 800)" fill="black"/>
<rect x="59.0117" y="799.5" width="20.9092" height="21.1876" transform="rotate(-90 59.0117 799.5)" fill="white" stroke="#BEBEBE"/>
<rect x="36.457" y="782.222" width="21.9092" height="22.1876" transform="rotate(-90 36.457 782.222)" fill="black"/>
<rect x="20.3037" y="765.722" width="21.2222" height="21.5045" transform="rotate(-90 20.3037 765.722)" fill="white" stroke="#BEBEBE"/>
<rect x="0.450195" y="744" width="22.6667" height="22.9546" transform="rotate(-90 0.450195 744)" fill="black"/>
<rect x="13.7529" y="387.861" width="17.2778" height="17.5036" transform="rotate(-90 13.7529 387.861)" fill="white" stroke="#B9B9B9" stroke-width="0.5"/>
<rect x="13.3027" y="32.1946" width="17.2778" height="17.5036" transform="rotate(-90 13.3027 32.1946)" fill="white" stroke="#B9B9B9" stroke-width="0.5"/>
<rect x="214.25" y="17.5278" width="17.2778" height="17.5036" transform="rotate(-90 214.25 17.5278)" fill="white" stroke="#B9B9B9" stroke-width="0.5"/>
<rect x="230.25" y="33.5278" width="17.2778" height="17.5036" transform="rotate(-90 230.25 33.5278)" fill="white" stroke="#B9B9B9" stroke-width="0.5"/>
<rect x="0.450195" y="376.555" width="20.8889" height="19.3539" transform="rotate(-90 0.450195 376.555)" fill="black"/>
<rect x="227.296" y="511.555" width="31.1111" height="19.804" transform="rotate(-90 227.296 511.555)" fill="black"/>
<rect x="219.895" y="520.195" width="17.2778" height="17.5036" transform="rotate(-90 219.895 520.195)" fill="white" stroke="#B9B9B9" stroke-width="0.5"/>
<rect x="209.742" y="537.333" width="20.8889" height="19.3539" transform="rotate(-90 209.742 537.333)" fill="black"/>
<rect width="17.7907" height="16.4597" transform="matrix(-0.241249 -0.970463 0.971857 -0.235572 231.138 554.667)" fill="black"/>
<rect x="0.700195" y="299.75" width="15.5" height="8.95191" transform="rotate(-90 0.700195 299.75)" fill="white" stroke="#B9B9B9" stroke-width="0.5"/>
</svg>
