<svg width="1800" height="558" viewBox="0 0 1800 558" fill="none" xmlns="http://www.w3.org/2000/svg">
<rect x="1730" y="486.098" width="70" height="70.8893" fill="black"/>
<rect y="514.454" width="47" height="43.5463" fill="black"/>
<rect x="1682" y="442.552" width="47" height="43.5463" fill="black"/>
<rect x="1637" y="486.098" width="47" height="43.5463" fill="black"/>
<rect x="1592" y="529.644" width="47" height="27.343" fill="black"/>
<rect x="1683" y="529.644" width="47" height="27.343" fill="black"/>
<rect x="1773" y="355.459" width="27" height="43.5463" fill="black"/>
<rect x="1729" y="399.005" width="47" height="43.5463" fill="black"/>
<rect y="38.4828" width="40" height="43.2545" fill="black"/>
<rect x="36" y="1.0127" width="40" height="43.2545" fill="black"/>
<rect x="0.5" y="132.152" width="48.2958" height="48.922" fill="white" stroke="#BEBEBE"/>
<rect x="40" y="82.0291" width="49.2958" height="49.922" fill="black"/>
<rect x="76.5" y="45.059" width="49" height="49.6352" fill="white" stroke="#BEBEBE"/>
<rect x="126" y="1.0127" width="51" height="51.6479" fill="black"/>
<rect x="764.25" y="494.45" width="39.5" height="40.0082" fill="white" stroke="#B9B9B9" stroke-width="0.5"/>
<rect x="605.251" y="30.6311" width="39.5" height="40.0082" fill="white" stroke="#B9B9B9" stroke-width="0.5"/>
<rect x="1727.25" y="29.6184" width="39.5" height="40.0082" fill="white" stroke="#B9B9B9" stroke-width="0.5"/>
<rect x="1190.25" y="0.25" width="39.5" height="40.0082" fill="white" stroke="#B9B9B9" stroke-width="0.5"/>
<rect x="726" y="471.92" width="47" height="43.5463" fill="black"/>
<rect x="631" y="1.0127" width="47" height="43.5463" fill="black"/>
<rect x="1753" y="1" width="47" height="43.5463" fill="black"/>
<rect x="784" y="511.416" width="70" height="44.559" fill="black"/>
<rect x="1730" y="486.098" width="70" height="70.8893" fill="black"/>
<rect x="40.999" y="476.984" width="47" height="43.5463" fill="black"/>
<rect x="1682" y="442.552" width="47" height="43.5463" fill="black"/>
<rect x="1637" y="486.098" width="47" height="43.5463" fill="black"/>
<rect x="1592" y="529.644" width="47" height="27.343" fill="black"/>
<rect x="1683" y="529.644" width="47" height="27.343" fill="black"/>
<rect x="1773" y="355.459" width="27" height="43.5463" fill="black"/>
<rect x="1729" y="399.005" width="47" height="43.5463" fill="black"/>
<rect x="1764" y="442.552" width="35" height="47.6287" fill="black"/>
<rect y="38.4828" width="40" height="43.2545" fill="black"/>
<rect x="36" y="1.0127" width="40" height="43.2545" fill="black"/>
<rect x="0.5" y="132.152" width="48.2958" height="48.922" fill="white" stroke="#BEBEBE"/>
<rect x="40" y="82.0291" width="49.2958" height="49.922" fill="black"/>
<rect x="76.5" y="45.059" width="49" height="49.6352" fill="white" stroke="#BEBEBE"/>
<rect x="126" y="1.0127" width="51" height="51.6479" fill="black"/>
<rect x="764.25" y="494.45" width="39.5" height="40.0082" fill="white" stroke="#B9B9B9" stroke-width="0.5"/>
<rect x="605.251" y="30.6311" width="39.5" height="40.0082" fill="white" stroke="#B9B9B9" stroke-width="0.5"/>
<rect x="1727.25" y="29.6184" width="39.5" height="40.0082" fill="white" stroke="#B9B9B9" stroke-width="0.5"/>
<rect x="1190.25" y="0.25" width="39.5" height="40.0082" fill="white" stroke="#B9B9B9" stroke-width="0.5"/>
<rect x="726" y="471.92" width="47" height="43.5463" fill="black"/>
<rect x="631" y="1.0127" width="47" height="43.5463" fill="black"/>
<rect x="1154" y="22.2795" width="47" height="43.5463" fill="black"/>
<rect x="804.001" y="1.0127" width="47" height="43.5463" fill="black"/>
<rect x="852.001" y="1.0127" width="47" height="43.5463" fill="black"/>
<rect width="40.0291" height="37.0344" transform="matrix(0.970463 -0.241249 0.235572 0.971857 686.999 520.06)" fill="black"/>
<rect x="1125.25" y="1.2627" width="35.5" height="20.7668" fill="white" stroke="#B9B9B9" stroke-width="0.5"/>
</svg>
