<svg width="365" height="417" viewBox="0 0 365 417" fill="none" xmlns="http://www.w3.org/2000/svg">
<path d="M264.168 302.43C274.987 301.818 285.603 302.43 296.218 302.43C298.463 302.43 300.3 304.471 302.546 304.675C304.996 304.675 307.241 304.675 309.691 304.675C313.773 304.675 317.448 307.533 321.531 307.533C325.205 307.533 328.879 308.758 331.737 311.616C332.554 312.433 334.187 313.862 334.391 314.882C334.595 315.903 337.249 316.515 338.066 317.332C339.699 319.373 343.169 319.782 344.598 321.619C345.619 322.844 348.885 323.252 348.885 321.211C348.885 319.577 348.885 318.148 348.885 316.515C348.885 313.045 348.885 309.575 348.885 306.104C348.885 301.818 352.56 299.368 354.601 295.898C356.846 292.019 356.234 288.14 356.234 283.649C356.234 279.567 357.051 277.117 358.48 273.442C359.704 270.585 359.092 266.502 359.092 263.236C359.092 256.907 362.358 248.538 355.418 245.067C351.131 243.026 346.844 241.189 342.965 238.739C339.29 236.29 336.024 233.84 336.024 229.145C336.024 226.083 335.82 220.163 334.187 217.305C333.575 216.284 333.167 213.834 333.167 212.61C332.962 210.772 330.717 209.752 330.309 207.915C328.675 200.157 314.794 200.974 308.262 200.974C304.383 200.974 300.505 200.974 296.626 200.974C295.197 200.974 293.155 201.382 291.931 200.77C290.706 200.157 288.869 198.32 287.848 198.116C284.99 197.299 284.582 193.829 284.582 191.175C284.582 189.746 283.561 186.684 282.336 185.868C281.316 185.255 281.111 182.397 280.907 180.968C280.295 177.906 277.437 175.253 277.233 171.986C276.825 166.27 280.295 166.679 284.582 165.25C288.052 164.025 286.623 156.676 286.623 153.818C286.623 149.531 283.561 147.694 282.949 143.611C282.745 142.591 280.703 139.937 280.091 138.916C279.07 137.283 278.254 135.854 277.437 134.221C276.62 132.792 275.192 131.363 275.192 129.526C275.192 127.28 272.538 127.893 272.334 126.055C272.129 122.993 263.352 121.973 260.698 121.973C257.432 121.973 251.716 122.993 249.062 121.156" stroke="#2FAD56" stroke-width="10" stroke-linecap="round"/>
<path d="M21.8559 188.114C20.6311 184.031 19.4062 180.969 17.3648 177.499C16.5483 176.07 15.3234 175.457 14.5069 174.028C12.8738 170.966 13.4862 167.292 12.0572 164.434C10.4241 161.168 9.40349 157.698 12.2614 154.84C14.5069 152.594 18.5896 148.307 19.6103 145.449C21.2434 140.958 23.0807 137.284 24.1013 132.385C24.9179 127.894 25.5303 123.402 25.5303 118.707C25.5303 111.971 24.7138 104.418 26.9593 98.2936C27.7759 95.844 28.7965 89.7199 26.7551 87.4744C23.4889 83.7999 23.4889 77.6757 20.0186 74.0012C18.5896 72.3682 17.5689 69.102 16.5482 67.0607C15.5276 64.8152 13.6903 63.1821 12.4655 60.9365C10.0159 56.6497 7.77035 53.1793 6.34139 48.4841C4.50415 42.5641 8.38278 41.5435 13.8945 41.5435C16.14 41.5435 17.3648 40.1145 19.6103 40.1145C23.0806 40.1145 25.9386 38.6856 29.2048 38.6856C35.533 38.6856 41.6571 32.5614 46.5564 28.6828C52.2723 24.1918 58.1922 20.9257 64.9288 18.0678C72.8901 14.5974 82.6887 12.5561 91.4666 11.9436C95.3452 11.7395 99.8361 11.7395 103.919 10.923C108.206 10.1064 112.493 8.47326 116.984 8.06499C119.433 7.86085 121.475 8.47331 123.516 6.84021C124.945 5.81953 127.395 5.00293 129.232 5.00293C132.294 5.00293 132.294 16.0264 132.294 18.6801C132.294 25.0084 134.539 30.9284 134.539 37.0525C134.539 41.5435 134.335 48.8924 135.764 53.1792C136.785 56.2413 136.173 59.9159 137.397 62.9779C138.214 65.0193 139.031 66.8565 139.235 69.102C139.439 71.3475 141.684 75.4302 142.705 77.4716C143.93 79.9212 145.359 81.5543 146.788 83.5957C147.4 84.6164 151.279 86.0454 152.708 86.6578C156.178 88.2909 161.077 86.862 164.139 88.4951C165.364 89.1075 168.426 89.9239 169.855 90.3322C171.692 90.7405 173.53 91.5571 175.367 92.1695C179.654 93.5985 187.411 95.0274 190.473 98.4977C192.923 101.356 199.047 98.9061 202.313 100.743C206.396 102.989 210.07 105.234 214.153 107.48C218.032 109.317 220.889 108.5 224.156 111.358C227.218 114.216 233.138 115.033 236.2 118.095C237.016 118.911 237.22 120.953 239.058 120.953C241.507 120.953 243.14 122.382 245.59 122.382" stroke="#F9C00D" stroke-width="10" stroke-linecap="round"/>
<path d="M54.3157 409.807C56.357 409.602 57.5819 396.946 57.5819 394.7C57.5819 391.23 54.3157 383.473 51.6619 381.227C50.4371 380.207 49.2122 368.775 49.2122 366.938C49.2122 362.243 46.1502 356.935 45.9461 352.648C45.3337 341.421 33.4937 337.95 30.8399 328.356C28.3903 319.986 31.6564 306.921 35.535 298.96C38.8012 292.428 37.1682 290.795 33.902 285.487C32.2689 282.833 28.5944 284.058 26.7572 281.2C25.1241 278.546 25.7365 274.26 25.7365 271.197C25.7365 268.135 19.2041 258.337 16.5503 256.295C13.6924 254.05 9.40549 248.538 8.99721 245.272C7.56825 233.228 3.07729 228.329 14.9172 219.142C22.062 213.631 31.6565 199.137 24.1034 191.584" stroke="#E63E43" stroke-width="10" stroke-linecap="round"/>
<path d="M54.5159 411.236C56.9655 411.236 59.4151 410.419 61.4565 409.194C62.6813 408.378 65.131 408.786 66.3558 408.378C68.3972 407.969 69.8262 407.153 71.8675 406.336C72.8882 405.928 75.9502 404.499 76.3584 403.478C77.9915 400.825 81.4619 398.783 83.7074 396.742C86.1571 394.496 87.3818 390.822 89.6273 388.372C93.7101 383.677 97.3846 379.594 101.059 374.695C102.896 372.449 104.121 370.816 106.367 368.979C108.408 367.346 113.103 371.429 113.511 372.858C113.511 373.062 116.573 375.103 117.186 375.716C118.207 376.736 120.044 377.757 121.473 378.37C124.535 380.003 128.005 381.023 131.271 382.86C132.904 383.677 134.129 384.289 135.762 384.902C137.396 385.31 139.845 385.106 140.866 386.127C142.703 387.76 146.582 386.127 147.602 389.597C148.215 392.047 151.889 393.476 152.502 395.721C153.114 397.763 159.034 398.171 161.075 397.763C163.729 397.15 165.566 393.476 167.199 391.434C168.833 389.189 171.282 386.943 173.324 385.106C177.61 381.227 181.693 376.94 186.592 374.083C192.104 371.021 197.616 379.39 201.086 382.452C202.515 383.677 205.577 386.127 207.619 386.331C209.048 386.331 210.885 384.902 211.293 383.677C211.497 383.065 212.518 380.003 212.722 379.594C213.13 379.39 213.539 376.532 213.539 376.124C213.539 374.287 214.559 373.062 214.763 371.225C214.968 368.367 215.784 364.896 216.601 362.243C218.234 356.527 218.438 350.811 218.438 344.891C218.438 341.217 219.663 336.521 221.5 333.459C222.317 332.235 223.337 330.806 223.337 329.377C223.337 328.764 225.174 325.702 225.379 325.498C225.991 324.886 227.012 321.619 227.624 320.599C228.645 318.761 229.87 317.128 231.503 315.903C234.565 313.454 236.81 310.392 240.281 308.759C246.609 305.697 250.896 303.451 258.04 303.451" stroke="#4086F7" stroke-width="10" stroke-linecap="round"/>
</svg>
