<svg width="1440" height="802" viewBox="0 0 1440 802" fill="none" xmlns="http://www.w3.org/2000/svg">
    <g opacity="0.1">
        <rect width="2318" height="800" transform="translate(-439 1)" fill="white"/>
        <path d="M-339 51C-339 78.6142 -361.386 101 -389 101C-416.614 101 -439 78.6142 -439 51C-439 23.3858 -416.614 1 -389 1C-361.386 1 -339 23.3858 -339 51ZM-339 51C-339 78.6142 -316.614 101 -289 101C-261.386 101 -239 78.6142 -239 51M-339 51C-339 23.3858 -316.614 1 -289 1C-261.386 1 -239 23.3858 -239 51M-339 1H-439V101H-339M-339 1V101M-339 1H-239M-339 101H-239M-439 50.5H661M-389.5 101V1M-239 51C-239 78.6142 -216.614 101 -189 101C-161.386 101 -139 78.6142 -139 51M-239 51C-239 23.3858 -216.614 1 -189 1C-161.386 1 -139 23.3858 -139 51M-239 1V101M-239 1H-139M-239 101H-139M-289.5 101V1M-139 51C-139 78.6142 -116.614 101 -89 101C-61.3858 101 -39 78.6142 -39 51M-139 51C-139 23.3858 -116.614 1 -89 1C-61.3858 1 -39 23.3858 -39 51M-139 1V101M-139 1H-39M-139 101H-39M-189.5 101V1M-39 51C-39 78.6142 -16.6142 101 11 101C38.6142 101 61 78.6142 61 51M-39 51C-39 23.3858 -16.6142 1 11 1C38.6142 1 61 23.3858 61 51M-39 1V101M-39 1H61M-39 101H61M-89.5 101V1M61 51C61 78.6142 83.3858 101 111 101C138.614 101 161 78.6142 161 51M61 51C61 23.3858 83.3858 1 111 1C138.614 1 161 23.3858 161 51M61 1V101M61 1H161M61 101H161M10.5 101V1M161 51C161 78.6142 183.386 101 211 101C238.614 101 261 78.6142 261 51M161 51C161 23.3858 183.386 1 211 1C238.614 1 261 23.3858 261 51M161 1V101M161 1H261M161 101H261M110.5 101V1M261 51C261 78.6142 283.386 101 311 101C338.614 101 361 78.6142 361 51M261 51C261 23.3858 283.386 1 311 1C338.614 1 361 23.3858 361 51M261 1V101M261 1H361M261 101H361M210.5 101V1M361 51C361 78.6142 383.386 101 411 101C438.614 101 461 78.6142 461 51M361 51C361 23.3858 383.386 1 411 1C438.614 1 461 23.3858 461 51M361 1V101M361 1H461M361 101H461M310.5 101V1M461 51C461 78.6142 483.386 101 511 101C538.614 101 561 78.6142 561 51M461 51C461 23.3858 483.386 1 511 1C538.614 1 561 23.3858 561 51M461 1V101M461 1H561M461 101H561M410.5 101V1M561 51C561 78.6142 583.386 101 611 101C638.614 101 661 78.6142 661 51C661 23.3858 638.614 1 611 1C583.386 1 561 23.3858 561 51ZM561 1V101M561 1H661V101H561M510.5 101V1M610.5 101V1" stroke="black"/>
        <path d="M761 51C761 78.6142 738.614 101 711 101C683.386 101 661 78.6142 661 51C661 23.3858 683.386 1 711 1C738.614 1 761 23.3858 761 51ZM761 51C761 78.6142 783.386 101 811 101C838.614 101 861 78.6142 861 51M761 51C761 23.3858 783.386 1 811 1C838.614 1 861 23.3858 861 51M761 1H661V101H761M761 1V101M761 1H861M761 101H861M661 50.5H1761M710.5 101V1M861 51C861 78.6142 883.386 101 911 101C938.614 101 961 78.6142 961 51M861 51C861 23.3858 883.386 1 911 1C938.614 1 961 23.3858 961 51M861 1V101M861 1H961M861 101H961M810.5 101V1M961 51C961 78.6142 983.386 101 1011 101C1038.61 101 1061 78.6142 1061 51M961 51C961 23.3858 983.386 1 1011 1C1038.61 1 1061 23.3858 1061 51M961 1V101M961 1H1061M961 101H1061M910.5 101V1M1061 51C1061 78.6142 1083.39 101 1111 101C1138.61 101 1161 78.6142 1161 51M1061 51C1061 23.3858 1083.39 1 1111 1C1138.61 1 1161 23.3858 1161 51M1061 1V101M1061 1H1161M1061 101H1161M1010.5 101V1M1161 51C1161 78.6142 1183.39 101 1211 101C1238.61 101 1261 78.6142 1261 51M1161 51C1161 23.3858 1183.39 1 1211 1C1238.61 1 1261 23.3858 1261 51M1161 1V101M1161 1H1261M1161 101H1261M1110.5 101V1M1261 51C1261 78.6142 1283.39 101 1311 101C1338.61 101 1361 78.6142 1361 51M1261 51C1261 23.3858 1283.39 1 1311 1C1338.61 1 1361 23.3858 1361 51M1261 1V101M1261 1H1361M1261 101H1361M1210.5 101V1M1361 51C1361 78.6142 1383.39 101 1411 101C1438.61 101 1461 78.6142 1461 51M1361 51C1361 23.3858 1383.39 1 1411 1C1438.61 1 1461 23.3858 1461 51M1361 1V101M1361 1H1461M1361 101H1461M1310.5 101V1M1461 51C1461 78.6142 1483.39 101 1511 101C1538.61 101 1561 78.6142 1561 51M1461 51C1461 23.3858 1483.39 1 1511 1C1538.61 1 1561 23.3858 1561 51M1461 1V101M1461 1H1561M1461 101H1561M1410.5 101V1M1561 51C1561 78.6142 1583.39 101 1611 101C1638.61 101 1661 78.6142 1661 51M1561 51C1561 23.3858 1583.39 1 1611 1C1638.61 1 1661 23.3858 1661 51M1561 1V101M1561 1H1661M1561 101H1661M1510.5 101V1M1661 51C1661 78.6142 1683.39 101 1711 101C1738.61 101 1761 78.6142 1761 51C1761 23.3858 1738.61 1 1711 1C1683.39 1 1661 23.3858 1661 51ZM1661 1V101M1661 1H1761V101H1661M1610.5 101V1M1710.5 101V1" stroke="black"/>
        <path d="M-339 151C-339 178.614 -361.386 201 -389 201C-416.614 201 -439 178.614 -439 151C-439 123.386 -416.614 101 -389 101C-361.386 101 -339 123.386 -339 151ZM-339 151C-339 178.614 -316.614 201 -289 201C-261.386 201 -239 178.614 -239 151M-339 151C-339 123.386 -316.614 101 -289 101C-261.386 101 -239 123.386 -239 151M-339 101H-439V201H-339M-339 101V201M-339 101H-239M-339 201H-239M-439 150.5H661M-389.5 201V101M-239 151C-239 178.614 -216.614 201 -189 201C-161.386 201 -139 178.614 -139 151M-239 151C-239 123.386 -216.614 101 -189 101C-161.386 101 -139 123.386 -139 151M-239 101V201M-239 101H-139M-239 201H-139M-289.5 201V101M-139 151C-139 178.614 -116.614 201 -89 201C-61.3858 201 -39 178.614 -39 151M-139 151C-139 123.386 -116.614 101 -89 101C-61.3858 101 -39 123.386 -39 151M-139 101V201M-139 101H-39M-139 201H-39M-189.5 201V101M-39 151C-39 178.614 -16.6142 201 11 201C38.6142 201 61 178.614 61 151M-39 151C-39 123.386 -16.6142 101 11 101C38.6142 101 61 123.386 61 151M-39 101V201M-39 101H61M-39 201H61M-89.5 201V101M61 151C61 178.614 83.3858 201 111 201C138.614 201 161 178.614 161 151M61 151C61 123.386 83.3858 101 111 101C138.614 101 161 123.386 161 151M61 101V201M61 101H161M61 201H161M10.5 201V101M161 151C161 178.614 183.386 201 211 201C238.614 201 261 178.614 261 151M161 151C161 123.386 183.386 101 211 101C238.614 101 261 123.386 261 151M161 101V201M161 101H261M161 201H261M110.5 201V101M261 151C261 178.614 283.386 201 311 201C338.614 201 361 178.614 361 151M261 151C261 123.386 283.386 101 311 101C338.614 101 361 123.386 361 151M261 101V201M261 101H361M261 201H361M210.5 201V101M361 151C361 178.614 383.386 201 411 201C438.614 201 461 178.614 461 151M361 151C361 123.386 383.386 101 411 101C438.614 101 461 123.386 461 151M361 101V201M361 101H461M361 201H461M310.5 201V101M461 151C461 178.614 483.386 201 511 201C538.614 201 561 178.614 561 151M461 151C461 123.386 483.386 101 511 101C538.614 101 561 123.386 561 151M461 101V201M461 101H561M461 201H561M410.5 201V101M561 151C561 178.614 583.386 201 611 201C638.614 201 661 178.614 661 151C661 123.386 638.614 101 611 101C583.386 101 561 123.386 561 151ZM561 101V201M561 101H661V201H561M510.5 201V101M610.5 201V101" stroke="black"/>
        <path d="M761 151C761 178.614 738.614 201 711 201C683.386 201 661 178.614 661 151C661 123.386 683.386 101 711 101C738.614 101 761 123.386 761 151ZM761 151C761 178.614 783.386 201 811 201C838.614 201 861 178.614 861 151M761 151C761 123.386 783.386 101 811 101C838.614 101 861 123.386 861 151M761 101H661V201H761M761 101V201M761 101H861M761 201H861M661 150.5H1761M710.5 201V101M861 151C861 178.614 883.386 201 911 201C938.614 201 961 178.614 961 151M861 151C861 123.386 883.386 101 911 101C938.614 101 961 123.386 961 151M861 101V201M861 101H961M861 201H961M810.5 201V101M961 151C961 178.614 983.386 201 1011 201C1038.61 201 1061 178.614 1061 151M961 151C961 123.386 983.386 101 1011 101C1038.61 101 1061 123.386 1061 151M961 101V201M961 101H1061M961 201H1061M910.5 201V101M1061 151C1061 178.614 1083.39 201 1111 201C1138.61 201 1161 178.614 1161 151M1061 151C1061 123.386 1083.39 101 1111 101C1138.61 101 1161 123.386 1161 151M1061 101V201M1061 101H1161M1061 201H1161M1010.5 201V101M1161 151C1161 178.614 1183.39 201 1211 201C1238.61 201 1261 178.614 1261 151M1161 151C1161 123.386 1183.39 101 1211 101C1238.61 101 1261 123.386 1261 151M1161 101V201M1161 101H1261M1161 201H1261M1110.5 201V101M1261 151C1261 178.614 1283.39 201 1311 201C1338.61 201 1361 178.614 1361 151M1261 151C1261 123.386 1283.39 101 1311 101C1338.61 101 1361 123.386 1361 151M1261 101V201M1261 101H1361M1261 201H1361M1210.5 201V101M1361 151C1361 178.614 1383.39 201 1411 201C1438.61 201 1461 178.614 1461 151M1361 151C1361 123.386 1383.39 101 1411 101C1438.61 101 1461 123.386 1461 151M1361 101V201M1361 101H1461M1361 201H1461M1310.5 201V101M1461 151C1461 178.614 1483.39 201 1511 201C1538.61 201 1561 178.614 1561 151M1461 151C1461 123.386 1483.39 101 1511 101C1538.61 101 1561 123.386 1561 151M1461 101V201M1461 101H1561M1461 201H1561M1410.5 201V101M1561 151C1561 178.614 1583.39 201 1611 201C1638.61 201 1661 178.614 1661 151M1561 151C1561 123.386 1583.39 101 1611 101C1638.61 101 1661 123.386 1661 151M1561 101V201M1561 101H1661M1561 201H1661M1510.5 201V101M1661 151C1661 178.614 1683.39 201 1711 201C1738.61 201 1761 178.614 1761 151C1761 123.386 1738.61 101 1711 101C1683.39 101 1661 123.386 1661 151ZM1661 101V201M1661 101H1761V201H1661M1610.5 201V101M1710.5 201V101" stroke="black"/>
        <path d="M-339 251C-339 278.614 -361.386 301 -389 301C-416.614 301 -439 278.614 -439 251C-439 223.386 -416.614 201 -389 201C-361.386 201 -339 223.386 -339 251ZM-339 251C-339 278.614 -316.614 301 -289 301C-261.386 301 -239 278.614 -239 251M-339 251C-339 223.386 -316.614 201 -289 201C-261.386 201 -239 223.386 -239 251M-339 201H-439V301H-339M-339 201V301M-339 201H-239M-339 301H-239M-439 250.5H661M-389.5 301V201M-239 251C-239 278.614 -216.614 301 -189 301C-161.386 301 -139 278.614 -139 251M-239 251C-239 223.386 -216.614 201 -189 201C-161.386 201 -139 223.386 -139 251M-239 201V301M-239 201H-139M-239 301H-139M-289.5 301V201M-139 251C-139 278.614 -116.614 301 -89 301C-61.3858 301 -39 278.614 -39 251M-139 251C-139 223.386 -116.614 201 -89 201C-61.3858 201 -39 223.386 -39 251M-139 201V301M-139 201H-39M-139 301H-39M-189.5 301V201M-39 251C-39 278.614 -16.6142 301 11 301C38.6142 301 61 278.614 61 251M-39 251C-39 223.386 -16.6142 201 11 201C38.6142 201 61 223.386 61 251M-39 201V301M-39 201H61M-39 301H61M-89.5 301V201M61 251C61 278.614 83.3858 301 111 301C138.614 301 161 278.614 161 251M61 251C61 223.386 83.3858 201 111 201C138.614 201 161 223.386 161 251M61 201V301M61 201H161M61 301H161M10.5 301V201M161 251C161 278.614 183.386 301 211 301C238.614 301 261 278.614 261 251M161 251C161 223.386 183.386 201 211 201C238.614 201 261 223.386 261 251M161 201V301M161 201H261M161 301H261M110.5 301V201M261 251C261 278.614 283.386 301 311 301C338.614 301 361 278.614 361 251M261 251C261 223.386 283.386 201 311 201C338.614 201 361 223.386 361 251M261 201V301M261 201H361M261 301H361M210.5 301V201M361 251C361 278.614 383.386 301 411 301C438.614 301 461 278.614 461 251M361 251C361 223.386 383.386 201 411 201C438.614 201 461 223.386 461 251M361 201V301M361 201H461M361 301H461M310.5 301V201M461 251C461 278.614 483.386 301 511 301C538.614 301 561 278.614 561 251M461 251C461 223.386 483.386 201 511 201C538.614 201 561 223.386 561 251M461 201V301M461 201H561M461 301H561M410.5 301V201M561 251C561 278.614 583.386 301 611 301C638.614 301 661 278.614 661 251C661 223.386 638.614 201 611 201C583.386 201 561 223.386 561 251ZM561 201V301M561 201H661V301H561M510.5 301V201M610.5 301V201" stroke="black"/>
        <path d="M761 251C761 278.614 738.614 301 711 301C683.386 301 661 278.614 661 251C661 223.386 683.386 201 711 201C738.614 201 761 223.386 761 251ZM761 251C761 278.614 783.386 301 811 301C838.614 301 861 278.614 861 251M761 251C761 223.386 783.386 201 811 201C838.614 201 861 223.386 861 251M761 201H661V301H761M761 201V301M761 201H861M761 301H861M661 250.5H1761M710.5 301V201M861 251C861 278.614 883.386 301 911 301C938.614 301 961 278.614 961 251M861 251C861 223.386 883.386 201 911 201C938.614 201 961 223.386 961 251M861 201V301M861 201H961M861 301H961M810.5 301V201M961 251C961 278.614 983.386 301 1011 301C1038.61 301 1061 278.614 1061 251M961 251C961 223.386 983.386 201 1011 201C1038.61 201 1061 223.386 1061 251M961 201V301M961 201H1061M961 301H1061M910.5 301V201M1061 251C1061 278.614 1083.39 301 1111 301C1138.61 301 1161 278.614 1161 251M1061 251C1061 223.386 1083.39 201 1111 201C1138.61 201 1161 223.386 1161 251M1061 201V301M1061 201H1161M1061 301H1161M1010.5 301V201M1161 251C1161 278.614 1183.39 301 1211 301C1238.61 301 1261 278.614 1261 251M1161 251C1161 223.386 1183.39 201 1211 201C1238.61 201 1261 223.386 1261 251M1161 201V301M1161 201H1261M1161 301H1261M1110.5 301V201M1261 251C1261 278.614 1283.39 301 1311 301C1338.61 301 1361 278.614 1361 251M1261 251C1261 223.386 1283.39 201 1311 201C1338.61 201 1361 223.386 1361 251M1261 201V301M1261 201H1361M1261 301H1361M1210.5 301V201M1361 251C1361 278.614 1383.39 301 1411 301C1438.61 301 1461 278.614 1461 251M1361 251C1361 223.386 1383.39 201 1411 201C1438.61 201 1461 223.386 1461 251M1361 201V301M1361 201H1461M1361 301H1461M1310.5 301V201M1461 251C1461 278.614 1483.39 301 1511 301C1538.61 301 1561 278.614 1561 251M1461 251C1461 223.386 1483.39 201 1511 201C1538.61 201 1561 223.386 1561 251M1461 201V301M1461 201H1561M1461 301H1561M1410.5 301V201M1561 251C1561 278.614 1583.39 301 1611 301C1638.61 301 1661 278.614 1661 251M1561 251C1561 223.386 1583.39 201 1611 201C1638.61 201 1661 223.386 1661 251M1561 201V301M1561 201H1661M1561 301H1661M1510.5 301V201M1661 251C1661 278.614 1683.39 301 1711 301C1738.61 301 1761 278.614 1761 251C1761 223.386 1738.61 201 1711 201C1683.39 201 1661 223.386 1661 251ZM1661 201V301M1661 201H1761V301H1661M1610.5 301V201M1710.5 301V201" stroke="black"/>
        <path d="M-339 351C-339 378.614 -361.386 401 -389 401C-416.614 401 -439 378.614 -439 351C-439 323.386 -416.614 301 -389 301C-361.386 301 -339 323.386 -339 351ZM-339 351C-339 378.614 -316.614 401 -289 401C-261.386 401 -239 378.614 -239 351M-339 351C-339 323.386 -316.614 301 -289 301C-261.386 301 -239 323.386 -239 351M-339 301H-439V401H-339M-339 301V401M-339 301H-239M-339 401H-239M-439 350.5H661M-389.5 401V301M-239 351C-239 378.614 -216.614 401 -189 401C-161.386 401 -139 378.614 -139 351M-239 351C-239 323.386 -216.614 301 -189 301C-161.386 301 -139 323.386 -139 351M-239 301V401M-239 301H-139M-239 401H-139M-289.5 401V301M-139 351C-139 378.614 -116.614 401 -89 401C-61.3858 401 -39 378.614 -39 351M-139 351C-139 323.386 -116.614 301 -89 301C-61.3858 301 -39 323.386 -39 351M-139 301V401M-139 301H-39M-139 401H-39M-189.5 401V301M-39 351C-39 378.614 -16.6142 401 11 401C38.6142 401 61 378.614 61 351M-39 351C-39 323.386 -16.6142 301 11 301C38.6142 301 61 323.386 61 351M-39 301V401M-39 301H61M-39 401H61M-89.5 401V301M61 351C61 378.614 83.3858 401 111 401C138.614 401 161 378.614 161 351M61 351C61 323.386 83.3858 301 111 301C138.614 301 161 323.386 161 351M61 301V401M61 301H161M61 401H161M10.5 401V301M161 351C161 378.614 183.386 401 211 401C238.614 401 261 378.614 261 351M161 351C161 323.386 183.386 301 211 301C238.614 301 261 323.386 261 351M161 301V401M161 301H261M161 401H261M110.5 401V301M261 351C261 378.614 283.386 401 311 401C338.614 401 361 378.614 361 351M261 351C261 323.386 283.386 301 311 301C338.614 301 361 323.386 361 351M261 301V401M261 301H361M261 401H361M210.5 401V301M361 351C361 378.614 383.386 401 411 401C438.614 401 461 378.614 461 351M361 351C361 323.386 383.386 301 411 301C438.614 301 461 323.386 461 351M361 301V401M361 301H461M361 401H461M310.5 401V301M461 351C461 378.614 483.386 401 511 401C538.614 401 561 378.614 561 351M461 351C461 323.386 483.386 301 511 301C538.614 301 561 323.386 561 351M461 301V401M461 301H561M461 401H561M410.5 401V301M561 351C561 378.614 583.386 401 611 401C638.614 401 661 378.614 661 351C661 323.386 638.614 301 611 301C583.386 301 561 323.386 561 351ZM561 301V401M561 301H661V401H561M510.5 401V301M610.5 401V301" stroke="black"/>
        <path d="M761 351C761 378.614 738.614 401 711 401C683.386 401 661 378.614 661 351C661 323.386 683.386 301 711 301C738.614 301 761 323.386 761 351ZM761 351C761 378.614 783.386 401 811 401C838.614 401 861 378.614 861 351M761 351C761 323.386 783.386 301 811 301C838.614 301 861 323.386 861 351M761 301H661V401H761M761 301V401M761 301H861M761 401H861M661 350.5H1761M710.5 401V301M861 351C861 378.614 883.386 401 911 401C938.614 401 961 378.614 961 351M861 351C861 323.386 883.386 301 911 301C938.614 301 961 323.386 961 351M861 301V401M861 301H961M861 401H961M810.5 401V301M961 351C961 378.614 983.386 401 1011 401C1038.61 401 1061 378.614 1061 351M961 351C961 323.386 983.386 301 1011 301C1038.61 301 1061 323.386 1061 351M961 301V401M961 301H1061M961 401H1061M910.5 401V301M1061 351C1061 378.614 1083.39 401 1111 401C1138.61 401 1161 378.614 1161 351M1061 351C1061 323.386 1083.39 301 1111 301C1138.61 301 1161 323.386 1161 351M1061 301V401M1061 301H1161M1061 401H1161M1010.5 401V301M1161 351C1161 378.614 1183.39 401 1211 401C1238.61 401 1261 378.614 1261 351M1161 351C1161 323.386 1183.39 301 1211 301C1238.61 301 1261 323.386 1261 351M1161 301V401M1161 301H1261M1161 401H1261M1110.5 401V301M1261 351C1261 378.614 1283.39 401 1311 401C1338.61 401 1361 378.614 1361 351M1261 351C1261 323.386 1283.39 301 1311 301C1338.61 301 1361 323.386 1361 351M1261 301V401M1261 301H1361M1261 401H1361M1210.5 401V301M1361 351C1361 378.614 1383.39 401 1411 401C1438.61 401 1461 378.614 1461 351M1361 351C1361 323.386 1383.39 301 1411 301C1438.61 301 1461 323.386 1461 351M1361 301V401M1361 301H1461M1361 401H1461M1310.5 401V301M1461 351C1461 378.614 1483.39 401 1511 401C1538.61 401 1561 378.614 1561 351M1461 351C1461 323.386 1483.39 301 1511 301C1538.61 301 1561 323.386 1561 351M1461 301V401M1461 301H1561M1461 401H1561M1410.5 401V301M1561 351C1561 378.614 1583.39 401 1611 401C1638.61 401 1661 378.614 1661 351M1561 351C1561 323.386 1583.39 301 1611 301C1638.61 301 1661 323.386 1661 351M1561 301V401M1561 301H1661M1561 401H1661M1510.5 401V301M1661 351C1661 378.614 1683.39 401 1711 401C1738.61 401 1761 378.614 1761 351C1761 323.386 1738.61 301 1711 301C1683.39 301 1661 323.386 1661 351ZM1661 301V401M1661 301H1761V401H1661M1610.5 401V301M1710.5 401V301" stroke="black"/>
        <path d="M-339 451C-339 478.614 -361.386 501 -389 501C-416.614 501 -439 478.614 -439 451C-439 423.386 -416.614 401 -389 401C-361.386 401 -339 423.386 -339 451ZM-339 451C-339 478.614 -316.614 501 -289 501C-261.386 501 -239 478.614 -239 451M-339 451C-339 423.386 -316.614 401 -289 401C-261.386 401 -239 423.386 -239 451M-339 401H-439V501H-339M-339 401V501M-339 401H-239M-339 501H-239M-439 450.5H661M-389.5 501V401M-239 451C-239 478.614 -216.614 501 -189 501C-161.386 501 -139 478.614 -139 451M-239 451C-239 423.386 -216.614 401 -189 401C-161.386 401 -139 423.386 -139 451M-239 401V501M-239 401H-139M-239 501H-139M-289.5 501V401M-139 451C-139 478.614 -116.614 501 -89 501C-61.3858 501 -39 478.614 -39 451M-139 451C-139 423.386 -116.614 401 -89 401C-61.3858 401 -39 423.386 -39 451M-139 401V501M-139 401H-39M-139 501H-39M-189.5 501V401M-39 451C-39 478.614 -16.6142 501 11 501C38.6142 501 61 478.614 61 451M-39 451C-39 423.386 -16.6142 401 11 401C38.6142 401 61 423.386 61 451M-39 401V501M-39 401H61M-39 501H61M-89.5 501V401M61 451C61 478.614 83.3858 501 111 501C138.614 501 161 478.614 161 451M61 451C61 423.386 83.3858 401 111 401C138.614 401 161 423.386 161 451M61 401V501M61 401H161M61 501H161M10.5 501V401M161 451C161 478.614 183.386 501 211 501C238.614 501 261 478.614 261 451M161 451C161 423.386 183.386 401 211 401C238.614 401 261 423.386 261 451M161 401V501M161 401H261M161 501H261M110.5 501V401M261 451C261 478.614 283.386 501 311 501C338.614 501 361 478.614 361 451M261 451C261 423.386 283.386 401 311 401C338.614 401 361 423.386 361 451M261 401V501M261 401H361M261 501H361M210.5 501V401M361 451C361 478.614 383.386 501 411 501C438.614 501 461 478.614 461 451M361 451C361 423.386 383.386 401 411 401C438.614 401 461 423.386 461 451M361 401V501M361 401H461M361 501H461M310.5 501V401M461 451C461 478.614 483.386 501 511 501C538.614 501 561 478.614 561 451M461 451C461 423.386 483.386 401 511 401C538.614 401 561 423.386 561 451M461 401V501M461 401H561M461 501H561M410.5 501V401M561 451C561 478.614 583.386 501 611 501C638.614 501 661 478.614 661 451C661 423.386 638.614 401 611 401C583.386 401 561 423.386 561 451ZM561 401V501M561 401H661V501H561M510.5 501V401M610.5 501V401" stroke="black"/>
        <path d="M761 451C761 478.614 738.614 501 711 501C683.386 501 661 478.614 661 451C661 423.386 683.386 401 711 401C738.614 401 761 423.386 761 451ZM761 451C761 478.614 783.386 501 811 501C838.614 501 861 478.614 861 451M761 451C761 423.386 783.386 401 811 401C838.614 401 861 423.386 861 451M761 401H661V501H761M761 401V501M761 401H861M761 501H861M661 450.5H1761M710.5 501V401M861 451C861 478.614 883.386 501 911 501C938.614 501 961 478.614 961 451M861 451C861 423.386 883.386 401 911 401C938.614 401 961 423.386 961 451M861 401V501M861 401H961M861 501H961M810.5 501V401M961 451C961 478.614 983.386 501 1011 501C1038.61 501 1061 478.614 1061 451M961 451C961 423.386 983.386 401 1011 401C1038.61 401 1061 423.386 1061 451M961 401V501M961 401H1061M961 501H1061M910.5 501V401M1061 451C1061 478.614 1083.39 501 1111 501C1138.61 501 1161 478.614 1161 451M1061 451C1061 423.386 1083.39 401 1111 401C1138.61 401 1161 423.386 1161 451M1061 401V501M1061 401H1161M1061 501H1161M1010.5 501V401M1161 451C1161 478.614 1183.39 501 1211 501C1238.61 501 1261 478.614 1261 451M1161 451C1161 423.386 1183.39 401 1211 401C1238.61 401 1261 423.386 1261 451M1161 401V501M1161 401H1261M1161 501H1261M1110.5 501V401M1261 451C1261 478.614 1283.39 501 1311 501C1338.61 501 1361 478.614 1361 451M1261 451C1261 423.386 1283.39 401 1311 401C1338.61 401 1361 423.386 1361 451M1261 401V501M1261 401H1361M1261 501H1361M1210.5 501V401M1361 451C1361 478.614 1383.39 501 1411 501C1438.61 501 1461 478.614 1461 451M1361 451C1361 423.386 1383.39 401 1411 401C1438.61 401 1461 423.386 1461 451M1361 401V501M1361 401H1461M1361 501H1461M1310.5 501V401M1461 451C1461 478.614 1483.39 501 1511 501C1538.61 501 1561 478.614 1561 451M1461 451C1461 423.386 1483.39 401 1511 401C1538.61 401 1561 423.386 1561 451M1461 401V501M1461 401H1561M1461 501H1561M1410.5 501V401M1561 451C1561 478.614 1583.39 501 1611 501C1638.61 501 1661 478.614 1661 451M1561 451C1561 423.386 1583.39 401 1611 401C1638.61 401 1661 423.386 1661 451M1561 401V501M1561 401H1661M1561 501H1661M1510.5 501V401M1661 451C1661 478.614 1683.39 501 1711 501C1738.61 501 1761 478.614 1761 451C1761 423.386 1738.61 401 1711 401C1683.39 401 1661 423.386 1661 451ZM1661 401V501M1661 401H1761V501H1661M1610.5 501V401M1710.5 501V401" stroke="black"/>
        <path d="M-339 551C-339 578.614 -361.386 601 -389 601C-416.614 601 -439 578.614 -439 551C-439 523.386 -416.614 501 -389 501C-361.386 501 -339 523.386 -339 551ZM-339 551C-339 578.614 -316.614 601 -289 601C-261.386 601 -239 578.614 -239 551M-339 551C-339 523.386 -316.614 501 -289 501C-261.386 501 -239 523.386 -239 551M-339 501H-439V601H-339M-339 501V601M-339 501H-239M-339 601H-239M-439 550.5H661M-389.5 601V501M-239 551C-239 578.614 -216.614 601 -189 601C-161.386 601 -139 578.614 -139 551M-239 551C-239 523.386 -216.614 501 -189 501C-161.386 501 -139 523.386 -139 551M-239 501V601M-239 501H-139M-239 601H-139M-289.5 601V501M-139 551C-139 578.614 -116.614 601 -89 601C-61.3858 601 -39 578.614 -39 551M-139 551C-139 523.386 -116.614 501 -89 501C-61.3858 501 -39 523.386 -39 551M-139 501V601M-139 501H-39M-139 601H-39M-189.5 601V501M-39 551C-39 578.614 -16.6142 601 11 601C38.6142 601 61 578.614 61 551M-39 551C-39 523.386 -16.6142 501 11 501C38.6142 501 61 523.386 61 551M-39 501V601M-39 501H61M-39 601H61M-89.5 601V501M61 551C61 578.614 83.3858 601 111 601C138.614 601 161 578.614 161 551M61 551C61 523.386 83.3858 501 111 501C138.614 501 161 523.386 161 551M61 501V601M61 501H161M61 601H161M10.5 601V501M161 551C161 578.614 183.386 601 211 601C238.614 601 261 578.614 261 551M161 551C161 523.386 183.386 501 211 501C238.614 501 261 523.386 261 551M161 501V601M161 501H261M161 601H261M110.5 601V501M261 551C261 578.614 283.386 601 311 601C338.614 601 361 578.614 361 551M261 551C261 523.386 283.386 501 311 501C338.614 501 361 523.386 361 551M261 501V601M261 501H361M261 601H361M210.5 601V501M361 551C361 578.614 383.386 601 411 601C438.614 601 461 578.614 461 551M361 551C361 523.386 383.386 501 411 501C438.614 501 461 523.386 461 551M361 501V601M361 501H461M361 601H461M310.5 601V501M461 551C461 578.614 483.386 601 511 601C538.614 601 561 578.614 561 551M461 551C461 523.386 483.386 501 511 501C538.614 501 561 523.386 561 551M461 501V601M461 501H561M461 601H561M410.5 601V501M561 551C561 578.614 583.386 601 611 601C638.614 601 661 578.614 661 551C661 523.386 638.614 501 611 501C583.386 501 561 523.386 561 551ZM561 501V601M561 501H661V601H561M510.5 601V501M610.5 601V501" stroke="black"/>
        <path d="M761 551C761 578.614 738.614 601 711 601C683.386 601 661 578.614 661 551C661 523.386 683.386 501 711 501C738.614 501 761 523.386 761 551ZM761 551C761 578.614 783.386 601 811 601C838.614 601 861 578.614 861 551M761 551C761 523.386 783.386 501 811 501C838.614 501 861 523.386 861 551M761 501H661V601H761M761 501V601M761 501H861M761 601H861M661 550.5H1761M710.5 601V501M861 551C861 578.614 883.386 601 911 601C938.614 601 961 578.614 961 551M861 551C861 523.386 883.386 501 911 501C938.614 501 961 523.386 961 551M861 501V601M861 501H961M861 601H961M810.5 601V501M961 551C961 578.614 983.386 601 1011 601C1038.61 601 1061 578.614 1061 551M961 551C961 523.386 983.386 501 1011 501C1038.61 501 1061 523.386 1061 551M961 501V601M961 501H1061M961 601H1061M910.5 601V501M1061 551C1061 578.614 1083.39 601 1111 601C1138.61 601 1161 578.614 1161 551M1061 551C1061 523.386 1083.39 501 1111 501C1138.61 501 1161 523.386 1161 551M1061 501V601M1061 501H1161M1061 601H1161M1010.5 601V501M1161 551C1161 578.614 1183.39 601 1211 601C1238.61 601 1261 578.614 1261 551M1161 551C1161 523.386 1183.39 501 1211 501C1238.61 501 1261 523.386 1261 551M1161 501V601M1161 501H1261M1161 601H1261M1110.5 601V501M1261 551C1261 578.614 1283.39 601 1311 601C1338.61 601 1361 578.614 1361 551M1261 551C1261 523.386 1283.39 501 1311 501C1338.61 501 1361 523.386 1361 551M1261 501V601M1261 501H1361M1261 601H1361M1210.5 601V501M1361 551C1361 578.614 1383.39 601 1411 601C1438.61 601 1461 578.614 1461 551M1361 551C1361 523.386 1383.39 501 1411 501C1438.61 501 1461 523.386 1461 551M1361 501V601M1361 501H1461M1361 601H1461M1310.5 601V501M1461 551C1461 578.614 1483.39 601 1511 601C1538.61 601 1561 578.614 1561 551M1461 551C1461 523.386 1483.39 501 1511 501C1538.61 501 1561 523.386 1561 551M1461 501V601M1461 501H1561M1461 601H1561M1410.5 601V501M1561 551C1561 578.614 1583.39 601 1611 601C1638.61 601 1661 578.614 1661 551M1561 551C1561 523.386 1583.39 501 1611 501C1638.61 501 1661 523.386 1661 551M1561 501V601M1561 501H1661M1561 601H1661M1510.5 601V501M1661 551C1661 578.614 1683.39 601 1711 601C1738.61 601 1761 578.614 1761 551C1761 523.386 1738.61 501 1711 501C1683.39 501 1661 523.386 1661 551ZM1661 501V601M1661 501H1761V601H1661M1610.5 601V501M1710.5 601V501" stroke="black"/>
        <path d="M-339 651C-339 678.614 -361.386 701 -389 701C-416.614 701 -439 678.614 -439 651C-439 623.386 -416.614 601 -389 601C-361.386 601 -339 623.386 -339 651ZM-339 651C-339 678.614 -316.614 701 -289 701C-261.386 701 -239 678.614 -239 651M-339 651C-339 623.386 -316.614 601 -289 601C-261.386 601 -239 623.386 -239 651M-339 601H-439V701H-339M-339 601V701M-339 601H-239M-339 701H-239M-439 650.5H661M-389.5 701V601M-239 651C-239 678.614 -216.614 701 -189 701C-161.386 701 -139 678.614 -139 651M-239 651C-239 623.386 -216.614 601 -189 601C-161.386 601 -139 623.386 -139 651M-239 601V701M-239 601H-139M-239 701H-139M-289.5 701V601M-139 651C-139 678.614 -116.614 701 -89 701C-61.3858 701 -39 678.614 -39 651M-139 651C-139 623.386 -116.614 601 -89 601C-61.3858 601 -39 623.386 -39 651M-139 601V701M-139 601H-39M-139 701H-39M-189.5 701V601M-39 651C-39 678.614 -16.6142 701 11 701C38.6142 701 61 678.614 61 651M-39 651C-39 623.386 -16.6142 601 11 601C38.6142 601 61 623.386 61 651M-39 601V701M-39 601H61M-39 701H61M-89.5 701V601M61 651C61 678.614 83.3858 701 111 701C138.614 701 161 678.614 161 651M61 651C61 623.386 83.3858 601 111 601C138.614 601 161 623.386 161 651M61 601V701M61 601H161M61 701H161M10.5 701V601M161 651C161 678.614 183.386 701 211 701C238.614 701 261 678.614 261 651M161 651C161 623.386 183.386 601 211 601C238.614 601 261 623.386 261 651M161 601V701M161 601H261M161 701H261M110.5 701V601M261 651C261 678.614 283.386 701 311 701C338.614 701 361 678.614 361 651M261 651C261 623.386 283.386 601 311 601C338.614 601 361 623.386 361 651M261 601V701M261 601H361M261 701H361M210.5 701V601M361 651C361 678.614 383.386 701 411 701C438.614 701 461 678.614 461 651M361 651C361 623.386 383.386 601 411 601C438.614 601 461 623.386 461 651M361 601V701M361 601H461M361 701H461M310.5 701V601M461 651C461 678.614 483.386 701 511 701C538.614 701 561 678.614 561 651M461 651C461 623.386 483.386 601 511 601C538.614 601 561 623.386 561 651M461 601V701M461 601H561M461 701H561M410.5 701V601M561 651C561 678.614 583.386 701 611 701C638.614 701 661 678.614 661 651C661 623.386 638.614 601 611 601C583.386 601 561 623.386 561 651ZM561 601V701M561 601H661V701H561M510.5 701V601M610.5 701V601" stroke="black"/>
        <path d="M761 651C761 678.614 738.614 701 711 701C683.386 701 661 678.614 661 651C661 623.386 683.386 601 711 601C738.614 601 761 623.386 761 651ZM761 651C761 678.614 783.386 701 811 701C838.614 701 861 678.614 861 651M761 651C761 623.386 783.386 601 811 601C838.614 601 861 623.386 861 651M761 601H661V701H761M761 601V701M761 601H861M761 701H861M661 650.5H1761M710.5 701V601M861 651C861 678.614 883.386 701 911 701C938.614 701 961 678.614 961 651M861 651C861 623.386 883.386 601 911 601C938.614 601 961 623.386 961 651M861 601V701M861 601H961M861 701H961M810.5 701V601M961 651C961 678.614 983.386 701 1011 701C1038.61 701 1061 678.614 1061 651M961 651C961 623.386 983.386 601 1011 601C1038.61 601 1061 623.386 1061 651M961 601V701M961 601H1061M961 701H1061M910.5 701V601M1061 651C1061 678.614 1083.39 701 1111 701C1138.61 701 1161 678.614 1161 651M1061 651C1061 623.386 1083.39 601 1111 601C1138.61 601 1161 623.386 1161 651M1061 601V701M1061 601H1161M1061 701H1161M1010.5 701V601M1161 651C1161 678.614 1183.39 701 1211 701C1238.61 701 1261 678.614 1261 651M1161 651C1161 623.386 1183.39 601 1211 601C1238.61 601 1261 623.386 1261 651M1161 601V701M1161 601H1261M1161 701H1261M1110.5 701V601M1261 651C1261 678.614 1283.39 701 1311 701C1338.61 701 1361 678.614 1361 651M1261 651C1261 623.386 1283.39 601 1311 601C1338.61 601 1361 623.386 1361 651M1261 601V701M1261 601H1361M1261 701H1361M1210.5 701V601M1361 651C1361 678.614 1383.39 701 1411 701C1438.61 701 1461 678.614 1461 651M1361 651C1361 623.386 1383.39 601 1411 601C1438.61 601 1461 623.386 1461 651M1361 601V701M1361 601H1461M1361 701H1461M1310.5 701V601M1461 651C1461 678.614 1483.39 701 1511 701C1538.61 701 1561 678.614 1561 651M1461 651C1461 623.386 1483.39 601 1511 601C1538.61 601 1561 623.386 1561 651M1461 601V701M1461 601H1561M1461 701H1561M1410.5 701V601M1561 651C1561 678.614 1583.39 701 1611 701C1638.61 701 1661 678.614 1661 651M1561 651C1561 623.386 1583.39 601 1611 601C1638.61 601 1661 623.386 1661 651M1561 601V701M1561 601H1661M1561 701H1661M1510.5 701V601M1661 651C1661 678.614 1683.39 701 1711 701C1738.61 701 1761 678.614 1761 651C1761 623.386 1738.61 601 1711 601C1683.39 601 1661 623.386 1661 651ZM1661 601V701M1661 601H1761V701H1661M1610.5 701V601M1710.5 701V601" stroke="black"/>
        <path d="M-339 751C-339 778.614 -361.386 801 -389 801C-416.614 801 -439 778.614 -439 751C-439 723.386 -416.614 701 -389 701C-361.386 701 -339 723.386 -339 751ZM-339 751C-339 778.614 -316.614 801 -289 801C-261.386 801 -239 778.614 -239 751M-339 751C-339 723.386 -316.614 701 -289 701C-261.386 701 -239 723.386 -239 751M-339 701H-439V801H-339M-339 701V801M-339 701H-239M-339 801H-239M-439 750.5H661M-389.5 801V701M-239 751C-239 778.614 -216.614 801 -189 801C-161.386 801 -139 778.614 -139 751M-239 751C-239 723.386 -216.614 701 -189 701C-161.386 701 -139 723.386 -139 751M-239 701V801M-239 701H-139M-239 801H-139M-289.5 801V701M-139 751C-139 778.614 -116.614 801 -89 801C-61.3858 801 -39 778.614 -39 751M-139 751C-139 723.386 -116.614 701 -89 701C-61.3858 701 -39 723.386 -39 751M-139 701V801M-139 701H-39M-139 801H-39M-189.5 801V701M-39 751C-39 778.614 -16.6142 801 11 801C38.6142 801 61 778.614 61 751M-39 751C-39 723.386 -16.6142 701 11 701C38.6142 701 61 723.386 61 751M-39 701V801M-39 701H61M-39 801H61M-89.5 801V701M61 751C61 778.614 83.3858 801 111 801C138.614 801 161 778.614 161 751M61 751C61 723.386 83.3858 701 111 701C138.614 701 161 723.386 161 751M61 701V801M61 701H161M61 801H161M10.5 801V701M161 751C161 778.614 183.386 801 211 801C238.614 801 261 778.614 261 751M161 751C161 723.386 183.386 701 211 701C238.614 701 261 723.386 261 751M161 701V801M161 701H261M161 801H261M110.5 801V701M261 751C261 778.614 283.386 801 311 801C338.614 801 361 778.614 361 751M261 751C261 723.386 283.386 701 311 701C338.614 701 361 723.386 361 751M261 701V801M261 701H361M261 801H361M210.5 801V701M361 751C361 778.614 383.386 801 411 801C438.614 801 461 778.614 461 751M361 751C361 723.386 383.386 701 411 701C438.614 701 461 723.386 461 751M361 701V801M361 701H461M361 801H461M310.5 801V701M461 751C461 778.614 483.386 801 511 801C538.614 801 561 778.614 561 751M461 751C461 723.386 483.386 701 511 701C538.614 701 561 723.386 561 751M461 701V801M461 701H561M461 801H561M410.5 801V701M561 751C561 778.614 583.386 801 611 801C638.614 801 661 778.614 661 751C661 723.386 638.614 701 611 701C583.386 701 561 723.386 561 751ZM561 701V801M561 701H661V801H561M510.5 801V701M610.5 801V701" stroke="black"/>
        <path d="M761 751C761 778.614 738.614 801 711 801C683.386 801 661 778.614 661 751C661 723.386 683.386 701 711 701C738.614 701 761 723.386 761 751ZM761 751C761 778.614 783.386 801 811 801C838.614 801 861 778.614 861 751M761 751C761 723.386 783.386 701 811 701C838.614 701 861 723.386 861 751M761 701H661V801H761M761 701V801M761 701H861M761 801H861M661 750.5H1761M710.5 801V701M861 751C861 778.614 883.386 801 911 801C938.614 801 961 778.614 961 751M861 751C861 723.386 883.386 701 911 701C938.614 701 961 723.386 961 751M861 701V801M861 701H961M861 801H961M810.5 801V701M961 751C961 778.614 983.386 801 1011 801C1038.61 801 1061 778.614 1061 751M961 751C961 723.386 983.386 701 1011 701C1038.61 701 1061 723.386 1061 751M961 701V801M961 701H1061M961 801H1061M910.5 801V701M1061 751C1061 778.614 1083.39 801 1111 801C1138.61 801 1161 778.614 1161 751M1061 751C1061 723.386 1083.39 701 1111 701C1138.61 701 1161 723.386 1161 751M1061 701V801M1061 701H1161M1061 801H1161M1010.5 801V701M1161 751C1161 778.614 1183.39 801 1211 801C1238.61 801 1261 778.614 1261 751M1161 751C1161 723.386 1183.39 701 1211 701C1238.61 701 1261 723.386 1261 751M1161 701V801M1161 701H1261M1161 801H1261M1110.5 801V701M1261 751C1261 778.614 1283.39 801 1311 801C1338.61 801 1361 778.614 1361 751M1261 751C1261 723.386 1283.39 701 1311 701C1338.61 701 1361 723.386 1361 751M1261 701V801M1261 701H1361M1261 801H1361M1210.5 801V701M1361 751C1361 778.614 1383.39 801 1411 801C1438.61 801 1461 778.614 1461 751M1361 751C1361 723.386 1383.39 701 1411 701C1438.61 701 1461 723.386 1461 751M1361 701V801M1361 701H1461M1361 801H1461M1310.5 801V701M1461 751C1461 778.614 1483.39 801 1511 801C1538.61 801 1561 778.614 1561 751M1461 751C1461 723.386 1483.39 701 1511 701C1538.61 701 1561 723.386 1561 751M1461 701V801M1461 701H1561M1461 801H1561M1410.5 801V701M1561 751C1561 778.614 1583.39 801 1611 801C1638.61 801 1661 778.614 1661 751M1561 751C1561 723.386 1583.39 701 1611 701C1638.61 701 1661 723.386 1661 751M1561 701V801M1561 701H1661M1561 801H1661M1510.5 801V701M1661 751C1661 778.614 1683.39 801 1711 801C1738.61 801 1761 778.614 1761 751C1761 723.386 1738.61 701 1711 701C1683.39 701 1661 723.386 1661 751ZM1661 701V801M1661 701H1761V801H1661M1610.5 801V701M1710.5 801V701" stroke="black"/>
    </g>
</svg>
