<svg width="868" height="328" viewBox="0 0 868 328" fill="none" xmlns="http://www.w3.org/2000/svg">
<g clip-path="url(#clip0_216_590)">
<mask id="mask0_216_590" style="mask-type:luminance" maskUnits="userSpaceOnUse" x="0" y="0" width="868" height="328">
<path d="M868 0H0V328H868V0Z" fill="white"/>
</mask>
<g mask="url(#mask0_216_590)">
<path d="M389.038 73.5864H0V260.156V287.51V328H26.8102V287.51H389.038V73.5864Z" fill="#F39C9B"/>
<path d="M441.019 100.394H26.8101V260.156H441.019V100.394Z" fill="#767676"/>
<path d="M591.86 100.394V73.5864H544.809H441.019H385.395V100.394H441.019V259.631H385.395V287.51H441.019H544.809H591.86V259.631H544.809V100.394H591.86Z" fill="#E83B39"/>
<path d="M868 73.5864H591.86V287.51H868V73.5864Z" fill="#F39C9B"/>
<path d="M541.882 287.51H441.019V326.542H541.882V287.51Z" fill="#F39C9B"/>
<path d="M833.712 260.156H739.231V287.51H833.712V260.156Z" fill="#F28F51"/>
<path d="M868 260.156H833.712V287.51H868V260.156Z" fill="#767676"/>
<path d="M868.011 136.137H846.481V228.056H868.011V136.137Z" fill="#DC6EA8"/>
<path d="M868.011 100.394H544.809V260.156H868.011V100.394Z" fill="#507CBE"/>
<path d="M745.437 100.394H644.021V130.491H745.437V100.394Z" fill="#38A047"/>
<path d="M623.367 100.394H567.824V130.491H623.367V100.394Z" fill="#484697"/>
<path d="M567.835 100.394H544.809V130.491H567.835V100.394Z" fill="#38A047"/>
<path d="M868.011 1.37186H737.325V73.5869H868.011V1.37186Z" fill="#767676"/>
<path d="M717.62 0H672.206V60.7291H717.62V0Z" fill="#E7BD00"/>
<path d="M650.773 0.642731H513.434V73.5972H650.773V0.642731Z" fill="#767676"/>
<path d="M567.835 0.642731H513.434V73.5972H567.835V0.642731Z" fill="#325087"/>
<path d="M553.278 44.417C554.045 44.417 554.775 44.1139 555.315 43.5743C555.855 43.0347 556.163 42.3029 556.163 41.5398V25.7153C556.163 24.9522 555.855 24.2204 555.315 23.6808C554.775 23.1412 554.045 22.8381 553.278 22.8381H538.099C538.603 23.7156 538.877 24.7083 538.877 25.7153H553.278V41.5398H540.315V44.417M546.078 30.031V32.9082H537.436V51.61H534.556V42.9784H531.675V51.61H528.794V40.1012H526.633V32.9082C526.633 32.1452 526.937 31.4133 527.477 30.8738C528.017 30.3342 528.75 30.031 529.514 30.031H546.078ZM535.996 25.7153C535.996 26.4783 535.692 27.2102 535.152 27.7498C534.612 28.2893 533.879 28.5925 533.115 28.5925C532.351 28.5925 531.618 28.2893 531.078 27.7498C530.538 27.2102 530.235 26.4783 530.235 25.7153C530.235 24.9522 530.538 24.2204 531.078 23.6808C531.618 23.1412 532.351 22.8381 533.115 22.8381C533.879 22.8381 534.612 23.1412 535.152 23.6808C535.692 24.2204 535.996 24.9522 535.996 25.7153Z" fill="white"/>
<path d="M504.487 0.642731H458.528V61.0075H504.487V0.642731Z" fill="#E7BD00"/>
<path d="M449.591 0.642731H402.539V73.5972H449.591V0.642731Z" fill="#F28D4D"/>
<path d="M402.539 0.642731H313.536V73.5972H402.539V0.642731Z" fill="#767676"/>
<path d="M223.794 0.642731H87.5459V73.5972H223.794V0.642731Z" fill="#767676"/>
<path d="M291.912 0.642731H245.407V60.1826H291.912V0.642731Z" fill="#E7BD00"/>
<path d="M441.019 100.394H420.413V130.116H441.019V100.394Z" fill="#38A047"/>
<path d="M441.019 167.509H317.726V194.863H441.019V167.509Z" fill="#F39C9B"/>
<path d="M339.254 100.394H317.726V167.509H339.254V100.394Z" fill="#007A7A"/>
<path d="M284.133 23.1967C283.988 23.4818 283.759 23.7163 283.478 23.8693C283.197 24.0223 282.876 24.0866 282.558 24.0538C276.621 24.0538 270.685 24.0538 264.749 24.0538C263.538 24.0538 263.184 23.7002 263.184 22.4895V21.8038C263.159 21.6183 263.177 21.4294 263.237 21.2522C263.298 21.0749 263.398 20.914 263.531 20.7821C263.664 20.6502 263.826 20.551 264.004 20.4922C264.181 20.4334 264.371 20.4165 264.556 20.4431C266.935 20.4431 269.313 20.4431 271.692 20.4431C272.239 20.4431 272.464 20.3145 272.539 19.7573C272.614 19.2002 272.935 18.3752 273 17.6681C273.017 16.9834 273.261 16.3238 273.693 15.7926C274.126 15.2614 274.722 14.8885 275.389 14.7323H279C279.094 14.7941 279.183 14.8621 279.268 14.9358C279.494 15.2115 279.648 15.539 279.715 15.8888C279.782 16.2387 279.761 16.5997 279.654 16.9394C279.544 17.197 279.349 17.4088 279.101 17.5396C278.853 17.6702 278.568 17.7118 278.293 17.6573C277.532 17.6573 276.772 17.6573 275.946 17.6573L275.389 20.4216H276.214C278.357 20.4216 280.415 20.4216 282.515 20.4216C282.845 20.3774 283.181 20.4346 283.477 20.5859C283.774 20.7371 284.018 20.975 284.176 21.2681L284.133 23.1967Z" fill="white"/>
<path d="M253.197 34.4366C253.395 33.8934 253.702 33.3959 254.098 32.9742C254.494 32.5526 254.971 32.2154 255.501 31.983C257.666 30.8263 260.07 30.1867 262.524 30.1142C264.978 30.0417 267.415 30.5383 269.646 31.5652C270.697 32.1642 271.675 32.8834 272.56 33.7081C272.713 33.8506 272.837 34.0216 272.924 34.2116C273.781 35.6259 273.256 36.6331 271.606 36.6438C266.109 36.6438 260.601 36.6438 255.104 36.6438C254.678 36.6317 254.267 36.4883 253.925 36.2333C253.583 35.9782 253.33 35.6238 253.197 35.2187V34.4366ZM267.717 32.358C267.445 32.3574 267.183 32.4599 266.984 32.6449C266.785 32.8298 266.664 33.0835 266.645 33.3545C266.645 33.6386 266.758 33.9112 266.959 34.1121C267.16 34.313 267.433 34.4259 267.717 34.4259C267.988 34.4069 268.241 34.2857 268.426 34.0868C268.611 33.8879 268.714 33.6261 268.713 33.3545C268.695 33.096 268.585 32.8526 268.402 32.6693C268.218 32.4862 267.975 32.3756 267.717 32.358ZM264.277 32.5187C264.278 32.2488 264.177 31.9885 263.994 31.7899C263.811 31.5912 263.56 31.4689 263.291 31.4473C263.028 31.4454 262.773 31.5404 262.576 31.7144C262.378 31.8882 262.251 32.1288 262.22 32.3902C262.207 32.5275 262.225 32.6659 262.269 32.7963C262.314 32.9267 262.386 33.0463 262.48 33.1473C262.574 33.2483 262.687 33.3284 262.814 33.3825C262.941 33.4367 263.078 33.4636 263.216 33.4616C263.478 33.4609 263.729 33.3646 263.925 33.191C264.12 33.0173 264.246 32.7782 264.277 32.5187ZM259.851 33.4401C259.836 33.1781 259.725 32.9307 259.54 32.745C259.354 32.5593 259.106 32.4483 258.844 32.433C258.574 32.4321 258.314 32.5332 258.115 32.716C257.916 32.8987 257.794 33.1497 257.773 33.4187C257.773 33.7029 257.886 33.9754 258.087 34.1764C258.287 34.3773 258.56 34.4902 258.844 34.4902C258.981 34.4919 259.116 34.4655 259.241 34.4128C259.367 34.36 259.481 34.282 259.576 34.1836C259.67 34.0851 259.743 33.9683 259.791 33.8405C259.838 33.7126 259.859 33.5764 259.851 33.4401Z" fill="white"/>
<path d="M255.415 46.0716C254.853 45.927 254.352 45.6049 253.987 45.1533C253.623 44.7017 253.413 44.1445 253.39 43.5645C253.304 42.8252 253.529 42.493 254.258 42.493C260.223 42.493 266.184 42.493 272.142 42.493C272.839 42.493 273.085 42.8359 273.01 43.5645C272.981 44.1478 272.766 44.7064 272.396 45.1579C272.025 45.6094 271.519 45.9298 270.953 46.0716H255.415Z" fill="white"/>
<path d="M282.965 26.1329L279.75 39.8259H275.989C275.839 39.2044 275.668 38.6152 275.539 38.0152C275.509 37.8401 275.536 37.6602 275.614 37.5009C276.042 36.7277 276.232 35.8451 276.16 34.9642C276.087 34.0834 275.756 33.2437 275.207 32.5508C273.806 30.5437 271.766 29.0707 269.42 28.3722C267.888 27.8472 266.27 27.5579 264.684 27.1722L264.577 27.3543L264.298 26.1329H282.965Z" fill="white"/>
<path d="M266.142 40.3725C266.881 39.6975 267.695 39.0118 268.445 38.2296C268.588 38.0533 268.773 37.9157 268.982 37.8296C269.192 37.7435 269.42 37.7115 269.645 37.7368C270.224 37.801 270.802 37.7368 271.371 37.8761C271.786 37.9315 272.173 38.1201 272.473 38.4137C272.772 38.7074 272.968 39.0901 273.032 39.5046C272.974 39.9297 272.779 40.3245 272.478 40.6297C272.177 40.9349 271.784 41.1342 271.36 41.1975C270.903 41.2741 270.441 41.3135 269.978 41.3154C265.445 41.3154 260.923 41.3154 256.391 41.3154C255.747 41.3109 255.107 41.2098 254.494 41.0154C254.171 40.914 253.889 40.7133 253.687 40.4421C253.485 40.1708 253.373 39.8428 253.368 39.5046C253.399 39.1667 253.529 38.8455 253.743 38.582C253.957 38.3186 254.244 38.125 254.569 38.026C255.049 37.8653 255.552 37.7785 256.058 37.7689C258.362 37.7689 260.677 37.7689 262.991 37.7689C263.276 37.7938 263.544 37.9147 263.752 38.1118C264.598 38.8832 265.402 39.6439 266.142 40.3725Z" fill="white"/>
<path d="M279.493 42.119C279.428 44.9154 279.289 46.1262 275.539 45.7833L275.978 42.119H279.493Z" fill="white"/>
<path d="M710.437 23.154C710.296 23.4391 710.064 23.6731 709.783 23.8244C709.502 23.9757 709.183 24.0372 708.865 24.0005C702.918 24.0005 696.982 24.0005 691.046 24.0005C689.841 24.0005 689.49 23.6469 689.49 22.4361C689.49 22.2004 689.49 21.9754 689.49 21.7397C689.463 21.5581 689.474 21.3724 689.528 21.1968C689.582 21.0212 689.679 20.8603 689.803 20.7268C689.928 20.5932 690.084 20.4905 690.257 20.4264C690.43 20.3624 690.614 20.3388 690.797 20.3575C693.174 20.3575 695.567 20.3575 697.943 20.3575C698.478 20.3575 698.716 20.229 698.791 19.6718C698.867 19.1147 699.185 18.2896 699.25 17.5825C699.267 16.8987 699.51 16.2397 699.947 15.7099C700.379 15.1802 700.973 14.8098 701.643 14.6575H705.251L705.521 14.8611C705.748 15.1366 705.899 15.4641 705.97 15.814C706.034 16.1638 706.013 16.525 705.905 16.8647C705.797 17.1222 705.602 17.3341 705.354 17.4647C705.105 17.5954 704.819 17.637 704.544 17.5825C703.782 17.5825 703.026 17.5825 702.2 17.5825L701.6 20.3575H702.426C704.565 20.3575 706.623 20.3575 708.724 20.3575C709.054 20.3188 709.389 20.3796 709.686 20.5323C709.983 20.6851 710.226 20.9226 710.388 21.2147L710.437 23.154Z" fill="white"/>
<path d="M679.438 34.3934C679.638 33.8502 679.946 33.3527 680.34 32.931C680.734 32.5093 681.215 32.1722 681.745 31.9398C683.911 30.7838 686.314 30.1446 688.772 30.0721C691.229 29.9996 693.665 30.4958 695.896 31.5219C696.944 32.1294 697.922 32.8479 698.813 33.6648C698.953 33.8148 699.072 33.9844 699.164 34.1684C700.023 35.5934 699.499 36.6006 697.857 36.6113H681.356C680.934 36.591 680.524 36.4446 680.184 36.1909C679.838 35.9371 679.579 35.5874 679.438 35.1863V34.3934ZM693.968 32.3148C693.698 32.3139 693.438 32.415 693.239 32.5977C693.044 32.7805 692.92 33.0314 692.898 33.3005C692.898 33.5847 693.012 33.8572 693.212 34.0581C693.412 34.2591 693.687 34.372 693.968 34.372C694.238 34.3504 694.492 34.228 694.67 34.0294C694.854 33.8307 694.956 33.5704 694.956 33.3005C694.935 33.0456 694.827 32.8062 694.643 32.6254C694.465 32.4447 694.222 32.3345 693.968 32.3148ZM690.516 32.4648C690.522 32.1966 690.419 31.9377 690.241 31.7393C690.057 31.5409 689.809 31.4175 689.544 31.3933C689.279 31.3914 689.026 31.4865 688.826 31.6604C688.631 31.8343 688.502 32.0749 688.475 32.3362C688.464 32.4733 688.48 32.6109 688.523 32.7406C688.572 32.8703 688.642 32.9892 688.734 33.0898C688.831 33.1904 688.945 33.2706 689.069 33.3253C689.193 33.38 689.333 33.4081 689.468 33.4077C689.728 33.4043 689.976 33.3069 690.171 33.1335C690.365 32.9601 690.489 32.7225 690.516 32.4648ZM686.103 33.3969C686.087 33.1348 685.979 32.8875 685.79 32.7018C685.607 32.5161 685.358 32.4051 685.099 32.3898C684.829 32.3887 684.569 32.4883 684.37 32.6688C684.175 32.8493 684.051 33.0977 684.024 33.3648C684.024 33.649 684.137 33.9215 684.337 34.1224C684.542 34.3234 684.813 34.4362 685.099 34.4362C685.234 34.4378 685.369 34.4118 685.493 34.3597C685.617 34.3076 685.731 34.2306 685.823 34.1333C685.92 34.0361 685.99 33.9206 686.039 33.794C686.087 33.6674 686.109 33.5323 686.103 33.3969Z" fill="white"/>
<path d="M681.669 46.0716C681.107 45.9254 680.605 45.6029 680.243 45.1517C679.876 44.7004 679.665 44.144 679.644 43.5645C679.546 42.8252 679.784 42.493 680.513 42.493C686.471 42.493 692.429 42.493 698.397 42.493C699.083 42.493 699.337 42.8252 699.261 43.5645C699.234 44.1478 699.018 44.7064 698.651 45.1579C698.278 45.6094 697.771 45.9298 697.203 46.0716H681.669Z" fill="white"/>
<path d="M709.216 26.0897L706.002 39.772H702.243C702.081 39.1613 701.919 38.5719 701.794 37.9719C701.767 37.8108 701.794 37.6458 701.865 37.5005C702.291 36.7245 702.48 35.8409 702.405 34.959C702.335 34.0773 702.005 33.2361 701.46 32.5398C700.05 30.5371 698.008 29.0685 695.664 28.3719C694.13 27.8361 692.515 27.5576 690.938 27.1718L690.819 27.3432L690.549 26.1325L709.216 26.0897Z" fill="white"/>
<path d="M692.396 40.3287C693.136 39.6537 693.946 38.968 694.686 38.1858C694.832 38.0101 695.021 37.8732 695.232 37.7872C695.442 37.7012 695.669 37.6688 695.896 37.6929C696.469 37.7572 697.057 37.6929 697.625 37.8322C698.04 37.8864 698.424 38.0749 698.721 38.369C699.018 38.6631 699.213 39.0465 699.272 39.4608C699.229 39.8963 699.034 40.3033 698.726 40.6148C698.419 40.9264 698.013 41.124 697.581 41.1751C697.128 41.2573 696.668 41.2968 696.209 41.293C691.678 41.293 687.146 41.293 682.62 41.293C681.977 41.2857 681.339 41.1846 680.724 40.993C680.405 40.8892 680.119 40.6883 679.919 40.4178C679.714 40.1473 679.6 39.8205 679.589 39.4823C679.622 39.1443 679.751 38.8231 679.962 38.5597C680.178 38.2962 680.464 38.1026 680.789 38.0037C681.269 37.8446 681.772 37.7579 682.279 37.7465C684.591 37.7465 686.903 37.7465 689.209 37.7465C689.501 37.7691 689.771 37.8901 689.982 38.0894C690.84 38.8394 691.656 39.643 692.396 40.3287Z" fill="white"/>
<path d="M705.748 42.0757C705.683 44.8722 705.543 46.083 701.794 45.7401L702.232 42.0757H705.748Z" fill="white"/>
<path d="M496.986 23.5715C496.841 23.8567 496.612 24.0911 496.331 24.2441C496.05 24.3971 495.729 24.4614 495.411 24.4287C489.474 24.4287 483.527 24.4287 477.591 24.4287C476.39 24.4287 476.037 24.0644 476.037 22.8644V22.168C476.01 21.9834 476.026 21.7949 476.085 21.6179C476.144 21.4408 476.244 21.28 476.376 21.1486C476.508 21.0172 476.67 20.9188 476.847 20.8613C477.025 20.8039 477.214 20.789 477.398 20.8179C479.787 20.8179 482.166 20.8179 484.545 20.8179C485.081 20.8179 485.317 20.6894 485.392 20.1322C485.467 19.5751 485.788 18.7393 485.853 18.0429C485.869 17.359 486.112 16.7001 486.545 16.1704C486.978 15.6406 487.575 15.2702 488.242 15.1179H491.843C491.928 15.1822 492.025 15.2357 492.111 15.3107C492.334 15.5898 492.485 15.9191 492.553 16.2701C492.62 16.6212 492.601 16.9833 492.496 17.3251C492.382 17.5794 492.186 17.7877 491.939 17.9161C491.692 18.0445 491.408 18.0854 491.135 18.0322C490.375 18.0322 489.614 18.0322 488.789 18.0322L488.189 20.7965H489.013C491.157 20.7965 493.214 20.7965 495.314 20.7965C495.644 20.7567 495.978 20.816 496.273 20.9667C496.569 21.1175 496.814 21.3529 496.975 21.643L496.986 23.5715Z" fill="white"/>
<path d="M466.05 34.8437C466.249 34.3004 466.555 33.803 466.951 33.3812C467.347 32.9596 467.824 32.6224 468.354 32.39C470.52 31.2365 472.924 30.5987 475.377 30.5262C477.83 30.4537 480.268 30.9486 482.498 31.9722C483.548 32.5739 484.525 33.2928 485.413 34.115C485.559 34.261 485.679 34.4314 485.767 34.6186C486.624 36.0329 486.11 37.0508 484.459 37.0508C478.962 37.0508 473.454 37.0508 467.957 37.0508C467.532 37.0442 467.118 36.9042 466.776 36.6505C466.434 36.3968 466.18 36.0421 466.05 35.6365V34.8437ZM480.57 32.7651C480.298 32.7644 480.036 32.8669 479.837 33.0519C479.638 33.2369 479.517 33.4905 479.498 33.7615C479.498 33.9022 479.526 34.0415 479.579 34.1715C479.633 34.3015 479.712 34.4196 479.812 34.5191C479.912 34.6186 480.029 34.6975 480.16 34.7513C480.29 34.8052 480.429 34.8329 480.57 34.8329C480.841 34.8139 481.094 34.6927 481.279 34.4938C481.465 34.2948 481.567 34.0331 481.566 33.7615C481.549 33.503 481.438 33.2596 481.255 33.0764C481.071 32.8932 480.828 32.7826 480.57 32.7651ZM477.119 32.9258C477.12 32.6575 477.021 32.3987 476.84 32.2003C476.659 32.0019 476.411 31.8784 476.144 31.8543C475.881 31.8524 475.626 31.9475 475.428 32.1214C475.231 32.2953 475.104 32.5358 475.073 32.7972C475.062 32.9342 475.08 33.0719 475.125 33.2016C475.171 33.3313 475.243 33.4501 475.337 33.5508C475.43 33.6514 475.544 33.7316 475.669 33.7863C475.796 33.841 475.932 33.869 476.069 33.8686C476.328 33.8653 476.578 33.7679 476.771 33.5945C476.965 33.4211 477.088 33.1834 477.119 32.9258ZM472.705 33.8579C472.705 33.5845 472.601 33.3213 472.413 33.1221C472.227 32.923 471.97 32.8029 471.697 32.7865C471.427 32.7856 471.167 32.8867 470.968 33.0694C470.77 33.2522 470.647 33.5032 470.626 33.7722C470.626 34.0563 470.738 34.3289 470.939 34.5298C471.14 34.7307 471.413 34.8437 471.697 34.8437C471.961 34.8437 472.214 34.7406 472.402 34.5563C472.59 34.372 472.699 34.1213 472.705 33.8579Z" fill="white"/>
<path d="M468.268 46.5007C467.705 46.3539 467.204 46.0299 466.839 45.5764C466.475 45.123 466.266 44.5643 466.243 43.9828C466.147 43.2435 466.382 42.9114 467.111 42.9114H484.995C485.681 42.9114 485.938 43.2542 485.863 43.9828C485.842 44.5745 485.631 45.1436 485.26 45.6051C484.889 46.0667 484.379 46.3959 483.806 46.5435L468.268 46.5007Z" fill="white"/>
<path d="M495.818 26.5396L492.603 40.2326H488.842C488.681 39.6111 488.52 39.0218 488.392 38.4218C488.358 38.2469 488.384 38.0654 488.467 37.9076C488.892 37.1335 489.08 36.2515 489.008 35.3713C488.936 34.491 488.606 33.6516 488.06 32.9575C486.659 30.9504 484.619 29.4774 482.273 28.7789C480.73 28.2538 479.059 27.9753 477.537 27.5788L477.419 27.761L477.152 26.5396H495.818Z" fill="white"/>
<path d="M478.984 40.7902C479.723 40.1045 480.538 39.4188 481.277 38.6473C481.421 38.4706 481.608 38.3335 481.82 38.2491C482.032 38.1647 482.262 38.1358 482.488 38.1652C483.056 38.1652 483.645 38.1652 484.213 38.3045C484.628 38.3564 485.013 38.5428 485.311 38.8351C485.61 39.1273 485.803 39.5093 485.863 39.9224C485.813 40.3485 485.622 40.7459 485.322 41.0522C485.021 41.3586 484.628 41.5566 484.202 41.6153C483.745 41.6918 483.283 41.7312 482.82 41.7331C478.287 41.7331 473.765 41.7331 469.233 41.7331C468.59 41.7287 467.951 41.6312 467.336 41.4438C467.014 41.3367 466.732 41.1334 466.529 40.8614C466.326 40.5893 466.212 40.2617 466.2 39.9224C466.233 39.585 466.366 39.2651 466.582 39.0037C466.798 38.7422 467.086 38.5509 467.411 38.4545C467.891 38.2902 468.394 38.1999 468.901 38.1866C471.201 38.1866 473.512 38.1866 475.834 38.1866C476.117 38.217 476.384 38.3371 476.595 38.5295C477.441 39.3009 478.256 40.0831 478.984 40.7902Z" fill="white"/>
<path d="M492.346 42.5257C492.282 45.3222 492.142 46.5329 488.392 46.2008L488.831 42.5257H492.346Z" fill="white"/>
<path d="M420.474 36.9535V38.1449H432.402V36.9535C432.402 36.0071 432.778 35.0993 433.447 34.4293C434.117 33.7593 435.025 33.3817 435.972 33.3795C435.971 33.068 435.943 32.7571 435.888 32.4503C435.705 31.5258 435.25 30.6767 434.583 30.0101C433.915 29.3437 433.065 28.8898 432.14 28.706C431.679 28.6142 431.126 28.6142 430.016 28.6142H422.86C421.75 28.6142 421.197 28.6142 420.736 28.706C419.811 28.8898 418.96 29.3437 418.293 30.0101C417.626 30.6767 417.171 31.5258 416.987 32.4503C416.933 32.7571 416.905 33.068 416.904 33.3795C417.852 33.3817 418.759 33.7593 419.429 34.4293C420.098 35.0993 420.474 36.0071 420.474 36.9535Z" fill="white"/>
<path d="M434.125 44.1024H418.752C418.428 44.1021 418.106 44.0654 417.79 43.9928V45.2937C417.79 45.5306 417.696 45.7579 417.529 45.9255C417.361 46.093 417.133 46.1872 416.896 46.1872C416.658 46.1872 416.431 46.093 416.264 45.9255C416.096 45.7579 416.001 45.5306 416.001 45.2937V43.0909C415.533 42.6935 415.158 42.1992 414.9 41.6424C414.643 41.0855 414.51 40.4793 414.51 39.8659V36.9543C414.51 36.3224 414.761 35.7164 415.209 35.2695C415.656 34.8227 416.263 34.5717 416.896 34.5717C417.529 34.5717 418.135 34.8227 418.583 35.2695C419.03 35.7164 419.281 36.3224 419.281 36.9543V38.384C419.281 38.6367 419.382 38.8791 419.561 39.0579C419.74 39.2366 419.982 39.337 420.236 39.337H432.641C432.894 39.337 433.137 39.2366 433.316 39.0579C433.494 38.8791 433.595 38.6367 433.595 38.384V36.9543C433.595 36.3224 433.847 35.7164 434.294 35.2695C434.741 34.8227 435.348 34.5717 435.981 34.5717C436.613 34.5717 437.22 34.8227 437.668 35.2695C438.115 35.7164 438.366 36.3224 438.366 36.9543V39.8659C438.367 40.4793 438.234 41.0855 437.976 41.6424C437.719 42.1992 437.343 42.6935 436.875 43.0909V45.2937C436.875 45.5306 436.781 45.7579 436.613 45.9255C436.446 46.093 436.218 46.1872 435.981 46.1872C435.744 46.1872 435.516 46.093 435.348 45.9255C435.18 45.7579 435.086 45.5306 435.086 45.2937V43.9928C434.771 44.0654 434.448 44.1021 434.125 44.1024Z" fill="white"/>
<path fill-rule="evenodd" clip-rule="evenodd" d="M326.762 137.279C325.173 136.063 323.002 134.053 323.002 132.153C323.002 128.979 325.973 127.794 328.403 130.245C330.834 127.794 333.805 128.979 333.805 132.153C333.805 134.053 331.633 136.063 330.044 137.279C329.325 137.83 328.965 138.105 328.403 138.105C327.841 138.105 327.482 137.83 326.762 137.279ZM330.834 130.687C330.941 130.687 331.045 130.73 331.12 130.806C331.196 130.882 331.239 130.985 331.239 131.092V131.766H331.914C332.022 131.766 332.125 131.809 332.2 131.885C332.277 131.961 332.319 132.064 332.319 132.171C332.319 132.278 332.277 132.381 332.2 132.457C332.125 132.533 332.022 132.576 331.914 132.576H331.239V133.25C331.239 133.357 331.196 133.46 331.12 133.536C331.045 133.612 330.941 133.655 330.834 133.655C330.726 133.655 330.623 133.612 330.548 133.536C330.471 133.46 330.429 133.357 330.429 133.25V132.576H329.754C329.646 132.576 329.543 132.533 329.467 132.457C329.391 132.381 329.348 132.278 329.348 132.171C329.348 132.064 329.391 131.961 329.467 131.885C329.543 131.809 329.646 131.766 329.754 131.766H330.429V131.092C330.429 130.985 330.471 130.882 330.548 130.806C330.623 130.73 330.726 130.687 330.834 130.687Z" fill="white"/>
<mask id="mask1_216_590" style="mask-type:luminance" maskUnits="userSpaceOnUse" x="422" y="107" width="17" height="16">
<path d="M438.051 107.895H422.927V123H438.051V107.895Z" fill="white"/>
</mask>
<g mask="url(#mask1_216_590)">
<path fill-rule="evenodd" clip-rule="evenodd" d="M432.682 110.085C432.682 110.666 432.451 111.223 432.039 111.634C431.628 112.044 431.07 112.275 430.489 112.275C429.907 112.275 429.349 112.044 428.938 111.634C428.527 111.223 428.296 110.666 428.296 110.085C428.296 109.504 428.527 108.947 428.938 108.536C429.349 108.126 429.907 107.895 430.489 107.895C431.07 107.895 431.628 108.126 432.039 108.536C432.451 108.947 432.682 109.504 432.682 110.085ZM433.204 114.264C433.56 114.62 433.843 115.042 434.036 115.507C434.228 115.972 434.327 116.471 434.327 116.974V118.08C434.327 118.223 434.27 118.361 434.169 118.461C434.068 118.563 433.93 118.619 433.787 118.619H432.684L432.195 122.528C432.178 122.659 432.115 122.779 432.016 122.866C431.918 122.953 431.79 123.001 431.659 123.001H429.32C429.188 123.001 429.062 122.953 428.963 122.866C428.864 122.779 428.801 122.659 428.784 122.528L428.296 118.618H427.19C427.046 118.618 426.909 118.562 426.808 118.46C426.707 118.359 426.65 118.222 426.65 118.079V116.974C426.65 116.216 426.875 115.474 427.297 114.844C427.719 114.214 428.319 113.723 429.02 113.432C429.722 113.142 430.493 113.067 431.238 113.214C431.983 113.362 432.667 113.728 433.204 114.264Z" fill="white"/>
</g>
<mask id="mask2_216_590" style="mask-type:luminance" maskUnits="userSpaceOnUse" x="548" y="107" width="16" height="16">
<path d="M563.903 107.895H548.779V123H563.903V107.895Z" fill="white"/>
</mask>
<g mask="url(#mask2_216_590)">
<path fill-rule="evenodd" clip-rule="evenodd" d="M558.534 110.085C558.534 110.666 558.302 111.223 557.891 111.634C557.481 112.044 556.924 112.275 556.341 112.275C555.758 112.275 555.201 112.044 554.791 111.634C554.38 111.223 554.148 110.666 554.148 110.085C554.148 109.504 554.38 108.947 554.791 108.536C555.201 108.126 555.758 107.895 556.341 107.895C556.924 107.895 557.481 108.126 557.891 108.536C558.302 108.947 558.534 109.504 558.534 110.085ZM559.058 114.264C559.414 114.62 559.695 115.042 559.89 115.507C560.079 115.972 560.181 116.471 560.181 116.974V118.08C560.181 118.223 560.122 118.361 560.019 118.461C559.922 118.563 559.782 118.619 559.641 118.619H558.534L558.048 122.528C558.032 122.659 557.967 122.779 557.87 122.866C557.767 122.953 557.643 123.001 557.513 123.001H555.174C555.039 123.001 554.915 122.953 554.812 122.866C554.715 122.779 554.65 122.659 554.634 122.528L554.148 118.618H553.041C552.9 118.618 552.76 118.562 552.657 118.46C552.56 118.359 552.501 118.222 552.501 118.079V116.974C552.501 116.216 552.727 115.474 553.149 114.844C553.57 114.214 554.17 113.723 554.872 113.432C555.574 113.142 556.346 113.067 557.092 113.214C557.837 113.362 558.518 113.728 559.058 114.264Z" fill="white"/>
</g>
<mask id="mask3_216_590" style="mask-type:luminance" maskUnits="userSpaceOnUse" x="650" y="107" width="16" height="16">
<path d="M665.989 107.895H650.865V123H665.989V107.895Z" fill="white"/>
</mask>
<g mask="url(#mask3_216_590)">
<path fill-rule="evenodd" clip-rule="evenodd" d="M660.62 110.085C660.62 110.666 660.388 111.223 659.977 111.634C659.567 112.044 659.01 112.275 658.427 112.275C657.844 112.275 657.287 112.044 656.877 111.634C656.466 111.223 656.234 110.666 656.234 110.085C656.234 109.504 656.466 108.947 656.877 108.536C657.287 108.126 657.844 107.895 658.427 107.895C659.01 107.895 659.567 108.126 659.977 108.536C660.388 108.947 660.62 109.504 660.62 110.085ZM661.144 114.264C661.5 114.62 661.781 115.042 661.976 115.507C662.165 115.972 662.267 116.471 662.267 116.974V118.08C662.267 118.223 662.208 118.361 662.105 118.461C662.008 118.563 661.868 118.619 661.727 118.619H660.62L660.134 122.528C660.118 122.659 660.053 122.779 659.955 122.866C659.853 122.953 659.729 123.001 659.599 123.001H657.26C657.125 123.001 657.001 122.953 656.898 122.866C656.801 122.779 656.736 122.659 656.72 122.528L656.234 118.618H655.127C654.986 118.618 654.846 118.562 654.743 118.46C654.646 118.359 654.587 118.222 654.587 118.079V116.974C654.587 116.216 654.813 115.474 655.235 114.844C655.656 114.214 656.256 113.723 656.958 113.432C657.66 113.142 658.432 113.067 659.178 113.214C659.923 113.362 660.604 113.728 661.144 114.264Z" fill="white"/>
</g>
<mask id="mask4_216_590" style="mask-type:luminance" maskUnits="userSpaceOnUse" x="722" y="107" width="16" height="16">
<path d="M737.287 107.895H722.163V123H737.287V107.895Z" fill="white"/>
</mask>
<g mask="url(#mask4_216_590)">
<path fill-rule="evenodd" clip-rule="evenodd" d="M731.918 110.085C731.918 110.666 731.686 111.223 731.275 111.634C730.865 112.044 730.308 112.275 729.725 112.275C729.142 112.275 728.585 112.044 728.175 111.634C727.764 111.223 727.532 110.666 727.532 110.085C727.532 109.504 727.764 108.947 728.175 108.536C728.585 108.126 729.142 107.895 729.725 107.895C730.308 107.895 730.865 108.126 731.275 108.536C731.686 108.947 731.918 109.504 731.918 110.085ZM732.442 114.264C732.798 114.62 733.079 115.042 733.274 115.507C733.463 115.972 733.565 116.471 733.565 116.974V118.08C733.565 118.223 733.506 118.361 733.403 118.461C733.306 118.563 733.166 118.619 733.025 118.619H731.918L731.432 122.528C731.416 122.659 731.351 122.779 731.254 122.866C731.151 122.953 731.027 123.001 730.897 123.001H728.558C728.423 123.001 728.299 122.953 728.196 122.866C728.099 122.779 728.034 122.659 728.018 122.528L727.532 118.618H726.425C726.284 118.618 726.144 118.562 726.041 118.46C725.944 118.359 725.885 118.222 725.885 118.079V116.974C725.885 116.216 726.111 115.474 726.533 114.844C726.954 114.214 727.554 113.723 728.256 113.432C728.958 113.142 729.73 113.067 730.476 113.214C731.221 113.362 731.902 113.728 732.442 114.264Z" fill="white"/>
</g>
<path d="M781.038 274.053V275.132H791.841V274.053C791.841 273.195 792.181 272.373 792.786 271.766C793.391 271.159 794.217 270.818 795.076 270.816C795.071 270.534 795.049 270.252 795.001 269.974C794.833 269.137 794.423 268.368 793.818 267.765C793.213 267.161 792.44 266.75 791.603 266.583C791.187 266.5 790.685 266.5 789.68 266.5H783.199C782.194 266.5 781.692 266.5 781.276 266.583C780.438 266.75 779.666 267.161 779.061 267.765C778.456 268.368 778.046 269.137 777.878 269.974C777.83 270.252 777.808 270.534 777.803 270.816C778.661 270.818 779.488 271.159 780.093 271.766C780.698 272.373 781.038 273.195 781.038 274.053Z" fill="white"/>
<path d="M793.402 280.526H779.477C779.185 280.526 778.894 280.493 778.607 280.427V281.605C778.607 281.82 778.521 282.026 778.37 282.178C778.218 282.329 778.013 282.415 777.797 282.415C777.581 282.415 777.376 282.329 777.225 282.178C777.073 282.026 776.987 281.82 776.987 281.605V279.61C776.566 279.251 776.225 278.803 775.988 278.298C775.755 277.794 775.637 277.245 775.637 276.69V274.053C775.637 273.48 775.863 272.932 776.269 272.527C776.674 272.122 777.225 271.895 777.797 271.895C778.37 271.895 778.921 272.122 779.326 272.527C779.731 272.932 779.958 273.48 779.958 274.053V275.347C779.958 275.576 780.049 275.796 780.212 275.958C780.374 276.119 780.595 276.211 780.822 276.211H792.057C792.284 276.211 792.505 276.119 792.667 275.958C792.829 275.796 792.921 275.576 792.921 275.347V274.053C792.921 273.48 793.148 272.932 793.553 272.527C793.958 272.122 794.509 271.895 795.082 271.895C795.654 271.895 796.205 272.122 796.61 272.527C797.015 272.932 797.242 273.48 797.242 274.053V276.69C797.242 277.245 797.123 277.794 796.891 278.298C796.653 278.803 796.313 279.251 795.892 279.61V281.605C795.892 281.82 795.805 282.026 795.654 282.178C795.503 282.329 795.298 282.415 795.082 282.415C794.865 282.415 794.66 282.329 794.509 282.178C794.358 282.026 794.271 281.82 794.271 281.605V280.427C793.985 280.493 793.693 280.526 793.402 280.526Z" fill="white"/>
<path d="M601.891 122.013V117.447C601.891 116.721 601.891 116.36 601.772 116.074C601.621 115.712 601.334 115.424 600.973 115.267C600.686 115.144 600.324 115.14 599.595 115.134C599.595 118.956 595.771 120.484 595.771 120.484C595.771 120.484 591.947 118.956 591.947 115.134C591.234 115.134 590.877 115.134 590.597 115.25C590.407 115.328 590.24 115.44 590.1 115.582C589.954 115.724 589.84 115.893 589.765 116.079C589.651 116.359 589.651 116.715 589.651 117.427V122.013" stroke="white" stroke-width="3" stroke-linecap="round" stroke-linejoin="round"/>
<path d="M595.771 115.515L597.3 114.751V116.279L595.771 115.515ZM595.771 115.515L594.242 114.751V116.279L595.771 115.515ZM598.45 110.165V109.401C598.45 109.05 598.38 108.702 598.245 108.378C598.11 108.053 597.915 107.758 597.667 107.51C597.418 107.261 597.121 107.065 596.797 106.93C596.473 106.795 596.122 106.726 595.771 106.726C595.42 106.726 595.069 106.795 594.745 106.93C594.421 107.065 594.124 107.261 593.875 107.51C593.627 107.758 593.432 108.053 593.297 108.378C593.162 108.702 593.092 109.05 593.092 109.401V110.165C593.092 110.517 593.162 110.865 593.297 111.189C593.432 111.514 593.627 111.809 593.875 112.057C594.124 112.305 594.421 112.502 594.745 112.637C595.069 112.771 595.42 112.84 595.771 112.84C596.122 112.84 596.473 112.771 596.797 112.637C597.121 112.502 597.418 112.305 597.667 112.057C597.915 111.809 598.11 111.514 598.245 111.189C598.38 110.865 598.45 110.517 598.45 110.165Z" stroke="white" stroke-width="3" stroke-linecap="round" stroke-linejoin="round"/>
<path d="M508.835 157.254V159.293H499.942V163.87H498.006V157.254H508.835ZM497.764 170.458C497.764 169.401 498.011 168.439 498.505 167.573C499.009 166.717 499.695 166.042 500.562 165.549C501.429 165.055 502.382 164.809 503.421 164.809C504.459 164.809 505.412 165.055 506.279 165.549C507.146 166.042 507.826 166.717 508.321 167.573C508.825 168.439 509.077 169.401 509.077 170.458C509.077 171.515 508.825 172.472 508.321 173.328C507.826 174.194 507.146 174.874 506.279 175.367C505.412 175.861 504.459 176.107 503.421 176.107C502.382 176.107 501.429 175.861 500.562 175.367C499.695 174.874 499.009 174.194 498.505 173.328C498.011 172.472 497.764 171.515 497.764 170.458ZM499.7 170.458C499.7 171.123 499.856 171.732 500.169 172.286C500.482 172.84 500.92 173.272 501.485 173.585C502.049 173.907 502.695 174.068 503.421 174.068C504.146 174.068 504.792 173.907 505.356 173.585C505.921 173.272 506.359 172.84 506.672 172.286C506.985 171.732 507.141 171.123 507.141 170.458C507.141 169.793 506.985 169.184 506.672 168.63C506.359 168.087 505.921 167.653 505.356 167.331C504.792 167.019 504.146 166.863 503.421 166.863C502.695 166.863 502.049 167.019 501.485 167.331C500.92 167.653 500.482 168.087 500.169 168.63C499.856 169.184 499.7 169.793 499.7 170.458ZM508.835 178.039V182.268C508.835 182.872 508.709 183.426 508.457 183.93C508.205 184.443 507.862 184.846 507.428 185.138C506.995 185.43 506.521 185.576 506.007 185.576C505.462 185.576 504.989 185.44 504.585 185.168C504.192 184.906 503.889 184.559 503.678 184.126H503.557C503.355 184.69 503.032 185.138 502.589 185.471C502.155 185.803 501.631 185.969 501.016 185.969C500.421 185.969 499.892 185.808 499.428 185.486C498.974 185.173 498.621 184.745 498.369 184.202C498.127 183.668 498.006 183.074 498.006 182.419V178.039H508.835ZM504.419 182.117C504.419 182.56 504.54 182.912 504.782 183.175C505.034 183.446 505.346 183.582 505.719 183.582C506.082 183.582 506.385 183.451 506.627 183.19C506.879 182.938 507.005 182.601 507.005 182.178V180.078H504.419V182.117ZM499.866 182.344C499.866 182.837 499.992 183.22 500.245 183.492C500.507 183.773 500.845 183.915 501.258 183.915C501.671 183.915 502.009 183.773 502.271 183.492C502.533 183.21 502.664 182.807 502.664 182.283V180.078H499.866V182.344ZM508.835 187.818V192.048C508.835 192.652 508.709 193.206 508.457 193.709C508.205 194.223 507.862 194.626 507.428 194.918C506.995 195.21 506.521 195.356 506.007 195.356C505.462 195.356 504.989 195.22 504.585 194.948C504.192 194.686 503.889 194.339 503.678 193.906H503.557C503.355 194.47 503.032 194.918 502.589 195.25C502.155 195.582 501.631 195.749 501.016 195.749C500.421 195.749 499.892 195.588 499.428 195.265C498.974 194.953 498.621 194.525 498.369 193.981C498.127 193.448 498.006 192.854 498.006 192.199V187.818H508.835ZM504.419 191.897C504.419 192.34 504.54 192.692 504.782 192.954C505.034 193.226 505.346 193.362 505.719 193.362C506.082 193.362 506.385 193.231 506.627 192.969C506.879 192.718 507.005 192.38 507.005 191.957V189.858H504.419V191.897ZM499.866 192.123C499.866 192.617 499.992 192.999 500.245 193.271C500.507 193.553 500.845 193.694 501.258 193.694C501.671 193.694 502.009 193.553 502.271 193.271C502.533 192.99 502.664 192.587 502.664 192.063V189.858H499.866V192.123ZM503.042 199.607L508.835 195.967V198.399L505.251 200.559V200.68L508.835 202.764V205.227L503.042 201.647H498.006V199.607H503.042ZM481.698 116.688L488.534 122.171V116.929H490.47V124.542H488.413L481.577 119.12V124.603H479.642V116.688H481.698ZM479.4 131.367C479.4 130.31 479.646 129.348 480.141 128.482C480.645 127.626 481.331 126.952 482.198 126.458C483.064 125.964 484.017 125.718 485.056 125.718C486.095 125.718 487.047 125.964 487.914 126.458C488.781 126.952 489.462 127.626 489.956 128.482C490.46 129.348 490.712 130.31 490.712 131.367C490.712 132.425 490.46 133.381 489.956 134.237C489.462 135.103 488.781 135.783 487.914 136.276C487.047 136.77 486.095 137.017 485.056 137.017C484.017 137.017 483.064 136.77 482.198 136.276C481.331 135.783 480.645 135.103 480.141 134.237C479.646 133.381 479.4 132.425 479.4 131.367ZM481.335 131.367C481.335 132.032 481.492 132.641 481.804 133.195C482.117 133.749 482.556 134.182 483.12 134.494C483.685 134.816 484.33 134.977 485.056 134.977C485.782 134.977 486.427 134.816 486.992 134.494C487.556 134.182 487.995 133.749 488.308 133.195C488.62 132.641 488.776 132.032 488.776 131.367C488.776 130.703 488.62 130.094 488.308 129.54C487.995 128.996 487.556 128.563 486.992 128.24C486.427 127.928 485.782 127.772 485.056 127.772C484.33 127.772 483.685 127.928 483.12 128.24C482.556 128.563 482.117 128.996 481.804 129.54C481.492 130.094 481.335 130.703 481.335 131.367ZM490.47 138.948V141.319L483.211 145.67V145.791L485.298 145.67H490.47V147.694H479.642V145.549L487.309 140.957V140.836L485.222 140.957H479.642V138.948H490.47ZM490.47 153.195V155.536L479.642 159.6V157.349L482.228 156.443V152.304L479.642 151.397V149.147L490.47 153.195ZM484.103 155.778L486.825 154.826L488.126 154.434V154.313L486.825 153.92L484.103 152.953V155.778ZM490.47 164.6V168.255C490.47 169.383 490.243 170.365 489.79 171.201C489.336 172.037 488.701 172.681 487.884 173.134C487.067 173.588 486.125 173.814 485.056 173.814C483.987 173.814 483.044 173.588 482.228 173.134C481.411 172.681 480.776 172.037 480.322 171.201C479.868 170.365 479.642 169.383 479.642 168.255V164.6H490.47ZM481.577 168.165C481.577 169.333 481.885 170.224 482.5 170.838C483.125 171.453 483.977 171.76 485.056 171.76C486.135 171.76 486.982 171.453 487.597 170.838C488.222 170.224 488.534 169.333 488.534 168.165V166.639H481.577V168.165ZM490.47 175.752V182.61H488.534V177.791H486.024V182.126H484.088V177.791H481.577V182.61H479.642V175.752H490.47ZM479.4 191.052C479.4 190.105 479.667 189.27 480.201 188.544C480.735 187.819 481.492 187.311 482.47 187.019L483.226 188.937C482.651 189.088 482.193 189.345 481.85 189.708C481.507 190.07 481.335 190.523 481.335 191.067C481.335 191.52 481.446 191.908 481.668 192.23C481.9 192.552 482.217 192.714 482.621 192.714C483.024 192.714 483.352 192.557 483.604 192.245C483.866 191.943 484.144 191.399 484.436 190.614L484.678 189.949C484.92 189.254 485.288 188.66 485.782 188.167C486.286 187.673 486.916 187.427 487.672 187.427C488.237 187.427 488.751 187.572 489.215 187.865C489.679 188.157 490.042 188.569 490.304 189.103C490.576 189.637 490.712 190.241 490.712 190.916C490.712 191.892 490.481 192.663 490.017 193.227C489.563 193.791 489.029 194.179 488.413 194.39L487.657 192.593C487.99 192.482 488.267 192.285 488.489 192.004C488.721 191.732 488.837 191.379 488.837 190.946C488.837 190.503 488.731 190.135 488.519 189.843C488.318 189.561 488.05 189.421 487.718 189.421C487.395 189.421 487.118 189.557 486.886 189.828C486.664 190.1 486.447 190.548 486.236 191.173L486.009 191.852C485.686 192.789 485.257 193.504 484.723 193.997C484.199 194.501 483.508 194.753 482.651 194.753C481.945 194.753 481.346 194.571 480.851 194.209C480.368 193.846 480.005 193.378 479.763 192.804C479.521 192.24 479.4 191.656 479.4 191.052ZM488.534 198.727V195.706H490.47V203.787H488.534V200.766H479.642V198.727H488.534ZM490.47 207.465V209.806L479.642 213.869V211.619L482.228 210.712V206.574L479.642 205.667V203.417L490.47 207.465ZM484.103 210.048L486.825 209.096L488.126 208.703V208.583L486.825 208.19L484.103 207.223V210.048ZM490.47 215.33V217.701L483.211 222.052V222.173L485.298 222.052H490.47V224.076H479.642V221.931L487.309 217.339V217.218L485.222 217.339H479.642V215.33H490.47ZM490.47 226.541V230.196C490.47 231.324 490.243 232.305 489.79 233.142C489.336 233.977 488.701 234.622 487.884 235.075C487.067 235.528 486.125 235.755 485.056 235.755C483.987 235.755 483.044 235.528 482.228 235.075C481.411 234.622 480.776 233.977 480.322 233.142C479.868 232.305 479.642 231.324 479.642 230.196V226.541H490.47ZM481.577 230.105C481.577 231.273 481.885 232.165 482.5 232.779C483.125 233.393 483.977 233.701 485.056 233.701C486.135 233.701 486.982 233.393 487.597 232.779C488.222 232.165 488.534 231.273 488.534 230.105V228.58H481.577V230.105ZM479.4 240.955C479.4 240.009 479.667 239.173 480.201 238.448C480.735 237.723 481.492 237.214 482.47 236.922L483.226 238.841C482.651 238.992 482.193 239.249 481.85 239.611C481.507 239.974 481.335 240.427 481.335 240.97C481.335 241.424 481.446 241.811 481.668 242.134C481.9 242.456 482.217 242.617 482.621 242.617C483.024 242.617 483.352 242.461 483.604 242.149C483.866 241.847 484.144 241.303 484.436 240.517L484.678 239.853C484.92 239.158 485.288 238.563 485.782 238.07C486.286 237.577 486.916 237.33 487.672 237.33C488.237 237.33 488.751 237.476 489.215 237.768C489.679 238.06 490.042 238.473 490.304 239.007C490.576 239.54 490.712 240.145 490.712 240.819C490.712 241.796 490.481 242.566 490.017 243.131C489.563 243.694 489.029 244.082 488.413 244.294L487.657 242.496C487.99 242.385 488.267 242.189 488.489 241.907C488.721 241.635 488.837 241.282 488.837 240.85C488.837 240.406 488.731 240.039 488.519 239.747C488.318 239.465 488.05 239.324 487.718 239.324C487.395 239.324 487.118 239.46 486.886 239.732C486.664 240.004 486.447 240.452 486.236 241.076L486.009 241.756C485.686 242.692 485.257 243.407 484.723 243.901C484.199 244.404 483.508 244.656 482.651 244.656C481.945 244.656 481.346 244.475 480.851 244.112C480.368 243.75 480.005 243.282 479.763 242.708C479.521 242.143 479.4 241.56 479.4 240.955Z" fill="white"/>
<path d="M718.069 149.727C718.36 149.808 718.631 149.946 718.868 150.131C719.106 150.317 719.306 150.548 719.452 150.811C719.603 151.074 719.695 151.363 719.732 151.662C719.765 151.961 719.743 152.264 719.662 152.555L712.883 176.685C712.716 177.271 712.327 177.767 711.798 178.065C711.263 178.363 710.636 178.438 710.053 178.274C709.464 178.11 708.967 177.719 708.67 177.19C708.368 176.659 708.298 176.032 708.46 175.447L715.238 151.313C715.325 151.024 715.46 150.752 715.649 150.515C715.833 150.279 716.065 150.081 716.33 149.933C716.589 149.786 716.88 149.692 717.178 149.656C717.48 149.62 717.783 149.644 718.074 149.725L718.069 149.727ZM707.266 155.894C707.698 156.324 707.936 156.907 707.936 157.514C707.936 158.122 707.698 158.705 707.266 159.134L702.399 164L707.271 168.863C707.698 169.294 707.941 169.877 707.941 170.485C707.941 171.093 707.698 171.676 707.266 172.106C706.839 172.536 706.256 172.778 705.646 172.778C705.035 172.777 704.452 172.536 704.02 172.106L697.527 165.62C697.101 165.19 696.858 164.607 696.858 164C696.858 163.393 697.101 162.809 697.527 162.379L704.02 155.894C704.236 155.681 704.484 155.512 704.765 155.397C705.046 155.282 705.343 155.222 705.646 155.222C705.943 155.222 706.245 155.282 706.521 155.397C706.802 155.512 707.055 155.681 707.266 155.894ZM720.856 159.134C720.629 158.925 720.451 158.672 720.327 158.391C720.197 158.109 720.132 157.806 720.127 157.498C720.121 157.19 720.175 156.884 720.294 156.598C720.408 156.313 720.58 156.054 720.796 155.836C721.018 155.618 721.277 155.447 721.563 155.331C721.844 155.216 722.152 155.16 722.46 155.165C722.768 155.17 723.076 155.238 723.357 155.363C723.638 155.488 723.891 155.669 724.102 155.894L730.595 162.378C731.027 162.808 731.264 163.391 731.264 163.999C731.264 164.607 731.027 165.19 730.595 165.62L724.102 172.106C723.886 172.319 723.638 172.488 723.357 172.603C723.081 172.718 722.779 172.777 722.476 172.778C722.179 172.778 721.877 172.718 721.601 172.603C721.32 172.488 721.067 172.319 720.856 172.106C720.64 171.894 720.472 171.641 720.359 171.363C720.24 171.084 720.181 170.786 720.181 170.485C720.181 170.184 720.24 169.886 720.359 169.608C720.472 169.329 720.64 169.076 720.856 168.863L725.722 164L720.856 159.134Z" fill="white"/>
<path d="M635.379 185.553H637.723L641.796 196.368H639.538L638.631 193.785H634.488L633.581 196.368H631.328L635.379 185.553ZM637.966 191.912L637.016 189.193L636.622 187.894H636.503L636.108 189.193L635.142 191.912H637.966ZM647.116 196.61C646.268 196.61 645.528 196.429 644.891 196.066C644.27 195.704 643.778 195.18 643.427 194.495C643.082 193.811 642.914 193 642.914 192.063V185.553H644.94V192.184C644.94 192.929 645.123 193.533 645.496 193.997C645.88 194.45 646.42 194.677 647.116 194.677C647.813 194.677 648.348 194.45 648.721 193.997C649.104 193.533 649.293 192.929 649.293 192.184V185.553H651.319V192.063C651.319 192.959 651.151 193.75 650.806 194.435C650.465 195.12 649.974 195.654 649.342 196.036C648.704 196.419 647.964 196.61 647.116 196.61ZM653.609 185.553H657.271C658.4 185.553 659.383 185.78 660.22 186.233C661.057 186.686 661.7 187.32 662.154 188.136C662.608 188.952 662.834 189.893 662.834 190.961C662.834 192.028 662.608 192.97 662.154 193.785C661.7 194.601 661.057 195.235 660.22 195.689C659.383 196.142 658.4 196.368 657.271 196.368H653.609V185.553ZM657.179 194.435C658.346 194.435 659.242 194.128 659.858 193.514C660.469 192.889 660.776 192.038 660.776 190.961C660.776 189.883 660.469 189.037 659.858 188.423C659.242 187.799 658.346 187.487 657.179 187.487H655.651V194.435H657.179ZM664.773 185.553H666.815V196.368H664.773V185.553ZM671.471 187.487H668.446V185.553H676.538V187.487H673.513V196.368H671.471V187.487ZM682.825 196.61C681.766 196.61 680.805 196.364 679.935 195.87C679.082 195.367 678.401 194.681 677.91 193.816C677.418 192.95 677.17 191.998 677.17 190.961C677.17 189.923 677.418 188.972 677.91 188.106C678.401 187.24 679.082 186.56 679.935 186.067C680.805 185.563 681.766 185.311 682.825 185.311C683.884 185.311 684.84 185.563 685.698 186.067C686.568 186.56 687.249 187.24 687.74 188.106C688.232 188.972 688.48 189.923 688.48 190.961C688.48 191.998 688.232 192.95 687.74 193.816C687.249 194.681 686.568 195.367 685.698 195.87C684.84 196.364 683.884 196.61 682.825 196.61ZM682.825 194.677C683.489 194.677 684.1 194.521 684.656 194.208C685.207 193.896 685.644 193.458 685.958 192.894C686.276 192.33 686.438 191.686 686.438 190.961C686.438 190.236 686.276 189.591 685.958 189.027C685.644 188.463 685.207 188.025 684.656 187.713C684.1 187.401 683.489 187.245 682.825 187.245C682.161 187.245 681.55 187.401 680.994 187.713C680.448 188.025 680.016 188.463 679.692 189.027C679.384 189.591 679.228 190.236 679.228 190.961C679.228 191.686 679.384 192.33 679.692 192.894C680.016 193.458 680.448 193.896 680.994 194.208C681.55 194.521 682.161 194.677 682.825 194.677ZM690.414 185.553H694.362C695.07 185.553 695.691 185.699 696.236 185.991C696.793 186.283 697.22 186.691 697.522 187.215C697.824 187.728 697.976 188.312 697.976 188.967C697.976 189.662 697.754 190.281 697.311 190.825C696.879 191.358 696.328 191.746 695.664 191.988L695.648 192.094L698.554 196.248V196.368H696.209L693.412 192.305H692.456V196.368H690.414V185.553ZM694.346 190.432C694.81 190.432 695.189 190.291 695.48 190.009C695.772 189.727 695.918 189.37 695.918 188.937C695.918 188.524 695.777 188.171 695.496 187.879C695.226 187.587 694.854 187.441 694.378 187.441H692.456V190.432H694.346ZM700.001 185.553H702.043V196.368H700.001V185.553ZM709.47 196.61C708.411 196.61 707.45 196.364 706.58 195.87C705.721 195.367 705.046 194.681 704.555 193.816C704.058 192.95 703.815 191.998 703.815 190.961C703.815 189.923 704.058 188.972 704.555 188.106C705.046 187.24 705.721 186.56 706.58 186.067C707.45 185.563 708.411 185.311 709.47 185.311C710.528 185.311 711.484 185.563 712.343 186.067C713.208 186.56 713.888 187.24 714.385 188.106C714.877 188.972 715.125 189.923 715.125 190.961C715.125 191.998 714.877 192.95 714.385 193.816C713.888 194.681 713.208 195.367 712.343 195.87C711.484 196.364 710.528 196.61 709.47 196.61ZM709.47 194.677C710.134 194.677 710.745 194.521 711.301 194.208C711.852 193.896 712.289 193.458 712.597 192.894C712.921 192.33 713.083 191.686 713.083 190.961C713.083 190.236 712.921 189.591 712.597 189.027C712.289 188.463 711.852 188.025 711.301 187.713C710.745 187.401 710.134 187.245 709.47 187.245C708.805 187.245 708.195 187.401 707.639 187.713C707.093 188.025 706.661 188.463 706.337 189.027C706.024 189.591 705.867 190.236 705.867 190.961C705.867 191.686 706.024 192.33 706.337 192.894C706.661 193.458 707.093 193.896 707.639 194.208C708.195 194.521 708.805 194.677 709.47 194.677ZM720.602 185.553H724.415C725.101 185.553 725.728 185.699 726.29 185.991C726.857 186.273 727.3 186.676 727.618 187.199C727.942 187.713 728.105 188.302 728.105 188.967C728.105 189.631 727.942 190.225 727.618 190.749C727.3 191.273 726.857 191.681 726.29 191.973C725.728 192.255 725.101 192.396 724.415 192.396H722.644V196.368H720.602V185.553ZM724.475 190.462C724.977 190.462 725.371 190.316 725.652 190.024C725.949 189.732 726.095 189.38 726.095 188.967C726.095 188.554 725.949 188.207 725.652 187.925C725.371 187.633 724.977 187.487 724.475 187.487H722.644V190.462H724.475ZM729.833 185.553H733.781C734.489 185.553 735.11 185.699 735.656 185.991C736.212 186.283 736.639 186.691 736.941 187.215C737.244 187.728 737.395 188.312 737.395 188.967C737.395 189.662 737.173 190.281 736.731 190.825C736.298 191.358 735.747 191.746 735.083 191.988L735.067 192.094L737.973 196.248V196.368H735.629L732.831 192.305H731.875V196.368H729.833V185.553ZM733.765 190.432C734.23 190.432 734.608 190.291 734.899 190.009C735.191 189.727 735.337 189.37 735.337 188.937C735.337 188.524 735.197 188.171 734.916 187.879C734.646 187.587 734.273 187.441 733.798 187.441H731.875V190.432H733.765ZM739.42 185.553H741.462V196.368H739.42V185.553ZM743.925 185.553H746.296L750.655 192.804H750.774L750.655 190.719V185.553H752.681V196.368H750.531L745.934 188.71H745.816L745.934 190.795V196.368H743.925V185.553ZM760.129 196.61C759.081 196.61 758.12 196.364 757.256 195.87C756.386 195.367 755.7 194.687 755.198 193.831C754.706 192.965 754.458 192.008 754.458 190.961C754.458 189.914 754.706 188.962 755.198 188.106C755.7 187.24 756.386 186.56 757.256 186.067C758.12 185.563 759.081 185.311 760.129 185.311C761.76 185.311 763.111 185.9 764.18 187.079L762.744 188.468C762.047 187.653 761.182 187.245 760.145 187.245C759.47 187.245 758.855 187.401 758.298 187.713C757.742 188.015 757.304 188.448 756.98 189.012C756.672 189.576 756.516 190.225 756.516 190.961C756.516 191.696 756.672 192.346 756.98 192.909C757.304 193.473 757.742 193.911 758.298 194.223C758.855 194.526 759.47 194.677 760.145 194.677C761.285 194.677 762.236 194.203 763.003 193.257L764.456 194.631C763.921 195.276 763.284 195.769 762.549 196.112C761.82 196.444 761.015 196.61 760.129 196.61ZM766.346 185.553H768.388V196.368H766.346V185.553ZM770.851 185.553H774.659C775.345 185.553 775.971 185.699 776.533 185.991C777.1 186.273 777.543 186.676 777.867 187.199C778.191 187.713 778.348 188.302 778.348 188.967C778.348 189.631 778.191 190.225 777.867 190.749C777.543 191.273 777.1 191.681 776.533 191.973C775.971 192.255 775.345 192.396 774.659 192.396H772.893V196.368H770.851V185.553ZM774.718 190.462C775.226 190.462 775.62 190.316 775.901 190.024C776.193 189.732 776.339 189.38 776.339 188.967C776.339 188.554 776.193 188.207 775.901 187.925C775.62 187.633 775.226 187.487 774.718 187.487H772.893V190.462H774.718ZM782.053 185.553H784.398L788.47 196.368H786.212L785.305 193.785H781.162L780.255 196.368H778.002L782.053 185.553ZM784.641 191.912L783.69 189.193L783.296 187.894H783.177L782.783 189.193L781.816 191.912H784.641ZM789.929 185.553H791.97V194.435H796.556V196.368H789.929V185.553ZM642.428 212.656L647.921 205.829H642.671V203.895H650.292V205.949L644.864 212.777H650.352V214.711H642.428V212.656ZM657.125 214.952C656.066 214.952 655.105 214.706 654.235 214.212C653.382 213.709 652.707 213.024 652.21 212.158C651.718 211.292 651.47 210.34 651.47 209.303C651.47 208.265 651.718 207.314 652.21 206.448C652.707 205.582 653.382 204.902 654.235 204.409C655.105 203.905 656.066 203.653 657.125 203.653C658.184 203.653 659.145 203.905 659.999 204.409C660.868 204.902 661.549 205.582 662.04 206.448C662.537 207.314 662.78 208.265 662.78 209.303C662.78 210.34 662.537 211.292 662.04 212.158C661.549 213.024 660.868 213.709 659.999 214.212C659.145 214.706 658.184 214.952 657.125 214.952ZM657.125 213.019C657.789 213.019 658.4 212.863 658.956 212.55C659.513 212.238 659.945 211.8 660.258 211.236C660.582 210.673 660.739 210.028 660.739 209.303C660.739 208.578 660.582 207.933 660.258 207.369C659.945 206.806 659.513 206.368 658.956 206.055C658.4 205.743 657.789 205.587 657.125 205.587C656.461 205.587 655.85 205.743 655.294 206.055C654.754 206.368 654.316 206.806 653.998 207.369C653.685 207.933 653.528 208.578 653.528 209.303C653.528 210.028 653.685 210.673 653.998 211.236C654.316 211.8 654.754 212.238 655.294 212.55C655.85 212.863 656.461 213.019 657.125 213.019ZM664.714 203.895H667.091L671.444 211.146H671.568L671.444 209.061V203.895H673.475V214.711H671.325L666.729 207.052H666.605L666.729 209.137V214.711H664.714V203.895ZM678.979 203.895H681.323L685.391 214.711H683.138L682.231 212.128H678.088L677.18 214.711H674.928L678.979 203.895ZM681.566 210.254L680.616 207.536L680.221 206.236H680.097L679.708 207.536L678.736 210.254H681.566ZM690.398 203.895H692.439V208.215H696.993V203.895H699.034V214.711H696.993V210.149H692.439V214.711H690.398V203.895ZM704.56 203.895H706.904L710.971 214.711H708.719L707.812 212.128H703.669L702.761 214.711H700.509L704.56 203.895ZM707.147 210.254L706.197 207.536L705.802 206.236H705.678L705.289 207.536L704.317 210.254H707.147ZM717.269 214.952C716.221 214.952 715.26 214.706 714.396 214.212C713.526 213.709 712.84 213.029 712.338 212.173C711.841 211.307 711.598 210.35 711.598 209.303C711.598 208.256 711.841 207.304 712.338 206.448C712.84 205.582 713.526 204.902 714.396 204.409C715.26 203.905 716.221 203.653 717.269 203.653C718.901 203.653 720.251 204.243 721.32 205.421L719.884 206.81C719.187 205.995 718.323 205.587 717.28 205.587C716.605 205.587 715.995 205.743 715.438 206.055C714.882 206.357 714.444 206.79 714.12 207.354C713.807 207.918 713.65 208.568 713.65 209.303C713.65 210.038 713.807 210.688 714.12 211.251C714.444 211.815 714.882 212.253 715.438 212.566C715.995 212.868 716.605 213.019 717.28 213.019C718.42 213.019 719.376 212.546 720.143 211.599L721.59 212.973C721.061 213.618 720.424 214.111 719.689 214.454C718.96 214.786 718.155 214.952 717.269 214.952ZM723.481 203.895H725.523V208.532H725.647L729.606 203.895H732.075V204.016L728.159 208.487L732.48 214.59V214.711H729.984L726.749 210.103L725.523 211.538V214.711H723.481V203.895ZM736.849 203.895H739.194L743.261 214.711H741.008L740.101 212.128H735.953L735.045 214.711H732.793L736.849 203.895ZM739.431 210.254L738.481 207.536L738.086 206.236H737.967L737.573 207.536L736.606 210.254H739.431ZM745.924 205.829H742.899V203.895H750.99V205.829H747.965V214.711H745.924V205.829ZM752.621 203.895H754.663V208.215H759.216V203.895H761.258V214.711H759.216V210.149H754.663V214.711H752.621V203.895ZM768.707 214.952C767.648 214.952 766.686 214.706 765.822 214.212C764.963 213.709 764.288 213.024 763.791 212.158C763.3 211.292 763.051 210.34 763.051 209.303C763.051 208.265 763.3 207.314 763.791 206.448C764.288 205.582 764.963 204.902 765.822 204.409C766.686 203.905 767.648 203.653 768.707 203.653C769.765 203.653 770.727 203.905 771.58 204.409C772.45 204.902 773.13 205.582 773.622 206.448C774.119 207.314 774.367 208.265 774.367 209.303C774.367 210.34 774.119 211.292 773.622 212.158C773.13 213.024 772.45 213.709 771.58 214.212C770.727 214.706 769.765 214.952 768.707 214.952ZM768.707 213.019C769.376 213.019 769.987 212.863 770.538 212.55C771.094 212.238 771.526 211.8 771.839 211.236C772.163 210.673 772.326 210.028 772.326 209.303C772.326 208.578 772.163 207.933 771.839 207.369C771.526 206.806 771.094 206.368 770.538 206.055C769.987 205.743 769.376 205.587 768.707 205.587C768.042 205.587 767.432 205.743 766.881 206.055C766.335 206.368 765.903 206.806 765.579 207.369C765.266 207.933 765.109 208.578 765.109 209.303C765.109 210.028 765.266 210.673 765.579 211.236C765.903 211.8 766.335 212.238 766.881 212.55C767.432 212.863 768.042 213.019 768.707 213.019ZM776.301 203.895H778.672L783.031 211.146H783.15L783.031 209.061V203.895H785.057V214.711H782.907L778.31 207.052H778.191L778.31 209.137V214.711H776.301V203.895Z" fill="white"/>
<path d="M552.56 167.237H539.057V192.592H552.56V167.237Z" fill="black"/>
</g>
</g>
<defs>
<clipPath id="clip0_216_590">
<rect width="868" height="328" fill="white"/>
</clipPath>
</defs>
</svg>
