<?xml version="1.0" encoding="UTF-8" standalone="no"?>
<svg
   width="300"
   height="100"
   viewBox="0 0 300 100"
   fill="none"
   version="1.1"
   id="svg5"
   xmlns="http://www.w3.org/2000/svg"
   xmlns:svg="http://www.w3.org/2000/svg">
  <defs
     id="defs5" />
  <g
     id="g5"
     transform="translate(18.50024,10.31315)">
    <path
       d="M 11.3277,78.8229 V 74.7508 H 7.96375 v -1.682 h 5.39985 v 6.5508 c -0.8262,0.5902 -1.7114,1.0033 -2.6557,1.2394 -0.94428,0.295 -1.97707,0.4426 -3.09838,0.4426 -2.36066,0 -4.21951,-0.6787 -5.57689,-2.0361 -1.357376,-1.4164 -2.036109,-3.3639 -2.036109,-5.8426 0,-2.5377 0.678733,-4.4853 2.036109,-5.8427 1.35738,-1.4164 3.21623,-2.1245 5.57689,-2.1245 1.00328,0 1.94772,0.118 2.83298,0.354 0.9442,0.2361 1.7703,0.6197 2.4785,1.1509 v 2.1246 C 12.1538,68.436 11.3571,67.9639 10.5309,67.6688 9.64563,67.3147 8.73101,67.1376 7.78674,67.1376 c -1.82951,0 -3.21657,0.5312 -4.16083,1.5935 -0.94427,1.0623 -1.41627,2.6262 -1.41627,4.6918 0,2.0656 0.472,3.6 1.41627,4.6033 0.94426,1.0623 2.33132,1.5934 4.16083,1.5934 0.76722,0 1.41636,-0.059 1.9475,-0.177 0.59016,-0.118 1.12136,-0.3246 1.59346,-0.6197 z m 10.0032,-7.9672 c -1.0623,0 -1.8884,0.4131 -2.4786,1.2393 -0.5311,0.7672 -0.7968,1.8295 -0.7968,3.1869 0,1.4164 0.2657,2.5082 0.7968,3.2754 0.5902,0.7673 1.4163,1.1508 2.4786,1.1508 1.0032,0 1.8001,-0.3835 2.3903,-1.1508 0.5311,-0.8262 0.7966,-1.918 0.7966,-3.2754 0,-1.3574 -0.2655,-2.4197 -0.7966,-3.1869 -0.5902,-0.8262 -1.3871,-1.2393 -2.3903,-1.2393 z m 0,-1.5935 c 1.5934,0 2.8623,0.5312 3.8066,1.5935 0.9442,1.0623 1.4164,2.5377 1.4164,4.4262 0,1.8885 -0.4722,3.364 -1.4164,4.4262 -0.9443,1.0623 -2.2132,1.5935 -3.8066,1.5935 -1.6525,0 -2.9508,-0.5312 -3.895,-1.5935 -0.9443,-1.0622 -1.4165,-2.5377 -1.4165,-4.4262 0,-1.8885 0.4722,-3.3639 1.4165,-4.4262 0.9442,-1.0623 2.2425,-1.5935 3.895,-1.5935 z m 12.5706,1.5935 c -1.0032,0 -1.8001,0.4131 -2.3903,1.2393 -0.5902,0.7672 -0.8852,1.8295 -0.8852,3.1869 0,1.4164 0.295,2.5082 0.8852,3.2754 0.5902,0.7673 1.3871,1.1508 2.3903,1.1508 1.0033,0 1.8,-0.3835 2.3902,-1.1508 0.5901,-0.8262 0.8852,-1.918 0.8852,-3.2754 0,-1.3574 -0.2951,-2.4197 -0.8852,-3.1869 -0.5902,-0.8262 -1.3869,-1.2393 -2.3902,-1.2393 z m 0,-1.5935 c 1.6525,0 2.9508,0.5312 3.8951,1.5935 0.9442,1.0623 1.4164,2.5377 1.4164,4.4262 0,1.8885 -0.4722,3.364 -1.4164,4.4262 -0.9443,1.0623 -2.2426,1.5935 -3.8951,1.5935 -1.6524,0 -2.9509,-0.5312 -3.8952,-1.5935 -0.8852,-1.0622 -1.3278,-2.5377 -1.3278,-4.4262 0,-1.8885 0.4426,-3.3639 1.3278,-4.4262 0.9443,-1.0623 2.2428,-1.5935 3.8952,-1.5935 z m 15.7573,5.9312 c 0,-1.3574 -0.2951,-2.4197 -0.8853,-3.1869 -0.5311,-0.7672 -1.2982,-1.1508 -2.3015,-1.1508 -1.0623,0 -1.859,0.3836 -2.3901,1.1508 -0.5902,0.7672 -0.8853,1.8295 -0.8853,3.1869 0,1.3574 0.2951,2.3901 0.8853,3.0983 0.5311,0.7673 1.3278,1.1509 2.3901,1.1509 1.0033,0 1.7704,-0.3836 2.3015,-1.1509 0.5902,-0.7082 0.8853,-1.7409 0.8853,-3.0983 z m 1.8591,-5.6656 v 10.0918 c 0,1.9476 -0.4426,3.3935 -1.3279,4.3377 -0.8262,0.9443 -2.1541,1.4164 -3.9836,1.4164 -0.6492,0 -1.2689,-0.0295 -1.8591,-0.0885 -0.5902,-0.118 -1.1507,-0.2951 -1.6819,-0.5311 v -1.7705 c 0.5312,0.2951 1.0624,0.5016 1.5935,0.6196 0.5902,0.1771 1.1507,0.2656 1.6819,0.2656 1.2393,0 2.1542,-0.3246 2.7443,-0.9738 0.6492,-0.6491 0.9737,-1.6229 0.9737,-2.9213 V 79 c -0.4131,0.7082 -0.9147,1.2098 -1.5049,1.5049 -0.5902,0.3541 -1.3279,0.5311 -2.2131,0.5311 -1.3574,0 -2.4788,-0.5311 -3.364,-1.5934 -0.8852,-1.0623 -1.3279,-2.4787 -1.3279,-4.2492 0,-1.7705 0.4427,-3.2164 1.3279,-4.3377 0.8852,-1.0623 2.0066,-1.5935 3.364,-1.5935 0.8852,0 1.6229,0.1771 2.2131,0.5312 0.5902,0.3541 1.0918,0.8557 1.5049,1.5049 V 69.5278 Z M 55.1475,81.036 V 65.1016 H 57.095 V 81.036 Z m 15.4032,-6.1967 v 0.8852 h -8.6755 c 0.0591,1.2984 0.4427,2.3017 1.1509,3.0099 0.7082,0.6492 1.682,0.9737 2.9214,0.9737 0.7672,0 1.4753,-0.0885 2.1245,-0.2655 0.7082,-0.1771 1.3869,-0.4427 2.0361,-0.7968 v 1.7705 c -0.6492,0.2951 -1.3279,0.5312 -2.0361,0.7082 -0.7082,0.1181 -1.4459,0.1771 -2.2131,0.1771 -1.8296,0 -3.2754,-0.5312 -4.3377,-1.5935 -1.0623,-1.0622 -1.5935,-2.5081 -1.5935,-4.3377 0,-1.8295 0.5016,-3.3049 1.5049,-4.4262 1.0033,-1.1213 2.3608,-1.682 4.0722,-1.682 1.5935,0 2.8328,0.5017 3.718,1.5049 0.8853,1.0033 1.3279,2.3607 1.3279,4.0722 z m -8.5868,-0.5312 h 6.7277 c -0.059,-1.0623 -0.3541,-1.8885 -0.8852,-2.4786 -0.5902,-0.6492 -1.3279,-0.9738 -2.2132,-0.9738 -1.0623,0 -1.9179,0.2951 -2.5671,0.8852 -0.6492,0.5902 -1.0032,1.4459 -1.0622,2.5672 z m 22.5738,-6.9049 h -2.4788 v 11.9509 h 2.4788 c 2.1246,0 3.6589,-0.4722 4.6032,-1.4164 1.0033,-1.0033 1.5049,-2.5378 1.5049,-4.6033 0,-2.0066 -0.5016,-3.482 -1.5049,-4.4263 -0.9443,-1.0033 -2.4786,-1.5049 -4.6032,-1.5049 z M 79.9344,81.036 V 65.7212 h 4.3376 c 2.9509,0 5.105,0.6197 6.4624,1.859 1.4164,1.2394 2.1245,3.1574 2.1245,5.7542 0,2.6557 -0.7081,4.6032 -2.1245,5.8426 -1.4164,1.2393 -3.5705,1.859 -6.4624,1.859 z m 25.6726,-6.1967 v 0.8852 h -8.6759 c 0.059,1.2984 0.4427,2.3017 1.1509,3.0099 0.7082,0.6492 1.6818,0.9737 2.921,0.9737 0.708,0 1.417,-0.0885 2.125,-0.2655 0.649,-0.1771 1.328,-0.4427 2.036,-0.7968 v 1.7705 c -0.708,0.2951 -1.417,0.5312 -2.125,0.7082 -0.708,0.1181 -1.416,0.1771 -2.124,0.1771 -1.8298,0 -3.3052,-0.5312 -4.4265,-1.5935 C 95.4262,78.6459 94.895,77.2 94.895,75.3704 c 0,-1.8295 0.5312,-3.3049 1.5935,-4.4262 1.0033,-1.1213 2.3605,-1.682 4.0725,-1.682 1.534,0 2.744,0.5017 3.629,1.5049 0.944,1.0033 1.417,2.3607 1.417,4.0722 z m -8.6759,-0.5312 h 6.7279 c 0,-1.0623 -0.295,-1.8885 -0.885,-2.4786 -0.532,-0.6492 -1.269,-0.9738 -2.213,-0.9738 -1.0628,0 -1.8888,0.2951 -2.479,0.8852 -0.6492,0.5902 -1.0328,1.4459 -1.1509,2.5672 z m 14.4299,6.7279 -4.25,-11.5082 h 1.948 l 3.63,9.6492 3.541,-9.6492 h 2.035 l -4.337,11.5082 z m 19.121,-6.1967 v 0.8852 h -8.676 c 0.059,1.2984 0.443,2.3017 1.151,3.0099 0.709,0.6492 1.682,0.9737 2.922,0.9737 0.708,0 1.416,-0.0885 2.124,-0.2655 0.649,-0.1771 1.328,-0.4427 2.036,-0.7968 v 1.7705 c -0.708,0.2951 -1.416,0.5312 -2.124,0.7082 -0.708,0.1181 -1.417,0.1771 -2.125,0.1771 -1.829,0 -3.275,-0.5312 -4.338,-1.5935 -1.062,-1.0622 -1.593,-2.5081 -1.593,-4.3377 0,-1.8295 0.502,-3.3049 1.505,-4.4262 1.003,-1.1213 2.361,-1.682 4.072,-1.682 1.534,0 2.774,0.5017 3.718,1.5049 0.885,1.0033 1.328,2.3607 1.328,4.0722 z m -8.587,-0.5312 h 6.728 c -0.059,-1.0623 -0.354,-1.8885 -0.885,-2.4786 -0.59,-0.6492 -1.358,-0.9738 -2.302,-0.9738 -1.003,0 -1.829,0.2951 -2.479,0.8852 -0.649,0.5902 -1.003,1.4459 -1.062,2.5672 z m 11.42,6.7279 V 65.1016 h 1.947 V 81.036 Z m 10.003,-10.1803 c -1.003,0 -1.8,0.4131 -2.39,1.2393 -0.59,0.7672 -0.885,1.8295 -0.885,3.1869 0,1.4164 0.295,2.5082 0.885,3.2754 0.59,0.7673 1.387,1.1508 2.39,1.1508 1.003,0 1.8,-0.3835 2.39,-1.1508 0.59,-0.8262 0.885,-1.918 0.885,-3.2754 0,-1.3574 -0.295,-2.4197 -0.885,-3.1869 -0.59,-0.8262 -1.387,-1.2393 -2.39,-1.2393 z m 0,-1.5935 c 1.652,0 2.951,0.5312 3.895,1.5935 0.945,1.0623 1.417,2.5377 1.417,4.4262 0,1.8885 -0.472,3.364 -1.417,4.4262 -0.944,1.0623 -2.243,1.5935 -3.895,1.5935 -1.652,0 -2.921,-0.5312 -3.807,-1.5935 -0.944,-1.0622 -1.416,-2.5377 -1.416,-4.4262 0,-1.8885 0.472,-3.3639 1.416,-4.4262 0.886,-1.0623 2.155,-1.5935 3.807,-1.5935 z m 10.003,10.0919 v 6.0196 h -1.859 V 69.5278 h 1.859 v 1.7705 c 0.413,-0.7082 0.915,-1.2099 1.505,-1.5049 0.649,-0.3541 1.387,-0.5312 2.213,-0.5312 1.358,0 2.479,0.5607 3.364,1.682 0.886,1.1213 1.328,2.5672 1.328,4.3377 0,1.8295 -0.442,3.3049 -1.328,4.4262 -0.885,1.0623 -2.006,1.5935 -3.364,1.5935 -0.826,0 -1.564,-0.1476 -2.213,-0.4426 -0.59,-0.3541 -1.092,-0.8558 -1.505,-1.5049 z m 6.463,-4.0722 c 0,-1.3574 -0.295,-2.4197 -0.886,-3.1869 -0.531,-0.8262 -1.298,-1.2393 -2.301,-1.2393 -1.004,0 -1.8,0.4131 -2.39,1.2393 -0.591,0.7672 -0.886,1.8295 -0.886,3.1869 0,1.4164 0.295,2.5082 0.886,3.2754 0.59,0.8263 1.386,1.2394 2.39,1.2394 1.003,0 1.77,-0.4131 2.301,-1.2394 0.591,-0.7672 0.886,-1.859 0.886,-3.2754 z m 14.695,-0.4426 v 0.8852 h -8.676 c 0.059,1.2984 0.443,2.3017 1.151,3.0099 0.708,0.6492 1.682,0.9737 2.921,0.9737 0.709,0 1.417,-0.0885 2.125,-0.2655 0.649,-0.1771 1.328,-0.4427 2.036,-0.7968 v 1.7705 c -0.708,0.2951 -1.416,0.5312 -2.124,0.7082 -0.709,0.1181 -1.417,0.1771 -2.125,0.1771 -1.829,0 -3.275,-0.5312 -4.338,-1.5935 -1.062,-1.0622 -1.593,-2.5081 -1.593,-4.3377 0,-1.8295 0.502,-3.3049 1.505,-4.4262 1.003,-1.1213 2.36,-1.682 4.072,-1.682 1.534,0 2.744,0.5017 3.629,1.5049 0.945,1.0033 1.417,2.3607 1.417,4.0722 z m -8.587,-0.5312 h 6.639 c 0,-1.0623 -0.265,-1.8885 -0.796,-2.4786 -0.591,-0.6492 -1.358,-0.9738 -2.302,-0.9738 -1.003,0 -1.83,0.2951 -2.479,0.8852 -0.649,0.5902 -1.003,1.4459 -1.062,2.5672 z m 18.059,-4.9574 v 1.9476 c -0.177,-0.118 -0.384,-0.2066 -0.62,-0.2656 -0.295,-0.059 -0.59,-0.0885 -0.885,-0.0885 -1.062,0 -1.888,0.3541 -2.479,1.0623 -0.531,0.7082 -0.796,1.7115 -0.796,3.0098 v 6.0197 h -1.948 V 69.5278 h 1.948 v 1.859 c 0.413,-0.7082 0.914,-1.2393 1.504,-1.5934 0.65,-0.3541 1.447,-0.5312 2.391,-0.5312 0.118,0 0.236,0.0295 0.354,0.0885 z m 18.767,9.4722 v -4.0721 h -3.364 v -1.682 h 5.4 v 6.5508 c -0.767,0.5902 -1.652,1.0033 -2.655,1.2394 -0.945,0.295 -1.948,0.4426 -3.01,0.4426 -2.42,0 -4.308,-0.6787 -5.666,-2.0361 -1.357,-1.4164 -2.036,-3.3639 -2.036,-5.8426 0,-2.5377 0.679,-4.4853 2.036,-5.8427 1.358,-1.4164 3.246,-2.1245 5.666,-2.1245 0.944,0 1.888,0.118 2.832,0.354 0.886,0.2361 1.712,0.6197 2.479,1.1509 v 2.1246 c -0.767,-0.6492 -1.593,-1.1213 -2.479,-1.4164 -0.826,-0.3541 -1.74,-0.5312 -2.744,-0.5312 -1.829,0 -3.216,0.5312 -4.16,1.5935 -0.945,1.0623 -1.417,2.6262 -1.417,4.6918 0,2.0656 0.472,3.6 1.417,4.6033 0.944,1.0623 2.331,1.5934 4.16,1.5934 0.767,0 1.446,-0.059 2.036,-0.177 0.531,-0.118 1.033,-0.3246 1.505,-0.6197 z m 12.217,-9.4722 v 1.9476 c -0.236,-0.118 -0.472,-0.2066 -0.709,-0.2656 -0.236,-0.059 -0.501,-0.0885 -0.796,-0.0885 -1.063,0 -1.889,0.3541 -2.479,1.0623 -0.59,0.7082 -0.885,1.7115 -0.885,3.0098 v 6.0197 h -1.859 V 69.5278 h 1.859 v 1.859 c 0.413,-0.7082 0.944,-1.2393 1.593,-1.5934 0.59,-0.3541 1.358,-0.5312 2.302,-0.5312 0.118,0 0.265,0.0295 0.442,0.0885 z m 5.754,1.505 c -1.003,0 -1.8,0.4131 -2.391,1.2393 -0.59,0.7672 -0.885,1.8295 -0.885,3.1869 0,1.4164 0.266,2.5082 0.797,3.2754 0.59,0.7673 1.416,1.1508 2.479,1.1508 1.003,0 1.8,-0.3835 2.39,-1.1508 0.59,-0.8262 0.885,-1.918 0.885,-3.2754 0,-1.3574 -0.295,-2.4197 -0.885,-3.1869 -0.59,-0.8262 -1.387,-1.2393 -2.39,-1.2393 z m 0,-1.5935 c 1.593,0 2.862,0.5312 3.806,1.5935 0.944,1.0623 1.417,2.5377 1.417,4.4262 0,1.8885 -0.473,3.364 -1.417,4.4262 -0.944,1.0623 -2.213,1.5935 -3.806,1.5935 -1.653,0 -2.951,-0.5312 -3.895,-1.5935 -0.945,-1.0622 -1.417,-2.5377 -1.417,-4.4262 0,-1.8885 0.472,-3.3639 1.417,-4.4262 0.944,-1.0623 2.242,-1.5935 3.895,-1.5935 z m 7.967,7.2591 v -6.9935 h 1.859 v 6.9049 c 0,1.0623 0.206,1.8886 0.62,2.4787 0.472,0.5312 1.121,0.7967 1.947,0.7967 1.004,0 1.8,-0.3245 2.39,-0.9737 0.591,-0.6492 0.886,-1.5345 0.886,-2.6558 v -6.5508 h 1.859 V 81.036 h -1.859 v -1.7705 c -0.473,0.7082 -1.004,1.2394 -1.594,1.5935 -0.59,0.295 -1.298,0.4426 -2.124,0.4426 -1.299,0 -2.302,-0.4131 -3.01,-1.2394 -0.65,-0.7672 -0.974,-1.9475 -0.974,-3.5409 z m 15.138,2.8328 v 6.0196 h -1.948 V 69.5278 h 1.948 v 1.7705 c 0.354,-0.7082 0.826,-1.2099 1.416,-1.5049 0.649,-0.3541 1.387,-0.5312 2.213,-0.5312 1.417,0 2.538,0.5607 3.364,1.682 0.885,1.1213 1.328,2.5672 1.328,4.3377 0,1.8295 -0.443,3.3049 -1.328,4.4262 -0.826,1.0623 -1.947,1.5935 -3.364,1.5935 -0.826,0 -1.564,-0.1476 -2.213,-0.4426 -0.59,-0.3541 -1.062,-0.8558 -1.416,-1.5049 z m 6.373,-4.0722 c 0,-1.3574 -0.295,-2.4197 -0.885,-3.1869 -0.531,-0.8262 -1.298,-1.2393 -2.301,-1.2393 -1.004,0 -1.8,0.4131 -2.391,1.2393 -0.531,0.7672 -0.796,1.8295 -0.796,3.1869 0,1.4164 0.265,2.5082 0.796,3.2754 0.591,0.8263 1.387,1.2394 2.391,1.2394 1.003,0 1.77,-0.4131 2.301,-1.2394 0.59,-0.7672 0.885,-1.859 0.885,-3.2754 z m 12.217,-5.4 v 1.7705 c -0.531,-0.2361 -1.092,-0.4426 -1.682,-0.6197 -0.59,-0.118 -1.18,-0.177 -1.771,-0.177 -0.944,0 -1.652,0.1475 -2.124,0.4426 -0.472,0.2951 -0.708,0.7377 -0.708,1.3279 0,0.4131 0.177,0.7377 0.531,0.9737 0.295,0.2361 0.974,0.4722 2.036,0.7082 l 0.619,0.1771 c 1.299,0.2951 2.243,0.7082 2.833,1.2393 0.59,0.4722 0.885,1.1804 0.885,2.1246 0,1.0623 -0.442,1.9181 -1.327,2.5672 -0.827,0.5902 -1.977,0.8853 -3.453,0.8853 -0.59,0 -1.239,-0.059 -1.947,-0.1771 -0.649,-0.118 -1.328,-0.295 -2.036,-0.5311 v -1.9476 c 0.649,0.3541 1.327,0.6492 2.036,0.8853 0.649,0.177 1.298,0.2656 1.947,0.2656 0.885,0 1.594,-0.1771 2.125,-0.5312 0.472,-0.2951 0.708,-0.7082 0.708,-1.2393 0,-0.5312 -0.177,-0.9148 -0.531,-1.1509 -0.354,-0.295 -1.121,-0.5606 -2.302,-0.7967 l -0.619,-0.177 c -1.181,-0.2361 -2.037,-0.6197 -2.568,-1.1508 -0.531,-0.5312 -0.796,-1.2394 -0.796,-2.1246 0,-1.0623 0.383,-1.8886 1.15,-2.4787 0.768,-0.5902 1.859,-0.8853 3.276,-0.8853 0.708,0 1.357,0.059 1.947,0.1771 0.649,0.118 1.24,0.2655 1.771,0.4426 z"
       fill="#000000"
       id="path1"
       style="fill:#626c75;fill-opacity:1" />
    <path
       d="M 93.3027,20.3086 116.585,6.8529 c 3.098,-1.770481 7.17,-0.70819 9.029,2.47868 1.859,3.18686 0.708,7.17042 -2.479,9.02942 l -13.367,7.7901 z"
       fill="#ea4335"
       id="path2" />
    <path
       d="M 116.585,45.1856 93.303,31.73 c -3.1869,-1.7705 -4.2491,-5.8426 -2.3901,-9.0295 1.7704,-3.0983 5.8425,-4.2491 9.0294,-2.3901 L 123.136,33.766 c 3.186,1.7705 4.337,5.8426 2.478,9.0295 -1.239,2.1245 -3.452,3.2754 -5.754,3.2754 -1.151,0 -2.213,-0.2656 -3.275,-0.8853 z"
       fill="#4285f4"
       id="path3" />
    <path
       d="m 137.212,42.7945 c -1.771,-3.1869 -0.709,-7.259 2.478,-9.0295 l 13.633,-7.9671 16.2,5.931 -23.193,13.4557 c -1.063,0.6197 -2.214,0.8853 -3.364,0.8853 -2.302,0 -4.515,-1.1509 -5.754,-3.2754 z"
       fill="#fbbc04"
       id="path4" />
    <path
       d="M 162.884,31.7282 139.69,18.361 c -3.187,-1.859 -4.249,-5.84256 -2.478,-9.02942 1.859,-3.18687 5.931,-4.249161 9.118,-2.47868 l 23.193,13.4557 c 3.187,1.859 4.249,5.8426 2.39,9.0294 -1.151,2.1246 -3.452,3.2754 -5.665,3.2754 -1.151,0 -2.302,-0.2656 -3.364,-0.8852 z"
       fill="#0f9d58"
       id="path5" />
  </g>
</svg>
