<svg width="704" height="90" viewBox="0 0 704 90" fill="none" xmlns="http://www.w3.org/2000/svg">
<path d="M496.992 2H512.978V24.0874L512.002 34.9481H512.978C514.768 32.0193 517.371 29.6601 520.788 27.8703C524.205 26.0806 527.906 25.1857 531.893 25.1857C539.459 25.1857 545.235 27.4636 549.221 32.0193C553.289 36.4938 555.322 42.7173 555.322 50.6899V89.3734H539.337V52.6424C539.337 48.6561 538.238 45.5647 536.042 43.3681C533.927 41.1716 531.079 40.0733 527.5 40.0733C523.269 40.0733 519.771 41.7817 517.005 45.1986C514.32 48.6154 512.978 52.8051 512.978 57.7676V89.3734H496.992V2Z" fill="white"/>
<path d="M474.476 88.7838C471.384 88.7838 468.537 88.3363 465.934 87.4414C463.331 86.4652 461.215 85.1636 459.588 83.5365C455.765 79.8756 453.853 74.669 453.853 67.9167V39.2396H442.992V25.5723H453.853V8H469.839V25.5723H485.092V39.2396H469.839V64.9879C469.839 68.1607 470.53 70.4386 471.913 71.8216C473.052 73.1233 475.005 73.7741 477.771 73.7741C479.316 73.7741 480.577 73.5707 481.554 73.1639C482.611 72.7572 483.954 72.0657 485.581 71.0894V86.7093C482.082 88.0923 478.381 88.7838 474.476 88.7838Z" fill="white"/>
<path d="M302.992 27H320.931L331.669 67.3919H332.523L344.97 27H361.322L373.77 67.3919H374.624L385.362 27H403.057L383.166 89.2352H365.96L353.268 48.9654H352.414L339.845 89.2352H322.761L302.992 27Z" fill="white"/>
<path d="M232.134 89.3259C226.52 89.3259 221.395 87.9428 216.758 85.1768C212.202 82.3295 208.582 78.4245 205.897 73.462C203.294 68.4181 201.992 62.6827 201.992 56.2558C201.992 49.9102 203.294 44.2155 205.897 39.1716C208.582 34.1277 212.202 30.2227 216.758 27.4567C221.395 24.6094 226.52 23.1857 232.134 23.1857C236.364 23.1857 240.106 24.1212 243.36 25.9924C246.614 27.7821 249.096 30.0193 250.804 32.704H251.78L250.804 23.9179V0H266.668V87.3734H251.78V79.9296H250.804C249.177 82.6142 246.696 84.8514 243.36 86.6412C240.106 88.431 236.364 89.3259 232.134 89.3259ZM234.818 74.5602C237.828 74.5602 240.635 73.7874 243.238 72.2417C245.842 70.696 247.916 68.5401 249.462 65.7741C251.008 63.0081 251.78 59.8353 251.78 56.2558C251.78 52.6762 251.008 49.5034 249.462 46.7374C247.916 43.9714 245.842 41.8562 243.238 40.3919C240.635 38.8462 237.828 38.0733 234.818 38.0733C231.889 38.0733 229.123 38.8462 226.52 40.3919C223.917 41.8562 221.842 43.9714 220.297 46.7374C218.751 49.5034 217.978 52.6762 217.978 56.2558C217.978 59.8353 218.751 63.0081 220.297 65.7741C221.842 68.5401 223.917 70.696 226.52 72.2417C229.123 73.7874 231.889 74.5602 234.818 74.5602Z" fill="white"/>
<path d="M173.992 2H189.978V89.3734H173.992V2Z" fill="white"/>
<path d="M99.2658 89.1877C91.7813 89.1877 86.0866 86.8691 82.1816 82.232C78.2767 77.5949 76.3242 71.1273 76.3242 62.8293V25H92.3101V60.8768C92.3101 65.1072 93.327 68.4426 95.3609 70.8832C97.3947 73.2425 100.079 74.4221 103.415 74.4221C107.971 74.4221 111.591 72.7544 114.276 69.4189C116.96 66.0834 118.302 61.853 118.302 56.7278V25H134.288V87.2352H119.279V79.4253H118.302C116.431 82.4354 113.787 84.8353 110.371 86.6251C107.035 88.3335 103.333 89.1877 99.2658 89.1877Z" fill="white"/>
<path d="M0 2H34.1684C39.0496 2 43.524 3.01691 47.5916 5.05074C51.7407 7.08458 54.9948 9.85059 57.354 13.3488C59.7133 16.847 60.8929 20.6706 60.8929 24.8196C60.8929 29.2127 59.7946 33.0363 57.5981 36.2904C55.4829 39.4632 52.6762 41.9038 49.178 43.6122V44.5884C53.7338 46.2155 57.354 48.8188 60.0387 52.3983C62.7233 55.8965 64.0657 60.1269 64.0657 65.0894C64.0657 69.8893 62.764 74.1603 60.1607 77.9026C57.6388 81.5635 54.1813 84.4108 49.7882 86.4447C45.4765 88.3971 40.6766 89.3734 35.3887 89.3734H0V2ZM32.9481 37.6327C36.5276 37.6327 39.375 36.6565 41.4902 34.704C43.6867 32.6702 44.785 30.1482 44.785 27.1381C44.785 24.2094 43.7274 21.7688 41.6122 19.8164C39.5784 17.7825 36.853 16.7656 33.4362 16.7656H16.474V37.6327H32.9481ZM34.7785 74.3637C38.7648 74.3637 41.8562 73.3468 44.0528 71.313C46.3307 69.1978 47.4696 66.4724 47.4696 63.137C47.4696 59.8015 46.3307 57.0761 44.0528 54.961C41.7749 52.8458 38.5208 51.7882 34.2904 51.7882H16.474V74.3637H34.7785Z" fill="white"/>
<mask id="mask0_136_16970" style="mask-type:alpha" maskUnits="userSpaceOnUse" x="590" y="2" width="114" height="87">
<path d="M687.234 2H703.638V89H687.234V2Z" fill="black"/>
<path d="M623.556 2H642.39L675.076 89H656.971L649.681 68.2221H616.387L609.097 89H590.992L623.556 2ZM644.334 53.155L636.679 31.2835L633.52 20.8338H632.548L629.389 31.2835L621.612 53.155H644.334Z" fill="black"/>
</mask>
<g mask="url(#mask0_136_16970)">
<rect x="590.992" y="2" width="113" height="29" fill="#EA4235"/>
<rect x="590.992" y="31" width="113" height="29" fill="#F9AB00"/>
<rect x="590.992" y="60" width="113" height="29" fill="#33A855"/>
</g>
<path fill-rule="evenodd" clip-rule="evenodd" d="M153.987 17.99C158.403 17.99 161.982 14.4105 161.982 9.995C161.982 5.57948 158.403 2 153.987 2C149.572 2 145.992 5.57948 145.992 9.995C145.992 14.4105 149.572 17.99 153.987 17.99ZM161.978 26.4531H145.992V88.6884H161.978V26.4531Z" fill="white"/>
<path fill-rule="evenodd" clip-rule="evenodd" d="M422.987 17.99C427.403 17.99 430.982 14.4105 430.982 9.995C430.982 5.57948 427.403 2 422.987 2C418.572 2 414.992 5.57948 414.992 9.995C414.992 14.4105 418.572 17.99 422.987 17.99ZM430.978 26.4531H414.992V88.6884H430.978V26.4531Z" fill="white"/>
</svg>
