<svg width="91" height="78" viewBox="0 0 91 78" fill="none" xmlns="http://www.w3.org/2000/svg">
<path fill-rule="evenodd" clip-rule="evenodd" d="M67.9899 5.39261C64.1363 3.68028 59.6217 5.41932 57.9108 9.27394L49.0101 29.3198C49.0099 29.3202 49.0097 29.3207 49.0095 29.3211C49.0081 29.3245 49.0065 29.3283 49.0043 29.3336C49.0027 29.3374 49.0008 29.342 48.9984 29.3478L48.9977 29.3495C48.9924 29.3625 48.9841 29.3826 48.9747 29.4041C48.9489 29.4637 48.9254 29.5206 48.9033 29.5782L48.902 29.5815C48.8905 29.6112 48.8807 29.6358 48.872 29.6577C48.8565 29.6968 48.8443 29.7274 48.8313 29.7634C48.8209 29.7927 48.813 29.8143 48.8064 29.8323C48.7961 29.8606 48.789 29.88 48.7806 29.9062L48.7768 29.9179L48.7726 29.9295C48.7486 29.9961 48.7263 30.065 48.7004 30.1459C48.6936 30.1701 48.6871 30.1911 48.6833 30.2032L48.6824 30.206C48.6769 30.2237 48.676 30.227 48.676 30.2269L48.6723 30.2412L48.6679 30.2553C48.6391 30.3493 48.6139 30.4451 48.5846 30.5575L48.5782 30.5818C48.3905 31.3369 48.3226 32.1017 48.3655 32.8525C48.3667 32.8715 48.3672 32.8879 48.3674 32.8944L48.3674 32.8956C48.3675 32.8966 48.3675 32.8974 48.3675 32.8981L48.3676 32.8991C48.373 32.9947 48.382 33.0902 48.3925 33.2008L48.3925 33.2017C48.3962 33.2407 48.399 33.2703 48.4025 33.3004L48.4031 33.3054L48.4036 33.3103C48.4105 33.377 48.4203 33.4479 48.4319 33.5218L48.4324 33.5254C48.4366 33.5533 48.4411 33.582 48.4461 33.6135L48.4463 33.6148C48.4507 33.6427 48.4554 33.6729 48.46 33.7033C48.4698 33.76 48.4774 33.8032 48.4859 33.8435L48.4872 33.8495L48.4884 33.8556C48.5044 33.9385 48.5178 34.0078 48.5334 34.076C48.5335 34.0762 48.5335 34.0765 48.5336 34.0767L48.5589 34.1864C48.559 34.1866 48.559 34.1869 48.5591 34.1872C48.5826 34.2879 48.6022 34.3709 48.6242 34.4494L48.6275 34.4613L48.6294 34.4688C48.6298 34.4703 48.6305 34.4727 48.6315 34.4763L48.6321 34.4783C48.6344 34.4862 48.6393 34.5026 48.6444 34.5224C48.6464 34.5291 48.6483 34.5357 48.6502 34.5422C48.6781 34.6374 48.7013 34.7168 48.7272 34.7948C48.7295 34.801 48.7315 34.8066 48.7331 34.8112C48.7351 34.817 48.7369 34.8225 48.7384 34.8267L48.7397 34.8299L48.746 34.8483C48.7837 34.9574 48.8165 35.0523 48.8515 35.143C48.8542 35.1493 48.8566 35.155 48.8586 35.1597L48.8589 35.1604C48.8624 35.1688 48.8647 35.1742 48.867 35.1797L48.8722 35.1918L48.877 35.2041C48.9147 35.3019 48.9542 35.3986 48.9955 35.4941L49.0036 35.5128L49.0076 35.5238L49.0105 35.5302L49.0138 35.5373L49.021 35.5526L49.0239 35.559C49.0614 35.6432 49.1007 35.7264 49.1416 35.8085L49.2 35.9214C49.2378 35.9947 49.2725 36.0619 49.3069 36.1247L49.3996 36.2828C49.4216 36.3204 49.4354 36.3448 49.4462 36.3639C49.4601 36.3886 49.4691 36.4043 49.4841 36.4281L49.4858 36.4307L49.4874 36.4332C49.5267 36.4964 49.5698 36.562 49.6172 36.6337L49.6178 36.6345L49.6872 36.7399C49.7356 36.8111 49.7856 36.8814 49.8371 36.9509C49.8637 36.9838 49.886 37.0149 49.8971 37.0304C49.958 37.11 50.0206 37.1886 50.0849 37.2663L50.0933 37.2764L50.1013 37.2869C50.105 37.2916 50.1086 37.2963 50.1142 37.3034L50.1147 37.304C50.1178 37.3081 50.1216 37.3129 50.1258 37.3183C50.1878 37.3932 50.2545 37.4683 50.3312 37.5545L50.3441 37.569L50.3463 37.5717C50.3493 37.5751 50.3532 37.5794 50.3572 37.5839C50.3605 37.5876 50.3644 37.5921 50.3687 37.5972C50.4284 37.6627 50.4931 37.729 50.5644 37.8011C50.5797 37.8159 50.5923 37.8288 50.5983 37.8349L50.5997 37.8363C50.6023 37.839 50.6041 37.8408 50.6051 37.8418L50.6085 37.845C50.6817 37.915 50.7485 37.9788 50.8163 38.0407C50.8165 38.041 50.8168 38.0412 50.8171 38.0415L50.8985 38.1155C50.9516 38.1628 51.0086 38.2119 51.0663 38.2607C51.0921 38.2818 51.1165 38.3023 51.1364 38.3191L51.1382 38.3206C51.1589 38.3381 51.1751 38.3517 51.1905 38.3643C51.2147 38.3831 51.2387 38.402 51.2608 38.4195L51.2615 38.42C51.2856 38.4389 51.3076 38.4562 51.3289 38.4729C51.3888 38.5184 51.4482 38.5626 51.5104 38.6089C51.5258 38.6196 51.5406 38.6301 51.5528 38.6387L51.5542 38.6397C51.5708 38.6515 51.5831 38.6602 51.5946 38.6681L51.5953 38.6686C51.6762 38.7246 51.7597 38.7802 51.8492 38.8397C51.8491 38.8396 51.8492 38.8397 51.8492 38.8397L51.8505 38.8404C51.856 38.8438 51.87 38.8522 51.886 38.8625C52.5199 39.2671 53.2201 39.582 53.9706 39.7875L53.9949 39.7938C54.0986 39.8209 54.2043 39.8469 54.3086 39.871L54.3184 39.8732L54.3281 39.8758C54.3441 39.88 54.3602 39.8835 54.3992 39.8918C54.4873 39.9098 54.5616 39.9248 54.6346 39.9369L54.6381 39.9375C54.6763 39.9441 54.7012 39.9487 54.7213 39.9524C54.7466 39.9571 54.7643 39.9604 54.7911 39.9643C54.8299 39.9698 54.8591 39.9742 54.8846 39.9781C54.9209 39.9835 54.9496 39.9879 54.9877 39.9925C55.0603 40.0012 55.1256 40.009 55.1916 40.0157C55.2144 40.018 55.2354 40.0206 55.2492 40.0222L55.2512 40.0225C55.2663 40.0243 55.2738 40.0252 55.28 40.0259C55.2805 40.0259 55.2809 40.026 55.2814 40.026L77.1191 42.0663C77.119 42.0663 77.1191 42.0663 77.1191 42.0663C81.3168 42.4573 85.0402 39.371 85.4343 35.1726C85.8283 30.9747 82.743 27.2529 78.544 26.86L67.2812 25.8085L71.8724 15.4701C73.585 11.6145 71.848 7.10316 67.9905 5.39284L67.9899 5.39261ZM68.5594 4.10972C63.9969 2.08275 58.6532 4.14169 56.6279 8.70444C56.6279 8.70446 56.6279 8.70441 56.6279 8.70444L47.7257 28.7538L47.7241 28.7574C47.7147 28.779 47.7063 28.7993 47.7009 28.8124L47.7002 28.8143C47.694 28.8294 47.6911 28.8362 47.6885 28.8422L47.6879 28.8437C47.6551 28.919 47.6239 28.9947 47.5936 29.0736C47.5889 29.0856 47.5831 29.1002 47.5766 29.1165C47.5572 29.1656 47.5314 29.2305 47.5105 29.2885L47.5093 29.2919C47.5067 29.2991 47.503 29.3094 47.4985 29.3218C47.485 29.3588 47.4647 29.4145 47.4485 29.4639C47.4153 29.5567 47.3859 29.6482 47.3606 29.7274L47.3532 29.7504L47.3484 29.7688C47.3484 29.7687 47.3475 29.7719 47.342 29.7897L47.3411 29.7925C47.3371 29.8055 47.3298 29.8287 47.3225 29.8553C47.2859 29.9758 47.2551 30.0936 47.2281 30.1967L47.2182 30.2347L47.2172 30.2386C46.9939 31.135 46.9132 32.0433 46.9644 32.9351L46.9644 32.9357C46.9644 32.9364 46.9645 32.9372 46.9645 32.9382L46.9645 32.9395C46.9647 32.946 46.9652 32.9623 46.9664 32.9812C46.9735 33.1044 46.9847 33.2232 46.9946 33.3278L46.9951 33.3331L46.9953 33.3351C46.9986 33.3702 47.0026 33.4133 47.008 33.4597C47.0181 33.5565 47.0314 33.6506 47.0447 33.736C47.0496 33.7683 47.0547 33.8008 47.0594 33.8306L47.0595 33.8317C47.0645 33.8632 47.069 33.8919 47.0732 33.9198L47.0743 33.9273L47.0764 33.9395C47.0857 33.9929 47.0971 34.0594 47.1113 34.127C47.1264 34.2053 47.1439 34.2964 47.1654 34.3902L47.1917 34.504L47.1921 34.5058L47.1935 34.5119C47.215 34.6037 47.2402 34.7114 47.2702 34.8194C47.2759 34.8414 47.2814 34.8601 47.2839 34.8687L47.2845 34.8706C47.2855 34.8742 47.2862 34.8766 47.2866 34.8781L47.2894 34.8894L47.294 34.9051C47.2971 34.9158 47.3003 34.9267 47.3036 34.9379C47.3317 35.0341 47.3639 35.1444 47.401 35.2548L47.4081 35.2759L47.4105 35.2817C47.4119 35.2859 47.4138 35.2914 47.4158 35.2972C47.4178 35.3029 47.4203 35.31 47.4233 35.318C47.4598 35.4238 47.5011 35.5431 47.5474 35.662L47.5517 35.6732L47.5565 35.6843C47.5589 35.6898 47.5611 35.6952 47.5646 35.7036L47.565 35.7043C47.5669 35.7089 47.5692 35.7145 47.5718 35.7206C47.6131 35.8272 47.6562 35.9327 47.7012 36.0373C47.7188 36.082 47.7375 36.1217 47.7452 36.1378C47.7907 36.2397 47.8384 36.3405 47.8881 36.44L47.8903 36.4444L47.9524 36.5644C47.9525 36.5646 47.9525 36.5648 47.9526 36.5649C47.9913 36.6399 48.0354 36.7253 48.0815 36.8091L48.0861 36.8175L48.1885 36.9923C48.1918 36.998 48.1972 37.0075 48.2041 37.0195C48.2267 37.0591 48.265 37.1263 48.2973 37.1774C48.3474 37.2578 48.3998 37.3373 48.4459 37.4071C48.446 37.4072 48.4461 37.4073 48.4462 37.4074L48.5205 37.5203L48.5233 37.5243C48.5873 37.6187 48.6535 37.7117 48.7219 37.8034L48.7364 37.8229L48.7466 37.8348L48.7508 37.8405L48.7553 37.8468L48.7674 37.8638L48.774 37.8725C48.8461 37.9669 48.9201 38.0601 48.9961 38.1521C49.0002 38.1573 49.0039 38.1621 49.0069 38.166L49.0132 38.174C49.0158 38.1774 49.0181 38.1803 49.0203 38.1832L49.0276 38.1928L49.0352 38.202C49.1163 38.3006 49.2002 38.395 49.2746 38.4785C49.2801 38.4851 49.2851 38.4907 49.2891 38.4953C49.2931 38.4998 49.297 38.5041 49.3 38.5075L49.3039 38.5124L49.3189 38.5289C49.4059 38.6251 49.495 38.7159 49.574 38.7958L49.5842 38.8061L49.5915 38.8129C49.5926 38.814 49.5943 38.8157 49.5969 38.8184L49.5984 38.8199C49.6055 38.8271 49.622 38.844 49.6413 38.8622C49.7123 38.93 49.7897 39.004 49.87 39.0773L49.8714 39.0786L49.9595 39.1588L49.9621 39.1611C50.0295 39.2211 50.0989 39.2808 50.1652 39.3369L50.1705 39.3413L50.1758 39.3456C50.1928 39.3594 50.2103 39.3741 50.2335 39.3937L50.2353 39.3952C50.2565 39.4131 50.2831 39.4355 50.311 39.4582L50.317 39.463L50.323 39.4677C50.3452 39.485 50.3681 39.503 50.3931 39.5227L50.3939 39.5233C50.4181 39.5424 50.4444 39.5631 50.4708 39.5836L50.4736 39.5858L50.4764 39.5879C50.5467 39.6414 50.6154 39.6924 50.6807 39.741L50.6919 39.7494L50.7021 39.7564C50.7136 39.7643 50.7259 39.7731 50.7425 39.7849L50.7438 39.7857C50.7589 39.7964 50.7779 39.8099 50.7972 39.8233C50.8923 39.889 50.9884 39.9529 51.0782 40.0126L51.0832 40.0159L51.0859 40.0177C51.1032 40.0289 51.1188 40.0383 51.1248 40.0419L51.1259 40.0426C51.1268 40.0431 51.1275 40.0435 51.1281 40.0439L51.1287 40.0442C51.8814 40.525 52.7132 40.8989 53.6043 41.1424L53.6081 41.1435L53.6404 41.1519C53.754 41.1816 53.8696 41.2101 53.9843 41.2366C54.028 41.2478 54.0693 41.2566 54.0985 41.2629L54.1116 41.2657L54.1204 41.2675C54.2045 41.2846 54.3019 41.3044 54.4024 41.3212C54.4089 41.3223 54.419 41.3242 54.4316 41.3264C54.4727 41.3339 54.5399 41.3461 54.5903 41.3535L54.5939 41.354C54.6066 41.3558 54.6243 41.3584 54.6451 41.3615C54.6959 41.3691 54.7644 41.3793 54.8199 41.386L54.8225 41.3863C54.8925 41.3947 54.9697 41.404 55.05 41.4122L55.0516 41.4123C55.0582 41.413 55.0656 41.4139 55.0818 41.4158L55.0839 41.4161C55.0979 41.4178 55.1196 41.4204 55.143 41.4227L55.1469 41.4231L76.9887 43.4638C81.958 43.9268 86.3653 40.2736 86.8317 35.3038C87.2982 30.3334 83.6452 25.9276 78.6748 25.4625L69.3569 24.5926L73.1551 16.0399C73.1551 16.0399 73.1551 16.0398 73.1551 16.0399C75.1825 11.4757 73.1261 6.13465 68.5596 4.10983" fill="#4285F4"/>
<path fill-rule="evenodd" clip-rule="evenodd" d="M22.2131 72.2042C26.0667 73.9165 30.5813 72.1775 32.2922 68.3229L41.1929 48.277C41.1931 48.2766 41.1933 48.2761 41.1935 48.2757C41.1949 48.2723 41.1965 48.2685 41.1987 48.2632C41.2003 48.2594 41.2022 48.2548 41.2046 48.249L41.2053 48.2473C41.2106 48.2343 41.2189 48.2142 41.2283 48.1927C41.2542 48.1331 41.2776 48.0762 41.2997 48.0186L41.301 48.0153C41.3125 47.9856 41.3223 47.961 41.331 47.9391C41.3465 47.9 41.3587 47.8694 41.3717 47.8334C41.3821 47.8041 41.39 47.7825 41.3966 47.7645C41.4069 47.7362 41.414 47.7168 41.4224 47.6906L41.4262 47.6789L41.4304 47.6673C41.4544 47.6007 41.4767 47.5318 41.5026 47.4509C41.5094 47.4267 41.516 47.4057 41.5197 47.3936L41.5206 47.3908C41.5261 47.3731 41.527 47.3698 41.527 47.3699L41.5307 47.3557L41.5351 47.3415C41.5639 47.2475 41.5891 47.1517 41.6184 47.0393L41.6248 47.015C41.8125 46.2599 41.8804 45.4951 41.8375 44.7443C41.8363 44.7253 41.8358 44.7089 41.8356 44.7024L41.8356 44.7012C41.8355 44.7002 41.8355 44.6994 41.8355 44.6987L41.8354 44.6977C41.83 44.6021 41.821 44.5066 41.8106 44.396L41.8105 44.3951C41.8068 44.3561 41.804 44.3265 41.8005 44.2964L41.7999 44.2914L41.7994 44.2865C41.7925 44.2198 41.7827 44.1489 41.7712 44.075L41.7706 44.0714C41.7664 44.0435 41.7619 44.0148 41.7569 43.9833L41.7567 43.982C41.7523 43.9541 41.7476 43.9239 41.743 43.8935C41.7332 43.8368 41.7256 43.7936 41.7171 43.7533L41.7158 43.7473L41.7146 43.7412C41.6986 43.6583 41.6852 43.589 41.6696 43.5208C41.6695 43.5206 41.6695 43.5204 41.6694 43.5201L41.6441 43.4104C41.644 43.4102 41.644 43.4099 41.6439 43.4096C41.6204 43.3089 41.6008 43.2259 41.5788 43.1474L41.5755 43.1355L41.5736 43.128C41.5732 43.1265 41.5725 43.1241 41.5715 43.1205L41.5709 43.1185C41.5686 43.1106 41.5637 43.0942 41.5586 43.0744C41.5566 43.0677 41.5547 43.0612 41.5528 43.0546C41.5249 42.9594 41.5017 42.88 41.4758 42.802C41.4735 42.7958 41.4716 42.7902 41.4699 42.7856C41.4679 42.7798 41.4661 42.7744 41.4646 42.7701L41.4633 42.7669L41.457 42.7485C41.4193 42.6394 41.3865 42.5445 41.3515 42.4538C41.3488 42.4475 41.3464 42.4418 41.3444 42.4371L41.3441 42.4364C41.3406 42.428 41.3383 42.4226 41.336 42.4171L41.3308 42.405L41.326 42.3927C41.2883 42.2949 41.2488 42.1982 41.2075 42.1027L41.1994 42.084L41.1954 42.073L41.1925 42.0666L41.1892 42.0595L41.182 42.0442L41.1791 42.0378C41.1416 41.9536 41.1023 41.8704 41.0614 41.7883L41.003 41.6754C40.9652 41.6021 40.9305 41.5349 40.8961 41.4721L40.8034 41.314C40.7815 41.2764 40.7676 41.252 40.7568 41.2329C40.7429 41.2082 40.7339 41.1925 40.7189 41.1687L40.7172 41.1661L40.7156 41.1636C40.6763 41.1005 40.6332 41.0348 40.5858 40.9631L40.5853 40.9623L40.5158 40.8569C40.4674 40.7857 40.4174 40.7154 40.3659 40.6459C40.3393 40.613 40.317 40.5819 40.3059 40.5664C40.2451 40.4868 40.1824 40.4082 40.1181 40.3305L40.1097 40.3204L40.1017 40.3099C40.098 40.3052 40.0944 40.3005 40.0889 40.2934L40.0883 40.2928C40.0852 40.2887 40.0814 40.2839 40.0772 40.2785C40.0153 40.2036 39.9485 40.1285 39.8718 40.0423L39.8589 40.0278L39.8567 40.0251C39.8537 40.0217 39.8498 40.0174 39.8458 40.0129C39.8425 40.0092 39.8386 40.0047 39.8343 39.9996C39.7746 39.9341 39.7099 39.8678 39.6386 39.7957C39.6233 39.7809 39.6107 39.768 39.6047 39.7619L39.6033 39.7605C39.6007 39.7578 39.5989 39.756 39.5979 39.755L39.5945 39.7518C39.5213 39.6818 39.4545 39.618 39.3867 39.5561C39.3865 39.5558 39.3862 39.5556 39.3859 39.5553L39.3045 39.4813C39.2514 39.434 39.1944 39.3849 39.1367 39.3361C39.1109 39.315 39.0865 39.2945 39.0666 39.2778L39.0649 39.2762C39.0441 39.2587 39.0279 39.2451 39.0125 39.2325C38.9883 39.2137 38.9643 39.1948 38.9422 39.1773L38.9415 39.1768C38.9174 39.1579 38.8955 39.1406 38.8741 39.1239C38.8142 39.0784 38.7548 39.0342 38.6926 38.9879C38.6772 38.9772 38.6625 38.9667 38.6502 38.9581L38.6488 38.9571C38.6322 38.9453 38.6199 38.9366 38.6084 38.9287L38.6077 38.9282C38.5268 38.8722 38.4434 38.8166 38.3538 38.7571C38.3539 38.7572 38.3538 38.7571 38.3538 38.7571L38.3525 38.7564C38.347 38.753 38.333 38.7446 38.317 38.7343C37.6831 38.3297 36.9829 38.0148 36.2324 37.8093L36.2081 37.803C36.1044 37.7759 35.9987 37.7499 35.8944 37.7258L35.8847 37.7236L35.875 37.721C35.8589 37.7168 35.8428 37.7133 35.8038 37.705C35.7157 37.687 35.6414 37.672 35.5684 37.6599L35.5649 37.6593C35.5267 37.6527 35.5018 37.6481 35.4817 37.6444C35.4564 37.6397 35.4387 37.6364 35.4119 37.6325C35.3731 37.627 35.3439 37.6226 35.3184 37.6188C35.2821 37.6133 35.2534 37.6089 35.2153 37.6043C35.1427 37.5956 35.0774 37.5878 35.0114 37.5811C34.9886 37.5788 34.9676 37.5762 34.9538 37.5746L34.9518 37.5743C34.9367 37.5725 34.9292 37.5716 34.923 37.5709C34.9225 37.5709 34.9221 37.5709 34.9216 37.5708L13.0839 35.5305C13.084 35.5305 13.0839 35.5305 13.0839 35.5305C8.8862 35.1395 5.16276 38.2258 4.76872 42.4242C4.37471 46.6221 7.46002 50.3439 11.659 50.7368L22.9218 51.7883L18.3306 62.1267C16.618 65.9823 18.3551 70.4936 22.2125 72.204L22.2131 72.2042ZM21.6436 73.4871C26.2061 75.514 31.5498 73.4551 33.5751 68.8924C33.5751 68.8923 33.5751 68.8924 33.5751 68.8924L42.4773 48.843L42.4789 48.8394C42.4883 48.8178 42.4967 48.7975 42.5021 48.7844L42.5028 48.7825C42.509 48.7674 42.5119 48.7606 42.5145 48.7546L42.5151 48.7531C42.5479 48.6778 42.5791 48.6021 42.6094 48.5232C42.6141 48.5112 42.6199 48.4966 42.6264 48.4803C42.6458 48.4312 42.6716 48.3663 42.6925 48.3083L42.6937 48.3049C42.6963 48.2977 42.7 48.2874 42.7045 48.275C42.718 48.238 42.7383 48.1823 42.7545 48.1329C42.7877 48.0401 42.8171 47.9486 42.8424 47.8694L42.8498 47.8464L42.8546 47.8281C42.8546 47.8281 42.8555 47.8249 42.861 47.8071L42.8619 47.8043C42.8659 47.7913 42.8732 47.7681 42.8805 47.7415C42.9171 47.621 42.9479 47.5032 42.9749 47.4001L42.9848 47.3621L42.9858 47.3582C43.2091 46.4618 43.2898 45.5535 43.2386 44.6617L43.2386 44.6611C43.2386 44.6604 43.2385 44.6596 43.2385 44.6586L43.2385 44.6573C43.2383 44.6508 43.2378 44.6345 43.2366 44.6156C43.2295 44.4924 43.2183 44.3736 43.2084 44.269L43.2079 44.2637L43.2077 44.2617C43.2044 44.2266 43.2004 44.1835 43.195 44.1371C43.1849 44.0403 43.1716 43.9462 43.1583 43.8609C43.1534 43.8285 43.1483 43.796 43.1436 43.7662L43.1435 43.7651C43.1385 43.7336 43.134 43.7049 43.1298 43.677L43.1287 43.6695L43.1266 43.6573C43.1173 43.6039 43.1059 43.5374 43.0917 43.4698C43.0767 43.3915 43.0591 43.3004 43.0376 43.2066L43.0113 43.0928L43.0109 43.091L43.0095 43.0849C42.988 42.9931 42.9628 42.8855 42.9328 42.7774C42.9271 42.7554 42.9216 42.7367 42.9191 42.7281L42.9185 42.7262C42.9175 42.7226 42.9168 42.7202 42.9164 42.7188L42.9136 42.7074L42.909 42.6917C42.9059 42.681 42.9027 42.6701 42.8994 42.6589C42.8713 42.5627 42.8391 42.4524 42.802 42.3421L42.7949 42.3209L42.7925 42.3151C42.7911 42.3109 42.7893 42.3054 42.7873 42.2997C42.7852 42.2939 42.7827 42.2868 42.7797 42.2788C42.7432 42.173 42.7019 42.0537 42.6556 41.9348L42.6513 41.9236L42.6465 41.9125C42.6442 41.907 42.6419 41.9016 42.6384 41.8933L42.638 41.8925C42.6361 41.8879 42.6338 41.8823 42.6312 41.8762C42.5899 41.7696 42.5468 41.6641 42.5018 41.5595C42.4843 41.5148 42.4655 41.4751 42.4578 41.459C42.4123 41.3571 42.3646 41.2563 42.3149 41.1568L42.3127 41.1524L42.2506 41.0324C42.2506 41.0322 42.2505 41.032 42.2504 41.0319C42.2118 40.9569 42.1676 40.8715 42.1215 40.7877L42.1169 40.7793L42.0145 40.6045C42.0112 40.5988 42.0058 40.5893 41.9989 40.5773C41.9763 40.5377 41.938 40.4705 41.9057 40.4194C41.8556 40.339 41.8032 40.2595 41.7571 40.1897C41.757 40.1896 41.7569 40.1895 41.7568 40.1894L41.6825 40.0765L41.6797 40.0725C41.6157 39.9781 41.5495 39.8851 41.4811 39.7934L41.4666 39.7739L41.4564 39.762L41.4523 39.7563L41.4477 39.75L41.4356 39.733L41.429 39.7243C41.3569 39.6299 41.2829 39.5367 41.2069 39.4447C41.2029 39.4395 41.1992 39.4347 41.1961 39.4308L41.1898 39.4228C41.1872 39.4194 41.185 39.4165 41.1827 39.4136L41.1754 39.404L41.1678 39.3948C41.0867 39.2962 41.0028 39.2018 40.9284 39.1183C40.9229 39.1117 40.9179 39.1061 40.9139 39.1015C40.9099 39.097 40.906 39.0927 40.903 39.0893L40.8991 39.0844L40.8841 39.0679C40.7971 38.9717 40.708 38.8809 40.629 38.801L40.6188 38.7907L40.6115 38.7839C40.6104 38.7828 40.6087 38.7811 40.6061 38.7784L40.6046 38.7769C40.5975 38.7697 40.5811 38.7528 40.5617 38.7346C40.4907 38.6668 40.4133 38.5928 40.333 38.5195L40.3316 38.5182L40.2435 38.438L40.2409 38.4357C40.1735 38.3757 40.1041 38.316 40.0378 38.2599L40.0325 38.2555L40.0272 38.2512C40.0102 38.2374 39.9927 38.2227 39.9696 38.2031L39.9678 38.2016C39.9465 38.1837 39.9199 38.1613 39.892 38.1386L39.8861 38.1338L39.88 38.1291C39.8578 38.1118 39.8349 38.0938 39.8099 38.0741L39.8091 38.0735C39.7849 38.0545 39.7586 38.0337 39.7322 38.0132L39.7294 38.011L39.7266 38.0089C39.6563 37.9554 39.5876 37.9044 39.5223 37.8558L39.5111 37.8474L39.5009 37.8404C39.4894 37.8325 39.4771 37.8237 39.4605 37.812L39.4592 37.8111C39.4441 37.8004 39.4251 37.7869 39.4058 37.7735C39.3108 37.7078 39.2146 37.6439 39.1248 37.5842L39.1198 37.5809L39.1171 37.5791C39.0998 37.5679 39.0842 37.5585 39.0782 37.5549L39.0771 37.5542C39.0762 37.5537 39.0755 37.5533 39.0749 37.5529L39.0743 37.5526C38.3216 37.0718 37.4898 36.6979 36.5987 36.4544L36.5949 36.4533L36.5627 36.4449C36.449 36.4152 36.3334 36.3867 36.2187 36.3602C36.175 36.349 36.1337 36.3402 36.1045 36.3339L36.0914 36.3311L36.0826 36.3293C35.9986 36.3122 35.9011 36.2924 35.8006 36.2756C35.7941 36.2745 35.784 36.2726 35.7714 36.2704C35.7303 36.2629 35.6631 36.2507 35.6127 36.2433L35.6091 36.2428C35.5964 36.241 35.5787 36.2384 35.5579 36.2353C35.5072 36.2277 35.4386 36.2175 35.3831 36.2108L35.3805 36.2105C35.3105 36.2021 35.2333 36.1928 35.153 36.1846L35.1514 36.1845C35.1448 36.1838 35.1374 36.1829 35.1212 36.181L35.1192 36.1807C35.1051 36.179 35.0834 36.1764 35.06 36.1741L35.0561 36.1737L13.2143 34.133C8.24501 33.67 3.83772 37.3232 3.37127 42.293C2.90477 47.2634 6.55776 51.6692 11.5282 52.1343L20.8461 53.0042L17.0479 61.5569C17.0479 61.5569 17.0479 61.557 17.0479 61.5569C15.0205 66.1211 17.0769 71.4621 21.6434 73.487" fill="#4285F4"/>
</svg>
