<svg width="78" height="77" viewBox="0 0 78 77" fill="none" xmlns="http://www.w3.org/2000/svg">
<path d="M17.0337 17.0629C17.3412 13.9197 18.1317 10.8443 19.3774 7.94503C20.5907 5.30719 22.2087 3.00252 24.8257 1.55384C27.775 -0.0733632 30.8038 0.0338471 33.8497 1.23078C37.8784 2.80788 40.9781 5.63176 43.7613 8.84394C45.1554 10.4424 45.1093 10.4372 47.0829 9.69344C51.1935 8.13462 55.3919 7.02102 59.8591 7.6575C60.7409 7.80527 61.6077 8.0327 62.4488 8.33699C63.3856 8.6608 64.1945 9.06115 65.3197 8.82764C66.9767 8.49267 68.2225 10.1574 67.8211 11.8194C67.7017 12.2028 67.7059 12.6144 67.8332 12.9961C69.4809 16.3906 69.4969 19.9513 68.7045 23.5004C68.0912 25.9435 67.3384 28.349 66.4498 30.7051C66.3201 30.9248 66.2804 31.1863 66.3389 31.4352C66.3975 31.6841 66.5498 31.9011 66.7641 32.0409C69.1731 33.9336 71.3083 36.1512 73.1082 38.6302C74.9131 41.1706 76.258 43.9251 76.3246 47.138C76.3798 47.4782 76.5479 47.7902 76.8018 48.0238C77.1356 48.3252 77.3733 48.7181 77.4851 49.1534C77.5968 49.5886 77.5776 50.0467 77.4299 50.4702C77.297 50.914 77.0406 51.3104 76.6905 51.6133C76.3405 51.9162 75.9112 52.113 75.4528 52.1809C75.1737 52.2086 74.9116 52.3268 74.7064 52.5173C72.0367 56.2118 68.1564 57.8273 63.9323 58.8436C62.5516 59.1995 61.099 59.3813 59.7232 59.64C59.2711 61.6498 58.9009 63.6802 58.367 65.6592C57.7549 68.1271 56.596 70.4243 54.9758 72.3812C51.5342 76.4274 46.8803 77.4021 42.037 75.1637C38.1256 73.3566 35.0667 70.5021 32.3705 67.2236C31.7451 66.4654 31.3456 66.1987 30.3027 66.637C26.3202 68.3342 22.1885 69.5451 17.7932 69.1031C16.1609 68.9419 14.5893 68.2589 12.9771 67.8419C12.6541 67.7471 12.3125 67.736 11.9845 67.8096C11.5489 67.9617 11.0788 67.9875 10.6283 67.8841C10.1778 67.7807 9.76525 67.5523 9.43812 67.2252C9.11099 66.898 8.88258 66.4855 8.77918 66.035C8.67579 65.5845 8.70161 65.1144 8.85366 64.6788C8.96086 64.3814 8.96032 64.0556 8.85216 63.7579C7.18937 60.5219 7.12245 57.0942 7.84336 53.6677C8.41057 51.1775 9.14672 48.7293 10.0467 46.3402C10.2372 45.9968 10.284 45.5917 10.177 45.213C10.07 44.8344 9.81793 44.5128 9.47556 44.3184C6.17148 41.6477 3.29652 38.5991 1.52519 34.6723C-0.0920969 31.1039 -0.282012 27.5532 1.95327 24.1598C3.41902 22.0746 5.45012 20.4524 7.80852 19.4831C10.4217 18.3266 13.1924 17.5623 16.0312 17.2148L17.0337 17.0629ZM50.6228 50.652C52.6399 48.3684 54.6826 46.1105 56.6382 43.7859C56.964 43.3229 57.0953 42.7503 57.004 42.1904C55.9822 36.567 54.331 31.0745 52.0816 25.8166C51.8219 25.271 51.3821 24.8311 50.8364 24.5714C45.5245 22.2931 39.973 20.6245 34.2886 19.5976C33.8229 19.544 33.3545 19.6654 32.9744 19.9382C28.0796 23.7365 23.6817 28.1343 19.8835 33.0291C19.5874 33.428 19.4563 33.926 19.5174 34.4201C20.5895 40.2045 22.315 45.8505 24.6605 51.2495C24.8108 51.5634 25.0641 51.8166 25.3779 51.9669C30.7793 54.299 36.4249 56.014 42.2073 57.0793C42.4914 57.1172 42.78 57.0985 43.0564 57.0244C43.3329 56.9502 43.5918 56.8219 43.8181 56.6471C46.1069 54.7169 48.37 52.6794 50.6637 50.6521L50.6228 50.652ZM46.191 11.7946C46.2162 11.8922 46.2524 11.9867 46.2989 12.0762C48.8192 15.6085 50.9942 19.3742 52.7938 23.3212C52.9801 23.6169 53.2517 23.8492 53.5725 23.9875C54.8269 24.6291 56.1324 25.1786 57.3562 25.8814C59.8602 27.3128 62.3285 28.8107 65.0118 30.4214C65.6836 28.2226 66.4832 26.0087 67.0269 23.733C67.7688 20.634 67.9274 17.4829 66.7049 14.4318C66.4686 13.8277 66.2327 13.4897 65.4501 13.5447C65.1696 13.5797 64.8847 13.5558 64.6136 13.4745C64.3425 13.3932 64.0911 13.2562 63.8756 13.0724C63.6601 12.8887 63.4851 12.6621 63.3619 12.4071C63.2387 12.1522 63.17 11.8745 63.1601 11.5919C63.2244 10.226 62.431 9.93314 61.4636 9.67066C60.7389 9.46218 59.9999 9.30709 59.2528 9.20664C54.6784 8.70812 50.4702 10.0468 46.2319 11.7947L46.191 11.7946ZM30.162 65.0253C27.9966 61.0416 25.9646 57.2526 23.8712 53.4736C23.6103 53.1056 23.2592 52.8108 22.8517 52.6176C19.9125 50.9655 16.9478 49.3492 14.0035 47.692C13.2507 47.2662 12.549 46.7586 11.7809 46.2662C10.392 49.3091 9.50077 52.5566 9.14127 55.885C8.9161 57.9477 9.15189 60.0361 9.83158 61.9996C10.0885 62.706 10.3503 63.2231 11.3375 63.1378C11.9026 63.1482 12.4441 63.3695 12.8555 63.7583C13.267 64.1471 13.5187 64.6752 13.5612 65.2389C13.5772 65.6244 13.571 66.0104 13.5426 66.395C19.43 68.9011 24.8805 67.0477 30.162 65.0253ZM43.8108 11.008C42.3914 9.58864 41.1051 8.23084 39.7524 6.94968C37.7497 4.9918 35.3546 3.48118 32.7262 2.51817C31.0435 1.86946 29.2005 1.76899 27.4608 2.23115C25.7212 2.6933 24.174 3.69439 23.0409 5.09115C21.6653 6.72607 20.6535 8.6356 20.0725 10.6934C19.4772 12.703 19.0559 14.7845 18.5683 16.9324C23.2759 16.6464 28.0024 16.8754 32.6637 17.6151C33.1089 17.6104 33.5398 17.4602 33.8908 17.1874C35.3422 16.2484 36.7372 15.2121 38.1784 14.3243C39.9314 13.2272 41.7255 12.2325 43.8108 11.008ZM16.6732 18.7659C13.137 19.1062 9.71309 20.181 6.62046 21.9215C2.21483 24.5644 0.682308 29.1202 2.9562 33.7845C4.03462 35.8776 5.34552 37.843 6.86399 39.6434C8.13235 41.0522 9.48596 42.382 10.9171 43.625C13.1472 40.1959 15.2753 36.9507 17.342 33.7054C17.5254 33.3702 17.6015 32.9864 17.5602 32.6059C17.4509 31.4751 17.2087 30.3338 17.1505 29.1929C16.9659 25.7189 16.8324 22.2859 16.6732 18.7659ZM57.9684 59.6218C57.7365 59.6994 57.4988 59.7589 57.2576 59.7997C52.9284 60.035 48.585 59.8015 44.303 59.1035C44.0034 59.0443 43.6945 59.0549 43.4001 59.1342C43.1057 59.2136 42.8338 59.3597 42.6053 59.5612C41.5655 60.3566 40.484 61.096 39.3653 61.7762C37.2904 63.0621 35.1846 64.2967 32.9869 65.6131C33.5968 66.3149 34.1864 67.0577 34.8321 67.7443C37.0837 70.3293 39.8582 72.4073 42.9711 73.8402C46.6725 75.4373 50.3858 74.9215 52.9803 72.2245C56.3001 68.7919 57.2855 64.3939 57.9684 59.6218ZM59.7922 58.044C61.485 57.6937 63.1422 57.4304 64.7427 56.9879C67.8722 56.113 70.7709 54.8438 72.9204 52.2126C73.2472 51.8141 73.3593 51.5278 73.072 51.0362C72.886 50.7528 72.7647 50.4321 72.7167 50.0969C72.6688 49.7617 72.6953 49.4203 72.7944 49.097C72.8936 48.7737 73.0629 48.4765 73.2903 48.2266C73.5178 47.9767 73.7977 47.7802 74.1102 47.6511C74.2173 47.6223 74.3176 47.5725 74.4052 47.5046C74.4928 47.4367 74.566 47.352 74.6205 47.2555C74.6751 47.159 74.7099 47.0526 74.723 46.9424C74.7361 46.8322 74.7272 46.7204 74.6968 46.6136C74.6245 46.1939 74.6187 45.7591 74.5208 45.3445C73.269 40.0066 69.5594 36.4706 65.5686 33.0621C65.4418 33.2057 65.3225 33.3557 65.2112 33.5117C63.2161 36.6957 61.2209 39.8694 59.2615 43.0688C59.0826 43.4421 59.0208 43.861 59.0844 44.2708C59.2926 46.4607 59.6338 48.6407 59.7499 50.8305C59.8611 53.1481 59.7779 55.5167 59.7922 58.044ZM19.0874 31.1094L31.1415 19.0553C26.9899 18.4218 22.7814 18.2605 18.5965 18.5746C18.1509 21.3979 18.455 29.108 19.0823 31.1043L19.0874 31.1094ZM58.0841 58.3891C58.4157 54.1027 58.2577 49.7909 57.6131 45.5372L45.2832 57.867L58.0841 58.3891ZM26.0314 54.265C27.6005 57.6214 29.4976 60.8153 31.6948 63.7999C31.828 63.9332 32.2834 63.98 32.5032 63.8831C33.5972 63.3631 34.686 62.8379 35.7184 62.2154C37.5226 61.1184 39.2857 59.9497 41.0795 58.8118L26.0314 54.265ZM17.9183 35.7323C17.8454 35.7769 17.7841 35.8381 17.7395 35.911C16.0556 38.6197 14.4281 41.3848 12.7648 44.114C12.4637 44.6098 12.6586 44.8863 13.0836 45.1377C16.0998 46.928 19.1108 48.7235 22.127 50.5036C22.2033 50.5461 22.2914 50.5624 22.3777 50.55L17.9183 35.7323ZM58.721 40.9653C58.7758 40.9371 58.8205 40.8925 58.8487 40.8376C60.5325 38.1289 62.1498 35.3638 63.8234 32.6347C64.1857 32.0367 63.868 31.7292 63.4224 31.4471C61.5942 30.2828 59.7863 29.0879 57.9172 27.985C56.7087 27.2668 55.4186 26.6815 54.2153 26.0605L58.721 40.9653ZM50.526 22.412C50.526 22.412 50.5412 22.3353 50.4899 22.2534L45.0624 13.036C44.7341 12.4829 44.3505 12.6 43.8906 12.8857C41.2738 14.4776 38.657 16.0696 36.0403 17.6615C35.9128 17.7465 35.8034 17.8558 35.7185 17.9833L50.526 22.412Z" fill="#4285F4"/>
</svg>
