<svg width="72" height="72" viewBox="0 0 72 72" fill="none" xmlns="http://www.w3.org/2000/svg">
<path fill-rule="evenodd" clip-rule="evenodd" d="M18.0944 11.3319C19.5539 5.885 25.1529 2.65373 30.601 4.11356L37.0974 5.85425C37.8184 6.04745 38.2458 6.78716 38.0526 7.50837L35.2563 17.9443C35.063 18.6655 34.323 19.0924 33.602 18.8992L28.8344 17.6217C28.1155 17.4291 27.3779 17.8559 27.1857 18.5731L19.6241 46.7934C19.4317 47.5117 19.8584 48.2493 20.5763 48.4417L25.3438 49.7191C26.0649 49.9123 26.4922 50.652 26.299 51.3732L23.5027 61.8091C23.3095 62.5303 22.5695 62.9572 21.8484 62.764L15.3521 61.0234C9.90393 59.5635 6.67069 53.9657 8.13019 48.5187L10.8915 38.2132C11.084 37.4949 10.6573 36.7573 9.93943 36.5649L7.05684 35.7926C6.3349 35.5991 5.90865 34.8587 6.10215 34.1366L9.02295 23.236C9.21619 22.5148 9.95618 22.0879 10.6772 22.2811L13.5598 23.0535C14.2788 23.2462 15.0163 22.8193 15.2085 22.1021L18.0944 11.3319ZM30.3006 5.23491C25.4714 3.94094 20.5092 6.80509 19.2157 11.6324L16.3299 22.4026C15.9718 23.7387 14.598 24.5336 13.2593 24.1749L10.3768 23.4025C10.2747 23.3751 10.1715 23.4349 10.1443 23.5365L7.22351 34.4371C7.19555 34.5414 7.25619 34.6441 7.35731 34.6712L10.2399 35.4436C11.576 35.8016 12.3716 37.175 12.0129 38.5137L9.25155 48.8192C7.95808 53.6465 10.8234 58.608 15.6526 59.902L22.1489 61.6427C22.2509 61.67 22.3541 61.6103 22.3814 61.5087L25.1776 51.0728C25.2049 50.9712 25.1454 50.8678 25.0433 50.8405L20.2758 49.563C18.9397 49.205 18.1441 47.8316 18.5028 46.4929L26.0644 18.2727C26.4224 16.9365 27.7962 16.1417 29.1349 16.5004L33.9025 17.7778C34.0045 17.8052 34.1077 17.7454 34.1349 17.6438L36.9312 7.2079C36.9584 7.10629 36.8989 7.00294 36.7969 6.9756L30.3006 5.23491Z" fill="#4285F4"/>
<path fill-rule="evenodd" clip-rule="evenodd" d="M47.9838 10.1696C48.1771 9.44841 48.9171 9.02152 49.6381 9.21472L56.1345 10.9554C61.5826 12.4152 64.8159 18.0131 63.3564 23.46L60.595 33.7655C60.4025 34.4839 60.8293 35.2215 61.5471 35.4138L64.4297 36.1862C65.1498 36.3791 65.5774 37.1218 65.3844 37.8422L62.4636 48.7427C62.2704 49.464 61.5303 49.8908 60.8093 49.6976L57.9268 48.9253C57.2078 48.7326 56.4702 49.1594 56.278 49.8767L53.3922 60.6468C51.9327 66.0938 46.3337 69.325 40.8855 67.8652L34.3892 66.1245C33.6682 65.9313 33.2407 65.1916 33.434 64.4704L36.2303 54.0345C36.4235 53.3133 37.1636 52.8864 37.8846 53.0796L42.6521 54.357C43.3711 54.5497 44.1086 54.1229 44.3008 53.4056L51.8624 25.1854C52.0549 24.467 51.6281 23.7295 50.9103 23.5371L46.1427 22.2596C45.4217 22.0665 44.9943 21.3267 45.1875 20.6055L47.9838 10.1696ZM49.3377 10.3361C49.2356 10.3087 49.1324 10.3685 49.1052 10.4701L46.3089 20.906C46.2817 21.0076 46.3412 21.111 46.4432 21.1383L51.2107 22.4157C52.5469 22.7738 53.3425 24.1472 52.9837 25.4859L45.4222 53.7061C45.0641 55.0422 43.6903 55.8371 42.3516 55.4784L37.5841 54.2009C37.4821 54.1736 37.3788 54.2334 37.3516 54.335L34.5553 64.7709C34.5281 64.8724 34.5876 64.9758 34.6897 65.0032L41.186 66.7439C46.0152 68.0378 50.9774 65.1737 52.2708 60.3464L55.1567 49.5762C55.5147 48.2401 56.8885 47.4452 58.2272 47.8039L61.1098 48.5763C61.2118 48.6036 61.315 48.5439 61.3423 48.4423L64.263 37.5417C64.2905 37.4392 64.2285 37.3342 64.1292 37.3076L61.2467 36.5352C59.9105 36.1772 59.115 34.8038 59.4737 33.4651L62.235 23.1596C63.5285 18.3323 60.6632 13.3707 55.834 12.0768L49.3377 10.3361Z" fill="#4285F4"/>
</svg>
