<svg width="40" height="40" viewBox="0 0 40 40" fill="none" xmlns="http://www.w3.org/2000/svg">
<mask id="mask0_1_126" style="mask-type:alpha" maskUnits="userSpaceOnUse" x="0" y="0" width="40" height="41">
<rect y="0.0065918" width="40" height="40" fill="#D9D9D9"/>
</mask>
<g mask="url(#mask0_1_126)">
<path d="M7.77792 36.6733C7.02792 36.6733 6.37736 36.3979 5.82625 35.8471C5.27542 35.2959 5 34.6454 5 33.8954V8.89538C5 8.14538 5.27542 7.49497 5.82625 6.94413C6.37736 6.3933 7.02792 6.11788 7.77792 6.11788H10.1388V3.33997H13.0554V6.11788H26.9446V3.33997H29.8612V6.11788H32.2221C32.9721 6.11788 33.6226 6.3933 34.1737 6.94413C34.7246 7.49497 35 8.14538 35 8.89538V33.8954C35 34.6454 34.7246 35.2959 34.1737 35.8471C33.6226 36.3979 32.9721 36.6733 32.2221 36.6733H7.77792ZM7.77792 33.8954H32.2221V16.3954H7.77792V33.8954ZM7.77792 13.6179H32.2221V8.89538H7.77792V13.6179ZM20 23.34C19.5278 23.34 19.1319 23.1802 18.8125 22.8608C18.4931 22.5414 18.3333 22.1455 18.3333 21.6733C18.3333 21.2011 18.4931 20.8052 18.8125 20.4858C19.1319 20.1664 19.5278 20.0066 20 20.0066C20.4722 20.0066 20.8681 20.1664 21.1875 20.4858C21.5069 20.8052 21.6667 21.2011 21.6667 21.6733C21.6667 22.1455 21.5069 22.5414 21.1875 22.8608C20.8681 23.1802 20.4722 23.34 20 23.34ZM13.3333 23.34C12.8611 23.34 12.4653 23.1802 12.1458 22.8608C11.8264 22.5414 11.6667 22.1455 11.6667 21.6733C11.6667 21.2011 11.8264 20.8052 12.1458 20.4858C12.4653 20.1664 12.8611 20.0066 13.3333 20.0066C13.8056 20.0066 14.2014 20.1664 14.5208 20.4858C14.8403 20.8052 15 21.2011 15 21.6733C15 22.1455 14.8403 22.5414 14.5208 22.8608C14.2014 23.1802 13.8056 23.34 13.3333 23.34ZM26.6667 23.34C26.1944 23.34 25.7986 23.1802 25.4792 22.8608C25.1597 22.5414 25 22.1455 25 21.6733C25 21.2011 25.1597 20.8052 25.4792 20.4858C25.7986 20.1664 26.1944 20.0066 26.6667 20.0066C27.1389 20.0066 27.5347 20.1664 27.8542 20.4858C28.1736 20.8052 28.3333 21.2011 28.3333 21.6733C28.3333 22.1455 28.1736 22.5414 27.8542 22.8608C27.5347 23.1802 27.1389 23.34 26.6667 23.34ZM20 30.0066C19.5278 30.0066 19.1319 29.8469 18.8125 29.5275C18.4931 29.208 18.3333 28.8122 18.3333 28.34C18.3333 27.8677 18.4931 27.4719 18.8125 27.1525C19.1319 26.833 19.5278 26.6733 20 26.6733C20.4722 26.6733 20.8681 26.833 21.1875 27.1525C21.5069 27.4719 21.6667 27.8677 21.6667 28.34C21.6667 28.8122 21.5069 29.208 21.1875 29.5275C20.8681 29.8469 20.4722 30.0066 20 30.0066ZM13.3333 30.0066C12.8611 30.0066 12.4653 29.8469 12.1458 29.5275C11.8264 29.208 11.6667 28.8122 11.6667 28.34C11.6667 27.8677 11.8264 27.4719 12.1458 27.1525C12.4653 26.833 12.8611 26.6733 13.3333 26.6733C13.8056 26.6733 14.2014 26.833 14.5208 27.1525C14.8403 27.4719 15 27.8677 15 28.34C15 28.8122 14.8403 29.208 14.5208 29.5275C14.2014 29.8469 13.8056 30.0066 13.3333 30.0066ZM26.6667 30.0066C26.1944 30.0066 25.7986 29.8469 25.4792 29.5275C25.1597 29.208 25 28.8122 25 28.34C25 27.8677 25.1597 27.4719 25.4792 27.1525C25.7986 26.833 26.1944 26.6733 26.6667 26.6733C27.1389 26.6733 27.5347 26.833 27.8542 27.1525C28.1736 27.4719 28.3333 27.8677 28.3333 28.34C28.3333 28.8122 28.1736 29.208 27.8542 29.5275C27.5347 29.8469 27.1389 30.0066 26.6667 30.0066Z" fill="#1E1E1E"/>
</g>
</svg>
