<svg width="83" height="82" viewBox="0 0 83 82" fill="none" xmlns="http://www.w3.org/2000/svg">
<path d="M11.8054 52.0901H0V50.3647H11.7316V41.852H0V40.0857C0.303545 40.0857 0.656313 40.0448 1.00088 40.0448C4.28244 40.0448 7.564 40.0448 10.8948 40.0448C11.5675 40.0448 11.8136 39.8649 11.8054 39.1534C11.7617 36.891 11.7617 34.6232 11.8054 32.3498C11.8054 31.6139 11.5921 31.3931 10.8538 31.4013C7.62143 31.4013 4.38909 31.4013 1.15675 31.4013H0V29.7658C0.33636 29.7658 0.680924 29.7167 1.03369 29.7167C4.23322 29.7167 7.43274 29.7167 10.6323 29.7167C11.5019 29.7167 11.83 29.5286 11.8054 28.5801C11.7398 25.5626 11.8628 22.5369 11.7644 19.5113C11.729 18.4862 11.9076 17.4649 12.2888 16.5121C12.67 15.5594 13.2455 14.6959 13.979 13.9764C14.7124 13.2569 15.5877 12.697 16.5495 12.3322C17.5113 11.9674 18.5386 11.8057 19.5663 11.8572C22.9217 12.0126 26.2853 11.8572 29.813 11.8572V0.0327096H31.5522V11.7918H40.0925V0H41.8891V11.7918H50.4704V0.0081776H52.1851V11.7918C52.6609 11.7918 53.0054 11.8491 53.3582 11.8491H62.9568C63.907 11.8404 64.8494 12.0202 65.7292 12.3782C66.6089 12.7361 67.4084 13.265 68.0811 13.934C68.7538 14.603 69.2862 15.3987 69.6473 16.2748C70.0084 17.1509 70.191 18.0899 70.1844 19.037C70.1844 22.1935 70.1844 25.35 70.1844 28.4983V29.7004H82.0391V31.4176H70.25V40.0121H82.0391V41.8029H70.25V50.2911H82.0391V52.0574H70.1844V53.2268C70.1844 56.4078 70.1844 59.597 70.1844 62.7862C70.2068 64.5978 69.5293 66.3486 68.2923 67.676C67.0553 69.0034 65.3534 69.8057 63.5393 69.9169C60.2577 70.0886 56.9761 69.9905 53.6946 70.0068C53.268 70.0068 52.8742 70.0068 52.2835 70.0068V81.8068H50.5033V70.0968H41.9384V81.7986H40.1991V70.1131H31.5932V81.815H29.8294V70.0968C29.3782 70.0968 29.009 70.0314 28.6809 70.0314C25.6126 70.0314 22.5443 70.0314 19.4761 70.0314C15.5956 70.0314 12.6668 67.7171 11.9613 64.1845C11.842 63.4411 11.7925 62.6883 11.8136 61.9357C11.7972 58.7056 11.8054 55.4919 11.8054 52.0901ZM68.4124 40.9116C68.4124 33.7809 68.3221 26.6502 68.4124 19.5195C68.4304 18.7278 68.287 17.9407 67.9911 17.2058C67.6951 16.471 67.2527 15.8036 66.6906 15.244C66.1285 14.6844 65.4583 14.2444 64.7206 13.9504C63.983 13.6564 63.1931 13.5146 62.3989 13.5336C48.0913 13.6154 33.7919 13.5336 19.4843 13.5336C15.8499 13.5336 13.479 15.7824 13.4708 19.3886C13.4708 33.7155 13.4708 48.0423 13.4708 62.3691C13.4287 63.6958 13.8426 64.997 14.644 66.0571C16.0058 67.7744 17.7861 68.2814 19.8452 68.2814C29.4384 68.2814 39.0315 68.2814 48.6246 68.2814C53.2352 68.2814 57.8539 68.2814 62.4645 68.2814C66.1809 68.2814 68.4452 65.9672 68.4452 62.2955L68.4124 40.9116Z" fill="#4285F4"/>
<path d="M20.1079 40.9442V23.7716C20.1079 21.3184 21.4041 20.0345 23.7997 20.0264H58.2479C60.6516 20.0264 61.956 21.3511 61.956 23.7716C61.956 35.22 61.956 46.652 61.956 58.0677C61.956 60.4391 60.6024 61.7557 58.1986 61.7639H23.8571C21.3959 61.7639 20.1079 60.4473 20.1079 57.9777V40.9442ZM40.9622 60.0384H57.7638C59.7328 60.0384 60.225 59.5723 60.225 57.5852V24.1805C60.225 22.2752 59.7246 21.7273 57.8377 21.7273H24.2017C22.3394 21.7273 21.8389 22.2179 21.8389 24.0497V57.7978C21.8389 59.5396 22.3312 60.0384 24.0622 60.0384H40.9622Z" fill="#4285F4"/>
</svg>
