<svg width="40" height="40" viewBox="0 0 40 40" fill="none" xmlns="http://www.w3.org/2000/svg">
<mask id="mask0_1_132" style="mask-type:alpha" maskUnits="userSpaceOnUse" x="0" y="0" width="40" height="41">
<rect y="0.0065918" width="40" height="40" fill="#D9D9D9"/>
</mask>
<g mask="url(#mask0_1_132)">
<path d="M20 36.6733C17.0556 36.6733 14.6528 36.2312 12.7917 35.3471C10.9306 34.4626 10 33.3307 10 31.9512C10 31.2473 10.2801 30.5829 10.8404 29.9579C11.4004 29.3329 12.1713 28.812 13.1529 28.3954L15.2779 30.3816C14.824 30.5114 14.3726 30.7243 13.9238 31.0204C13.4746 31.3168 13.0926 31.6271 12.7779 31.9512C13.2129 32.4696 14.1435 32.9232 15.5696 33.3121C16.9954 33.7009 18.4722 33.8954 20 33.8954C21.5278 33.8954 23.0115 33.7009 24.4513 33.3121C25.8913 32.9232 26.8288 32.4696 27.2638 31.9512C26.9399 31.5993 26.5325 31.2798 26.0417 30.9929C25.5508 30.7057 25.074 30.4973 24.6113 30.3679L26.75 28.3679C27.7869 28.7937 28.5879 29.3191 29.1529 29.9441C29.7176 30.5691 30 31.2382 30 31.9512C30 33.3307 29.0694 34.4626 27.2083 35.3471C25.3472 36.2312 22.9444 36.6733 20 36.6733ZM20.0417 28.2012C22.9769 26.0251 25.1853 23.8283 26.6667 21.6108C28.1481 19.3933 28.8888 17.2752 28.8888 15.2566C28.8888 12.238 27.9304 9.96024 26.0138 8.4233C24.0971 6.88636 22.0925 6.11788 20 6.11788C17.9258 6.11788 15.9258 6.88636 14 8.4233C12.0742 9.96024 11.1113 12.238 11.1113 15.2566C11.1113 17.2289 11.8474 19.2821 13.3196 21.4162C14.7918 23.5507 17.0325 25.8123 20.0417 28.2012ZM20 31.6733C16.1019 28.7844 13.1829 25.9789 11.2429 23.2566C9.3032 20.5344 8.33334 17.8677 8.33334 15.2566C8.33334 13.2844 8.6875 11.5552 9.39584 10.0691C10.1042 8.58302 11.0185 7.33997 12.1388 6.33997C13.2593 5.33997 14.5093 4.58997 15.8888 4.08997C17.2685 3.58997 18.6389 3.33997 20 3.33997C21.3611 3.33997 22.7361 3.58997 24.125 4.08997C25.5139 4.58997 26.7639 5.33997 27.875 6.33997C28.9861 7.33997 29.8958 8.58302 30.6042 10.0691C31.3125 11.5552 31.6667 13.2844 31.6667 15.2566C31.6667 17.8677 30.7014 20.5344 28.7708 23.2566C26.8403 25.9789 23.9167 28.7844 20 31.6733ZM20 18.34C20.9167 18.34 21.7014 18.0136 22.3542 17.3608C23.0069 16.708 23.3333 15.9233 23.3333 15.0066C23.3333 14.09 23.0069 13.3052 22.3542 12.6525C21.7014 11.9997 20.9167 11.6733 20 11.6733C19.0833 11.6733 18.2986 11.9997 17.6458 12.6525C16.9931 13.3052 16.6667 14.09 16.6667 15.0066C16.6667 15.9233 16.9931 16.708 17.6458 17.3608C18.2986 18.0136 19.0833 18.34 20 18.34Z" fill="#1E1E1E"/>
</g>
</svg>
