<svg width="67" height="66" viewBox="0 0 67 66" fill="none" xmlns="http://www.w3.org/2000/svg">
<path fill-rule="evenodd" clip-rule="evenodd" d="M18.7724 1.88456C18.969 0.972935 19.8679 0.394142 20.7805 0.590899L34.7127 3.59483C35.6253 3.79159 36.2059 4.68939 36.0093 5.60102L34.6622 11.849L41.1565 13.2492L42.5036 7.00125C42.7002 6.08962 43.5992 5.51083 44.5117 5.70759L58.444 8.71152C59.3565 8.90828 59.9371 9.80608 59.7406 10.7177L58.3934 16.9657L65.0944 18.4104C66.0069 18.6072 66.5875 19.505 66.3909 20.4166L63.3918 34.3268C63.1952 35.2384 62.2963 35.8172 61.3837 35.6205L54.6828 34.1757L53.2848 40.6593L59.9858 42.1041C60.8983 42.3008 61.4789 43.1986 61.2824 44.1103L58.2832 58.0205C58.0866 58.9321 57.1877 59.5109 56.2751 59.3141L49.5742 57.8693L48.2276 64.115C48.031 65.0266 47.1321 65.6054 46.2195 65.4086L32.2872 62.4047C31.3747 62.2079 30.7941 61.3101 30.9907 60.3985L32.3373 54.1529L25.843 52.7527L24.4963 58.9983C24.2998 59.9099 23.4008 60.4887 22.4883 60.2919L8.55602 57.288C7.64347 57.0912 7.06288 56.1935 7.25944 55.2818L8.60605 49.0362L1.90512 47.5914C0.992567 47.3947 0.41198 46.4969 0.608536 45.5852L3.60771 31.675C3.80427 30.7634 4.70323 30.1846 5.61578 30.3814L12.3167 31.8262L13.7146 25.3426L7.01371 23.8978C6.10116 23.701 5.52057 22.8032 5.71712 21.8916L8.7163 7.98139C8.91286 7.06976 9.81181 6.49097 10.7244 6.68772L17.4253 8.13251L18.7724 1.88456ZM20.4725 2.01921C20.3494 1.99267 20.229 2.07053 20.2026 2.19292L18.7015 9.15502C18.6164 9.54944 18.2273 9.80015 17.8324 9.715L10.4164 8.11604C10.2933 8.08949 10.1728 8.16735 10.1465 8.28974L7.14728 22.1999C7.12089 22.3223 7.19857 22.4429 7.32167 22.4695L14.7377 24.0684C15.1326 24.1536 15.3838 24.5423 15.2988 24.9368L13.5929 32.8487C13.5078 33.2431 13.1188 33.4938 12.7238 33.4087L5.30782 31.8097C5.18472 31.7831 5.06426 31.861 5.03787 31.9834L2.03869 45.8936C2.0123 46.016 2.08998 46.1366 2.21308 46.1631L9.62909 47.7621C10.024 47.8472 10.2752 48.236 10.1902 48.6304L8.68959 55.5902C8.6632 55.7126 8.74088 55.8331 8.86398 55.8597L22.7962 58.8636C22.9193 58.8902 23.0398 58.8123 23.0662 58.6899L24.5668 51.7301C24.6518 51.3357 25.0409 51.085 25.4358 51.1702L33.3603 52.8788C33.7552 52.9639 34.0064 53.3527 33.9214 53.7471L32.4208 60.7069C32.3944 60.8293 32.4721 60.9498 32.5952 60.9764L46.5275 63.9803C46.6506 64.0069 46.771 63.929 46.7974 63.8066L48.298 56.8468C48.3831 56.4524 48.7721 56.2017 49.1671 56.2869L56.5831 57.8858C56.7062 57.9124 56.8266 57.8345 56.853 57.7121L59.8522 43.8019C59.8786 43.6795 59.8009 43.5589 59.6778 43.5324L52.2618 41.9334C51.8669 41.8483 51.6157 41.4595 51.7007 41.0651L53.4066 33.1532C53.4916 32.7588 53.8807 32.5081 54.2757 32.5932L61.6917 34.1922C61.8148 34.2187 61.9352 34.1409 61.9616 34.0185L64.9608 20.1083C64.9872 19.9859 64.9095 19.8653 64.7864 19.8387L57.3704 18.2398C56.9755 18.1546 56.7243 17.7659 56.8093 17.3715L58.3104 10.4094C58.3368 10.287 58.2591 10.1664 58.136 10.1398L44.2038 7.1359C44.0806 7.10936 43.9602 7.18722 43.9338 7.30961L42.4327 14.2717C42.3477 14.6661 41.9586 14.9168 41.5636 14.8317L33.6392 13.1231C33.2442 13.0379 32.993 12.6492 33.0781 12.2548L34.5792 5.29266C34.6056 5.17027 34.5279 5.04969 34.4048 5.02315L20.4725 2.01921ZM29.6749 28.0388C29.7599 27.6444 30.149 27.3937 30.5439 27.4789L38.4684 29.1874C38.8633 29.2726 39.1145 29.6614 39.0295 30.0558L37.3236 37.9677C37.2386 38.3621 36.8495 38.6128 36.4545 38.5277L28.5301 36.8191C28.1352 36.7339 27.8839 36.3452 27.969 35.9508L29.6749 28.0388ZM30.951 29.0613L29.5531 35.545L36.0474 36.9452L37.4454 30.4616L30.951 29.0613Z" fill="#4285F4"/>
</svg>
