<svg width="53" height="52" viewBox="0 0 53 52" fill="none" xmlns="http://www.w3.org/2000/svg">
<path fill-rule="evenodd" clip-rule="evenodd" d="M7.5909 8.17171C7.17088 7.44422 7.42114 6.51417 8.14946 6.09367L17.8739 0.479275C18.6022 0.0587769 19.5328 0.307068 19.9528 1.03456L28.6906 16.169L44.2026 7.21311C44.9314 6.79233 45.8601 7.04166 46.2819 7.76475L46.2834 7.76732L51.8893 17.477C52.3093 18.2045 52.0591 19.1346 51.3307 19.5551L35.8188 28.5109L44.5566 43.6453C44.9766 44.3728 44.7264 45.3028 43.998 45.7233L34.2717 51.3388C33.5434 51.7593 32.6128 51.511 32.1928 50.7835L23.455 35.6491L7.94301 44.605C7.21469 45.0255 6.28411 44.7772 5.86409 44.0497L0.2582 34.34C-0.161819 33.6125 0.0884435 32.6824 0.816767 32.2619L16.3287 23.3061L7.5909 8.17171ZM8.80753 7.23348C8.70928 7.29021 8.67593 7.41504 8.73232 7.51271L17.7992 23.217C17.9809 23.5318 17.8727 23.9344 17.5575 24.1164L1.47484 33.4018C1.37659 33.4585 1.34323 33.5833 1.39962 33.681L7.00552 43.3907C7.06191 43.4884 7.18669 43.5219 7.28494 43.4652L23.3676 34.1798C23.6828 33.9978 24.0857 34.1055 24.2674 34.4202L33.3343 50.1245C33.3906 50.2222 33.5154 50.2557 33.6137 50.199L43.34 44.5835C43.4382 44.5268 43.4716 44.402 43.4152 44.3043L34.3483 28.6C34.1666 28.2852 34.2748 27.8826 34.59 27.7006L50.6727 18.4152C50.7709 18.3585 50.8043 18.2337 50.7479 18.136L45.1429 8.42793C45.0844 8.32877 44.9581 8.29667 44.8607 8.35293L28.778 17.6383C28.4628 17.8203 28.06 17.7126 27.8783 17.3979L18.8114 1.69356C18.755 1.59589 18.6302 1.56236 18.532 1.61909L8.80753 7.23348Z" fill="#4285F4"/>
</svg>
