<svg width="56" height="34" viewBox="0 0 56 34" fill="none" xmlns="http://www.w3.org/2000/svg">
<path d="M16.1806 4.15146L4.45033 12.5873C1.99248 14.3548 1.43174 17.7818 3.19788 20.2416L3.20432 20.2506C4.97046 22.7104 8.39468 23.2716 10.8525 21.504L22.5828 13.0682C25.0406 11.3007 25.6013 7.87369 23.8352 5.41387L23.8288 5.40491C22.0626 2.94508 18.6384 2.38389 16.1806 4.15146Z" fill="#EA4335" stroke="#1E1E1E" stroke-miterlimit="10"/>
<path d="M3.20493 13.7492L3.19849 13.7581C1.43235 16.218 1.99309 19.6449 4.45094 21.4125L16.1812 29.8483C18.639 31.6159 22.0632 31.0547 23.8294 28.5948L23.8358 28.5859C25.602 26.1261 25.0412 22.6991 22.5834 20.9315L10.8531 12.4957C8.39529 10.7282 4.97107 11.2893 3.20493 13.7492Z" fill="#4285F4" stroke="#1E1E1E" stroke-miterlimit="10"/>
<path d="M44.4887 12.4889L32.7584 20.9247C30.3006 22.6922 29.7398 26.1192 31.506 28.579L31.5124 28.588C33.2786 31.0478 36.7028 31.609 39.1606 29.8414L50.8909 21.4056C53.3487 19.6381 53.9094 16.2111 52.1433 13.7513L52.1369 13.7423C50.3707 11.2825 46.9465 10.7213 44.4887 12.4889Z" fill="#F9AB00" stroke="#1E1E1E" stroke-miterlimit="10"/>
<path d="M31.5118 5.4081L31.5054 5.41706C29.7392 7.87689 30.3 11.3039 32.7578 13.0714L44.4881 21.5072C46.9459 23.2748 50.3701 22.7136 52.1363 20.2538L52.1427 20.2448C53.9088 17.785 53.3481 14.358 50.8903 12.5905L39.16 4.15465C36.7022 2.38709 33.278 2.94828 31.5118 5.4081Z" fill="#34A853" stroke="#1E1E1E" stroke-miterlimit="10"/>
</svg>
