<svg width="254" height="269" viewBox="0 0 254 269" fill="none" xmlns="http://www.w3.org/2000/svg">
<rect x="2.5" y="2" width="249" height="239" rx="9" fill="black" stroke="#4285F4" stroke-width="4"/>
<rect x="-2" y="2" width="189" height="48" rx="13" transform="matrix(1 0 0 -1 34.5 269)" fill="black" stroke="#4285F4" stroke-width="4"/>
<path d="M71.7127 248.13C72.1673 247.675 73.0693 246.766 74.4187 245.402C75.768 244.023 76.7067 243.048 77.2347 242.476C77.9827 241.669 78.4887 241.039 78.7527 240.584C79.0167 240.129 79.1487 239.579 79.1487 238.934C79.1487 238.494 79.0313 238.083 78.7967 237.702C78.5767 237.306 78.2467 236.991 77.8067 236.756C77.3813 236.507 76.868 236.382 76.2667 236.382C75.4747 236.382 74.8367 236.617 74.3527 237.086C73.8833 237.541 73.5753 238.039 73.4287 238.582L71.7127 237.9C71.8593 237.431 72.1233 236.947 72.5047 236.448C72.886 235.935 73.3993 235.502 74.0447 235.15C74.69 234.783 75.4527 234.6 76.3327 234.6C77.2567 234.6 78.0707 234.798 78.7747 235.194C79.4933 235.59 80.0507 236.118 80.4467 236.778C80.8427 237.438 81.0407 238.149 81.0407 238.912C81.0407 240.452 80.234 242.043 78.6207 243.686L74.1107 248.218H81.2167V250H71.7127V248.13ZM90.4873 246.766H83.2713V245.358L90.3113 234.952H92.3353V245.006H94.2713V246.766H92.3353V250H90.4873V246.766ZM90.4873 245.006V237.68H90.3993L85.4053 245.006H90.4873ZM106.552 250.352C105.555 250.352 104.645 250.095 103.824 249.582C103.017 249.069 102.379 248.365 101.91 247.47C101.441 246.561 101.206 245.534 101.206 244.39C101.206 243.261 101.441 242.241 101.91 241.332C102.379 240.423 103.017 239.711 103.824 239.198C104.645 238.685 105.555 238.428 106.552 238.428C107.417 238.428 108.187 238.626 108.862 239.022C109.537 239.403 110.05 239.88 110.402 240.452H110.49L110.402 238.89V234.248H112.272V250H110.49V248.35H110.402C110.05 248.907 109.537 249.384 108.862 249.78C108.187 250.161 107.417 250.352 106.552 250.352ZM106.772 248.658C107.432 248.658 108.041 248.482 108.598 248.13C109.17 247.778 109.625 247.279 109.962 246.634C110.314 245.989 110.49 245.241 110.49 244.39C110.49 243.539 110.314 242.791 109.962 242.146C109.625 241.501 109.17 241.002 108.598 240.65C108.041 240.298 107.432 240.122 106.772 240.122C106.127 240.122 105.518 240.298 104.946 240.65C104.374 241.002 103.912 241.508 103.56 242.168C103.223 242.813 103.054 243.554 103.054 244.39C103.054 245.226 103.223 245.974 103.56 246.634C103.912 247.279 104.374 247.778 104.946 248.13C105.518 248.482 106.127 248.658 106.772 248.658ZM119.921 250.352C118.85 250.352 117.89 250.095 117.039 249.582C116.188 249.069 115.521 248.365 115.037 247.47C114.568 246.561 114.333 245.541 114.333 244.412C114.333 243.327 114.553 242.329 114.993 241.42C115.448 240.511 116.086 239.785 116.907 239.242C117.728 238.699 118.682 238.428 119.767 238.428C120.867 238.428 121.82 238.677 122.627 239.176C123.434 239.66 124.05 240.335 124.475 241.2C124.915 242.065 125.135 243.055 125.135 244.17C125.135 244.39 125.113 244.581 125.069 244.742H116.203C116.247 245.593 116.452 246.311 116.819 246.898C117.186 247.485 117.648 247.925 118.205 248.218C118.777 248.511 119.371 248.658 119.987 248.658C121.424 248.658 122.532 247.983 123.309 246.634L124.893 247.404C124.409 248.313 123.749 249.032 122.913 249.56C122.092 250.088 121.094 250.352 119.921 250.352ZM123.155 243.202C123.126 242.733 122.994 242.263 122.759 241.794C122.524 241.325 122.15 240.929 121.637 240.606C121.138 240.283 120.508 240.122 119.745 240.122C118.865 240.122 118.117 240.408 117.501 240.98C116.9 241.537 116.504 242.278 116.313 243.202H123.155ZM132.811 234.248H135.517L140.533 247.162H140.621L145.637 234.248H148.343V250H146.495V239.99L146.583 236.998H146.495L141.347 250H139.807L134.659 236.998H134.571L134.659 239.99V250H132.811V234.248ZM154.757 250.352C153.936 250.352 153.202 250.191 152.557 249.868C151.912 249.545 151.413 249.105 151.061 248.548C150.709 247.976 150.533 247.331 150.533 246.612C150.533 245.424 150.98 244.5 151.875 243.84C152.77 243.165 153.899 242.828 155.263 242.828C155.938 242.828 156.561 242.901 157.133 243.048C157.72 243.195 158.167 243.363 158.475 243.554V242.872C158.475 242.036 158.182 241.369 157.595 240.87C157.008 240.357 156.268 240.1 155.373 240.1C154.742 240.1 154.163 240.239 153.635 240.518C153.107 240.782 152.689 241.156 152.381 241.64L150.973 240.584C151.413 239.909 152.014 239.381 152.777 239C153.554 238.619 154.412 238.428 155.351 238.428C156.876 238.428 158.072 238.831 158.937 239.638C159.817 240.43 160.257 241.515 160.257 242.894V250H158.475V248.394H158.387C158.064 248.937 157.58 249.399 156.935 249.78C156.29 250.161 155.564 250.352 154.757 250.352ZM154.933 248.702C155.564 248.702 156.15 248.541 156.693 248.218C157.236 247.895 157.668 247.463 157.991 246.92C158.314 246.377 158.475 245.783 158.475 245.138C158.123 244.903 157.69 244.713 157.177 244.566C156.664 244.419 156.121 244.346 155.549 244.346C154.522 244.346 153.745 244.559 153.217 244.984C152.704 245.409 152.447 245.959 152.447 246.634C152.447 247.25 152.682 247.749 153.151 248.13C153.62 248.511 154.214 248.702 154.933 248.702ZM166.076 249.296L161.434 238.78H163.458L166.978 247.118H167.022L170.41 238.78H172.434L165.504 254.752H163.568L166.076 249.296ZM178.728 250.352C177.628 250.352 176.638 250.088 175.758 249.56C174.878 249.032 174.189 248.313 173.69 247.404C173.206 246.495 172.964 245.49 172.964 244.39C172.964 243.29 173.206 242.285 173.69 241.376C174.189 240.467 174.878 239.748 175.758 239.22C176.638 238.692 177.628 238.428 178.728 238.428C179.828 238.428 180.818 238.692 181.698 239.22C182.578 239.748 183.26 240.467 183.744 241.376C184.243 242.285 184.492 243.29 184.492 244.39C184.492 245.49 184.243 246.495 183.744 247.404C183.26 248.313 182.578 249.032 181.698 249.56C180.818 250.088 179.828 250.352 178.728 250.352ZM178.728 248.658C179.417 248.658 180.055 248.489 180.642 248.152C181.243 247.8 181.72 247.301 182.072 246.656C182.439 246.011 182.622 245.255 182.622 244.39C182.622 243.525 182.439 242.769 182.072 242.124C181.72 241.479 181.243 240.987 180.642 240.65C180.055 240.298 179.417 240.122 178.728 240.122C178.039 240.122 177.393 240.298 176.792 240.65C176.191 240.987 175.707 241.479 175.34 242.124C174.988 242.769 174.812 243.525 174.812 244.39C174.812 245.255 174.988 246.011 175.34 246.656C175.707 247.301 176.191 247.8 176.792 248.152C177.393 248.489 178.039 248.658 178.728 248.658Z" fill="white"/>
<path d="M187.868 67.2215C185.694 67.2215 183.753 66.7399 182.046 65.7765C180.34 64.7856 179.005 63.4506 178.042 61.7716C177.106 60.065 176.638 58.152 176.638 56.0326C176.638 53.9407 177.106 52.0415 178.042 50.3349C179.005 48.6284 180.34 47.2934 182.046 46.33C183.753 45.3391 185.694 44.8437 187.868 44.8437C190.015 44.8437 191.942 45.3391 193.648 46.33C195.355 47.2934 196.676 48.6284 197.612 50.3349C198.575 52.0415 199.057 53.9407 199.057 56.0326C199.057 58.152 198.575 60.065 197.612 61.7716C196.676 63.4506 195.355 64.7856 193.648 65.7765C191.942 66.7399 190.015 67.2215 187.868 67.2215ZM187.868 62.2258C188.914 62.2258 189.877 61.978 190.758 61.4826C191.639 60.9871 192.341 60.2715 192.864 59.3356C193.387 58.3998 193.648 57.2988 193.648 56.0326C193.648 54.794 193.387 53.7068 192.864 52.7709C192.341 51.835 191.639 51.1194 190.758 50.6239C189.877 50.1285 188.914 49.8808 187.868 49.8808C186.822 49.8808 185.859 50.1285 184.978 50.6239C184.097 51.1194 183.381 51.835 182.831 52.7709C182.308 53.7068 182.046 54.794 182.046 56.0326C182.046 57.2712 182.308 58.3722 182.831 59.3356C183.381 60.2715 184.097 60.9871 184.978 61.4826C185.859 61.978 186.822 62.2258 187.868 62.2258Z" fill="#4285F4"/>
<path d="M170.43 66.8909C169.384 66.8909 168.42 66.7395 167.54 66.4368C166.659 66.1065 165.943 65.6661 165.393 65.1156C164.099 63.8769 163.452 62.1153 163.452 59.8308V50.1282H159.777V45.504H163.452V39.5586H168.861V45.504H174.022V50.1282H168.861V58.8399C168.861 59.9133 169.095 60.684 169.563 61.152C169.948 61.5924 170.609 61.8126 171.544 61.8126C172.067 61.8126 172.494 61.7437 172.824 61.6061C173.182 61.4685 173.636 61.2345 174.187 60.9042V66.189C173.003 66.657 171.751 66.8909 170.43 66.8909Z" fill="#4285F4"/>
<path d="M175.475 80.1284C179.821 77.6191 185.145 77.5404 189.552 79.893L189.975 80.1284L191.534 81.0278C196.02 83.6179 198.784 88.405 198.784 93.5854V95.3852C198.783 100.403 196.19 105.052 191.95 107.693L191.534 107.942L189.975 108.842C185.629 111.351 180.306 111.43 175.899 109.078L175.475 108.842L173.917 107.942C169.431 105.352 166.666 100.565 166.666 95.3852V93.5854C166.666 88.5669 169.26 83.9173 173.501 81.2768L173.917 81.0278L175.475 80.1284Z" fill="#4285F4" stroke="black" stroke-width="3"/>
<path d="M181.402 87.0149C181.949 85.9896 183.39 85.9579 183.993 86.9192L184.048 87.0149L185.519 89.7708C185.873 90.4349 186.387 90.9981 187.013 91.4104L187.289 91.5784L190.139 93.177C191.097 93.7143 191.157 95.0403 190.319 95.6761L190.139 95.7932L187.289 97.3919C186.632 97.7602 186.079 98.2867 185.68 98.9212L185.519 99.1995L184.048 101.954C183.501 102.98 182.061 103.012 181.458 102.051L181.402 101.954L179.932 99.1995C179.578 98.5351 179.063 97.9712 178.437 97.5589L178.163 97.3919L175.312 95.7932C174.354 95.256 174.294 93.9299 175.132 93.2942L175.312 93.177L178.163 91.5784C178.819 91.2102 179.371 90.6834 179.77 90.0491L179.932 89.7708L181.402 87.0149Z" fill="white" stroke="black" stroke-width="3"/>
<path d="M134.581 67.2225C132.682 67.2225 130.948 66.7546 129.379 65.8187C127.837 64.8553 126.612 63.5341 125.704 61.8551C124.823 60.1486 124.383 58.208 124.383 56.0336C124.383 53.8866 124.823 51.9599 125.704 50.2533C126.612 48.5468 127.837 47.2256 129.379 46.2897C130.948 45.3263 132.682 44.8446 134.581 44.8446C136.012 44.8446 137.278 45.1612 138.379 45.7943C139.48 46.3998 140.32 47.1567 140.898 48.0651H141.228L140.898 45.0924V37H146.265V66.5619H141.228V64.0434H140.898C140.347 64.9517 139.508 65.7086 138.379 66.3142C137.278 66.9197 136.012 67.2225 134.581 67.2225ZM135.489 62.2267C136.508 62.2267 137.457 61.9652 138.338 61.4422C139.219 60.9193 139.921 60.1898 140.444 59.254C140.967 58.3181 141.228 57.2447 141.228 56.0336C141.228 54.8225 140.967 53.749 140.444 52.8131C139.921 51.8773 139.219 51.1616 138.338 50.6662C137.457 50.1432 136.508 49.8817 135.489 49.8817C134.498 49.8817 133.562 50.1432 132.682 50.6662C131.801 51.1616 131.099 51.8773 130.576 52.8131C130.053 53.749 129.791 54.8225 129.791 56.0336C129.791 57.2447 130.053 58.3181 130.576 59.254C131.099 60.1898 131.801 60.9193 132.682 61.4422C133.562 61.9652 134.498 62.2267 135.489 62.2267Z" fill="#4285F4"/>
<path d="M109.039 67.2215C106.809 67.2215 104.979 66.5747 103.547 65.281C102.116 63.9598 101.4 62.2395 101.4 60.1201C101.4 58.7163 101.772 57.4777 102.515 56.4042C103.258 55.3307 104.277 54.505 105.57 53.927C106.864 53.3489 108.295 53.0599 109.864 53.0599C112.039 53.0599 113.897 53.3765 115.438 54.0095V53.1012C115.438 51.9451 114.998 51.0093 114.117 50.2936C113.264 49.578 112.108 49.2202 110.649 49.2202C109.658 49.2202 108.694 49.4541 107.759 49.9221C106.85 50.3625 106.093 50.9542 105.488 51.6974L102.02 48.9724C103.038 47.6512 104.318 46.6328 105.859 45.9172C107.401 45.2015 109.08 44.8437 110.896 44.8437C114.117 44.8437 116.567 45.5869 118.246 47.0732C119.925 48.5596 120.764 50.734 120.764 53.5967V66.5609H115.438V64.414H115.108C114.475 65.2397 113.635 65.9141 112.589 66.4371C111.571 66.9601 110.387 67.2215 109.039 67.2215ZM110.318 63.0102C111.887 63.0102 113.126 62.5148 114.034 61.5239C114.97 60.5054 115.438 59.3219 115.438 57.9731C114.034 57.3125 112.562 56.9822 111.02 56.9822C108.213 56.9822 106.809 58.0282 106.809 60.1201C106.809 60.9734 107.112 61.6753 107.717 62.2258C108.323 62.7487 109.19 63.0102 110.318 63.0102Z" fill="#4285F4"/>
<path d="M87.2701 67.2215C85.0957 67.2215 83.1551 66.7399 81.4486 65.7765C79.742 64.7856 78.4071 63.4506 77.4437 61.7716C76.5078 60.065 76.0399 58.152 76.0399 56.0326C76.0399 53.9407 76.5078 52.0415 77.4437 50.3349C78.4071 48.6284 79.742 47.2934 81.4486 46.33C83.1551 45.3391 85.0957 44.8437 87.2701 44.8437C89.4171 44.8437 91.3439 45.3391 93.0504 46.33C94.757 47.2934 96.0782 48.6284 97.014 50.3349C97.9774 52.0415 98.4591 53.9407 98.4591 56.0326C98.4591 58.152 97.9774 60.065 97.014 61.7716C96.0782 63.4506 94.757 64.7856 93.0504 65.7765C91.3439 66.7399 89.4171 67.2215 87.2701 67.2215ZM87.2701 62.2258C88.3161 62.2258 89.2795 61.978 90.1603 61.4826C91.0411 60.9871 91.743 60.2715 92.2659 59.3356C92.7889 58.3998 93.0504 57.2988 93.0504 56.0326C93.0504 54.794 92.7889 53.7068 92.2659 52.7709C91.743 51.835 91.0411 51.1194 90.1603 50.6239C89.2795 50.1285 88.3161 49.8808 87.2701 49.8808C86.2242 49.8808 85.2608 50.1285 84.38 50.6239C83.4992 51.1194 82.7836 51.835 82.2331 52.7709C81.7101 53.7068 81.4486 54.794 81.4486 56.0326C81.4486 57.2712 81.7101 58.3722 82.2331 59.3356C82.7836 60.2715 83.4992 60.9871 84.38 61.4826C85.2608 61.978 86.2242 62.2258 87.2701 62.2258Z" fill="#4285F4"/>
<path d="M52.1746 37H62.9507C64.8774 37 66.584 37.3991 68.0704 38.1973C69.5842 38.9956 70.754 40.1103 71.5798 41.5416C72.4056 42.9454 72.8184 44.5419 72.8184 46.331C72.8184 48.2302 72.2129 49.923 71.0018 51.4094C69.8182 52.8682 68.3181 53.9279 66.5014 54.5885L66.4601 54.8775L74.3874 66.2316V66.5619H67.9878L60.3496 55.4555H57.7484V66.5619H52.1746V37ZM62.9094 50.3359C64.1756 50.3359 65.2077 49.9505 66.006 49.1798C66.8042 48.4091 67.2033 47.432 67.2033 46.2484C67.2033 45.1199 66.818 44.1565 66.0473 43.3583C65.3041 42.5601 64.2857 42.1609 62.992 42.1609H57.7484V50.3359H62.9094Z" fill="#4285F4"/>
<path d="M191.811 122.341H198.343V156.986H191.811V122.341Z" fill="white"/>
<path d="M168.555 122.341H176.054L189.069 156.986H181.86L178.957 148.712H165.7L162.797 156.986H155.588L168.555 122.341ZM176.828 142.712L173.78 134.002L172.522 129.841H172.135L170.877 134.002L167.781 142.712H176.828Z" fill="white"/>
<path d="M122.849 122.341H129.187V131.099L128.8 135.405H129.187C129.897 134.244 130.929 133.309 132.283 132.599C133.638 131.889 135.106 131.534 136.686 131.534C139.686 131.534 141.976 132.438 143.556 134.244C145.169 136.018 145.976 138.486 145.976 141.647V156.986H139.638V142.422C139.638 140.841 139.202 139.615 138.331 138.744C137.493 137.873 136.364 137.438 134.944 137.438C133.267 137.438 131.88 138.115 130.784 139.47C129.719 140.825 129.187 142.486 129.187 144.454V156.986H122.849V122.341Z" fill="white"/>
<path d="M115.067 157.375C113.841 157.375 112.712 157.198 111.68 156.843C110.648 156.456 109.809 155.94 109.164 155.295C107.648 153.843 106.89 151.778 106.89 149.101V137.73H102.584V132.31H106.89V125.343H113.228V132.31H119.276V137.73H113.228V147.94C113.228 149.198 113.502 150.101 114.051 150.649C114.502 151.166 115.276 151.424 116.373 151.424C116.986 151.424 117.486 151.343 117.873 151.182C118.292 151.02 118.824 150.746 119.47 150.359V156.553C118.083 157.101 116.615 157.375 115.067 157.375Z" fill="white"/>
<path d="M96.7054 129.6C95.5765 129.6 94.6088 129.197 93.8024 128.391C92.9961 127.584 92.5929 126.616 92.5929 125.487C92.5929 124.358 92.9961 123.407 93.8024 122.632C94.6088 121.826 95.5765 121.423 96.7054 121.423C97.8343 121.423 98.7858 121.826 99.5599 122.632C100.366 123.407 100.77 124.358 100.77 125.487C100.77 126.616 100.366 127.584 99.5599 128.391C98.7858 129.197 97.8343 129.6 96.7054 129.6ZM93.5121 132.31H99.8502V156.988H93.5121V132.31Z" fill="white"/>
<path d="M52 132.311H59.1122L63.3699 148.328H63.7085L68.6435 132.311H75.1268L80.0618 148.328H80.4005L84.6581 132.311H91.6736L83.7872 156.989H76.9653L71.9335 141.021H71.5949L66.6115 156.989H59.8379L52 132.311Z" fill="white"/>
<path d="M141.311 112.562C139.086 112.562 137.054 112.013 135.215 110.917C133.409 109.788 131.973 108.239 130.909 106.271C129.877 104.271 129.361 101.997 129.361 99.4486C129.361 96.9325 129.877 94.6744 130.909 92.6743C131.973 90.6743 133.409 89.1259 135.215 88.0291C137.054 86.9 139.086 86.3355 141.311 86.3355C142.988 86.3355 144.472 86.7065 145.762 87.4484C147.053 88.1581 148.036 89.0452 148.714 90.1098H149.101L148.714 86.6258V77.1418H155.003V111.788H149.101V108.836H148.714C148.069 109.9 147.085 110.788 145.762 111.497C144.472 112.207 142.988 112.562 141.311 112.562ZM142.376 106.707C143.569 106.707 144.682 106.4 145.714 105.787C146.746 105.175 147.569 104.32 148.182 103.223C148.794 102.126 149.101 100.868 149.101 99.4486C149.101 98.0293 148.794 96.7712 148.182 95.6744C147.569 94.5776 146.746 93.7389 145.714 93.1582C144.682 92.5453 143.569 92.2388 142.376 92.2388C141.214 92.2388 140.118 92.5453 139.086 93.1582C138.053 93.7389 137.231 94.5776 136.618 95.6744C136.005 96.7712 135.699 98.0293 135.699 99.4486C135.699 100.868 136.005 102.126 136.618 103.223C137.231 104.32 138.053 105.175 139.086 105.787C140.118 106.4 141.214 106.707 142.376 106.707Z" fill="white"/>
<path d="M120.319 77.1417H126.657V111.788H120.319V77.1417Z" fill="white"/>
<path d="M112.463 84.3994C111.334 84.3994 110.367 83.9961 109.56 83.1897C108.754 82.3832 108.351 81.4154 108.351 80.2864C108.351 79.1573 108.754 78.2057 109.56 77.4315C110.367 76.625 111.334 76.2218 112.463 76.2218C113.592 76.2218 114.544 76.625 115.318 77.4315C116.124 78.2057 116.527 79.1573 116.527 80.2864C116.527 81.4154 116.124 82.3832 115.318 83.1897C114.544 83.9961 113.592 84.3994 112.463 84.3994ZM109.27 87.1091H115.608V111.787H109.27V87.1091Z" fill="white"/>
<path d="M90.7571 112.561C87.7896 112.561 85.5318 111.641 83.9836 109.802C82.4353 107.964 81.6612 105.399 81.6612 102.109V87.1084H87.9993V101.334C87.9993 103.012 88.4025 104.335 89.2089 105.302C90.0152 106.238 91.0797 106.706 92.4021 106.706C94.2084 106.706 95.6437 106.044 96.7081 104.722C97.7726 103.399 98.3048 101.722 98.3048 99.6893V87.1084H104.643V111.786H98.6918V108.689H98.3048C97.5629 109.883 96.5146 110.835 95.1599 111.544C93.8374 112.222 92.3699 112.561 90.7571 112.561Z" fill="white"/>
<path d="M53.3349 77.1418H66.882C68.8173 77.1418 70.5913 77.545 72.204 78.3515C73.849 79.158 75.1392 80.2547 76.0746 81.6419C77.01 83.029 77.4777 84.5451 77.4777 86.1903C77.4777 87.9323 77.0423 89.4485 76.1714 90.7388C75.3328 91.9969 74.22 92.9647 72.833 93.6421V94.0292C74.6393 94.6744 76.0746 95.7066 77.139 97.126C78.2035 98.5131 78.7357 100.191 78.7357 102.158C78.7357 104.062 78.2196 105.755 77.1874 107.239C76.1875 108.691 74.8167 109.82 73.0749 110.626C71.3654 111.4 69.4624 111.788 67.3658 111.788H53.3349V77.1418ZM66.3981 91.2711C67.8174 91.2711 68.9463 90.884 69.7849 90.1098C70.6558 89.3033 71.0912 88.3033 71.0912 87.1097C71.0912 85.9484 70.6719 84.9806 69.8333 84.2064C69.0269 83.4 67.9464 82.9967 66.5917 82.9967H59.8665V91.2711H66.3981ZM67.1239 105.836C68.7044 105.836 69.9301 105.433 70.8009 104.626C71.7041 103.787 72.1557 102.707 72.1557 101.384C72.1557 100.062 71.7041 98.9809 70.8009 98.1422C69.8978 97.3034 68.6076 96.8841 66.9304 96.8841H59.8665V105.836H67.1239Z" fill="white"/>
<path fill-rule="evenodd" clip-rule="evenodd" d="M151.738 168.348H62.1923C57.9311 168.348 54.4681 171.821 54.4681 176.116C54.4681 180.412 57.9311 183.885 62.1923 183.885H151.738C155.999 183.885 159.462 180.412 159.462 176.116C159.462 171.821 155.999 168.348 151.738 168.348ZM62.1923 167.4C57.403 167.4 53.5205 171.303 53.5205 176.116C53.5205 180.93 57.403 184.833 62.1923 184.833H151.738C156.527 184.833 160.41 180.93 160.41 176.116C160.41 171.303 156.527 167.4 151.738 167.4H62.1923Z" fill="white"/>
<path d="M148.508 172.858H149.977L152.526 179.644H151.114L150.545 178.023H147.949L147.38 179.644H145.968L148.508 172.858ZM150.128 176.848L149.531 175.142L149.285 174.327H149.209L148.963 175.142L148.356 176.848H150.128Z" fill="white"/>
<path d="M140.559 172.858H143.212C143.592 172.858 143.939 172.937 144.255 173.095C144.577 173.253 144.83 173.468 145.013 173.74C145.196 174.011 145.288 174.308 145.288 174.63C145.288 174.971 145.203 175.268 145.032 175.521C144.868 175.768 144.65 175.957 144.378 176.09V176.166C144.732 176.292 145.013 176.494 145.222 176.772C145.43 177.044 145.534 177.372 145.534 177.758C145.534 178.13 145.433 178.462 145.231 178.753C145.035 179.037 144.767 179.258 144.426 179.416C144.091 179.568 143.718 179.644 143.307 179.644H140.559V172.858ZM143.118 175.625C143.396 175.625 143.617 175.55 143.781 175.398C143.952 175.24 144.037 175.044 144.037 174.81C144.037 174.583 143.955 174.393 143.791 174.242C143.633 174.084 143.421 174.005 143.156 174.005H141.838V175.625H143.118ZM143.26 178.478C143.569 178.478 143.81 178.399 143.98 178.241C144.157 178.077 144.245 177.865 144.245 177.606C144.245 177.347 144.157 177.135 143.98 176.971C143.803 176.807 143.55 176.725 143.222 176.725H141.838V178.478H143.26Z" fill="white"/>
<path d="M132.027 172.858H133.676L135.476 177.625H135.552L137.353 172.858H139.011V179.644H137.741V176.298L137.817 175.171H137.741L136.016 179.644H135.021L133.287 175.171H133.211L133.287 176.298V179.644H132.027V172.858Z" fill="white"/>
<path d="M127.092 172.858H128.561L131.11 179.644H129.698L129.129 178.023H126.533L125.964 179.644H124.552L127.092 172.858ZM128.712 176.848L128.115 175.142L127.869 174.327H127.793L127.547 175.142L126.94 176.848H128.712Z" fill="white"/>
<path d="M119.145 172.858H121.798C122.177 172.858 122.525 172.937 122.841 173.095C123.163 173.253 123.416 173.468 123.599 173.74C123.782 174.011 123.874 174.308 123.874 174.63C123.874 174.972 123.788 175.268 123.618 175.521C123.454 175.768 123.236 175.957 122.964 176.09V176.166C123.318 176.292 123.599 176.494 123.807 176.772C124.016 177.044 124.12 177.372 124.12 177.758C124.12 178.13 124.019 178.462 123.817 178.753C123.621 179.037 123.353 179.258 123.011 179.416C122.676 179.568 122.304 179.644 121.893 179.644H119.145V172.858ZM121.704 175.625C121.982 175.625 122.203 175.55 122.367 175.398C122.538 175.24 122.623 175.044 122.623 174.81C122.623 174.583 122.541 174.393 122.376 174.242C122.218 174.084 122.007 174.005 121.741 174.005H120.424V175.625H121.704ZM121.846 178.478C122.155 178.478 122.395 178.399 122.566 178.241C122.743 178.077 122.831 177.865 122.831 177.606C122.831 177.347 122.743 177.135 122.566 176.971C122.389 176.807 122.136 176.725 121.808 176.725H120.424V178.478H121.846Z" fill="white"/>
<path d="M114.21 172.858H115.679L118.228 179.644H116.816L116.248 178.023H113.651L113.082 179.644H111.67L114.21 172.858ZM115.831 176.848L115.233 175.142L114.987 174.327H114.911L114.665 175.142L114.058 176.848H115.831Z" fill="white"/>
<path d="M105.336 172.858H106.616V175.569H109.468V172.858H110.747V179.644H109.468V176.782H106.616V179.644H105.336V172.858Z" fill="white"/>
<path d="M101.441 179.796C100.784 179.796 100.183 179.642 99.6401 179.332C99.0968 179.016 98.6672 178.59 98.3513 178.053C98.0417 177.509 97.8869 176.909 97.8869 176.252C97.8869 175.595 98.0417 174.998 98.3513 174.461C98.6672 173.918 99.0968 173.491 99.6401 173.182C100.183 172.866 100.784 172.708 101.441 172.708C102.464 172.708 103.311 173.077 103.981 173.817L103.08 174.688C102.644 174.177 102.101 173.921 101.45 173.921C101.027 173.921 100.642 174.019 100.294 174.215C99.9466 174.404 99.6717 174.676 99.4696 175.03C99.2737 175.383 99.1758 175.791 99.1758 176.252C99.1758 176.713 99.2737 177.121 99.4696 177.475C99.6717 177.828 99.9466 178.103 100.294 178.299C100.642 178.489 101.027 178.583 101.45 178.583C102.164 178.583 102.761 178.286 103.241 177.693L104.151 178.555C103.816 178.959 103.418 179.269 102.957 179.484C102.502 179.692 101.997 179.796 101.441 179.796Z" fill="white"/>
<path d="M93.5641 179.796C92.9007 179.796 92.2973 179.642 91.754 179.332C91.217 179.016 90.7937 178.587 90.4841 178.043C90.1745 177.5 90.0197 176.903 90.0197 176.252C90.0197 175.601 90.1745 175.004 90.4841 174.461C90.7937 173.918 91.217 173.491 91.754 173.182C92.2973 172.866 92.9007 172.708 93.5641 172.708C94.2274 172.708 94.8276 172.866 95.3647 173.182C95.908 173.491 96.3344 173.918 96.644 174.461C96.9536 175.004 97.1084 175.601 97.1084 176.252C97.1084 176.903 96.9536 177.5 96.644 178.043C96.3344 178.587 95.908 179.016 95.3647 179.332C94.8276 179.642 94.2274 179.796 93.5641 179.796ZM93.5641 178.583C93.981 178.583 94.3633 178.485 94.7108 178.29C95.0582 178.094 95.3299 177.819 95.5258 177.465C95.7279 177.111 95.829 176.707 95.829 176.252C95.829 175.797 95.7279 175.393 95.5258 175.039C95.3299 174.685 95.0582 174.41 94.7108 174.215C94.3633 174.019 93.981 173.921 93.5641 173.921C93.1471 173.921 92.7648 174.019 92.4174 174.215C92.0762 174.41 91.8045 174.685 91.6024 175.039C91.4065 175.393 91.3086 175.797 91.3086 176.252C91.3086 176.707 91.4065 177.111 91.6024 177.465C91.8045 177.819 92.0762 178.094 92.4174 178.29C92.7648 178.485 93.1471 178.583 93.5641 178.583Z" fill="white"/>
<path d="M86.6429 179.796C85.9858 179.796 85.3856 179.642 84.8423 179.332C84.2989 179.016 83.8693 178.59 83.5534 178.053C83.2438 177.509 83.0891 176.909 83.0891 176.252C83.0891 175.595 83.2438 174.998 83.5534 174.461C83.8693 173.918 84.2989 173.491 84.8423 173.182C85.3856 172.866 85.9858 172.708 86.6429 172.708C87.6663 172.708 88.5129 173.077 89.1826 173.817L88.2823 174.688C87.8464 174.177 87.3031 173.921 86.6523 173.921C86.229 173.921 85.8436 174.019 85.4962 174.215C85.1487 174.404 84.8738 174.676 84.6717 175.03C84.4758 175.383 84.3779 175.791 84.3779 176.252C84.3779 176.713 84.4758 177.121 84.6717 177.475C84.8738 177.828 85.1487 178.103 85.4962 178.299C85.8436 178.489 86.229 178.583 86.6523 178.583C87.3662 178.583 87.9633 178.286 88.4434 177.693L89.3532 178.555C89.0184 178.959 88.6203 179.269 88.1591 179.484C87.7043 179.692 87.1988 179.796 86.6429 179.796Z" fill="white"/>
<path d="M67.2029 171.266L62.7769 174.458C61.8495 175.127 61.638 176.424 62.3043 177.355L62.3068 177.359C62.9731 178.29 64.2651 178.502 65.1925 177.833L69.6185 174.64C70.5458 173.971 70.7574 172.675 70.091 171.744L70.0886 171.74C69.4222 170.809 68.1302 170.597 67.2029 171.266Z" fill="#EA4335" stroke="#1E1E1E" stroke-width="2" stroke-miterlimit="10"/>
<path d="M62.3068 174.901L62.3043 174.904C61.638 175.835 61.8495 177.132 62.7769 177.801L67.2029 180.994C68.1302 181.663 69.4222 181.45 70.0886 180.519L70.091 180.516C70.7574 179.585 70.5458 178.288 69.6185 177.619L65.1925 174.426C64.2651 173.757 62.9731 173.97 62.3068 174.901Z" fill="#4285F4" stroke="#1E1E1E" stroke-width="2" stroke-miterlimit="10"/>
<path d="M77.8835 174.422L73.4576 177.615C72.5302 178.284 72.3187 179.581 72.985 180.512L72.9875 180.515C73.6538 181.446 74.9458 181.658 75.8732 180.989L80.2992 177.797C81.2265 177.128 81.4381 175.831 80.7717 174.9L80.7693 174.896C80.1029 173.965 78.8109 173.753 77.8835 174.422Z" fill="#F9AB00" stroke="#1E1E1E" stroke-width="2" stroke-miterlimit="10"/>
<path d="M72.9875 171.742L72.985 171.746C72.3187 172.677 72.5302 173.974 73.4576 174.643L77.8835 177.835C78.8109 178.504 80.1029 178.292 80.7693 177.361L80.7717 177.358C81.4381 176.427 81.2265 175.13 80.2992 174.461L75.8732 171.268C74.9458 170.599 73.6538 170.811 72.9875 171.742Z" fill="#34A853" stroke="#1E1E1E" stroke-width="2" stroke-miterlimit="10"/>
<path fill-rule="evenodd" clip-rule="evenodd" d="M189.012 168.348H170.766C166.595 168.348 163.176 171.805 163.176 176.116C163.176 180.428 166.595 183.885 170.766 183.885H189.012C193.183 183.885 196.601 180.428 196.601 176.116C196.601 171.805 193.183 168.348 189.012 168.348ZM170.766 167.4C166.05 167.4 162.227 171.303 162.227 176.116C162.227 180.93 166.05 184.833 170.766 184.833H189.012C193.728 184.833 197.551 180.93 197.551 176.116C197.551 171.303 193.728 167.4 189.012 167.4H170.766Z" fill="white"/>
<path d="M189.855 180.226C189.458 180.226 189.075 180.153 188.708 180.006C188.34 179.851 188.016 179.623 187.737 179.322C187.465 179.013 187.277 178.634 187.174 178.186L188.476 177.678C188.564 178.053 188.726 178.351 188.961 178.572C189.197 178.785 189.491 178.892 189.844 178.892C190.197 178.892 190.491 178.774 190.726 178.539C190.962 178.303 191.079 178.005 191.079 177.645C191.079 177.292 190.962 176.998 190.726 176.763C190.498 176.52 190.204 176.398 189.844 176.398C189.623 176.398 189.421 176.446 189.237 176.542C189.061 176.63 188.91 176.751 188.785 176.906L187.384 176.277L187.814 172.504H192.072V173.773H189.016L188.741 175.538L188.829 175.56C189.197 175.259 189.634 175.108 190.142 175.108C190.561 175.108 190.951 175.214 191.311 175.428C191.679 175.641 191.973 175.943 192.193 176.332C192.414 176.715 192.524 177.152 192.524 177.645C192.524 178.145 192.41 178.59 192.182 178.98C191.954 179.37 191.638 179.675 191.234 179.895C190.829 180.116 190.37 180.226 189.855 180.226Z" fill="white"/>
<path d="M181.112 178.738C181.354 178.495 181.821 178.028 182.513 177.337C183.211 176.638 183.66 176.182 183.858 175.969C184.123 175.682 184.303 175.443 184.399 175.252C184.502 175.061 184.553 174.844 184.553 174.601C184.553 174.344 184.458 174.127 184.267 173.95C184.075 173.774 183.822 173.686 183.505 173.686C183.197 173.686 182.947 173.774 182.755 173.95C182.564 174.127 182.428 174.348 182.347 174.612L181.046 174.072C181.126 173.785 181.274 173.509 181.487 173.244C181.707 172.972 181.991 172.752 182.336 172.583C182.682 172.413 183.079 172.329 183.528 172.329C184.028 172.329 184.465 172.428 184.84 172.627C185.215 172.818 185.506 173.083 185.712 173.421C185.918 173.752 186.021 174.123 186.021 174.535C186.021 175.351 185.623 176.149 184.829 176.929C184.506 177.245 183.906 177.841 183.031 178.716L183.064 178.782H186.12V180.051H181.112V178.738Z" fill="white"/>
<path d="M176.918 180.227C176.286 180.227 175.731 180.058 175.253 179.72C174.775 179.374 174.403 178.903 174.139 178.308C173.881 177.705 173.753 177.028 173.753 176.278C173.753 175.528 173.881 174.855 174.139 174.259C174.403 173.656 174.775 173.186 175.253 172.847C175.731 172.502 176.286 172.329 176.918 172.329C177.551 172.329 178.106 172.502 178.584 172.847C179.062 173.186 179.43 173.656 179.687 174.259C179.952 174.855 180.084 175.528 180.084 176.278C180.084 177.028 179.952 177.705 179.687 178.308C179.43 178.903 179.062 179.374 178.584 179.72C178.106 180.058 177.551 180.227 176.918 180.227ZM176.918 178.87C177.271 178.87 177.577 178.76 177.834 178.539C178.099 178.311 178.297 178.003 178.43 177.613C178.569 177.216 178.639 176.771 178.639 176.278C178.639 175.513 178.485 174.892 178.176 174.414C177.867 173.928 177.448 173.686 176.918 173.686C176.396 173.686 175.981 173.928 175.672 174.414C175.363 174.899 175.209 175.521 175.209 176.278C175.209 176.771 175.275 177.216 175.407 177.613C175.547 178.003 175.746 178.311 176.003 178.539C176.268 178.76 176.573 178.87 176.918 178.87Z" fill="white"/>
<path d="M167.646 178.738C167.889 178.495 168.356 178.028 169.047 177.337C169.745 176.638 170.194 176.182 170.393 175.969C170.657 175.682 170.838 175.443 170.933 175.252C171.036 175.061 171.088 174.844 171.088 174.601C171.088 174.344 170.992 174.127 170.801 173.95C170.61 173.774 170.356 173.686 170.04 173.686C169.731 173.686 169.481 173.774 169.29 173.95C169.098 174.127 168.962 174.348 168.881 174.612L167.58 174.072C167.661 173.785 167.808 173.509 168.021 173.244C168.242 172.972 168.525 172.752 168.87 172.583C169.216 172.413 169.613 172.329 170.062 172.329C170.562 172.329 170.999 172.428 171.374 172.627C171.749 172.818 172.04 173.083 172.246 173.421C172.452 173.752 172.555 174.123 172.555 174.535C172.555 175.351 172.158 176.149 171.363 176.929C171.04 177.245 170.44 177.841 169.565 178.716L169.598 178.782H172.654V180.051H167.646V178.738Z" fill="white"/>
</svg>
