<svg width="262" height="273" viewBox="0 0 262 273" fill="none" xmlns="http://www.w3.org/2000/svg">
<rect x="2.5" y="2" width="257" height="247" rx="13" fill="black" stroke="#FFAE00" stroke-width="4"/>
<rect x="-2" y="2" width="189" height="48" rx="13" transform="matrix(1 0 0 -1 38.5 273)" fill="black" stroke="#FFAE00" stroke-width="4"/>
<path d="M80.3412 241.57L77.7012 243.462L76.7332 242.032L81.0232 238.952H82.2112V254H80.3412V241.57ZM91.1846 254.352C89.9966 254.352 88.9406 254.007 88.0166 253.318C87.1073 252.614 86.4033 251.668 85.9046 250.48C85.4206 249.277 85.1786 247.943 85.1786 246.476C85.1786 245.009 85.4206 243.682 85.9046 242.494C86.4033 241.291 87.1073 240.345 88.0166 239.656C88.9259 238.952 89.9819 238.6 91.1846 238.6C92.3873 238.6 93.4433 238.952 94.3526 239.656C95.2619 240.345 95.9586 241.291 96.4426 242.494C96.9413 243.682 97.1906 245.009 97.1906 246.476C97.1906 247.943 96.9413 249.277 96.4426 250.48C95.9586 251.668 95.2546 252.614 94.3306 253.318C93.4213 254.007 92.3726 254.352 91.1846 254.352ZM91.1846 252.57C92.0206 252.57 92.7466 252.306 93.3626 251.778C93.9786 251.235 94.4553 250.502 94.7926 249.578C95.1299 248.654 95.2986 247.62 95.2986 246.476C95.2986 245.332 95.1299 244.298 94.7926 243.374C94.4553 242.45 93.9786 241.724 93.3626 241.196C92.7466 240.653 92.0206 240.382 91.1846 240.382C90.3486 240.382 89.6226 240.653 89.0066 241.196C88.3906 241.724 87.9139 242.45 87.5766 243.374C87.2393 244.298 87.0706 245.332 87.0706 246.476C87.0706 247.62 87.2393 248.654 87.5766 249.578C87.9139 250.502 88.3906 251.235 89.0066 251.778C89.6226 252.306 90.3486 252.57 91.1846 252.57ZM109.532 254.352C108.534 254.352 107.625 254.095 106.804 253.582C105.997 253.069 105.359 252.365 104.89 251.47C104.42 250.561 104.186 249.534 104.186 248.39C104.186 247.261 104.42 246.241 104.89 245.332C105.359 244.423 105.997 243.711 106.804 243.198C107.625 242.685 108.534 242.428 109.532 242.428C110.397 242.428 111.167 242.626 111.842 243.022C112.516 243.403 113.03 243.88 113.382 244.452H113.47L113.382 242.89V238.248H115.252V254H113.47V252.35H113.382C113.03 252.907 112.516 253.384 111.842 253.78C111.167 254.161 110.397 254.352 109.532 254.352ZM109.752 252.658C110.412 252.658 111.02 252.482 111.578 252.13C112.15 251.778 112.604 251.279 112.942 250.634C113.294 249.989 113.47 249.241 113.47 248.39C113.47 247.539 113.294 246.791 112.942 246.146C112.604 245.501 112.15 245.002 111.578 244.65C111.02 244.298 110.412 244.122 109.752 244.122C109.106 244.122 108.498 244.298 107.926 244.65C107.354 245.002 106.892 245.508 106.54 246.168C106.202 246.813 106.034 247.554 106.034 248.39C106.034 249.226 106.202 249.974 106.54 250.634C106.892 251.279 107.354 251.778 107.926 252.13C108.498 252.482 109.106 252.658 109.752 252.658ZM122.901 254.352C121.83 254.352 120.869 254.095 120.019 253.582C119.168 253.069 118.501 252.365 118.017 251.47C117.547 250.561 117.313 249.541 117.313 248.412C117.313 247.327 117.533 246.329 117.973 245.42C118.427 244.511 119.065 243.785 119.887 243.242C120.708 242.699 121.661 242.428 122.747 242.428C123.847 242.428 124.8 242.677 125.607 243.176C126.413 243.66 127.029 244.335 127.455 245.2C127.895 246.065 128.115 247.055 128.115 248.17C128.115 248.39 128.093 248.581 128.049 248.742H119.183C119.227 249.593 119.432 250.311 119.799 250.898C120.165 251.485 120.627 251.925 121.185 252.218C121.757 252.511 122.351 252.658 122.967 252.658C124.404 252.658 125.511 251.983 126.289 250.634L127.873 251.404C127.389 252.313 126.729 253.032 125.893 253.56C125.071 254.088 124.074 254.352 122.901 254.352ZM126.135 247.202C126.105 246.733 125.973 246.263 125.739 245.794C125.504 245.325 125.13 244.929 124.617 244.606C124.118 244.283 123.487 244.122 122.725 244.122C121.845 244.122 121.097 244.408 120.481 244.98C119.879 245.537 119.483 246.278 119.293 247.202H126.135ZM135.79 238.248H138.496L143.512 251.162H143.6L148.616 238.248H151.322V254H149.474V243.99L149.562 240.998H149.474L144.326 254H142.786L137.638 240.998H137.55L137.638 243.99V254H135.79V238.248ZM157.737 254.352C156.915 254.352 156.182 254.191 155.537 253.868C154.891 253.545 154.393 253.105 154.041 252.548C153.689 251.976 153.513 251.331 153.513 250.612C153.513 249.424 153.96 248.5 154.855 247.84C155.749 247.165 156.879 246.828 158.243 246.828C158.917 246.828 159.541 246.901 160.113 247.048C160.699 247.195 161.147 247.363 161.455 247.554V246.872C161.455 246.036 161.161 245.369 160.575 244.87C159.988 244.357 159.247 244.1 158.353 244.1C157.722 244.1 157.143 244.239 156.615 244.518C156.087 244.782 155.669 245.156 155.361 245.64L153.953 244.584C154.393 243.909 154.994 243.381 155.757 243C156.534 242.619 157.392 242.428 158.331 242.428C159.856 242.428 161.051 242.831 161.917 243.638C162.797 244.43 163.237 245.515 163.237 246.894V254H161.455V252.394H161.367C161.044 252.937 160.56 253.399 159.915 253.78C159.269 254.161 158.543 254.352 157.737 254.352ZM157.913 252.702C158.543 252.702 159.13 252.541 159.673 252.218C160.215 251.895 160.648 251.463 160.971 250.92C161.293 250.377 161.455 249.783 161.455 249.138C161.103 248.903 160.67 248.713 160.157 248.566C159.643 248.419 159.101 248.346 158.529 248.346C157.502 248.346 156.725 248.559 156.197 248.984C155.683 249.409 155.427 249.959 155.427 250.634C155.427 251.25 155.661 251.749 156.131 252.13C156.6 252.511 157.194 252.702 157.913 252.702ZM169.055 253.296L164.413 242.78H166.437L169.957 251.118H170.001L173.389 242.78H175.413L168.483 258.752H166.547L169.055 253.296ZM181.707 254.352C180.607 254.352 179.617 254.088 178.737 253.56C177.857 253.032 177.168 252.313 176.669 251.404C176.185 250.495 175.943 249.49 175.943 248.39C175.943 247.29 176.185 246.285 176.669 245.376C177.168 244.467 177.857 243.748 178.737 243.22C179.617 242.692 180.607 242.428 181.707 242.428C182.807 242.428 183.797 242.692 184.677 243.22C185.557 243.748 186.239 244.467 186.723 245.376C187.222 246.285 187.471 247.29 187.471 248.39C187.471 249.49 187.222 250.495 186.723 251.404C186.239 252.313 185.557 253.032 184.677 253.56C183.797 254.088 182.807 254.352 181.707 254.352ZM181.707 252.658C182.397 252.658 183.035 252.489 183.621 252.152C184.223 251.8 184.699 251.301 185.051 250.656C185.418 250.011 185.601 249.255 185.601 248.39C185.601 247.525 185.418 246.769 185.051 246.124C184.699 245.479 184.223 244.987 183.621 244.65C183.035 244.298 182.397 244.122 181.707 244.122C181.018 244.122 180.373 244.298 179.771 244.65C179.17 244.987 178.686 245.479 178.319 246.124C177.967 246.769 177.791 247.525 177.791 248.39C177.791 249.255 177.967 250.011 178.319 250.656C178.686 251.301 179.17 251.8 179.771 252.152C180.373 252.489 181.018 252.658 181.707 252.658Z" fill="white"/>
<path d="M195.512 72.0522C193.28 72.0522 191.287 71.5576 189.535 70.5683C187.783 69.5508 186.412 68.1799 185.423 66.4558C184.463 64.7034 183.982 62.739 183.982 60.5627C183.982 58.4146 184.463 56.4643 185.423 54.7119C186.412 52.9595 187.783 51.5887 189.535 50.5995C191.287 49.5819 193.28 49.0732 195.512 49.0732C197.717 49.0732 199.695 49.5819 201.447 50.5995C203.199 51.5887 204.555 52.9595 205.516 54.7119C206.505 56.4643 207 58.4146 207 60.5627C207 62.739 206.505 64.7034 205.516 66.4558C204.555 68.1799 203.199 69.5508 201.447 70.5683C199.695 71.5576 197.717 72.0522 195.512 72.0522ZM195.512 66.9222C196.586 66.9222 197.575 66.6678 198.48 66.159C199.384 65.6503 200.105 64.9154 200.641 63.9544C201.178 62.9934 201.447 61.8628 201.447 60.5627C201.447 59.2908 201.178 58.1743 200.641 57.2133C200.105 56.2524 199.384 55.5175 198.48 55.0087C197.575 54.5 196.586 54.2456 195.512 54.2456C194.438 54.2456 193.449 54.5 192.545 55.0087C191.641 55.5175 190.906 56.2524 190.341 57.2133C189.804 58.1743 189.535 59.2908 189.535 60.5627C189.535 61.8346 189.804 62.9652 190.341 63.9544C190.906 64.9154 191.641 65.6503 192.545 66.159C193.449 66.6678 194.438 66.9222 195.512 66.9222Z" fill="#FFAE00"/>
<path d="M177.594 71.6837C176.52 71.6837 175.531 71.5283 174.626 71.2174C173.722 70.8782 172.987 70.426 172.422 69.8607C171.094 68.5888 170.43 66.7798 170.43 64.4339V54.4707H166.657V49.7222H170.43V43.6171H175.983V49.7222H181.281V54.4707H175.983V63.4164C175.983 64.5187 176.223 65.3101 176.703 65.7906C177.099 66.2428 177.777 66.4689 178.738 66.4689C179.275 66.4689 179.713 66.3983 180.052 66.2569C180.42 66.1156 180.886 65.8754 181.451 65.5362V70.963C180.236 71.4435 178.95 71.6837 177.594 71.6837Z" fill="#FFAE00"/>
<path d="M140.782 72.0344C138.832 72.0344 137.052 71.5539 135.441 70.5929C133.858 69.6036 132.601 68.2469 131.668 66.5228C130.764 64.7704 130.312 62.7778 130.312 60.5449C130.312 58.3402 130.764 56.3617 131.668 54.6093C132.601 52.8569 133.858 51.5002 135.441 50.5393C137.052 49.55 138.832 49.0554 140.782 49.0554C142.252 49.0554 143.551 49.3804 144.682 50.0305C145.812 50.6523 146.674 51.4296 147.268 52.3623H147.607L147.268 49.3097V41H152.778V71.356H147.607V68.7698H147.268C146.702 69.7025 145.841 70.4798 144.682 71.1016C143.551 71.7235 142.252 72.0344 140.782 72.0344ZM141.715 66.9044C142.76 66.9044 143.735 66.6359 144.64 66.0988C145.544 65.5618 146.264 64.8128 146.801 63.8518C147.338 62.8908 147.607 61.7885 147.607 60.5449C147.607 59.3012 147.338 58.1989 146.801 57.2379C146.264 56.2769 145.544 55.5421 144.64 55.0333C143.735 54.4963 142.76 54.2278 141.715 54.2278C140.697 54.2278 139.736 54.4963 138.832 55.0333C137.928 55.5421 137.207 56.2769 136.67 57.2379C136.133 58.1989 135.865 59.3012 135.865 60.5449C135.865 61.7885 136.133 62.8908 136.67 63.8518C137.207 64.8128 137.928 65.5618 138.832 66.0988C139.736 66.6359 140.697 66.9044 141.715 66.9044Z" fill="#FFAE00"/>
<path d="M114.563 72.0522C112.274 72.0522 110.395 71.388 108.925 70.0595C107.456 68.7028 106.721 66.9363 106.721 64.76C106.721 63.3185 107.102 62.0466 107.866 60.9443C108.629 59.8419 109.674 58.994 111.002 58.4004C112.331 57.8069 113.8 57.5101 115.411 57.5101C117.644 57.5101 119.551 57.8352 121.134 58.4852V57.5525C121.134 56.3654 120.681 55.4044 119.777 54.6695C118.901 53.9347 117.714 53.5672 116.216 53.5672C115.199 53.5672 114.21 53.8075 113.249 54.288C112.316 54.7402 111.539 55.3479 110.918 56.111L107.357 53.3128C108.402 51.9562 109.717 50.9104 111.299 50.1755C112.882 49.4406 114.606 49.0732 116.471 49.0732C119.777 49.0732 122.292 49.8363 124.016 51.3626C125.74 52.8889 126.602 55.1218 126.602 58.0613V71.3738H121.134V69.1692H120.795C120.145 70.0171 119.283 70.7096 118.209 71.2466C117.163 71.7837 115.948 72.0522 114.563 72.0522ZM115.877 67.7277C117.488 67.7277 118.76 67.219 119.692 66.2014C120.653 65.1557 121.134 63.9403 121.134 62.5553C119.692 61.877 118.18 61.5378 116.598 61.5378C113.715 61.5378 112.274 62.6119 112.274 64.76C112.274 65.6361 112.585 66.3569 113.207 66.9222C113.828 67.4592 114.719 67.7277 115.877 67.7277Z" fill="#FFAE00"/>
<path d="M92.2263 72.0522C89.9937 72.0522 88.0014 71.5576 86.2493 70.5683C84.4971 69.5508 83.1265 68.1799 82.1374 66.4558C81.1766 64.7034 80.6961 62.739 80.6961 60.5627C80.6961 58.4146 81.1766 56.4643 82.1374 54.7119C83.1265 52.9595 84.4971 51.5887 86.2493 50.5995C88.0014 49.5819 89.9937 49.0732 92.2263 49.0732C94.4306 49.0732 96.4088 49.5819 98.1609 50.5995C99.913 51.5887 101.27 52.9595 102.23 54.7119C103.219 56.4643 103.714 58.4146 103.714 60.5627C103.714 62.739 103.219 64.7034 102.23 66.4558C101.27 68.1799 99.913 69.5508 98.1609 70.5683C96.4088 71.5576 94.4306 72.0522 92.2263 72.0522ZM92.2263 66.9222C93.3002 66.9222 94.2893 66.6678 95.1936 66.159C96.0979 65.6503 96.8185 64.9154 97.3555 63.9544C97.8924 62.9934 98.1609 61.8628 98.1609 60.5627C98.1609 59.2908 97.8924 58.1743 97.3555 57.2133C96.8185 56.2524 96.0979 55.5175 95.1936 55.0087C94.2893 54.5 93.3002 54.2456 92.2263 54.2456C91.1524 54.2456 90.1633 54.5 89.259 55.0087C88.3546 55.5175 87.6199 56.2524 87.0547 57.2133C86.5177 58.1743 86.2493 59.2908 86.2493 60.5627C86.2493 61.8346 86.5177 62.9652 87.0547 63.9544C87.6199 64.9154 88.3546 65.6503 89.259 66.159C90.1633 66.6678 91.1524 66.9222 92.2263 66.9222Z" fill="#FFAE00"/>
<path d="M56.1832 41H67.247C69.2252 41 70.9774 41.4098 72.5034 42.2295C74.0577 43.0492 75.2588 44.1939 76.1066 45.6636C76.9544 47.1051 77.3783 48.7445 77.3783 50.5816C77.3783 52.5319 76.7566 54.2702 75.5131 55.7964C74.2979 57.2945 72.7578 58.3826 70.8926 59.061L70.8502 59.3578L78.9891 71.0168V71.356H72.4186L64.5765 59.9513H61.9059V71.356H56.1832V41ZM67.2046 54.6941C68.5046 54.6941 69.5644 54.2984 70.3839 53.507C71.2035 52.7156 71.6132 51.7122 71.6132 50.4969C71.6132 49.338 71.2176 48.3488 70.4263 47.5291C69.6633 46.7094 68.6177 46.2996 67.2894 46.2996H61.9059V54.6941H67.2046Z" fill="#FFAE00"/>
<path d="M199.538 128.633H206.244V164.21H199.538V128.633Z" fill="white"/>
<path d="M175.658 128.633H183.358L196.72 164.21H189.319L186.338 155.713H172.728L169.747 164.21H162.346L175.658 128.633ZM184.153 149.552L181.023 140.608L179.732 136.335H179.334L178.043 140.608L174.864 149.552H184.153Z" fill="white"/>
<path d="M128.727 128.633H135.235V137.627L134.837 142.049H135.235C135.963 140.857 137.023 139.896 138.414 139.167C139.805 138.438 141.312 138.074 142.934 138.074C146.014 138.074 148.365 139.002 149.988 140.857C151.644 142.678 152.472 145.213 152.472 148.459V164.21H145.964V149.254C145.964 147.631 145.517 146.372 144.623 145.478C143.762 144.583 142.603 144.136 141.146 144.136C139.424 144.136 138 144.832 136.874 146.223C135.781 147.614 135.235 149.32 135.235 151.341V164.21H128.727V128.633Z" fill="white"/>
<path d="M120.754 164.624C119.495 164.624 118.336 164.442 117.277 164.078C116.217 163.68 115.356 163.15 114.693 162.488C113.137 160.997 112.359 158.877 112.359 156.128V144.451H107.938V138.886H112.359V131.731H118.866V138.886H125.075V144.451H118.866V154.935C118.866 156.227 119.148 157.155 119.711 157.718C120.174 158.248 120.969 158.513 122.095 158.513C122.724 158.513 123.237 158.43 123.635 158.264C124.065 158.099 124.612 157.817 125.274 157.42V163.78C123.85 164.343 122.343 164.624 120.754 164.624Z" fill="white"/>
<path d="M101.913 136.071C100.754 136.071 99.7601 135.657 98.9322 134.829C98.1043 134.001 97.6903 133.007 97.6903 131.848C97.6903 130.688 98.1043 129.711 98.9322 128.916C99.7601 128.088 100.754 127.674 101.913 127.674C103.072 127.674 104.049 128.088 104.843 128.916C105.671 129.711 106.085 130.688 106.085 131.848C106.085 133.007 105.671 134.001 104.843 134.829C104.049 135.657 103.072 136.071 101.913 136.071ZM98.6341 138.854H105.141V164.195H98.6341V138.854Z" fill="white"/>
<path d="M56 138.882H63.3021L67.6735 155.329H68.0212L73.088 138.882H79.7444L84.8112 155.329H85.1589L89.5303 138.882H96.7331L88.6361 164.223H81.632L76.4659 147.826H76.1182L71.0017 164.223H64.0473L56 138.882Z" fill="white"/>
<path d="M147.706 118.588C145.421 118.588 143.335 118.024 141.447 116.898C139.593 115.739 138.119 114.149 137.026 112.128C135.966 110.074 135.437 107.739 135.437 105.122C135.437 102.538 135.966 100.22 137.026 98.1659C138.119 96.1122 139.593 94.5221 141.447 93.3959C143.335 92.2365 145.421 91.6568 147.706 91.6568C149.428 91.6568 150.952 92.0378 152.276 92.7996C153.601 93.5284 154.611 94.4393 155.306 95.5325H155.704L155.306 91.9549V82.2161H161.764V117.793H155.704V114.762H155.306C154.644 115.855 153.634 116.766 152.276 117.494C150.952 118.223 149.428 118.588 147.706 118.588ZM148.799 112.575C150.024 112.575 151.167 112.261 152.226 111.631C153.286 111.002 154.131 110.124 154.76 108.998C155.389 107.872 155.704 106.58 155.704 105.122C155.704 103.665 155.389 102.373 154.76 101.247C154.131 100.12 153.286 99.259 152.226 98.6628C151.167 98.0334 150.024 97.7187 148.799 97.7187C147.607 97.7187 146.481 98.0334 145.421 98.6628C144.361 99.259 143.517 100.12 142.888 101.247C142.258 102.373 141.944 103.665 141.944 105.122C141.944 106.58 142.258 107.872 142.888 108.998C143.517 110.124 144.361 111.002 145.421 111.631C146.481 112.261 147.607 112.575 148.799 112.575Z" fill="white"/>
<path d="M126.147 82.2161H132.655V117.793H126.147V82.2161Z" fill="white"/>
<path d="M118.095 89.656C116.936 89.656 115.942 89.242 115.114 88.4138C114.286 87.5857 113.872 86.5919 113.872 85.4326C113.872 84.2732 114.286 83.296 115.114 82.501C115.942 81.6729 116.936 81.2588 118.095 81.2588C119.254 81.2588 120.231 81.6729 121.026 82.501C121.853 83.296 122.267 84.2732 122.267 85.4326C122.267 86.5919 121.853 87.5857 121.026 88.4138C120.231 89.242 119.254 89.656 118.095 89.656ZM114.816 92.4385H121.324V117.779H114.816V92.4385Z" fill="white"/>
<path d="M95.7864 118.602C92.7397 118.602 90.4215 117.658 88.832 115.77C87.2424 113.882 86.4476 111.249 86.4476 107.87V92.4667H92.9549V107.075C92.9549 108.797 93.3689 110.156 94.1968 111.149C95.0247 112.11 96.1175 112.59 97.4753 112.59C99.3298 112.59 100.804 111.911 101.896 110.553C102.989 109.195 103.536 107.472 103.536 105.386V92.4667H110.043V117.807H103.933V114.627H103.536C102.774 115.853 101.698 116.83 100.307 117.559C98.949 118.255 97.4422 118.602 95.7864 118.602Z" fill="white"/>
<path d="M57.364 82.2161H71.2728C73.2598 82.2161 75.0812 82.6302 76.737 83.4583C78.4259 84.2865 79.7506 85.4127 80.711 86.8371C81.6713 88.2615 82.1515 89.8184 82.1515 91.5077C82.1515 93.2965 81.7045 94.8534 80.8103 96.1784C79.9493 97.4703 78.8068 98.464 77.3828 99.1597V99.5572C79.2373 100.22 80.711 101.28 81.8038 102.737C82.8967 104.162 83.4431 105.884 83.4431 107.905C83.4431 109.859 82.9132 111.598 81.8535 113.122C80.8269 114.613 79.4194 115.772 77.6312 116.6C75.876 117.395 73.9221 117.793 71.7696 117.793H57.364V82.2161ZM70.7761 96.725C72.2332 96.725 73.3923 96.3275 74.2533 95.5325C75.1474 94.7043 75.5945 93.6775 75.5945 92.4518C75.5945 91.2593 75.164 90.2656 74.303 89.4705C73.4751 88.6424 72.3657 88.2284 70.9748 88.2284H64.07V96.725H70.7761ZM71.5212 111.681C73.1439 111.681 74.4023 111.267 75.2965 110.439C76.2237 109.578 76.6873 108.468 76.6873 107.11C76.6873 105.752 76.2237 104.642 75.2965 103.781C74.3692 102.919 73.0446 102.489 71.3225 102.489H64.07V111.681H71.5212Z" fill="white"/>
<path fill-rule="evenodd" clip-rule="evenodd" d="M158.389 175.872H66.4522C62.0772 175.872 58.5218 179.439 58.5218 183.85C58.5218 188.261 62.0772 191.828 66.4522 191.828H158.389C162.764 191.828 166.32 188.261 166.32 183.85C166.32 179.439 162.764 175.872 158.389 175.872ZM66.4522 174.9C61.5351 174.9 57.5489 178.907 57.5489 183.85C57.5489 188.793 61.5351 192.8 66.4522 192.8H158.389C163.306 192.8 167.292 188.793 167.292 183.85C167.292 178.907 163.306 174.9 158.389 174.9H66.4522Z" fill="white"/>
<path d="M81.7369 178.252L76.6914 181.891C75.6342 182.654 75.393 184.132 76.1527 185.193L76.1555 185.197C76.9151 186.258 78.388 186.5 79.4451 185.738L84.4906 182.098C85.5478 181.336 85.789 179.858 85.0293 178.796L85.0265 178.793C84.2669 177.731 82.794 177.489 81.7369 178.252Z" fill="#EA4335" stroke="#1E1E1E" stroke-miterlimit="10"/>
<path d="M76.1555 182.394L76.1527 182.398C75.393 183.459 75.6342 184.937 76.6914 185.7L81.7369 189.339C82.794 190.102 84.2669 189.86 85.0265 188.798L85.0293 188.795C85.789 187.733 85.5478 186.255 84.4906 185.492L79.4451 181.853C78.388 181.091 76.9151 181.333 76.1555 182.394Z" fill="#4285F4" stroke="#1E1E1E" stroke-miterlimit="10"/>
<path d="M93.9125 181.849L88.8671 185.489C87.8099 186.251 87.5687 187.73 88.3283 188.791L88.3311 188.795C89.0908 189.856 90.5636 190.098 91.6208 189.335L96.6662 185.696C97.7234 184.934 97.9646 183.455 97.2049 182.394L97.2022 182.39C96.4425 181.329 94.9697 181.087 93.9125 181.849Z" fill="#F9AB00" stroke="#1E1E1E" stroke-miterlimit="10"/>
<path d="M88.3311 178.794L88.3283 178.798C87.5687 179.859 87.8099 181.337 88.8671 182.1L93.9125 185.739C94.9697 186.502 96.4425 186.259 97.2022 185.198L97.2049 185.194C97.9646 184.133 97.7234 182.655 96.6662 181.892L91.6208 178.253C90.5636 177.491 89.0908 177.733 88.3311 178.794Z" fill="#34A853" stroke="#1E1E1E" stroke-miterlimit="10"/>
<path d="M146.195 187.776C145.45 187.776 144.773 187.602 144.163 187.254C143.56 186.899 143.084 186.417 142.737 185.807C142.389 185.197 142.215 184.526 142.215 183.795C142.215 183.065 142.389 182.394 142.737 181.784C143.084 181.174 143.56 180.695 144.163 180.347C144.773 179.993 145.45 179.815 146.195 179.815C146.94 179.815 147.614 179.993 148.217 180.347C148.828 180.695 149.306 181.174 149.654 181.784C150.002 182.394 150.176 183.065 150.176 183.795C150.176 184.526 150.002 185.197 149.654 185.807C149.306 186.417 148.828 186.899 148.217 187.254C147.614 187.602 146.94 187.776 146.195 187.776ZM146.195 186.413C146.664 186.413 147.093 186.303 147.483 186.084C147.873 185.864 148.178 185.555 148.398 185.158C148.625 184.76 148.739 184.306 148.739 183.795C148.739 183.285 148.625 182.831 148.398 182.433C148.178 182.036 147.873 181.727 147.483 181.507C147.093 181.287 146.664 181.177 146.195 181.177C145.727 181.177 145.298 181.287 144.908 181.507C144.525 181.727 144.219 182.036 143.992 182.433C143.772 182.831 143.662 183.285 143.662 183.795C143.662 184.306 143.772 184.76 143.992 185.158C144.219 185.555 144.525 185.864 144.908 186.084C145.298 186.303 145.727 186.413 146.195 186.413Z" fill="white"/>
<path d="M138.207 181.348H136.079V179.986H141.772V181.348H139.644V187.606H138.207V181.348Z" fill="white"/>
<path d="M131.603 179.986H133.04V186.243H136.264V187.606H131.603V179.986Z" fill="white"/>
<path d="M126.061 179.986H127.711L130.574 187.606H128.988L128.349 185.786H125.433L124.795 187.606H123.209L126.061 179.986ZM127.881 184.466L127.211 182.55L126.934 181.635H126.849L126.572 182.55L125.891 184.466H127.881Z" fill="white"/>
<path d="M115.889 179.986H117.326V186.243H120.55V187.606H115.889V179.986Z" fill="white"/>
<path d="M109.58 179.986H114.412V181.348H111.017V183.115H114.071V184.477H111.017V186.243H114.412V187.606H109.58V179.986Z" fill="white"/>
<path fill-rule="evenodd" clip-rule="evenodd" d="M196.666 175.872H177.933C173.65 175.872 170.141 179.423 170.141 183.85C170.141 188.277 173.65 191.828 177.933 191.828H196.666C200.948 191.828 204.458 188.277 204.458 183.85C204.458 179.423 200.948 175.872 196.666 175.872ZM177.933 174.9C173.091 174.9 169.166 178.907 169.166 183.85C169.166 188.793 173.091 192.8 177.933 192.8H196.666C201.508 192.8 205.433 188.793 205.433 183.85C205.433 178.907 201.508 174.9 196.666 174.9H177.933Z" fill="white"/>
<path d="M197.536 188.066C197.129 188.066 196.736 187.99 196.359 187.839C195.981 187.681 195.649 187.447 195.362 187.137C195.082 186.82 194.89 186.431 194.784 185.97L196.121 185.449C196.211 185.834 196.377 186.14 196.619 186.367C196.861 186.586 197.163 186.695 197.525 186.695C197.887 186.695 198.189 186.575 198.431 186.333C198.673 186.091 198.794 185.785 198.794 185.415C198.794 185.053 198.673 184.751 198.431 184.509C198.197 184.26 197.895 184.135 197.525 184.135C197.299 184.135 197.091 184.184 196.902 184.283C196.721 184.373 196.566 184.498 196.438 184.656L194.999 184.011L195.441 180.137H199.813V181.439H196.676L196.392 183.252L196.483 183.274C196.861 182.965 197.31 182.81 197.831 182.81C198.261 182.81 198.661 182.92 199.031 183.139C199.409 183.358 199.711 183.667 199.937 184.067C200.164 184.46 200.277 184.909 200.277 185.415C200.277 185.929 200.16 186.386 199.926 186.786C199.692 187.186 199.367 187.5 198.952 187.726C198.537 187.953 198.065 188.066 197.536 188.066Z" fill="white"/>
<path d="M188.549 186.533C188.798 186.284 189.277 185.804 189.987 185.095C190.704 184.377 191.165 183.909 191.369 183.69C191.641 183.395 191.826 183.15 191.924 182.954C192.03 182.757 192.082 182.535 192.082 182.285C192.082 182.021 191.984 181.798 191.788 181.617C191.592 181.436 191.331 181.345 191.006 181.345C190.689 181.345 190.433 181.436 190.236 181.617C190.04 181.798 189.9 182.025 189.817 182.297L188.481 181.742C188.564 181.447 188.715 181.164 188.934 180.892C189.16 180.613 189.451 180.386 189.806 180.212C190.161 180.039 190.569 179.952 191.029 179.952C191.543 179.952 191.992 180.054 192.377 180.258C192.762 180.454 193.06 180.726 193.272 181.073C193.483 181.413 193.589 181.794 193.589 182.217C193.589 183.056 193.181 183.875 192.366 184.675C192.033 185 191.418 185.612 190.519 186.511L190.553 186.578H193.691V187.881H188.549V186.533Z" fill="white"/>
<path d="M184.249 188.062C183.6 188.062 183.029 187.889 182.539 187.541C182.048 187.186 181.667 186.703 181.395 186.091C181.131 185.472 180.998 184.777 180.998 184.007C180.998 183.237 181.131 182.546 181.395 181.934C181.667 181.315 182.048 180.832 182.539 180.484C183.029 180.129 183.6 179.952 184.249 179.952C184.898 179.952 185.468 180.129 185.959 180.484C186.45 180.832 186.827 181.315 187.092 181.934C187.363 182.546 187.499 183.237 187.499 184.007C187.499 184.777 187.363 185.472 187.092 186.091C186.827 186.703 186.45 187.186 185.959 187.541C185.468 187.889 184.898 188.062 184.249 188.062ZM184.249 186.669C184.611 186.669 184.925 186.556 185.189 186.329C185.461 186.095 185.665 185.778 185.8 185.378C185.944 184.97 186.016 184.513 186.016 184.007C186.016 183.222 185.857 182.584 185.54 182.093C185.223 181.594 184.792 181.345 184.249 181.345C183.713 181.345 183.286 181.594 182.969 182.093C182.652 182.591 182.493 183.229 182.493 184.007C182.493 184.513 182.561 184.97 182.697 185.378C182.841 185.778 183.045 186.095 183.309 186.329C183.581 186.556 183.894 186.669 184.249 186.669Z" fill="white"/>
<path d="M174.726 186.533C174.975 186.284 175.455 185.804 176.164 185.095C176.882 184.377 177.342 183.909 177.546 183.69C177.818 183.395 178.003 183.15 178.101 182.954C178.207 182.757 178.26 182.535 178.26 182.285C178.26 182.021 178.161 181.798 177.965 181.617C177.769 181.436 177.508 181.345 177.184 181.345C176.867 181.345 176.61 181.436 176.414 181.617C176.217 181.798 176.078 182.025 175.994 182.297L174.658 181.742C174.741 181.447 174.892 181.164 175.111 180.892C175.338 180.613 175.628 180.386 175.983 180.212C176.338 180.039 176.746 179.952 177.206 179.952C177.72 179.952 178.169 180.054 178.554 180.258C178.939 180.454 179.237 180.726 179.449 181.073C179.66 181.413 179.766 181.794 179.766 182.217C179.766 183.056 179.358 183.875 178.543 184.675C178.211 185 177.595 185.612 176.697 186.511L176.731 186.578H179.868V187.881H174.726V186.533Z" fill="white"/>
<path d="M182.639 86.8821C186.986 84.3723 192.31 84.2937 196.717 86.6467L197.14 86.8821L197.627 87.1633C202.113 89.7536 204.876 94.5401 204.876 99.72V100.286C204.876 105.305 202.283 109.953 198.042 112.594L197.627 112.844L197.14 113.124C192.793 115.634 187.47 115.713 183.062 113.36L182.639 113.124L182.152 112.844C177.666 110.254 174.903 105.466 174.903 100.286V99.72C174.903 94.7018 177.496 90.0529 181.737 87.4124L182.152 87.1633L182.639 86.8821Z" fill="#FFAE00" stroke="black" stroke-width="3"/>
<path d="M188.961 92.8852C189.269 92.0838 190.351 92.0335 190.756 92.7348L190.827 92.8852L192.052 96.0688C192.332 96.796 192.883 97.384 193.585 97.7114L193.728 97.7729L196.966 99.0834C197.748 99.3995 197.797 100.456 197.113 100.865L196.966 100.938L193.728 102.247C193.006 102.54 192.427 103.1 192.112 103.808L192.052 103.952L190.827 107.136C190.519 107.937 189.438 107.987 189.033 107.287L188.961 107.136L187.737 103.952C187.457 103.224 186.906 102.636 186.203 102.309L186.061 102.247L182.822 100.938C182.04 100.622 181.992 99.5643 182.675 99.1557L182.822 99.0834L186.061 97.7729C186.783 97.4808 187.362 96.9205 187.677 96.2123L187.737 96.0688L188.961 92.8852Z" fill="white" stroke="black" stroke-width="2"/>
</svg>
