<svg width="254" height="269" viewBox="0 0 254 269" fill="none" xmlns="http://www.w3.org/2000/svg">
<rect x="2.5" y="2" width="249" height="239" rx="9" fill="black" stroke="#FF8016" stroke-width="4"/>
<rect x="-2" y="2" width="189" height="48" rx="13" transform="matrix(1 0 0 -1 34.5 269)" fill="black" stroke="#FF8016" stroke-width="4"/>
<path d="M77.2543 237.57L74.6143 239.462L73.6463 238.032L77.9363 234.952H79.1242V250H77.2543V237.57ZM87.2591 250.352C86.2618 250.352 85.3671 250.11 84.5751 249.626C83.7978 249.142 83.1891 248.519 82.7491 247.756C82.3238 246.979 82.1111 246.165 82.1111 245.314C82.1111 244.507 82.2724 243.737 82.5951 243.004C82.9324 242.256 83.4091 241.427 84.0251 240.518L87.9631 234.6L89.4591 235.634L85.6751 240.936L85.7191 240.98C86.2178 240.628 86.8631 240.452 87.6551 240.452C88.4178 240.452 89.1658 240.665 89.8991 241.09C90.6324 241.515 91.2264 242.102 91.6811 242.85C92.1504 243.583 92.3851 244.405 92.3851 245.314C92.3851 246.194 92.1504 247.023 91.6811 247.8C91.2118 248.563 90.5811 249.179 89.7891 249.648C89.0118 250.117 88.1684 250.352 87.2591 250.352ZM87.2591 248.57C87.8458 248.57 88.3884 248.431 88.8871 248.152C89.3858 247.859 89.7818 247.47 90.0751 246.986C90.3684 246.487 90.5151 245.937 90.5151 245.336C90.5151 244.749 90.3684 244.214 90.0751 243.73C89.7818 243.231 89.3858 242.843 88.8871 242.564C88.3884 242.271 87.8458 242.124 87.2591 242.124C86.6724 242.124 86.1224 242.271 85.6091 242.564C85.1104 242.843 84.7144 243.231 84.4211 243.73C84.1278 244.214 83.9811 244.749 83.9811 245.336C83.9811 245.937 84.1278 246.487 84.4211 246.986C84.7144 247.47 85.1104 247.859 85.6091 248.152C86.1224 248.431 86.6724 248.57 87.2591 248.57ZM104.618 250.352C103.621 250.352 102.712 250.095 101.89 249.582C101.084 249.069 100.446 248.365 99.9765 247.47C99.5071 246.561 99.2725 245.534 99.2725 244.39C99.2725 243.261 99.5071 242.241 99.9765 241.332C100.446 240.423 101.084 239.711 101.89 239.198C102.712 238.685 103.621 238.428 104.618 238.428C105.484 238.428 106.254 238.626 106.928 239.022C107.603 239.403 108.116 239.88 108.468 240.452H108.556L108.468 238.89V234.248H110.338V250H108.556V248.35H108.468C108.116 248.907 107.603 249.384 106.928 249.78C106.254 250.161 105.484 250.352 104.618 250.352ZM104.838 248.658C105.498 248.658 106.107 248.482 106.664 248.13C107.236 247.778 107.691 247.279 108.028 246.634C108.38 245.989 108.556 245.241 108.556 244.39C108.556 243.539 108.38 242.791 108.028 242.146C107.691 241.501 107.236 241.002 106.664 240.65C106.107 240.298 105.498 240.122 104.838 240.122C104.193 240.122 103.584 240.298 103.012 240.65C102.44 241.002 101.978 241.508 101.626 242.168C101.289 242.813 101.12 243.554 101.12 244.39C101.12 245.226 101.289 245.974 101.626 246.634C101.978 247.279 102.44 247.778 103.012 248.13C103.584 248.482 104.193 248.658 104.838 248.658ZM117.987 250.352C116.917 250.352 115.956 250.095 115.105 249.582C114.255 249.069 113.587 248.365 113.103 247.47C112.634 246.561 112.399 245.541 112.399 244.412C112.399 243.327 112.619 242.329 113.059 241.42C113.514 240.511 114.152 239.785 114.973 239.242C115.795 238.699 116.748 238.428 117.833 238.428C118.933 238.428 119.887 238.677 120.693 239.176C121.5 239.66 122.116 240.335 122.541 241.2C122.981 242.065 123.201 243.055 123.201 244.17C123.201 244.39 123.179 244.581 123.135 244.742H114.269C114.313 245.593 114.519 246.311 114.885 246.898C115.252 247.485 115.714 247.925 116.271 248.218C116.843 248.511 117.437 248.658 118.053 248.658C119.491 248.658 120.598 247.983 121.375 246.634L122.959 247.404C122.475 248.313 121.815 249.032 120.979 249.56C120.158 250.088 119.161 250.352 117.987 250.352ZM121.221 243.202C121.192 242.733 121.06 242.263 120.825 241.794C120.591 241.325 120.217 240.929 119.703 240.606C119.205 240.283 118.574 240.122 117.811 240.122C116.931 240.122 116.183 240.408 115.567 240.98C114.966 241.537 114.57 242.278 114.379 243.202H121.221ZM130.877 234.248H133.583L138.599 247.162H138.687L143.703 234.248H146.409V250H144.561V239.99L144.649 236.998H144.561L139.413 250H137.873L132.725 236.998H132.637L132.725 239.99V250H130.877V234.248ZM152.824 250.352C152.002 250.352 151.269 250.191 150.624 249.868C149.978 249.545 149.48 249.105 149.128 248.548C148.776 247.976 148.6 247.331 148.6 246.612C148.6 245.424 149.047 244.5 149.942 243.84C150.836 243.165 151.966 242.828 153.33 242.828C154.004 242.828 154.628 242.901 155.2 243.048C155.786 243.195 156.234 243.363 156.542 243.554V242.872C156.542 242.036 156.248 241.369 155.662 240.87C155.075 240.357 154.334 240.1 153.44 240.1C152.809 240.1 152.23 240.239 151.702 240.518C151.174 240.782 150.756 241.156 150.448 241.64L149.04 240.584C149.48 239.909 150.081 239.381 150.844 239C151.621 238.619 152.479 238.428 153.418 238.428C154.943 238.428 156.138 238.831 157.004 239.638C157.884 240.43 158.324 241.515 158.324 242.894V250H156.542V248.394H156.454C156.131 248.937 155.647 249.399 155.002 249.78C154.356 250.161 153.63 250.352 152.824 250.352ZM153 248.702C153.63 248.702 154.217 248.541 154.76 248.218C155.302 247.895 155.735 247.463 156.058 246.92C156.38 246.377 156.542 245.783 156.542 245.138C156.19 244.903 155.757 244.713 155.244 244.566C154.73 244.419 154.188 244.346 153.616 244.346C152.589 244.346 151.812 244.559 151.284 244.984C150.77 245.409 150.514 245.959 150.514 246.634C150.514 247.25 150.748 247.749 151.218 248.13C151.687 248.511 152.281 248.702 153 248.702ZM164.142 249.296L159.5 238.78H161.524L165.044 247.118H165.088L168.476 238.78H170.5L163.57 254.752H161.634L164.142 249.296ZM176.794 250.352C175.694 250.352 174.704 250.088 173.824 249.56C172.944 249.032 172.255 248.313 171.756 247.404C171.272 246.495 171.03 245.49 171.03 244.39C171.03 243.29 171.272 242.285 171.756 241.376C172.255 240.467 172.944 239.748 173.824 239.22C174.704 238.692 175.694 238.428 176.794 238.428C177.894 238.428 178.884 238.692 179.764 239.22C180.644 239.748 181.326 240.467 181.81 241.376C182.309 242.285 182.558 243.29 182.558 244.39C182.558 245.49 182.309 246.495 181.81 247.404C181.326 248.313 180.644 249.032 179.764 249.56C178.884 250.088 177.894 250.352 176.794 250.352ZM176.794 248.658C177.484 248.658 178.122 248.489 178.708 248.152C179.31 247.8 179.786 247.301 180.138 246.656C180.505 246.011 180.688 245.255 180.688 244.39C180.688 243.525 180.505 242.769 180.138 242.124C179.786 241.479 179.31 240.987 178.708 240.65C178.122 240.298 177.484 240.122 176.794 240.122C176.105 240.122 175.46 240.298 174.858 240.65C174.257 240.987 173.773 241.479 173.406 242.124C173.054 242.769 172.878 243.525 172.878 244.39C172.878 245.255 173.054 246.011 173.406 246.656C173.773 247.301 174.257 247.8 174.858 248.152C175.46 248.489 176.105 248.658 176.794 248.658Z" fill="white"/>
<path d="M188.405 67.5643C186.206 67.5643 184.244 67.0772 182.518 66.103C180.792 65.1009 179.442 63.7508 178.468 62.0528C177.521 60.327 177.048 58.3924 177.048 56.249C177.048 54.1335 177.521 52.2128 178.468 50.4869C179.442 48.7611 180.792 47.4111 182.518 46.4368C184.244 45.4347 186.206 44.9337 188.405 44.9337C190.577 44.9337 192.525 45.4347 194.251 46.4368C195.977 47.4111 197.313 48.7611 198.259 50.4869C199.234 52.2128 199.721 54.1335 199.721 56.249C199.721 58.3924 199.234 60.327 198.259 62.0528C197.313 63.7508 195.977 65.1009 194.251 66.103C192.525 67.0772 190.577 67.5643 188.405 67.5643ZM188.405 62.5121C189.463 62.5121 190.437 62.2616 191.328 61.7605C192.219 61.2595 192.929 60.5357 193.458 59.5893C193.987 58.6429 194.251 57.5295 194.251 56.249C194.251 54.9964 193.987 53.8969 193.458 52.9504C192.929 52.004 192.219 51.2803 191.328 50.7792C190.437 50.2782 189.463 50.0276 188.405 50.0276C187.348 50.0276 186.373 50.2782 185.483 50.7792C184.592 51.2803 183.868 52.004 183.311 52.9504C182.782 53.8969 182.518 54.9964 182.518 56.249C182.518 57.5016 182.782 58.6151 183.311 59.5893C183.868 60.5357 184.592 61.2595 185.483 61.7605C186.373 62.2616 187.348 62.5121 188.405 62.5121Z" fill="#FF8016"/>
<path d="M170.77 67.2295C169.712 67.2295 168.738 67.0764 167.847 66.7702C166.956 66.4362 166.232 65.9908 165.676 65.4341C164.367 64.1814 163.713 62.3999 163.713 60.0895V50.2773H159.997V45.6009H163.713V39.5883H169.183V45.6009H174.402V50.2773H169.183V59.0875C169.183 60.1731 169.42 60.9525 169.893 61.4257C170.283 61.8711 170.951 62.0937 171.897 62.0937C172.426 62.0937 172.857 62.0241 173.191 61.885C173.553 61.7458 174.013 61.5092 174.569 61.1752V66.5197C173.372 66.9929 172.106 67.2295 170.77 67.2295Z" fill="#FF8016"/>
<path d="M134.516 67.564C132.595 67.564 130.842 67.0907 129.255 66.1443C127.696 65.1701 126.457 63.8339 125.539 62.1359C124.648 60.4101 124.203 58.4477 124.203 56.2486C124.203 54.0774 124.648 52.1289 125.539 50.403C126.457 48.6772 127.696 47.3411 129.255 46.3947C130.842 45.4204 132.595 44.9333 134.516 44.9333C135.964 44.9333 137.244 45.2534 138.357 45.8936C139.471 46.506 140.32 47.2715 140.905 48.1901H141.239L140.905 45.1838V37H146.333V66.8959H141.239V64.3489H140.905C140.348 65.2675 139.499 66.033 138.357 66.6454C137.244 67.2578 135.964 67.564 134.516 67.564ZM135.435 62.5117C136.465 62.5117 137.425 62.2473 138.316 61.7184C139.207 61.1895 139.916 60.4518 140.445 59.5054C140.974 58.559 141.239 57.4734 141.239 56.2486C141.239 55.0238 140.974 53.9382 140.445 52.9918C139.916 52.0454 139.207 51.3216 138.316 50.8206C137.425 50.2917 136.465 50.0273 135.435 50.0273C134.433 50.0273 133.486 50.2917 132.595 50.8206C131.705 51.3216 130.995 52.0454 130.466 52.9918C129.937 53.9382 129.673 55.0238 129.673 56.2486C129.673 57.4734 129.937 58.559 130.466 59.5054C130.995 60.4518 131.705 61.1895 132.595 61.7184C133.486 62.2473 134.433 62.5117 135.435 62.5117Z" fill="#FF8016"/>
<path d="M108.685 67.5643C106.43 67.5643 104.579 66.9102 103.131 65.6019C101.684 64.2658 100.96 62.526 100.96 60.3826C100.96 58.963 101.336 57.7104 102.087 56.6248C102.839 55.5392 103.869 54.7041 105.177 54.1195C106.486 53.535 107.933 53.2427 109.52 53.2427C111.719 53.2427 113.598 53.5628 115.157 54.2031V53.2845C115.157 52.1153 114.711 51.1689 113.82 50.4452C112.958 49.7215 111.788 49.3596 110.313 49.3596C109.311 49.3596 108.337 49.5962 107.39 50.0694C106.472 50.5148 105.706 51.1133 105.094 51.8648L101.586 49.1091C102.616 47.7729 103.911 46.743 105.47 46.0193C107.028 45.2955 108.726 44.9337 110.564 44.9337C113.821 44.9337 116.298 45.6852 117.996 47.1884C119.694 48.6915 120.543 50.8906 120.543 53.7855V66.8963H115.157V64.7251H114.823C114.182 65.5601 113.333 66.2421 112.276 66.771C111.246 67.2999 110.049 67.5643 108.685 67.5643ZM109.979 63.3054C111.566 63.3054 112.818 62.8044 113.737 61.8023C114.683 60.7724 115.157 59.5754 115.157 58.2114C113.737 57.5434 112.248 57.2093 110.689 57.2093C107.85 57.2093 106.43 58.2671 106.43 60.3826C106.43 61.2456 106.736 61.9554 107.349 62.5121C107.961 63.041 108.838 63.3054 109.979 63.3054Z" fill="#FF8016"/>
<path d="M86.6688 67.5643C84.4697 67.5643 82.5072 67.0772 80.7814 66.103C79.0555 65.1009 77.7054 63.7508 76.7312 62.0528C75.7847 60.327 75.3115 58.3924 75.3115 56.249C75.3115 54.1335 75.7847 52.2128 76.7312 50.4869C77.7054 48.7611 79.0555 47.4111 80.7814 46.4368C82.5072 45.4347 84.4697 44.9337 86.6688 44.9337C88.84 44.9337 90.7886 45.4347 92.5144 46.4368C94.2403 47.4111 95.5764 48.7611 96.5229 50.4869C97.4972 52.2128 97.9843 54.1335 97.9843 56.249C97.9843 58.3924 97.4972 60.327 96.5229 62.0528C95.5764 63.7508 94.2403 65.1009 92.5144 66.103C90.7886 67.0772 88.84 67.5643 86.6688 67.5643ZM86.6688 62.5121C87.7266 62.5121 88.7008 62.2616 89.5916 61.7605C90.4824 61.2595 91.1922 60.5357 91.7211 59.5893C92.25 58.6429 92.5144 57.5295 92.5144 56.249C92.5144 54.9964 92.25 53.8969 91.7211 52.9504C91.1922 52.004 90.4824 51.2803 89.5916 50.7792C88.7008 50.2782 87.7266 50.0276 86.6688 50.0276C85.611 50.0276 84.6367 50.2782 83.7459 50.7792C82.8552 51.2803 82.1314 52.004 81.5747 52.9504C81.0458 53.8969 80.7814 54.9964 80.7814 56.249C80.7814 57.5016 81.0458 58.6151 81.5747 59.5893C82.1314 60.5357 82.8552 61.2595 83.7459 61.7605C84.6367 62.2616 85.611 62.5121 86.6688 62.5121Z" fill="#FF8016"/>
<path d="M51.1775 37H62.0755C64.0241 37 65.7499 37.4036 67.2531 38.2109C68.7841 39.0181 69.9671 40.1455 70.8022 41.5929C71.6373 43.0126 72.0549 44.6271 72.0549 46.4364C72.0549 48.3571 71.4425 50.069 70.2177 51.5722C69.0207 53.0475 67.5036 54.1192 65.6664 54.7872L65.6247 55.0795L73.6416 66.5619V66.8959H67.1696L59.445 55.6641H56.8144V66.8959H51.1775V37ZM62.0338 50.4866C63.3142 50.4866 64.3581 50.0968 65.1654 49.3174C65.9726 48.538 66.3762 47.5499 66.3762 46.3529C66.3762 45.2116 65.9865 44.2374 65.2071 43.4301C64.4555 42.6229 63.4256 42.2193 62.1173 42.2193H56.8144V50.4866H62.0338Z" fill="#FF8016"/>
<path d="M192.392 123.305H198.998V158.342H192.392V123.305Z" fill="white"/>
<path d="M168.872 123.305H176.456L189.618 158.342H182.327L179.392 149.975H165.985L163.049 158.342H155.759L168.872 123.305ZM177.239 143.907L174.156 135.098L172.884 130.89H172.493L171.22 135.098L168.089 143.907H177.239Z" fill="white"/>
<path d="M122.65 123.305H129.059V132.162L128.668 136.517H129.059C129.777 135.343 130.821 134.397 132.191 133.679C133.561 132.962 135.045 132.603 136.644 132.603C139.677 132.603 141.993 133.516 143.592 135.343C145.223 137.137 146.038 139.633 146.038 142.83V158.342H139.628V143.613C139.628 142.014 139.188 140.775 138.307 139.894C137.459 139.013 136.317 138.573 134.882 138.573C133.186 138.573 131.783 139.258 130.674 140.628C129.598 141.998 129.059 143.678 129.059 145.668V158.342H122.65V123.305Z" fill="white"/>
<path d="M114.78 158.734C113.541 158.734 112.399 158.555 111.355 158.196C110.311 157.805 109.463 157.283 108.811 156.63C107.278 155.162 106.511 153.074 106.511 150.367V138.867H102.156V133.386H106.511V126.34H112.921V133.386H119.037V138.867H112.921V149.192C112.921 150.464 113.198 151.378 113.753 151.932C114.209 152.454 114.992 152.715 116.101 152.715C116.721 152.715 117.227 152.634 117.618 152.471C118.042 152.308 118.581 152.03 119.233 151.639V157.903C117.83 158.457 116.346 158.734 114.78 158.734Z" fill="white"/>
<path d="M96.2115 130.646C95.0698 130.646 94.0912 130.238 93.2757 129.422C92.4602 128.607 92.0524 127.628 92.0524 126.486C92.0524 125.344 92.4602 124.382 93.2757 123.599C94.0912 122.784 95.0698 122.376 96.2115 122.376C97.3532 122.376 98.3154 122.784 99.0983 123.599C99.9138 124.382 100.322 125.344 100.322 126.486C100.322 127.628 99.9138 128.607 99.0983 129.422C98.3154 130.238 97.3532 130.646 96.2115 130.646ZM92.9821 133.386H99.3919V158.343H92.9821V133.386Z" fill="white"/>
<path d="M51 133.385H58.1927L62.4985 149.582H62.841L67.8318 133.385H74.3884L79.3792 149.582H79.7218L84.0276 133.385H91.1224L83.1468 158.341H76.2477L71.1591 142.193H70.8165L65.7768 158.341H58.9266L51 133.385Z" fill="white"/>
<path d="M141.322 113.413C139.071 113.413 137.016 112.858 135.156 111.749C133.33 110.607 131.878 109.042 130.802 107.052C129.758 105.029 129.236 102.729 129.236 100.152C129.236 97.6071 129.758 95.3235 130.802 93.3009C131.878 91.2782 133.33 89.7123 135.156 88.6031C137.016 87.4613 139.071 86.8904 141.322 86.8904C143.018 86.8904 144.518 87.2656 145.823 88.0159C147.128 88.7336 148.123 89.6308 148.808 90.7073H149.199L148.808 87.184V77.5928H155.169V112.63H149.199V109.645H148.808C148.155 110.722 147.161 111.619 145.823 112.336C144.518 113.054 143.018 113.413 141.322 113.413ZM142.398 107.492C143.605 107.492 144.73 107.182 145.774 106.562C146.818 105.942 147.65 105.078 148.27 103.969C148.889 102.859 149.199 101.587 149.199 100.152C149.199 98.7163 148.889 97.444 148.27 96.3348C147.65 95.2256 146.818 94.3774 145.774 93.7902C144.73 93.1704 143.605 92.8605 142.398 92.8605C141.224 92.8605 140.115 93.1704 139.071 93.7902C138.027 94.3774 137.195 95.2256 136.575 96.3348C135.956 97.444 135.646 98.7163 135.646 100.152C135.646 101.587 135.956 102.859 136.575 103.969C137.195 105.078 138.027 105.942 139.071 106.562C140.115 107.182 141.224 107.492 142.398 107.492Z" fill="white"/>
<path d="M120.091 77.5928H126.501V112.63H120.091V77.5928Z" fill="white"/>
<path d="M112.147 84.9334C111.005 84.9334 110.027 84.5256 109.211 83.71C108.396 82.8945 107.988 81.9158 107.988 80.774C107.988 79.6322 108.396 78.6698 109.211 77.8868C110.027 77.0712 111.005 76.6635 112.147 76.6635C113.289 76.6635 114.251 77.0712 115.034 77.8868C115.849 78.6698 116.257 79.6322 116.257 80.774C116.257 81.9158 115.849 82.8945 115.034 83.71C114.251 84.5256 113.289 84.9334 112.147 84.9334ZM108.918 87.6738H115.327V112.63H108.918V87.6738Z" fill="white"/>
<path d="M90.1955 113.412C87.1945 113.412 84.9111 112.482 83.3453 110.623C81.7796 108.763 80.9967 106.17 80.9967 102.842V87.6724H87.4065V102.059C87.4065 103.756 87.8143 105.093 88.6298 106.072C89.4453 107.018 90.5217 107.491 91.8591 107.491C93.6858 107.491 95.1374 106.822 96.2139 105.485C97.2903 104.147 97.8286 102.451 97.8286 100.395V87.6724H104.238V112.629H98.22V109.497H97.8286C97.0783 110.704 96.0182 111.667 94.6481 112.384C93.3107 113.07 91.8265 113.412 90.1955 113.412Z" fill="white"/>
<path d="M52.3495 77.5928H66.0498C68.007 77.5928 69.8011 78.0006 71.4321 78.8162C73.0957 79.6318 74.4005 80.741 75.3464 82.1438C76.2924 83.5466 76.7654 85.0798 76.7654 86.7436C76.7654 88.5053 76.325 90.0386 75.4443 91.3435C74.5962 92.6158 73.4708 93.5945 72.0681 94.2796V94.671C73.8949 95.3235 75.3464 96.3674 76.4229 97.8029C77.4993 99.2057 78.0376 100.902 78.0376 102.892C78.0376 104.817 77.5157 106.53 76.4718 108.03C75.4606 109.498 74.0743 110.64 72.3128 111.456C70.5839 112.239 68.6594 112.63 66.5391 112.63H52.3495V77.5928ZM65.5605 91.8818C66.9958 91.8818 68.1375 91.4903 68.9856 90.7073C69.8663 89.8917 70.3067 88.8804 70.3067 87.6734C70.3067 86.4989 69.8826 85.5203 69.0345 84.7373C68.219 83.9217 67.1262 83.5139 65.7562 83.5139H58.955V91.8818H65.5605ZM66.2944 106.611C67.8928 106.611 69.1324 106.203 70.0131 105.388C70.9265 104.54 71.3831 103.447 71.3831 102.109C71.3831 100.772 70.9265 99.6787 70.0131 98.8305C69.0997 97.9823 67.7949 97.5582 66.0987 97.5582H58.955V106.611H66.2944Z" fill="white"/>
<path fill-rule="evenodd" clip-rule="evenodd" d="M151.864 169.836H61.3059C56.9964 169.836 53.4943 173.349 53.4943 177.693C53.4943 182.037 56.9964 185.55 61.3059 185.55H151.864C156.174 185.55 159.676 182.037 159.676 177.693C159.676 173.349 156.174 169.836 151.864 169.836ZM61.3059 168.878C56.4624 168.878 52.536 172.825 52.536 177.693C52.536 182.561 56.4624 186.508 61.3059 186.508H151.864C156.708 186.508 160.634 182.561 160.634 177.693C160.634 172.825 156.708 168.878 151.864 168.878H61.3059Z" fill="white"/>
<path d="M70.0565 170.966L62.9415 175.072C61.4507 175.932 61.1106 177.6 62.1818 178.797L62.1857 178.802C63.257 179.999 65.3339 180.272 66.8248 179.412L73.9398 175.306C75.4306 174.446 75.7707 172.778 74.6995 171.581L74.6956 171.576C73.6243 170.379 71.5473 170.106 70.0565 170.966Z" fill="#EA4335" stroke="#1E1E1E" stroke-width="2" stroke-miterlimit="10"/>
<path d="M62.1857 175.637L62.1818 175.642C61.1106 176.839 61.4507 178.507 62.9415 179.367L70.0565 183.473C71.5473 184.333 73.6243 184.06 74.6956 182.863L74.6995 182.858C75.7707 181.661 75.4306 179.993 73.9398 179.133L66.8248 175.027C65.3339 174.167 63.257 174.44 62.1857 175.637Z" fill="#4285F4" stroke="#1E1E1E" stroke-width="2" stroke-miterlimit="10"/>
<path d="M87.227 175.023L80.112 179.129C78.6212 179.989 78.2811 181.657 79.3523 182.855L79.3562 182.859C80.4275 184.056 82.5044 184.329 83.9953 183.469L91.1103 179.363C92.6011 178.503 92.9412 176.835 91.87 175.638L91.8661 175.634C90.7948 174.436 88.7178 174.163 87.227 175.023Z" fill="#F9AB00" stroke="#1E1E1E" stroke-width="2" stroke-miterlimit="10"/>
<path d="M79.3562 171.578L79.3523 171.583C78.2811 172.78 78.6212 174.448 80.112 175.308L87.227 179.414C88.7178 180.274 90.7948 180.001 91.8661 178.804L91.87 178.799C92.9412 177.602 92.6011 175.934 91.1103 175.074L83.9953 170.968C82.5044 170.108 80.4275 170.381 79.3562 171.578Z" fill="#34A853" stroke="#1E1E1E" stroke-width="2" stroke-miterlimit="10"/>
<path d="M135.855 180.37L140.319 174.812H136.052V173.238H142.25V174.91L137.835 180.468H142.299V182.042H135.855V180.37Z" fill="white"/>
<path d="M129.982 173.238H131.888L135.196 182.042H133.364L132.626 179.94H129.257L128.519 182.042H126.687L129.982 173.238ZM132.085 178.415L131.31 176.202L130.99 175.144H130.892L130.572 176.202L129.785 178.415H132.085Z" fill="white"/>
<path d="M120.87 173.238H123.968C124.526 173.238 125.034 173.357 125.493 173.595C125.952 173.824 126.313 174.152 126.575 174.579C126.838 174.997 126.969 175.476 126.969 176.017C126.969 176.558 126.838 177.042 126.575 177.468C126.313 177.894 125.952 178.226 125.493 178.464C125.034 178.694 124.526 178.808 123.968 178.808H122.53V182.042H120.87V173.238ZM124.018 177.234C124.427 177.234 124.747 177.116 124.977 176.878C125.214 176.64 125.333 176.353 125.333 176.017C125.333 175.681 125.214 175.398 124.977 175.169C124.747 174.931 124.427 174.812 124.018 174.812H122.53V177.234H124.018Z" fill="white"/>
<path d="M111.585 173.238H113.491L116.799 182.042H114.967L114.229 179.94H110.86L110.122 182.042H108.29L111.585 173.238ZM113.688 178.415L112.913 176.202L112.594 175.144H112.495L112.176 176.202L111.389 178.415H113.688Z" fill="white"/>
<path d="M102.341 173.238H104.001V180.468H107.727V182.042H102.341V173.238Z" fill="white"/>
<path fill-rule="evenodd" clip-rule="evenodd" d="M189.56 169.836H171.108C166.889 169.836 163.433 173.333 163.433 177.693C163.433 182.053 166.889 185.55 171.108 185.55H189.56C193.778 185.55 197.235 182.053 197.235 177.693C197.235 173.333 193.778 169.836 189.56 169.836ZM171.108 168.878C166.339 168.878 162.472 172.825 162.472 177.693C162.472 182.561 166.339 186.508 171.108 186.508H189.56C194.329 186.508 198.196 182.561 198.196 177.693C198.196 172.825 194.329 168.878 189.56 168.878H171.108Z" fill="white"/>
<path d="M190.41 181.848C190.009 181.848 189.622 181.774 189.25 181.625C188.878 181.469 188.551 181.239 188.268 180.934C187.993 180.621 187.803 180.238 187.699 179.785L189.016 179.271C189.105 179.651 189.269 179.952 189.507 180.175C189.745 180.391 190.042 180.499 190.399 180.499C190.756 180.499 191.054 180.38 191.292 180.142C191.529 179.904 191.648 179.602 191.648 179.238C191.648 178.881 191.529 178.583 191.292 178.345C191.061 178.1 190.763 177.977 190.399 177.977C190.176 177.977 189.971 178.026 189.785 178.122C189.607 178.212 189.455 178.334 189.328 178.49L187.911 177.855L188.346 174.039H192.653V175.322H189.562L189.283 177.107L189.373 177.129C189.745 176.825 190.187 176.672 190.7 176.672C191.124 176.672 191.518 176.78 191.883 176.996C192.255 177.211 192.552 177.516 192.775 177.91C192.998 178.297 193.11 178.74 193.11 179.238C193.11 179.744 192.995 180.194 192.764 180.588C192.534 180.982 192.214 181.291 191.805 181.514C191.396 181.737 190.931 181.848 190.41 181.848Z" fill="white"/>
<path d="M181.567 180.342C181.813 180.097 182.285 179.625 182.984 178.926C183.69 178.219 184.144 177.758 184.345 177.542C184.613 177.252 184.795 177.01 184.892 176.817C184.996 176.624 185.048 176.404 185.048 176.159C185.048 175.899 184.951 175.679 184.758 175.501C184.564 175.322 184.308 175.233 183.988 175.233C183.676 175.233 183.423 175.322 183.229 175.501C183.036 175.679 182.898 175.902 182.817 176.17L181.5 175.623C181.582 175.333 181.731 175.054 181.946 174.787C182.169 174.512 182.456 174.288 182.805 174.117C183.155 173.946 183.557 173.861 184.01 173.861C184.516 173.861 184.958 173.961 185.338 174.162C185.717 174.355 186.011 174.623 186.219 174.965C186.427 175.3 186.531 175.675 186.531 176.092C186.531 176.918 186.13 177.724 185.327 178.513C184.999 178.833 184.393 179.435 183.508 180.32L183.542 180.387H186.632V181.67H181.567V180.342Z" fill="white"/>
<path d="M177.328 181.848C176.688 181.848 176.127 181.677 175.643 181.335C175.16 180.986 174.784 180.51 174.517 179.907C174.256 179.297 174.126 178.613 174.126 177.855C174.126 177.096 174.256 176.415 174.517 175.813C174.784 175.203 175.16 174.727 175.643 174.385C176.127 174.036 176.688 173.861 177.328 173.861C177.967 173.861 178.529 174.036 179.012 174.385C179.496 174.727 179.868 175.203 180.128 175.813C180.396 176.415 180.53 177.096 180.53 177.855C180.53 178.613 180.396 179.297 180.128 179.907C179.868 180.51 179.496 180.986 179.012 181.335C178.529 181.677 177.967 181.848 177.328 181.848ZM177.328 180.476C177.685 180.476 177.993 180.365 178.254 180.142C178.522 179.911 178.722 179.599 178.856 179.204C178.997 178.803 179.068 178.353 179.068 177.855C179.068 177.081 178.912 176.453 178.6 175.969C178.287 175.478 177.863 175.233 177.328 175.233C176.8 175.233 176.38 175.478 176.067 175.969C175.755 176.46 175.599 177.089 175.599 177.855C175.599 178.353 175.666 178.803 175.799 179.204C175.941 179.599 176.142 179.911 176.402 180.142C176.67 180.365 176.978 180.476 177.328 180.476Z" fill="white"/>
<path d="M167.95 180.342C168.196 180.097 168.668 179.625 169.367 178.926C170.074 178.219 170.527 177.758 170.728 177.542C170.996 177.252 171.178 177.01 171.275 176.817C171.379 176.624 171.431 176.404 171.431 176.159C171.431 175.899 171.334 175.679 171.141 175.501C170.947 175.322 170.691 175.233 170.371 175.233C170.059 175.233 169.806 175.322 169.612 175.501C169.419 175.679 169.281 175.902 169.2 176.17L167.883 175.623C167.965 175.333 168.114 175.054 168.33 174.787C168.553 174.512 168.839 174.288 169.188 174.117C169.538 173.946 169.94 173.861 170.393 173.861C170.899 173.861 171.342 173.961 171.721 174.162C172.1 174.355 172.394 174.623 172.602 174.965C172.81 175.3 172.915 175.675 172.915 176.092C172.915 176.918 172.513 177.724 171.71 178.513C171.382 178.833 170.776 179.435 169.891 180.32L169.925 180.387H173.015V181.67H167.95V180.342Z" fill="white"/>
<path d="M174.237 81.0948C178.583 78.5857 183.906 78.507 188.313 80.8595L188.737 81.0948L190.502 82.1134C194.988 84.7036 197.752 89.4906 197.752 94.671V96.7091C197.752 101.728 195.158 106.376 190.917 109.017L190.502 109.266L188.737 110.285C184.391 112.794 179.067 112.873 174.66 110.521L174.237 110.285L172.472 109.266C167.986 106.676 165.222 101.889 165.222 96.7091V94.671C165.222 89.6524 167.815 85.0029 172.057 82.3624L172.472 82.1134L174.237 81.0948Z" fill="#FF8016" stroke="black" stroke-width="3"/>
<path d="M180.164 88.0665C180.711 87.0408 182.153 87.009 182.756 87.9708L182.811 88.0665L184.335 90.9219C184.689 91.5861 185.203 92.1493 185.829 92.5616L186.103 92.7296L189.051 94.3829C190.01 94.9201 190.07 96.2462 189.231 96.8819L189.051 96.9991L186.103 98.6524C185.447 99.0207 184.895 99.5473 184.496 100.182L184.335 100.46L182.811 103.315C182.264 104.341 180.822 104.373 180.219 103.411L180.164 103.315L178.641 100.46C178.287 99.7957 177.772 99.2317 177.146 98.8194L176.872 98.6524L173.924 96.9991C172.966 96.4619 172.905 95.1358 173.744 94.5001L173.924 94.3829L176.872 92.7296C177.528 92.3613 178.08 91.8346 178.479 91.2003L178.641 90.9219L180.164 88.0665Z" fill="white" stroke="black" stroke-width="3"/>
</svg>
