<svg width="254" height="269" viewBox="0 0 254 269" fill="none" xmlns="http://www.w3.org/2000/svg">
<rect x="2.5" y="2" width="249" height="239" rx="9" fill="black" stroke="#34A853" stroke-width="4"/>
<rect x="-2" y="2" width="189" height="48" rx="13" transform="matrix(1 0 0 -1 34.5 269)" fill="black" stroke="#34A853" stroke-width="4"/>
<path d="M78.0215 250.352C76.8335 250.352 75.7775 250.007 74.8535 249.318C73.9442 248.614 73.2402 247.668 72.7415 246.48C72.2575 245.277 72.0155 243.943 72.0155 242.476C72.0155 241.009 72.2575 239.682 72.7415 238.494C73.2402 237.291 73.9442 236.345 74.8535 235.656C75.7628 234.952 76.8188 234.6 78.0215 234.6C79.2242 234.6 80.2802 234.952 81.1895 235.656C82.0988 236.345 82.7955 237.291 83.2795 238.494C83.7782 239.682 84.0275 241.009 84.0275 242.476C84.0275 243.943 83.7782 245.277 83.2795 246.48C82.7955 247.668 82.0915 248.614 81.1675 249.318C80.2582 250.007 79.2095 250.352 78.0215 250.352ZM78.0215 248.57C78.8575 248.57 79.5835 248.306 80.1995 247.778C80.8155 247.235 81.2922 246.502 81.6295 245.578C81.9668 244.654 82.1355 243.62 82.1355 242.476C82.1355 241.332 81.9668 240.298 81.6295 239.374C81.2922 238.45 80.8155 237.724 80.1995 237.196C79.5835 236.653 78.8575 236.382 78.0215 236.382C77.1855 236.382 76.4595 236.653 75.8435 237.196C75.2275 237.724 74.7508 238.45 74.4135 239.374C74.0762 240.298 73.9075 241.332 73.9075 242.476C73.9075 243.62 74.0762 244.654 74.4135 245.578C74.7508 246.502 75.2275 247.235 75.8435 247.778C76.4595 248.306 77.1855 248.57 78.0215 248.57ZM86.5963 249.494L93.6143 236.734H85.8923V234.952H95.5503V236.866L88.2463 250.352L86.5963 249.494ZM107.798 250.352C106.801 250.352 105.891 250.095 105.07 249.582C104.263 249.069 103.625 248.365 103.156 247.47C102.687 246.561 102.452 245.534 102.452 244.39C102.452 243.261 102.687 242.241 103.156 241.332C103.625 240.423 104.263 239.711 105.07 239.198C105.891 238.685 106.801 238.428 107.798 238.428C108.663 238.428 109.433 238.626 110.108 239.022C110.783 239.403 111.296 239.88 111.648 240.452H111.736L111.648 238.89V234.248H113.518V250H111.736V248.35H111.648C111.296 248.907 110.783 249.384 110.108 249.78C109.433 250.161 108.663 250.352 107.798 250.352ZM108.018 248.658C108.678 248.658 109.287 248.482 109.844 248.13C110.416 247.778 110.871 247.279 111.208 246.634C111.56 245.989 111.736 245.241 111.736 244.39C111.736 243.539 111.56 242.791 111.208 242.146C110.871 241.501 110.416 241.002 109.844 240.65C109.287 240.298 108.678 240.122 108.018 240.122C107.373 240.122 106.764 240.298 106.192 240.65C105.62 241.002 105.158 241.508 104.806 242.168C104.469 242.813 104.3 243.554 104.3 244.39C104.3 245.226 104.469 245.974 104.806 246.634C105.158 247.279 105.62 247.778 106.192 248.13C106.764 248.482 107.373 248.658 108.018 248.658ZM121.167 250.352C120.096 250.352 119.136 250.095 118.285 249.582C117.434 249.069 116.767 248.365 116.283 247.47C115.814 246.561 115.579 245.541 115.579 244.412C115.579 243.327 115.799 242.329 116.239 241.42C116.694 240.511 117.332 239.785 118.153 239.242C118.974 238.699 119.928 238.428 121.013 238.428C122.113 238.428 123.066 238.677 123.873 239.176C124.68 239.66 125.296 240.335 125.721 241.2C126.161 242.065 126.381 243.055 126.381 244.17C126.381 244.39 126.359 244.581 126.315 244.742H117.449C117.493 245.593 117.698 246.311 118.065 246.898C118.432 247.485 118.894 247.925 119.451 248.218C120.023 248.511 120.617 248.658 121.233 248.658C122.67 248.658 123.778 247.983 124.555 246.634L126.139 247.404C125.655 248.313 124.995 249.032 124.159 249.56C123.338 250.088 122.34 250.352 121.167 250.352ZM124.401 243.202C124.372 242.733 124.24 242.263 124.005 241.794C123.77 241.325 123.396 240.929 122.883 240.606C122.384 240.283 121.754 240.122 120.991 240.122C120.111 240.122 119.363 240.408 118.747 240.98C118.146 241.537 117.75 242.278 117.559 243.202H124.401ZM136.42 250.352C135.262 250.352 134.25 250.037 133.384 249.406C132.519 248.761 131.91 247.859 131.558 246.7L133.318 245.974C133.846 247.705 134.88 248.57 136.42 248.57C137.286 248.57 137.975 248.269 138.488 247.668C139.016 247.067 139.28 246.275 139.28 245.292V234.248H141.15V245.138C141.15 246.238 140.945 247.184 140.534 247.976C140.138 248.753 139.581 249.347 138.862 249.758C138.158 250.154 137.344 250.352 136.42 250.352ZM147.894 250.352C146.544 250.352 145.51 249.956 144.792 249.164C144.088 248.372 143.736 247.265 143.736 245.842V238.78H145.606V245.556C145.606 246.627 145.848 247.411 146.332 247.91C146.816 248.409 147.468 248.658 148.29 248.658C148.92 248.658 149.478 248.489 149.962 248.152C150.46 247.815 150.842 247.375 151.106 246.832C151.384 246.289 151.524 245.717 151.524 245.116V238.78H153.394V250H151.612V248.372H151.524C151.216 248.929 150.724 249.399 150.05 249.78C149.375 250.161 148.656 250.352 147.894 250.352ZM156.156 238.78H157.938V240.43H158.026C158.334 239.873 158.825 239.403 159.5 239.022C160.174 238.626 160.893 238.428 161.656 238.428C163.005 238.428 164.032 238.824 164.736 239.616C165.454 240.393 165.814 241.457 165.814 242.806V250H163.944V243.092C163.944 242.051 163.694 241.295 163.196 240.826C162.697 240.357 162.015 240.122 161.15 240.122C160.548 240.122 160.006 240.291 159.522 240.628C159.052 240.965 158.686 241.413 158.422 241.97C158.158 242.513 158.026 243.085 158.026 243.686V250H156.156V238.78ZM169.588 236.712C169.221 236.712 168.906 236.58 168.642 236.316C168.378 236.052 168.246 235.737 168.246 235.37C168.246 235.003 168.378 234.695 168.642 234.446C168.906 234.182 169.221 234.05 169.588 234.05C169.954 234.05 170.27 234.182 170.534 234.446C170.798 234.695 170.93 235.003 170.93 235.37C170.93 235.737 170.798 236.052 170.534 236.316C170.284 236.58 169.969 236.712 169.588 236.712ZM168.664 238.78H170.512V250H168.664V238.78ZM178.513 250.352C177.413 250.352 176.423 250.088 175.543 249.56C174.663 249.032 173.974 248.313 173.475 247.404C172.991 246.495 172.749 245.49 172.749 244.39C172.749 243.29 172.991 242.285 173.475 241.376C173.974 240.467 174.663 239.748 175.543 239.22C176.423 238.692 177.413 238.428 178.513 238.428C179.613 238.428 180.603 238.692 181.483 239.22C182.363 239.748 183.045 240.467 183.529 241.376C184.028 242.285 184.277 243.29 184.277 244.39C184.277 245.49 184.028 246.495 183.529 247.404C183.045 248.313 182.363 249.032 181.483 249.56C180.603 250.088 179.613 250.352 178.513 250.352ZM178.513 248.658C179.202 248.658 179.84 248.489 180.427 248.152C181.028 247.8 181.505 247.301 181.857 246.656C182.224 246.011 182.407 245.255 182.407 244.39C182.407 243.525 182.224 242.769 181.857 242.124C181.505 241.479 181.028 240.987 180.427 240.65C179.84 240.298 179.202 240.122 178.513 240.122C177.824 240.122 177.178 240.298 176.577 240.65C175.976 240.987 175.492 241.479 175.125 242.124C174.773 242.769 174.597 243.525 174.597 244.39C174.597 245.255 174.773 246.011 175.125 246.656C175.492 247.301 175.976 247.8 176.577 248.152C177.178 248.489 177.824 248.658 178.513 248.658Z" fill="white"/>
<path d="M188.377 67.3348C186.194 67.3348 184.246 66.8513 182.533 65.8843C180.82 64.8897 179.48 63.5497 178.513 61.8644C177.574 60.1515 177.104 58.2313 177.104 56.104C177.104 54.0043 177.574 52.0979 178.513 50.385C179.48 48.6721 180.82 47.3321 182.533 46.3651C184.246 45.3705 186.194 44.8732 188.377 44.8732C190.531 44.8732 192.465 45.3705 194.178 46.3651C195.891 47.3321 197.217 48.6721 198.157 50.385C199.124 52.0979 199.607 54.0043 199.607 56.104C199.607 58.2313 199.124 60.1515 198.157 61.8644C197.217 63.5497 195.891 64.8897 194.178 65.8843C192.465 66.8513 190.531 67.3348 188.377 67.3348ZM188.377 62.3203C189.426 62.3203 190.393 62.0716 191.277 61.5743C192.162 61.077 192.866 60.3587 193.391 59.4194C193.916 58.48 194.178 57.3749 194.178 56.104C194.178 54.8607 193.916 53.7694 193.391 52.8301C192.866 51.8907 192.162 51.1724 191.277 50.6751C190.393 50.1778 189.426 49.9291 188.377 49.9291C187.327 49.9291 186.36 50.1778 185.476 50.6751C184.592 51.1724 183.873 51.8907 183.321 52.8301C182.796 53.7694 182.533 54.8607 182.533 56.104C182.533 57.3472 182.796 58.4524 183.321 59.4194C183.873 60.3587 184.592 61.077 185.476 61.5743C186.36 62.0716 187.327 62.3203 188.377 62.3203Z" fill="#34A853"/>
<path d="M170.872 67.003C169.823 67.003 168.856 66.8511 167.972 66.5472C167.087 66.2156 166.369 65.7736 165.817 65.221C164.518 63.9778 163.869 62.2096 163.869 59.9165V50.1776H160.181V45.5361H163.869V39.5684H169.298V45.5361H174.478V50.1776H169.298V58.9218C169.298 59.9993 169.533 60.7729 170.002 61.2426C170.389 61.6846 171.052 61.9057 171.991 61.9057C172.516 61.9057 172.945 61.8366 173.276 61.6985C173.635 61.5603 174.091 61.3255 174.644 60.9939V66.2985C173.456 66.7682 172.199 67.003 170.872 67.003Z" fill="#34A853"/>
<path d="M134.89 67.3356C132.984 67.3356 131.243 66.8659 129.669 65.9265C128.121 64.9595 126.892 63.6334 125.98 61.9481C125.096 60.2352 124.654 58.2874 124.654 56.1048C124.654 53.9498 125.096 52.0158 125.98 50.3029C126.892 48.59 128.121 47.2638 129.669 46.3245C131.243 45.3575 132.984 44.874 134.89 44.874C136.327 44.874 137.598 45.1917 138.703 45.8272C139.808 46.435 140.651 47.1947 141.231 48.1065H141.562L141.231 45.1226V37H146.618V66.6725H141.562V64.1445H141.231C140.678 65.0562 139.836 65.816 138.703 66.4238C137.598 67.0316 136.327 67.3356 134.89 67.3356ZM135.802 62.3211C136.824 62.3211 137.777 62.0586 138.661 61.5337C139.546 61.0087 140.25 60.2766 140.775 59.3372C141.3 58.3979 141.562 57.3204 141.562 56.1048C141.562 54.8891 141.3 53.8116 140.775 52.8723C140.25 51.9329 139.546 51.2146 138.661 50.7173C137.777 50.1924 136.824 49.9299 135.802 49.9299C134.807 49.9299 133.868 50.1924 132.984 50.7173C132.1 51.2146 131.395 51.9329 130.87 52.8723C130.346 53.8116 130.083 54.8891 130.083 56.1048C130.083 57.3204 130.346 58.3979 130.87 59.3372C131.395 60.2766 132.1 61.0087 132.984 61.5337C133.868 62.0586 134.807 62.3211 135.802 62.3211Z" fill="#34A853"/>
<path d="M109.253 67.3348C107.015 67.3348 105.177 66.6855 103.741 65.387C102.304 64.0609 101.586 62.3341 101.586 60.2067C101.586 58.7977 101.959 57.5545 102.705 56.477C103.451 55.3995 104.473 54.5706 105.771 53.9904C107.07 53.4103 108.507 53.1202 110.081 53.1202C112.264 53.1202 114.129 53.4379 115.676 54.0733V53.1616C115.676 52.0012 115.234 51.0619 114.35 50.3435C113.493 49.6252 112.333 49.2661 110.869 49.2661C109.874 49.2661 108.907 49.5009 107.968 49.9706C107.056 50.4126 106.296 51.0066 105.689 51.7526L102.207 49.0174C103.23 47.6913 104.514 46.669 106.061 45.9507C107.609 45.2324 109.294 44.8732 111.117 44.8732C114.35 44.8732 116.809 45.6192 118.494 47.1111C120.179 48.603 121.022 50.7856 121.022 53.6589V66.6717H115.676V64.5167H115.344C114.709 65.3456 113.866 66.0224 112.816 66.5474C111.794 67.0723 110.606 67.3348 109.253 67.3348ZM110.537 63.1077C112.112 63.1077 113.355 62.6104 114.267 61.6158C115.206 60.5935 115.676 59.4055 115.676 58.0518C114.267 57.3887 112.789 57.0572 111.242 57.0572C108.424 57.0572 107.015 58.107 107.015 60.2067C107.015 61.0632 107.319 61.7677 107.926 62.3203C108.534 62.8452 109.404 63.1077 110.537 63.1077Z" fill="#34A853"/>
<path d="M87.4018 67.3348C85.2192 67.3348 83.2715 66.8513 81.5586 65.8843C79.8456 64.8897 78.5057 63.5497 77.5387 61.8644C76.5994 60.1515 76.1297 58.2313 76.1297 56.104C76.1297 54.0043 76.5994 52.0979 77.5387 50.385C78.5057 48.6721 79.8456 47.3321 81.5586 46.3651C83.2715 45.3705 85.2192 44.8732 87.4018 44.8732C89.5568 44.8732 91.4908 45.3705 93.2037 46.3651C94.9166 47.3321 96.2427 48.6721 97.1821 50.385C98.1491 52.0979 98.6325 54.0043 98.6325 56.104C98.6325 58.2313 98.1491 60.1515 97.1821 61.8644C96.2427 63.5497 94.9166 64.8897 93.2037 65.8843C91.4908 66.8513 89.5568 67.3348 87.4018 67.3348ZM87.4018 62.3203C88.4517 62.3203 89.4187 62.0716 90.3028 61.5743C91.1869 61.077 91.8914 60.3587 92.4163 59.4194C92.9412 58.48 93.2037 57.3749 93.2037 56.104C93.2037 54.8607 92.9412 53.7694 92.4163 52.8301C91.8914 51.8907 91.1869 51.1724 90.3028 50.6751C89.4187 50.1778 88.4517 49.9291 87.4018 49.9291C86.352 49.9291 85.385 50.1778 84.5009 50.6751C83.6168 51.1724 82.8985 51.8907 82.346 52.8301C81.821 53.7694 81.5586 54.8607 81.5586 56.104C81.5586 57.3472 81.821 58.4524 82.346 59.4194C82.8985 60.3587 83.6168 61.077 84.5009 61.5743C85.385 62.0716 86.352 62.3203 87.4018 62.3203Z" fill="#34A853"/>
<path d="M52.1766 37H62.9929C64.9268 37 66.6397 37.4006 68.1316 38.2018C69.6512 39.003 70.8253 40.122 71.6542 41.5586C72.483 42.9677 72.8974 44.5701 72.8974 46.3659C72.8974 48.2722 72.2896 49.9714 71.074 51.4633C69.886 52.9275 68.3803 53.9912 66.5568 54.6543L66.5154 54.9444L74.4722 66.3409V66.6725H68.0487L60.382 55.5246H57.7712V66.6725H52.1766V37ZM62.9514 50.3858C64.2223 50.3858 65.2583 49.999 66.0595 49.2254C66.8608 48.4518 67.2614 47.471 67.2614 46.283C67.2614 45.1503 66.8746 44.1833 66.101 43.3821C65.355 42.5809 64.3328 42.1803 63.0343 42.1803H57.7712V50.3858H62.9514Z" fill="#34A853"/>
<path d="M192.332 122.663H198.888V157.439H192.332V122.663Z" fill="white"/>
<path d="M168.989 122.663H176.516L189.579 157.439H182.343L179.43 149.133H166.123L163.21 157.439H155.974L168.989 122.663ZM177.293 143.111L174.233 134.368L172.971 130.191H172.582L171.32 134.368L168.212 143.111H177.293Z" fill="white"/>
<path d="M123.113 122.663H129.475V131.454L129.087 135.777H129.475C130.187 134.611 131.223 133.672 132.583 132.96C133.943 132.248 135.416 131.891 137.002 131.891C140.013 131.891 142.312 132.798 143.898 134.611C145.517 136.392 146.326 138.869 146.326 142.042V157.439H139.965V142.819C139.965 141.233 139.528 140.002 138.653 139.128C137.812 138.254 136.679 137.817 135.254 137.817C133.571 137.817 132.178 138.497 131.078 139.857C130.009 141.217 129.475 142.884 129.475 144.859V157.439H123.113V122.663Z" fill="white"/>
<path d="M115.303 157.83C114.072 157.83 112.939 157.652 111.903 157.295C110.867 156.907 110.026 156.389 109.378 155.741C107.856 154.284 107.096 152.212 107.096 149.524V138.111H102.773V132.671H107.096V125.677H113.457V132.671H119.528V138.111H113.457V148.359C113.457 149.622 113.733 150.528 114.283 151.079C114.736 151.597 115.513 151.856 116.614 151.856C117.229 151.856 117.731 151.775 118.119 151.613C118.54 151.451 119.074 151.176 119.722 150.787V157.004C118.33 157.554 116.857 157.83 115.303 157.83Z" fill="white"/>
<path d="M96.873 129.95C95.7399 129.95 94.7686 129.545 93.9592 128.735C93.1498 127.926 92.7451 126.954 92.7451 125.821C92.7451 124.688 93.1498 123.733 93.9592 122.956C94.7686 122.146 95.7399 121.741 96.873 121.741C98.0061 121.741 98.9612 122.146 99.7382 122.956C100.548 123.733 100.952 124.688 100.952 125.821C100.952 126.954 100.548 127.926 99.7382 128.735C98.9612 129.545 98.0061 129.95 96.873 129.95ZM93.6678 132.669H100.03V157.44H93.6678V132.669Z" fill="white"/>
<path d="M52 132.669H59.1388L63.4123 148.746H63.7522L68.7057 132.669H75.2131L80.1665 148.746H80.5065L84.78 132.669H91.8216L83.9059 157.44H77.0585L72.0079 141.412H71.668L66.666 157.44H59.8672L52 132.669Z" fill="white"/>
<path d="M141.645 112.846C139.411 112.846 137.371 112.295 135.526 111.194C133.713 110.061 132.272 108.507 131.204 106.532C130.168 104.524 129.65 102.242 129.65 99.6836C129.65 97.158 130.168 94.8914 131.204 92.8839C132.272 90.8764 133.713 89.3222 135.526 88.2213C137.371 87.088 139.411 86.5214 141.645 86.5214C143.328 86.5214 144.817 86.8937 146.112 87.6385C147.407 88.3508 148.395 89.2412 149.075 90.3098H149.463L149.075 86.8128V77.2933H155.388V112.069H149.463V109.106H149.075C148.427 110.174 147.44 111.065 146.112 111.777C144.817 112.49 143.328 112.846 141.645 112.846ZM142.713 106.969C143.911 106.969 145.028 106.661 146.064 106.046C147.1 105.431 147.925 104.573 148.541 103.472C149.156 102.371 149.463 101.108 149.463 99.6836C149.463 98.2589 149.156 96.9961 148.541 95.8952C147.925 94.7943 147.1 93.9524 146.064 93.3696C145.028 92.7544 143.911 92.4468 142.713 92.4468C141.548 92.4468 140.447 92.7544 139.411 93.3696C138.375 93.9524 137.549 94.7943 136.934 95.8952C136.319 96.9961 136.011 98.2589 136.011 99.6836C136.011 101.108 136.319 102.371 136.934 103.472C137.549 104.573 138.375 105.431 139.411 106.046C140.447 106.661 141.548 106.969 142.713 106.969Z" fill="white"/>
<path d="M175.391 80.247C179.737 77.7378 185.06 77.6594 189.467 80.0117L189.891 80.247L191.523 81.1894C196.009 83.7795 198.772 88.5659 198.773 93.7461V95.6308C198.773 100.649 196.179 105.299 191.939 107.939L191.523 108.188L189.891 109.131C185.545 111.64 180.222 111.718 175.815 109.366L175.391 109.131L173.759 108.188C169.273 105.598 166.509 100.811 166.509 95.6308V93.7461C166.509 88.7277 169.103 84.0789 173.344 81.4384L173.759 81.1894L175.391 80.247Z" fill="#34A853" stroke="black" stroke-width="3"/>
<path d="M181.318 87.1652C181.865 86.1399 183.305 86.1081 183.908 87.0695L183.964 87.1652L185.453 89.9572C185.808 90.6212 186.322 91.1846 186.947 91.5968L187.223 91.7638L190.109 93.382C191.066 93.9192 191.126 95.2452 190.288 95.881L190.109 95.9982L187.223 97.6163C186.566 97.9846 186.013 98.5112 185.614 99.1456L185.453 99.424L183.964 102.215C183.417 103.241 181.976 103.272 181.373 102.311L181.318 102.215L179.828 99.424C179.474 98.7598 178.96 98.1966 178.334 97.7843L178.059 97.6163L175.173 95.9982C174.215 95.4607 174.156 94.1347 174.994 93.4991L175.173 93.382L178.059 91.7638C178.715 91.3956 179.268 90.8697 179.667 90.2355L179.828 89.9572L181.318 87.1652Z" fill="white" stroke="black" stroke-width="3"/>
<path d="M120.573 77.2932H126.935V112.069H120.573V77.2932Z" fill="white"/>
<path d="M112.688 84.5795C111.555 84.5795 110.584 84.1748 109.775 83.3653C108.965 82.5558 108.561 81.5844 108.561 80.4512C108.561 79.3179 108.965 78.3627 109.775 77.5856C110.584 76.7761 111.555 76.3714 112.688 76.3714C113.822 76.3714 114.777 76.7761 115.554 77.5856C116.363 78.3627 116.768 79.3179 116.768 80.4512C116.768 81.5844 116.363 82.5558 115.554 83.3653C114.777 84.1748 113.822 84.5795 112.688 84.5795ZM109.483 87.2994H115.845V112.07H109.483V87.2994Z" fill="white"/>
<path d="M90.9014 112.847C87.9228 112.847 85.6566 111.924 84.1025 110.078C82.5485 108.233 81.7715 105.658 81.7715 102.356V87.2993H88.1333V101.579C88.1333 103.262 88.538 104.59 89.3473 105.561C90.1567 106.5 91.2251 106.97 92.5525 106.97C94.3655 106.97 95.8062 106.306 96.8746 104.978C97.943 103.651 98.4772 101.967 98.4772 99.9272V87.2993H104.839V112.069H98.8657V108.961H98.4772C97.7326 110.159 96.6804 111.114 95.3206 111.827C93.9932 112.507 92.5201 112.847 90.9014 112.847Z" fill="white"/>
<path d="M53.3398 77.2933H66.9374C68.8799 77.2933 70.6605 77.698 72.2793 78.5075C73.9305 79.317 75.2255 80.4179 76.1644 81.8102C77.1032 83.2025 77.5727 84.7243 77.5727 86.3757C77.5727 88.1242 77.1356 89.646 76.2615 90.9412C75.4197 92.204 74.3028 93.1753 72.9106 93.8553V94.2439C74.7236 94.8914 76.1644 95.9276 77.2327 97.3523C78.3011 98.7446 78.8353 100.428 78.8353 102.403C78.8353 104.314 78.3173 106.014 77.2813 107.503C76.2777 108.96 74.9017 110.094 73.1534 110.903C71.4376 111.68 69.5274 112.069 67.423 112.069H53.3398V77.2933ZM66.4518 91.4754C67.8763 91.4754 69.0094 91.0869 69.8512 90.3098C70.7253 89.5003 71.1624 88.4965 71.1624 87.2985C71.1624 86.1328 70.7415 85.1615 69.8997 84.3843C69.0903 83.5749 68.0058 83.1701 66.646 83.1701H59.8958V91.4754H66.4518ZM67.1802 106.095C68.7666 106.095 69.9969 105.69 70.871 104.88C71.7775 104.039 72.2308 102.954 72.2308 101.626C72.2308 100.299 71.7775 99.2141 70.871 98.3722C69.9645 97.5304 68.6695 97.1094 66.9859 97.1094H59.8958V106.095H67.1802Z" fill="white"/>
<path fill-rule="evenodd" clip-rule="evenodd" d="M152.109 168.842H62.2295C57.9524 168.842 54.4765 172.329 54.4765 176.64C54.4765 180.951 57.9524 184.438 62.2295 184.438H152.109C156.386 184.438 159.862 180.951 159.862 176.64C159.862 172.329 156.386 168.842 152.109 168.842ZM62.2295 167.891C57.4224 167.891 53.5254 171.808 53.5254 176.64C53.5254 181.472 57.4224 185.389 62.2295 185.389H152.109C156.916 185.389 160.813 181.472 160.813 176.64C160.813 171.808 156.916 167.891 152.109 167.891H62.2295Z" fill="white"/>
<path d="M70.1835 171.827L65.8487 174.954C64.9404 175.609 64.7332 176.879 65.3858 177.791L65.3882 177.794C66.0409 178.706 67.3063 178.914 68.2145 178.259L72.5494 175.132C73.4577 174.477 73.6649 173.207 73.0122 172.295L73.0098 172.291C72.3572 171.38 71.0918 171.172 70.1835 171.827Z" fill="#EA4335" stroke="#1E1E1E" stroke-width="2" stroke-miterlimit="10"/>
<path d="M65.3882 175.386L65.3858 175.389C64.7332 176.301 64.9404 177.571 65.8487 178.227L70.1835 181.353C71.0918 182.008 72.3572 181.8 73.0098 180.889L73.0122 180.885C73.6649 179.974 73.4577 178.703 72.5494 178.048L68.2145 174.922C67.3063 174.266 66.0409 174.474 65.3882 175.386Z" fill="#4285F4" stroke="#1E1E1E" stroke-width="2" stroke-miterlimit="10"/>
<path d="M80.6445 174.917L76.3096 178.044C75.4013 178.699 75.1941 179.969 75.8468 180.881L75.8492 180.884C76.5018 181.796 77.7672 182.004 78.6755 181.348L83.0103 178.222C83.9186 177.567 84.1258 176.296 83.4732 175.385L83.4708 175.381C82.8181 174.47 81.5527 174.262 80.6445 174.917Z" fill="#F9AB00" stroke="#1E1E1E" stroke-width="2" stroke-miterlimit="10"/>
<path d="M75.8492 172.292L75.8468 172.296C75.1941 173.207 75.4013 174.478 76.3096 175.133L80.6445 178.259C81.5527 178.915 82.8181 178.707 83.4708 177.795L83.4732 177.792C84.1258 176.88 83.9186 175.61 83.0103 174.954L78.6755 171.828C77.7672 171.173 76.5018 171.381 75.8492 172.292Z" fill="#34A853" stroke="#1E1E1E" stroke-width="2" stroke-miterlimit="10"/>
<path d="M145.128 178.752L148.672 174.339H145.284V173.089H150.205V174.417L146.7 178.83H150.244V180.08H145.128V178.752Z" fill="white"/>
<path d="M141.356 180.236C140.809 180.236 140.331 180.119 139.92 179.885C139.517 179.65 139.201 179.312 138.973 178.869C138.752 178.427 138.641 177.903 138.641 177.297V173.089H139.95V177.376C139.95 177.857 140.07 178.248 140.311 178.547C140.558 178.84 140.907 178.987 141.356 178.987C141.805 178.987 142.15 178.84 142.391 178.547C142.638 178.248 142.762 177.857 142.762 177.376V173.089H144.07V177.297C144.07 177.877 143.959 178.388 143.738 178.83C143.517 179.273 143.201 179.618 142.791 179.865C142.381 180.113 141.902 180.236 141.356 180.236Z" fill="white"/>
<path d="M132.58 173.089H135.128C135.584 173.089 135.987 173.184 136.339 173.373C136.697 173.561 136.974 173.825 137.169 174.163C137.364 174.495 137.462 174.873 137.462 175.296C137.462 175.745 137.319 176.145 137.032 176.497C136.752 176.842 136.398 177.092 135.968 177.249L135.958 177.317L137.833 180.002V180.08H136.319L134.513 177.454H133.898V180.08H132.58V173.089ZM135.119 176.243C135.418 176.243 135.662 176.152 135.851 175.97C136.04 175.787 136.134 175.556 136.134 175.276C136.134 175.01 136.043 174.782 135.861 174.593C135.685 174.404 135.444 174.31 135.138 174.31H133.898V176.243H135.119Z" fill="white"/>
<path d="M128.568 180.238C127.891 180.238 127.272 180.078 126.713 179.76C126.153 179.434 125.71 178.995 125.385 178.441C125.066 177.882 124.906 177.263 124.906 176.586C124.906 175.91 125.066 175.294 125.385 174.741C125.71 174.181 126.153 173.742 126.713 173.423C127.272 173.098 127.891 172.935 128.568 172.935C129.622 172.935 130.494 173.316 131.184 174.077L130.257 174.975C129.808 174.448 129.248 174.185 128.577 174.185C128.141 174.185 127.744 174.286 127.386 174.487C127.028 174.683 126.745 174.962 126.537 175.327C126.335 175.691 126.234 176.111 126.234 176.586C126.234 177.062 126.335 177.481 126.537 177.846C126.745 178.21 127.028 178.494 127.386 178.695C127.744 178.891 128.141 178.988 128.577 178.988C129.313 178.988 129.928 178.682 130.423 178.07L131.36 178.959C131.015 179.376 130.605 179.694 130.13 179.916C129.661 180.131 129.14 180.238 128.568 180.238Z" fill="white"/>
<path d="M118.078 173.089H119.591L122.217 180.08H120.763L120.177 178.411H117.502L116.916 180.08H115.461L118.078 173.089ZM119.747 177.2L119.132 175.442L118.878 174.603H118.8L118.546 175.442L117.921 177.2H119.747Z" fill="white"/>
<path d="M112.429 174.339H110.477V173.089H115.7V174.339H113.747V180.08H112.429V174.339Z" fill="white"/>
<path d="M103.767 173.089H105.299L108.111 177.776H108.189L108.111 176.428V173.089H109.42V180.08H108.033L105.065 175.13H104.987L105.065 176.477V180.08H103.767V173.089Z" fill="white"/>
<path d="M98.684 173.089H100.197L102.824 180.08H101.369L100.783 178.41H98.108L97.5222 180.08H96.0674L98.684 173.089ZM100.354 177.2L99.7384 175.442L99.4846 174.603H99.4065L99.1526 175.442L98.5278 177.2H100.354Z" fill="white"/>
<path d="M93.1762 180.238C92.5643 180.238 92.0241 180.065 91.5555 179.721C91.0868 179.376 90.7581 178.887 90.5694 178.256L91.8093 177.768C91.9069 178.139 92.0729 178.435 92.3072 178.656C92.5416 178.878 92.8345 178.988 93.1859 178.988C93.4788 178.988 93.7294 178.917 93.9377 178.773C94.146 178.624 94.2502 178.419 94.2502 178.158C94.2502 177.898 94.1493 177.686 93.9475 177.524C93.7522 177.354 93.4007 177.176 92.893 176.987L92.4635 176.831C92.0143 176.674 91.6303 176.437 91.3114 176.118C90.9924 175.792 90.833 175.386 90.833 174.897C90.833 174.533 90.9274 174.201 91.1161 173.902C91.3049 173.602 91.5717 173.368 91.9167 173.199C92.2617 173.023 92.6522 172.935 93.0883 172.935C93.7197 172.935 94.2176 173.085 94.5821 173.384C94.9466 173.677 95.1972 174.022 95.3339 174.419L94.172 174.907C94.1004 174.692 93.9735 174.513 93.7913 174.37C93.6155 174.22 93.3877 174.146 93.1078 174.146C92.8214 174.146 92.5839 174.214 92.3951 174.351C92.2129 174.481 92.1217 174.653 92.1217 174.868C92.1217 175.076 92.2096 175.255 92.3854 175.405C92.5611 175.548 92.8507 175.688 93.2543 175.825L93.6936 175.971C94.299 176.18 94.7611 176.456 95.08 176.801C95.4055 177.14 95.5682 177.586 95.5682 178.139C95.5682 178.594 95.451 178.982 95.2167 179.301C94.9824 179.613 94.6797 179.847 94.3087 180.004C93.9442 180.16 93.5667 180.238 93.1762 180.238Z" fill="white"/>
<path fill-rule="evenodd" clip-rule="evenodd" d="M189.522 168.842H171.209C167.022 168.842 163.591 172.313 163.591 176.64C163.591 180.967 167.022 184.438 171.209 184.438H189.522C193.709 184.438 197.14 180.967 197.14 176.64C197.14 172.313 193.709 168.842 189.522 168.842ZM171.209 167.891C166.475 167.891 162.638 171.808 162.638 176.64C162.638 181.472 166.475 185.389 171.209 185.389H189.522C194.256 185.389 198.093 181.472 198.093 176.64C198.093 171.808 194.256 167.891 189.522 167.891H171.209Z" fill="white"/>
<path d="M190.366 180.762C189.968 180.762 189.584 180.688 189.215 180.54C188.846 180.385 188.521 180.156 188.241 179.854C187.967 179.544 187.779 179.164 187.676 178.713L188.982 178.204C189.071 178.58 189.233 178.879 189.47 179.101C189.706 179.315 190.001 179.422 190.355 179.422C190.71 179.422 191.005 179.304 191.241 179.068C191.477 178.831 191.595 178.532 191.595 178.171C191.595 177.816 191.477 177.521 191.241 177.285C191.012 177.041 190.717 176.92 190.355 176.92C190.134 176.92 189.931 176.968 189.746 177.063C189.569 177.152 189.418 177.274 189.292 177.429L187.886 176.798L188.318 173.011H192.592V174.284H189.525L189.248 176.056L189.337 176.078C189.706 175.775 190.145 175.624 190.654 175.624C191.075 175.624 191.466 175.731 191.828 175.945C192.197 176.159 192.492 176.462 192.714 176.853C192.935 177.237 193.046 177.676 193.046 178.171C193.046 178.673 192.931 179.119 192.703 179.51C192.474 179.902 192.156 180.208 191.75 180.429C191.344 180.651 190.883 180.762 190.366 180.762Z" fill="white"/>
<path d="M181.589 179.268C181.833 179.025 182.301 178.556 182.995 177.862C183.696 177.161 184.147 176.703 184.346 176.489C184.612 176.201 184.793 175.961 184.889 175.769C184.992 175.577 185.044 175.36 185.044 175.116C185.044 174.858 184.948 174.64 184.756 174.463C184.564 174.286 184.309 174.197 183.992 174.197C183.682 174.197 183.431 174.286 183.239 174.463C183.047 174.64 182.91 174.861 182.829 175.127L181.523 174.585C181.604 174.297 181.751 174.02 181.965 173.754C182.187 173.481 182.471 173.26 182.818 173.09C183.165 172.92 183.564 172.835 184.014 172.835C184.516 172.835 184.955 172.935 185.331 173.134C185.708 173.326 185.999 173.592 186.206 173.931C186.413 174.264 186.516 174.636 186.516 175.05C186.516 175.869 186.118 176.67 185.32 177.452C184.996 177.77 184.394 178.368 183.516 179.246L183.549 179.313H186.616V180.586H181.589V179.268Z" fill="white"/>
<path d="M177.382 180.763C176.747 180.763 176.19 180.593 175.71 180.254C175.23 179.907 174.857 179.434 174.592 178.836C174.333 178.231 174.204 177.552 174.204 176.799C174.204 176.046 174.333 175.371 174.592 174.773C174.857 174.168 175.23 173.695 175.71 173.356C176.19 173.009 176.747 172.835 177.382 172.835C178.017 172.835 178.574 173.009 179.054 173.356C179.534 173.695 179.903 174.168 180.161 174.773C180.427 175.371 180.56 176.046 180.56 176.799C180.56 177.552 180.427 178.231 180.161 178.836C179.903 179.434 179.534 179.907 179.054 180.254C178.574 180.593 178.017 180.763 177.382 180.763ZM177.382 179.401C177.736 179.401 178.043 179.29 178.301 179.069C178.567 178.84 178.766 178.53 178.899 178.139C179.039 177.74 179.109 177.294 179.109 176.799C179.109 176.031 178.954 175.408 178.644 174.928C178.334 174.441 177.913 174.197 177.382 174.197C176.858 174.197 176.441 174.441 176.131 174.928C175.821 175.415 175.666 176.039 175.666 176.799C175.666 177.294 175.732 177.74 175.865 178.139C176.005 178.53 176.205 178.84 176.463 179.069C176.729 179.29 177.035 179.401 177.382 179.401Z" fill="white"/>
<path d="M168.074 179.268C168.318 179.025 168.787 178.556 169.481 177.862C170.182 177.161 170.632 176.703 170.831 176.489C171.097 176.201 171.278 175.961 171.374 175.769C171.477 175.577 171.529 175.36 171.529 175.116C171.529 174.858 171.433 174.64 171.241 174.463C171.049 174.286 170.794 174.197 170.477 174.197C170.167 174.197 169.916 174.286 169.724 174.463C169.532 174.64 169.396 174.861 169.314 175.127L168.008 174.585C168.089 174.297 168.237 174.02 168.451 173.754C168.672 173.481 168.956 173.26 169.303 173.09C169.65 172.92 170.049 172.835 170.499 172.835C171.001 172.835 171.44 172.935 171.817 173.134C172.193 173.326 172.485 173.592 172.691 173.931C172.898 174.264 173.001 174.636 173.001 175.05C173.001 175.869 172.603 176.67 171.806 177.452C171.481 177.77 170.879 178.368 170.001 179.246L170.034 179.313H173.101V180.586H168.074V179.268Z" fill="white"/>
</svg>
