<svg width="254" height="269" viewBox="0 0 254 269" fill="none" xmlns="http://www.w3.org/2000/svg">
<rect x="2.5" y="2" width="249" height="239" rx="9" fill="black" stroke="#EA4335" stroke-width="4"/>
<rect x="-2" y="2" width="189" height="48" rx="13" transform="matrix(1 0 0 -1 34.5 269)" fill="black" stroke="#EA4335" stroke-width="4"/>
<path d="M78.2957 250.352C77.665 250.352 77.0197 250.22 76.3597 249.956C75.6997 249.692 75.0984 249.281 74.5557 248.724C74.0277 248.152 73.6464 247.441 73.4117 246.59L75.1057 245.886C75.3404 246.737 75.7364 247.397 76.2937 247.866C76.8657 248.335 77.533 248.57 78.2957 248.57C78.853 248.57 79.3737 248.453 79.8577 248.218C80.3417 247.969 80.723 247.631 81.0017 247.206C81.295 246.766 81.4417 246.282 81.4417 245.754C81.4417 245.241 81.295 244.771 81.0017 244.346C80.723 243.921 80.3344 243.591 79.8357 243.356C79.3517 243.107 78.8164 242.982 78.2297 242.982H76.9317V241.244H78.0977C78.9044 241.244 79.579 241.017 80.1217 240.562C80.6644 240.093 80.9357 239.477 80.9357 238.714C80.9357 238.01 80.6717 237.445 80.1437 237.02C79.6157 236.595 78.963 236.382 78.1857 236.382C77.423 236.382 76.8217 236.58 76.3817 236.976C75.9564 237.372 75.6484 237.856 75.4577 238.428L73.7417 237.702C74.0057 236.91 74.5117 236.199 75.2597 235.568C76.0224 234.923 76.9977 234.6 78.1857 234.6C79.0657 234.6 79.8577 234.776 80.5617 235.128C81.2657 235.48 81.8157 235.971 82.2117 236.602C82.6224 237.233 82.8277 237.937 82.8277 238.714C82.8277 239.491 82.6297 240.151 82.2337 240.694C81.8377 241.237 81.3464 241.662 80.7597 241.97V242.058C81.5077 242.366 82.1237 242.843 82.6077 243.488C83.0917 244.119 83.3337 244.867 83.3337 245.732C83.3337 246.612 83.1064 247.404 82.6517 248.108C82.2117 248.812 81.603 249.362 80.8257 249.758C80.063 250.154 79.2197 250.352 78.2957 250.352ZM88.7103 237.57L86.0703 239.462L85.1023 238.032L89.3923 234.952H90.5803V250H88.7103V237.57ZM103.721 250.352C102.724 250.352 101.814 250.095 100.993 249.582C100.186 249.069 99.5483 248.365 99.079 247.47C98.6097 246.561 98.375 245.534 98.375 244.39C98.375 243.261 98.6097 242.241 99.079 241.332C99.5483 240.423 100.186 239.711 100.993 239.198C101.814 238.685 102.724 238.428 103.721 238.428C104.586 238.428 105.356 238.626 106.031 239.022C106.706 239.403 107.219 239.88 107.571 240.452H107.659L107.571 238.89V234.248H109.441V250H107.659V248.35H107.571C107.219 248.907 106.706 249.384 106.031 249.78C105.356 250.161 104.586 250.352 103.721 250.352ZM103.941 248.658C104.601 248.658 105.21 248.482 105.767 248.13C106.339 247.778 106.794 247.279 107.131 246.634C107.483 245.989 107.659 245.241 107.659 244.39C107.659 243.539 107.483 242.791 107.131 242.146C106.794 241.501 106.339 241.002 105.767 240.65C105.21 240.298 104.601 240.122 103.941 240.122C103.296 240.122 102.687 240.298 102.115 240.65C101.543 241.002 101.081 241.508 100.729 242.168C100.392 242.813 100.223 243.554 100.223 244.39C100.223 245.226 100.392 245.974 100.729 246.634C101.081 247.279 101.543 247.778 102.115 248.13C102.687 248.482 103.296 248.658 103.941 248.658ZM117.09 250.352C116.019 250.352 115.059 250.095 114.208 249.582C113.357 249.069 112.69 248.365 112.206 247.47C111.737 246.561 111.502 245.541 111.502 244.412C111.502 243.327 111.722 242.329 112.162 241.42C112.617 240.511 113.255 239.785 114.076 239.242C114.897 238.699 115.851 238.428 116.936 238.428C118.036 238.428 118.989 238.677 119.796 239.176C120.603 239.66 121.219 240.335 121.644 241.2C122.084 242.065 122.304 243.055 122.304 244.17C122.304 244.39 122.282 244.581 122.238 244.742H113.372C113.416 245.593 113.621 246.311 113.988 246.898C114.355 247.485 114.817 247.925 115.374 248.218C115.946 248.511 116.54 248.658 117.156 248.658C118.593 248.658 119.701 247.983 120.478 246.634L122.062 247.404C121.578 248.313 120.918 249.032 120.082 249.56C119.261 250.088 118.263 250.352 117.09 250.352ZM120.324 243.202C120.295 242.733 120.163 242.263 119.928 241.794C119.693 241.325 119.319 240.929 118.806 240.606C118.307 240.283 117.677 240.122 116.914 240.122C116.034 240.122 115.286 240.408 114.67 240.98C114.069 241.537 113.673 242.278 113.482 243.202H120.324ZM129.98 234.248H132.686L137.702 247.162H137.79L142.806 234.248H145.512V250H143.664V239.99L143.752 236.998H143.664L138.516 250H136.976L131.828 236.998H131.74L131.828 239.99V250H129.98V234.248ZM151.926 250.352C151.105 250.352 150.371 250.191 149.726 249.868C149.081 249.545 148.582 249.105 148.23 248.548C147.878 247.976 147.702 247.331 147.702 246.612C147.702 245.424 148.149 244.5 149.044 243.84C149.939 243.165 151.068 242.828 152.432 242.828C153.107 242.828 153.73 242.901 154.302 243.048C154.889 243.195 155.336 243.363 155.644 243.554V242.872C155.644 242.036 155.351 241.369 154.764 240.87C154.177 240.357 153.437 240.1 152.542 240.1C151.911 240.1 151.332 240.239 150.804 240.518C150.276 240.782 149.858 241.156 149.55 241.64L148.142 240.584C148.582 239.909 149.183 239.381 149.946 239C150.723 238.619 151.581 238.428 152.52 238.428C154.045 238.428 155.241 238.831 156.106 239.638C156.986 240.43 157.426 241.515 157.426 242.894V250H155.644V248.394H155.556C155.233 248.937 154.749 249.399 154.104 249.78C153.459 250.161 152.733 250.352 151.926 250.352ZM152.102 248.702C152.733 248.702 153.319 248.541 153.862 248.218C154.405 247.895 154.837 247.463 155.16 246.92C155.483 246.377 155.644 245.783 155.644 245.138C155.292 244.903 154.859 244.713 154.346 244.566C153.833 244.419 153.29 244.346 152.718 244.346C151.691 244.346 150.914 244.559 150.386 244.984C149.873 245.409 149.616 245.959 149.616 246.634C149.616 247.25 149.851 247.749 150.32 248.13C150.789 248.511 151.383 248.702 152.102 248.702ZM163.245 249.296L158.603 238.78H160.627L164.147 247.118H164.191L167.579 238.78H169.603L162.673 254.752H160.737L163.245 249.296ZM175.897 250.352C174.797 250.352 173.807 250.088 172.927 249.56C172.047 249.032 171.357 248.313 170.859 247.404C170.375 246.495 170.133 245.49 170.133 244.39C170.133 243.29 170.375 242.285 170.859 241.376C171.357 240.467 172.047 239.748 172.927 239.22C173.807 238.692 174.797 238.428 175.897 238.428C176.997 238.428 177.987 238.692 178.867 239.22C179.747 239.748 180.429 240.467 180.913 241.376C181.411 242.285 181.661 243.29 181.661 244.39C181.661 245.49 181.411 246.495 180.913 247.404C180.429 248.313 179.747 249.032 178.867 249.56C177.987 250.088 176.997 250.352 175.897 250.352ZM175.897 248.658C176.586 248.658 177.224 248.489 177.811 248.152C178.412 247.8 178.889 247.301 179.241 246.656C179.607 246.011 179.791 245.255 179.791 244.39C179.791 243.525 179.607 242.769 179.241 242.124C178.889 241.479 178.412 240.987 177.811 240.65C177.224 240.298 176.586 240.122 175.897 240.122C175.207 240.122 174.562 240.298 173.961 240.65C173.359 240.987 172.875 241.479 172.509 242.124C172.157 242.769 171.981 243.525 171.981 244.39C171.981 245.255 172.157 246.011 172.509 246.656C172.875 247.301 173.359 247.8 173.961 248.152C174.562 248.489 175.207 248.658 175.897 248.658Z" fill="white"/>
<path d="M188.742 67.6398C186.538 67.6398 184.571 67.1514 182.841 66.1748C181.111 65.1702 179.757 63.8168 178.78 62.1146C177.832 60.3845 177.357 58.4451 177.357 56.2965C177.357 54.1757 177.832 52.2503 178.78 50.5202C179.757 48.7901 181.111 47.4367 182.841 46.46C184.571 45.4555 186.538 44.9532 188.742 44.9532C190.919 44.9532 192.872 45.4555 194.602 46.46C196.333 47.4367 197.672 48.7901 198.621 50.5202C199.597 52.2503 200.086 54.1757 200.086 56.2965C200.086 58.4451 199.597 60.3845 198.621 62.1146C197.672 63.8168 196.333 65.1702 194.602 66.1748C192.872 67.1514 190.919 67.6398 188.742 67.6398ZM188.742 62.5751C189.803 62.5751 190.78 62.3239 191.672 61.8216C192.565 61.3193 193.277 60.5938 193.807 59.645C194.337 58.6963 194.602 57.5801 194.602 56.2965C194.602 55.0408 194.337 53.9385 193.807 52.9898C193.277 52.041 192.565 51.3155 191.672 50.8132C190.78 50.3109 189.803 50.0598 188.742 50.0598C187.682 50.0598 186.705 50.3109 185.812 50.8132C184.92 51.3155 184.194 52.041 183.636 52.9898C183.106 53.9385 182.841 55.0408 182.841 56.2965C182.841 57.5522 183.106 58.6684 183.636 59.645C184.194 60.5938 184.92 61.3193 185.812 61.8216C186.705 62.3239 187.682 62.5751 188.742 62.5751Z" fill="#EA4335"/>
<path d="M171.063 67.3032C170.003 67.3032 169.026 67.1497 168.133 66.8428C167.241 66.5079 166.515 66.0614 165.957 65.5033C164.645 64.2476 163.99 62.4617 163.99 60.1456V50.3092H160.264V45.6212H163.99V39.5938H169.473V45.6212H174.705V50.3092H169.473V59.141C169.473 60.2293 169.71 61.0107 170.184 61.485C170.575 61.9315 171.245 62.1548 172.194 62.1548C172.724 62.1548 173.156 62.085 173.491 61.9455C173.854 61.8059 174.314 61.5688 174.872 61.2339V66.5916C173.673 67.066 172.403 67.3032 171.063 67.3032Z" fill="#EA4335"/>
<path d="M134.72 67.6394C132.795 67.6394 131.037 67.1651 129.446 66.2163C127.884 65.2396 126.642 63.9002 125.721 62.198C124.828 60.4679 124.382 58.5006 124.382 56.2961C124.382 54.1196 124.828 52.1662 125.721 50.4361C126.642 48.7061 127.884 47.3666 129.446 46.4179C131.037 45.4412 132.795 44.9529 134.72 44.9529C136.171 44.9529 137.455 45.2738 138.571 45.9156C139.687 46.5295 140.538 47.2969 141.124 48.2177H141.459L141.124 45.204V37H146.566V66.9697H141.459V64.4164H141.124C140.566 65.3373 139.715 66.1047 138.571 66.7186C137.455 67.3325 136.171 67.6394 134.72 67.6394ZM135.641 62.5747C136.674 62.5747 137.636 62.3096 138.529 61.7794C139.422 61.2492 140.134 60.5098 140.664 59.561C141.194 58.6122 141.459 57.524 141.459 56.2961C141.459 55.0683 141.194 53.9801 140.664 53.0313C140.134 52.0825 139.422 51.357 138.529 50.8547C137.636 50.3245 136.674 50.0594 135.641 50.0594C134.637 50.0594 133.688 50.3245 132.795 50.8547C131.902 51.357 131.19 52.0825 130.66 53.0313C130.13 53.9801 129.865 55.0683 129.865 56.2961C129.865 57.524 130.13 58.6122 130.66 59.561C131.19 60.5098 131.902 61.2492 132.795 61.7794C133.688 62.3096 134.637 62.5747 135.641 62.5747Z" fill="#EA4335"/>
<path d="M108.825 67.6397C106.565 67.6397 104.709 66.9839 103.258 65.6724C101.807 64.333 101.082 62.5889 101.082 60.4402C101.082 59.0171 101.459 57.7614 102.212 56.6731C102.965 55.5848 103.998 54.7477 105.309 54.1617C106.621 53.5757 108.072 53.2827 109.663 53.2827C111.867 53.2827 113.751 53.6036 115.313 54.2454V53.3245C115.313 52.1525 114.867 51.2038 113.974 50.4782C113.109 49.7527 111.937 49.39 110.458 49.39C109.453 49.39 108.477 49.6271 107.528 50.1015C106.607 50.548 105.84 51.148 105.226 51.9014L101.71 49.1388C102.742 47.7994 104.04 46.7669 105.602 46.0414C107.165 45.3159 108.867 44.9531 110.709 44.9531C113.974 44.9531 116.457 45.7065 118.159 47.2134C119.862 48.7202 120.713 50.9247 120.713 53.8268V66.97H115.313V64.7934H114.978C114.337 65.6305 113.485 66.3142 112.425 66.8444C111.393 67.3746 110.193 67.6397 108.825 67.6397ZM110.123 63.3702C111.713 63.3702 112.969 62.868 113.89 61.8634C114.839 60.8309 115.313 59.631 115.313 58.2637C113.89 57.594 112.397 57.2591 110.834 57.2591C107.988 57.2591 106.565 58.3195 106.565 60.4402C106.565 61.3053 106.872 62.0169 107.486 62.575C108.1 63.1051 108.979 63.3702 110.123 63.3702Z" fill="#EA4335"/>
<path d="M86.757 67.6397C84.5525 67.6397 82.5852 67.1513 80.8551 66.1747C79.125 65.1701 77.7717 63.8167 76.795 62.1145C75.8462 60.3844 75.3719 58.4451 75.3719 56.2964C75.3719 54.1756 75.8462 52.2502 76.795 50.5201C77.7717 48.79 79.125 47.4366 80.8551 46.46C82.5852 45.4554 84.5525 44.9531 86.757 44.9531C88.9336 44.9531 90.8869 45.4554 92.617 46.46C94.3471 47.4366 95.6865 48.79 96.6353 50.5201C97.6119 52.2502 98.1003 54.1756 98.1003 56.2964C98.1003 58.4451 97.6119 60.3844 96.6353 62.1145C95.6865 63.8167 94.3471 65.1701 92.617 66.1747C90.8869 67.1513 88.9336 67.6397 86.757 67.6397ZM86.757 62.575C87.8174 62.575 88.794 62.3238 89.687 61.8215C90.5799 61.3192 91.2915 60.5937 91.8217 59.645C92.3519 58.6962 92.617 57.58 92.617 56.2964C92.617 55.0407 92.3519 53.9384 91.8217 52.9897C91.2915 52.0409 90.5799 51.3154 89.687 50.8131C88.794 50.3108 87.8174 50.0597 86.757 50.0597C85.6966 50.0597 84.7199 50.3108 83.827 50.8131C82.934 51.3154 82.2085 52.0409 81.6504 52.9897C81.1202 53.9384 80.8551 55.0407 80.8551 56.2964C80.8551 57.5521 81.1202 58.6683 81.6504 59.645C82.2085 60.5937 82.934 61.3192 83.827 61.8215C84.7199 62.3238 85.6966 62.575 86.757 62.575Z" fill="#EA4335"/>
<path d="M51.1775 37H62.1022C64.0556 37 65.7857 37.4046 67.2925 38.2139C68.8273 39.0231 70.0132 40.1532 70.8504 41.6043C71.6875 43.0274 72.1061 44.6459 72.1061 46.4597C72.1061 48.3851 71.4922 50.1013 70.2644 51.6081C69.0645 53.0871 67.5437 54.1614 65.702 54.8311L65.6601 55.1241L73.6967 66.6349V66.9697H67.2088L59.4652 55.7101H56.8282V66.9697H51.1775V37ZM62.0604 50.5199C63.344 50.5199 64.3904 50.1292 65.1997 49.3479C66.0089 48.5665 66.4135 47.5759 66.4135 46.376C66.4135 45.2319 66.0229 44.2552 65.2415 43.446C64.4881 42.6368 63.4556 42.2321 62.1441 42.2321H56.8282V50.5199H62.0604Z" fill="#EA4335"/>
<path d="M192.739 123.696H199.361V158.82H192.739V123.696Z" fill="white"/>
<path d="M169.162 123.696H176.765L189.959 158.82H182.651L179.708 150.432H166.268L163.325 158.82H156.017L169.162 123.696ZM177.549 144.349L174.459 135.519L173.184 131.3H172.792L171.516 135.519L168.377 144.349H177.549Z" fill="white"/>
<path d="M122.826 123.696H129.252V132.576L128.859 136.941H129.252C129.971 135.764 131.017 134.816 132.391 134.096C133.764 133.377 135.252 133.017 136.854 133.017C139.895 133.017 142.217 133.933 143.819 135.764C145.454 137.563 146.272 140.065 146.272 143.27V158.82H139.846V144.055C139.846 142.452 139.405 141.209 138.522 140.326C137.672 139.443 136.527 139.002 135.089 139.002C133.388 139.002 131.982 139.689 130.87 141.062C129.791 142.436 129.252 144.12 129.252 146.115V158.82H122.826V123.696Z" fill="white"/>
<path d="M114.936 159.212C113.693 159.212 112.549 159.032 111.503 158.673C110.456 158.28 109.606 157.757 108.952 157.103C107.415 155.631 106.647 153.538 106.647 150.824V139.296H102.281V133.801H106.647V126.737H113.072V133.801H119.203V139.296H113.072V149.646C113.072 150.922 113.35 151.838 113.906 152.394C114.364 152.917 115.149 153.178 116.26 153.178C116.882 153.178 117.389 153.097 117.781 152.933C118.206 152.77 118.746 152.492 119.4 152.099V158.378C117.993 158.934 116.506 159.212 114.936 159.212Z" fill="white"/>
<path d="M96.3215 131.055C95.177 131.055 94.1961 130.646 93.3786 129.829C92.5611 129.011 92.1523 128.03 92.1523 126.886C92.1523 125.741 92.5611 124.776 93.3786 123.991C94.1961 123.174 95.177 122.765 96.3215 122.765C97.466 122.765 98.4307 123.174 99.2155 123.991C100.033 124.776 100.442 125.741 100.442 126.886C100.442 128.03 100.033 129.011 99.2155 129.829C98.4307 130.646 97.466 131.055 96.3215 131.055ZM93.0843 133.802H99.5098V158.821H93.0843V133.802Z" fill="white"/>
<path d="M51 133.802H58.2103L62.5267 150.039H62.87L67.8731 133.802H74.4458L79.4489 150.039H79.7922L84.1086 133.802H91.2208L83.2257 158.82H76.3097L71.2085 142.632H70.8652L65.813 158.82H58.9461L51 133.802Z" fill="white"/>
<path d="M141.543 113.781C139.287 113.781 137.227 113.225 135.363 112.113C133.532 110.969 132.077 109.399 130.997 107.404C129.951 105.376 129.428 103.071 129.428 100.487C129.428 97.9361 129.951 95.6468 130.997 93.6192C132.077 91.5916 133.532 90.0218 135.363 88.9099C137.227 87.7652 139.287 87.1929 141.543 87.1929C143.244 87.1929 144.748 87.569 146.056 88.3212C147.364 89.0407 148.361 89.94 149.048 91.0193H149.44L149.048 87.4873V77.8724H155.424V112.996H149.44V110.004H149.048C148.394 111.083 147.396 111.982 146.056 112.702C144.748 113.421 143.244 113.781 141.543 113.781ZM142.622 107.845C143.832 107.845 144.96 107.535 146.007 106.913C147.053 106.292 147.887 105.425 148.508 104.313C149.13 103.201 149.44 101.926 149.44 100.487C149.44 99.048 149.13 97.7726 148.508 96.6606C147.887 95.5487 147.053 94.6984 146.007 94.1098C144.96 93.4884 143.832 93.1777 142.622 93.1777C141.445 93.1777 140.333 93.4884 139.287 94.1098C138.24 94.6984 137.407 95.5487 136.785 96.6606C136.164 97.7726 135.853 99.048 135.853 100.487C135.853 101.926 136.164 103.201 136.785 104.313C137.407 105.425 138.24 106.292 139.287 106.913C140.333 107.535 141.445 107.845 142.622 107.845Z" fill="white"/>
<path d="M120.261 77.8725H126.686V112.996H120.261V77.8725Z" fill="white"/>
<path d="M112.297 85.2312C111.153 85.2312 110.172 84.8224 109.354 84.0049C108.537 83.1873 108.128 82.2061 108.128 81.0615C108.128 79.9169 108.537 78.9521 109.354 78.1672C110.172 77.3497 111.153 76.9409 112.297 76.9409C113.442 76.9409 114.406 77.3497 115.191 78.1672C116.009 78.9521 116.417 79.9169 116.417 81.0615C116.417 82.2061 116.009 83.1873 115.191 84.0049C114.406 84.8224 113.442 85.2312 112.297 85.2312ZM109.06 87.9783H115.485V112.997H109.06V87.9783Z" fill="white"/>
<path d="M90.2907 113.783C87.2823 113.783 84.9933 112.851 83.4237 110.987C81.8541 109.123 81.0693 106.523 81.0693 103.187V87.9799H87.4948V102.402C87.4948 104.103 87.9036 105.444 88.7211 106.425C89.5386 107.373 90.6177 107.847 91.9584 107.847C93.7896 107.847 95.2447 107.177 96.3238 105.836C97.4029 104.495 97.9424 102.795 97.9424 100.734V87.9799H104.368V112.998H98.3348V109.859H97.9424C97.1903 111.069 96.1276 112.033 94.7542 112.753C93.4135 113.44 91.9257 113.783 90.2907 113.783Z" fill="white"/>
<path d="M52.3533 77.8724H66.0873C68.0493 77.8724 69.8478 78.2812 71.4828 79.0988C73.1504 79.9164 74.4584 81.0283 75.4067 82.4345C76.355 83.8408 76.8292 85.3779 76.8292 87.0458C76.8292 88.8118 76.3877 90.3488 75.5048 91.657C74.6546 92.9324 73.5265 93.9135 72.1204 94.6003V94.9928C73.9516 95.6468 75.4067 96.6933 76.4858 98.1323C77.5649 99.5386 78.1045 101.239 78.1045 103.234C78.1045 105.164 77.5813 106.881 76.5349 108.385C75.5212 109.857 74.1314 111.001 72.3657 111.819C70.6326 112.604 68.7033 112.996 66.5778 112.996H52.3533V77.8724ZM65.5968 92.1966C67.0356 92.1966 68.1801 91.8041 69.0303 91.0193C69.9132 90.2017 70.3546 89.1878 70.3546 87.9778C70.3546 86.8005 69.9295 85.8194 69.0793 85.0345C68.2618 84.2169 67.1664 83.8081 65.793 83.8081H58.9751V92.1966H65.5968ZM66.3325 106.962C67.9348 106.962 69.1774 106.554 70.0603 105.736C70.9759 104.886 71.4337 103.79 71.4337 102.449C71.4337 101.108 70.9759 100.013 70.0603 99.1625C69.1447 98.3122 67.8367 97.887 66.1363 97.887H58.9751V106.962H66.3325Z" fill="white"/>
<path d="M175.952 82.2342C180.298 79.725 185.621 79.6466 190.028 81.9988L190.452 82.2342L190.731 82.3953C195.218 84.9855 197.981 89.7726 197.981 94.9529V95.2752C197.981 100.294 195.388 104.943 191.147 107.584L190.731 107.833L190.452 107.994C186.106 110.503 180.783 110.582 176.376 108.229L175.952 107.994L175.673 107.833C171.186 105.243 168.423 100.456 168.423 95.2752V94.9529C168.423 89.9345 171.016 85.2849 175.257 82.6443L175.673 82.3953L175.952 82.2342Z" fill="#EA4335" stroke="black" stroke-width="3"/>
<path d="M181.879 88.6012C182.426 87.5756 183.868 87.5437 184.471 88.5055L184.526 88.6012L185.666 90.7389C186.02 91.4029 186.534 91.9662 187.16 92.3785L187.435 92.5455L189.682 93.8062C190.64 94.3435 190.701 95.6695 189.862 96.3053L189.682 96.4225L187.435 97.6832C186.779 98.0514 186.226 98.5772 185.827 99.2115L185.666 99.4898L184.526 101.628C183.979 102.653 182.537 102.685 181.934 101.723L181.879 101.628L180.739 99.4898C180.385 98.8255 179.87 98.2625 179.244 97.8502L178.97 97.6832L176.722 96.4225C175.764 95.8852 175.704 94.5591 176.543 93.9234L176.722 93.8062L178.97 92.5455C179.626 92.1773 180.179 91.6515 180.578 91.0172L180.739 90.7389L181.879 88.6012Z" fill="white" stroke="black" stroke-width="3"/>
<path fill-rule="evenodd" clip-rule="evenodd" d="M152.111 170.34H61.3304C57.0104 170.34 53.4997 173.861 53.4997 178.216C53.4997 182.571 57.0104 186.092 61.3304 186.092H152.111C156.431 186.092 159.942 182.571 159.942 178.216C159.942 173.861 156.431 170.34 152.111 170.34ZM61.3304 169.379C56.4751 169.379 52.5391 173.336 52.5391 178.216C52.5391 183.096 56.4751 187.052 61.3304 187.052H152.111C156.966 187.052 160.902 183.096 160.902 178.216C160.902 173.336 156.966 169.379 152.111 169.379H61.3304Z" fill="white"/>
<path d="M68.6727 169.073L60.4 175.04C58.6666 176.29 58.2711 178.714 59.5167 180.454L59.5212 180.46C60.7668 182.2 63.1817 182.597 64.9151 181.347L73.1878 175.38C74.9212 174.13 75.3167 171.706 74.0711 169.966L74.0666 169.959C72.821 168.22 70.4061 167.823 68.6727 169.073Z" fill="#EA4335" stroke="#1E1E1E" stroke-width="2" stroke-miterlimit="10"/>
<path d="M59.5212 175.864L59.5167 175.87C58.2711 177.61 58.6666 180.034 60.4 181.284L68.6727 187.251C70.4061 188.502 72.821 188.105 74.0666 186.365L74.0711 186.358C75.3167 184.618 74.9212 182.194 73.1878 180.944L64.9151 174.977C63.1817 173.727 60.7668 174.124 59.5212 175.864Z" fill="#4285F4" stroke="#1E1E1E" stroke-width="2" stroke-miterlimit="10"/>
<path d="M88.6364 174.972L80.3636 180.939C78.6302 182.189 78.2348 184.613 79.4803 186.353L79.4849 186.359C80.7304 188.099 83.1453 188.496 84.8787 187.246L93.1515 181.279C94.8849 180.028 95.2803 177.604 94.0348 175.864L94.0302 175.858C92.7847 174.118 90.3698 173.721 88.6364 174.972Z" fill="#F9AB00" stroke="#1E1E1E" stroke-width="2" stroke-miterlimit="10"/>
<path d="M79.4849 169.963L79.4803 169.969C78.2348 171.709 78.6302 174.133 80.3636 175.383L88.6364 181.35C90.3698 182.6 92.7847 182.203 94.0302 180.463L94.0348 180.457C95.2803 178.717 94.8849 176.293 93.1515 175.043L84.8787 169.076C83.1453 167.826 80.7304 168.223 79.4849 169.963Z" fill="#34A853" stroke="#1E1E1E" stroke-width="2" stroke-miterlimit="10"/>
<path d="M105.356 184.434C104.291 184.434 103.35 184.134 102.534 183.533C101.718 182.932 101.146 182.082 100.817 180.983L102.976 180.133C103.146 180.779 103.435 181.295 103.843 181.68C104.251 182.065 104.761 182.258 105.373 182.258C105.883 182.258 106.32 182.133 106.682 181.884C107.045 181.623 107.226 181.266 107.226 180.813C107.226 180.36 107.051 179.991 106.699 179.708C106.359 179.413 105.747 179.102 104.863 178.773L104.115 178.501C103.333 178.229 102.665 177.815 102.109 177.26C101.554 176.693 101.276 175.985 101.276 175.135C101.276 174.5 101.441 173.922 101.769 173.401C102.098 172.88 102.563 172.472 103.163 172.177C103.764 171.871 104.444 171.718 105.203 171.718C106.303 171.718 107.17 171.979 107.804 172.5C108.439 173.01 108.875 173.611 109.113 174.302L107.09 175.152C106.966 174.778 106.745 174.466 106.427 174.217C106.121 173.956 105.725 173.826 105.237 173.826C104.739 173.826 104.325 173.945 103.996 174.183C103.679 174.41 103.52 174.71 103.52 175.084C103.52 175.447 103.673 175.758 103.979 176.019C104.285 176.268 104.79 176.512 105.492 176.75L106.257 177.005C107.311 177.368 108.116 177.849 108.671 178.45C109.238 179.039 109.521 179.816 109.521 180.779C109.521 181.572 109.317 182.247 108.909 182.802C108.501 183.346 107.974 183.754 107.328 184.026C106.694 184.298 106.036 184.434 105.356 184.434ZM116.2 184.434C115.248 184.434 114.415 184.23 113.701 183.822C112.998 183.414 112.449 182.825 112.052 182.054C111.667 181.283 111.474 180.371 111.474 179.317V171.99H113.752V179.453C113.752 180.292 113.962 180.972 114.381 181.493C114.812 182.003 115.418 182.258 116.2 182.258C116.982 182.258 117.583 182.003 118.002 181.493C118.433 180.972 118.648 180.292 118.648 179.453V171.99H120.926V179.317C120.926 180.326 120.733 181.215 120.348 181.986C119.963 182.757 119.413 183.357 118.699 183.788C117.985 184.219 117.152 184.434 116.2 184.434ZM129.262 184.434C128.083 184.434 127.006 184.156 126.032 183.601C125.057 183.034 124.286 182.269 123.72 181.306C123.164 180.331 122.887 179.255 122.887 178.076C122.887 176.897 123.164 175.826 123.72 174.863C124.286 173.888 125.057 173.123 126.032 172.568C127.006 172.001 128.083 171.718 129.262 171.718C131.098 171.718 132.616 172.381 133.818 173.707L132.203 175.271C131.421 174.353 130.446 173.894 129.279 173.894C128.519 173.894 127.828 174.07 127.205 174.421C126.581 174.761 126.088 175.248 125.726 175.883C125.374 176.518 125.199 177.249 125.199 178.076C125.199 178.903 125.374 179.634 125.726 180.269C126.088 180.904 126.581 181.397 127.205 181.748C127.828 182.088 128.519 182.258 129.279 182.258C130.559 182.258 131.63 181.725 132.492 180.66L134.124 182.207C133.523 182.932 132.809 183.488 131.982 183.873C131.166 184.247 130.259 184.434 129.262 184.434ZM136.249 171.99H140.686C141.479 171.99 142.182 172.154 142.794 172.483C143.417 172.812 143.899 173.271 144.239 173.86C144.579 174.438 144.749 175.095 144.749 175.832C144.749 176.614 144.499 177.311 144.001 177.923C143.513 178.524 142.896 178.96 142.148 179.232L142.131 179.351L145.395 184.026V184.162H142.76L139.615 179.589H138.544V184.162H136.249V171.99ZM140.669 177.481C141.19 177.481 141.615 177.322 141.944 177.005C142.272 176.688 142.437 176.285 142.437 175.798C142.437 175.333 142.278 174.937 141.961 174.608C141.655 174.279 141.235 174.115 140.703 174.115H138.544V177.481H140.669ZM147.023 171.99H154.741V174.166H149.318V176.988H154.197V179.164H149.318V181.986H154.741V184.162H147.023V171.99Z" fill="white"/>
<path fill-rule="evenodd" clip-rule="evenodd" d="M189.899 170.34H171.402C167.173 170.34 163.708 173.845 163.708 178.216C163.708 182.587 167.173 186.092 171.402 186.092H189.899C194.128 186.092 197.593 182.587 197.593 178.216C197.593 173.845 194.128 170.34 189.899 170.34ZM171.402 169.379C166.621 169.379 162.745 173.336 162.745 178.216C162.745 183.096 166.621 187.052 171.402 187.052H189.899C194.68 187.052 198.556 183.096 198.556 178.216C198.556 173.336 194.68 169.379 189.899 169.379H171.402Z" fill="white"/>
<path d="M190.753 182.381C190.351 182.381 189.963 182.306 189.59 182.157C189.218 182.001 188.89 181.77 188.606 181.464C188.33 181.151 188.14 180.767 188.036 180.312L189.356 179.798C189.445 180.178 189.609 180.48 189.848 180.703C190.086 180.92 190.384 181.028 190.742 181.028C191.1 181.028 191.398 180.908 191.637 180.67C191.875 180.431 191.995 180.129 191.995 179.764C191.995 179.406 191.875 179.108 191.637 178.869C191.406 178.623 191.108 178.5 190.742 178.5C190.519 178.5 190.314 178.549 190.127 178.646C189.948 178.735 189.795 178.858 189.669 179.015L188.248 178.377L188.685 174.553H193.001V175.839H189.904L189.624 177.628L189.713 177.65C190.086 177.345 190.53 177.192 191.044 177.192C191.469 177.192 191.864 177.3 192.23 177.516C192.602 177.732 192.901 178.038 193.124 178.433C193.348 178.821 193.46 179.265 193.46 179.764C193.46 180.271 193.344 180.722 193.113 181.117C192.882 181.512 192.561 181.822 192.151 182.045C191.741 182.269 191.275 182.381 190.753 182.381Z" fill="white"/>
<path d="M181.888 180.872C182.134 180.626 182.608 180.153 183.308 179.452C184.017 178.744 184.472 178.282 184.673 178.065C184.941 177.775 185.124 177.532 185.221 177.338C185.325 177.145 185.377 176.925 185.377 176.679C185.377 176.418 185.28 176.198 185.087 176.019C184.893 175.84 184.636 175.75 184.315 175.75C184.002 175.75 183.748 175.84 183.554 176.019C183.361 176.198 183.223 176.421 183.141 176.69L181.821 176.142C181.903 175.851 182.052 175.571 182.268 175.303C182.492 175.027 182.779 174.804 183.13 174.632C183.48 174.461 183.883 174.375 184.337 174.375C184.844 174.375 185.288 174.476 185.668 174.677C186.048 174.871 186.343 175.139 186.552 175.482C186.76 175.818 186.865 176.194 186.865 176.612C186.865 177.439 186.462 178.248 185.657 179.038C185.329 179.359 184.721 179.963 183.834 180.85L183.868 180.917H186.965V182.203H181.888V180.872Z" fill="white"/>
<path d="M177.639 182.382C176.998 182.382 176.435 182.211 175.95 181.868C175.466 181.517 175.089 181.04 174.821 180.436C174.56 179.825 174.429 179.139 174.429 178.379C174.429 177.618 174.56 176.936 174.821 176.332C175.089 175.721 175.466 175.243 175.95 174.9C176.435 174.55 176.998 174.375 177.639 174.375C178.28 174.375 178.843 174.55 179.328 174.9C179.812 175.243 180.185 175.721 180.446 176.332C180.714 176.936 180.849 177.618 180.849 178.379C180.849 179.139 180.714 179.825 180.446 180.436C180.185 181.04 179.812 181.517 179.328 181.868C178.843 182.211 178.28 182.382 177.639 182.382ZM177.639 181.007C177.997 181.007 178.306 180.895 178.567 180.671C178.836 180.44 179.037 180.127 179.171 179.732C179.313 179.329 179.384 178.878 179.384 178.379C179.384 177.603 179.227 176.973 178.914 176.489C178.601 175.996 178.176 175.75 177.639 175.75C177.11 175.75 176.688 175.996 176.375 176.489C176.062 176.981 175.906 177.611 175.906 178.379C175.906 178.878 175.973 179.329 176.107 179.732C176.249 180.127 176.45 180.44 176.711 180.671C176.979 180.895 177.289 181.007 177.639 181.007Z" fill="white"/>
<path d="M168.238 180.872C168.484 180.626 168.957 180.153 169.658 179.452C170.366 178.744 170.821 178.282 171.022 178.065C171.291 177.775 171.473 177.532 171.57 177.338C171.675 177.145 171.727 176.925 171.727 176.679C171.727 176.418 171.63 176.198 171.436 176.019C171.242 175.84 170.985 175.75 170.665 175.75C170.351 175.75 170.098 175.84 169.904 176.019C169.71 176.198 169.572 176.421 169.49 176.69L168.171 176.142C168.253 175.851 168.402 175.571 168.618 175.303C168.842 175.027 169.129 174.804 169.479 174.632C169.83 174.461 170.232 174.375 170.687 174.375C171.194 174.375 171.638 174.476 172.018 174.677C172.398 174.871 172.692 175.139 172.901 175.482C173.11 175.818 173.214 176.194 173.214 176.612C173.214 177.439 172.812 178.248 172.007 179.038C171.679 179.359 171.071 179.963 170.184 180.85L170.217 180.917H173.315V182.203H168.238V180.872Z" fill="white"/>
</svg>
