<svg width="254" height="269" viewBox="0 0 254 269" fill="none" xmlns="http://www.w3.org/2000/svg">
<rect x="2.5" y="2" width="249" height="239" rx="9" fill="black" stroke="#912088" stroke-width="4"/>
<rect x="-2" y="2" width="189" height="48" rx="13" transform="matrix(1 0 0 -1 34.5 269)" fill="black" stroke="#912088" stroke-width="4"/>
<path d="M77.1087 237.57L74.4687 239.462L73.5007 238.032L77.7907 234.952H78.9787V250H77.1087V237.57ZM82.5622 249.494L89.5802 236.734H81.8582V234.952H91.5162V236.866L84.2122 250.352L82.5622 249.494ZM103.764 250.352C102.767 250.352 101.857 250.095 101.036 249.582C100.229 249.069 99.5913 248.365 99.122 247.47C98.6526 246.561 98.418 245.534 98.418 244.39C98.418 243.261 98.6526 242.241 99.122 241.332C99.5913 240.423 100.229 239.711 101.036 239.198C101.857 238.685 102.767 238.428 103.764 238.428C104.629 238.428 105.399 238.626 106.074 239.022C106.749 239.403 107.262 239.88 107.614 240.452H107.702L107.614 238.89V234.248H109.484V250H107.702V248.35H107.614C107.262 248.907 106.749 249.384 106.074 249.78C105.399 250.161 104.629 250.352 103.764 250.352ZM103.984 248.658C104.644 248.658 105.253 248.482 105.81 248.13C106.382 247.778 106.837 247.279 107.174 246.634C107.526 245.989 107.702 245.241 107.702 244.39C107.702 243.539 107.526 242.791 107.174 242.146C106.837 241.501 106.382 241.002 105.81 240.65C105.253 240.298 104.644 240.122 103.984 240.122C103.339 240.122 102.73 240.298 102.158 240.65C101.586 241.002 101.124 241.508 100.772 242.168C100.435 242.813 100.266 243.554 100.266 244.39C100.266 245.226 100.435 245.974 100.772 246.634C101.124 247.279 101.586 247.778 102.158 248.13C102.73 248.482 103.339 248.658 103.984 248.658ZM117.133 250.352C116.062 250.352 115.102 250.095 114.251 249.582C113.4 249.069 112.733 248.365 112.249 247.47C111.78 246.561 111.545 245.541 111.545 244.412C111.545 243.327 111.765 242.329 112.205 241.42C112.66 240.511 113.298 239.785 114.119 239.242C114.94 238.699 115.894 238.428 116.979 238.428C118.079 238.428 119.032 238.677 119.839 239.176C120.646 239.66 121.262 240.335 121.687 241.2C122.127 242.065 122.347 243.055 122.347 244.17C122.347 244.39 122.325 244.581 122.281 244.742H113.415C113.459 245.593 113.664 246.311 114.031 246.898C114.398 247.485 114.86 247.925 115.417 248.218C115.989 248.511 116.583 248.658 117.199 248.658C118.636 248.658 119.744 247.983 120.521 246.634L122.105 247.404C121.621 248.313 120.961 249.032 120.125 249.56C119.304 250.088 118.306 250.352 117.133 250.352ZM120.367 243.202C120.338 242.733 120.206 242.263 119.971 241.794C119.736 241.325 119.362 240.929 118.849 240.606C118.35 240.283 117.72 240.122 116.957 240.122C116.077 240.122 115.329 240.408 114.713 240.98C114.112 241.537 113.716 242.278 113.525 243.202H120.367ZM130.023 234.248H132.729L137.745 247.162H137.833L142.849 234.248H145.555V250H143.707V239.99L143.795 236.998H143.707L138.559 250H137.019L131.871 236.998H131.783L131.871 239.99V250H130.023V234.248ZM151.969 250.352C151.148 250.352 150.414 250.191 149.769 249.868C149.124 249.545 148.625 249.105 148.273 248.548C147.921 247.976 147.745 247.331 147.745 246.612C147.745 245.424 148.192 244.5 149.087 243.84C149.982 243.165 151.111 242.828 152.475 242.828C153.15 242.828 153.773 242.901 154.345 243.048C154.932 243.195 155.379 243.363 155.687 243.554V242.872C155.687 242.036 155.394 241.369 154.807 240.87C154.22 240.357 153.48 240.1 152.585 240.1C151.954 240.1 151.375 240.239 150.847 240.518C150.319 240.782 149.901 241.156 149.593 241.64L148.185 240.584C148.625 239.909 149.226 239.381 149.989 239C150.766 238.619 151.624 238.428 152.563 238.428C154.088 238.428 155.284 238.831 156.149 239.638C157.029 240.43 157.469 241.515 157.469 242.894V250H155.687V248.394H155.599C155.276 248.937 154.792 249.399 154.147 249.78C153.502 250.161 152.776 250.352 151.969 250.352ZM152.145 248.702C152.776 248.702 153.362 248.541 153.905 248.218C154.448 247.895 154.88 247.463 155.203 246.92C155.526 246.377 155.687 245.783 155.687 245.138C155.335 244.903 154.902 244.713 154.389 244.566C153.876 244.419 153.333 244.346 152.761 244.346C151.734 244.346 150.957 244.559 150.429 244.984C149.916 245.409 149.659 245.959 149.659 246.634C149.659 247.25 149.894 247.749 150.363 248.13C150.832 248.511 151.426 248.702 152.145 248.702ZM163.288 249.296L158.646 238.78H160.67L164.19 247.118H164.234L167.622 238.78H169.646L162.716 254.752H160.78L163.288 249.296ZM175.94 250.352C174.84 250.352 173.85 250.088 172.97 249.56C172.09 249.032 171.4 248.313 170.902 247.404C170.418 246.495 170.176 245.49 170.176 244.39C170.176 243.29 170.418 242.285 170.902 241.376C171.4 240.467 172.09 239.748 172.97 239.22C173.85 238.692 174.84 238.428 175.94 238.428C177.04 238.428 178.03 238.692 178.91 239.22C179.79 239.748 180.472 240.467 180.956 241.376C181.454 242.285 181.704 243.29 181.704 244.39C181.704 245.49 181.454 246.495 180.956 247.404C180.472 248.313 179.79 249.032 178.91 249.56C178.03 250.088 177.04 250.352 175.94 250.352ZM175.94 248.658C176.629 248.658 177.267 248.489 177.854 248.152C178.455 247.8 178.932 247.301 179.284 246.656C179.65 246.011 179.834 245.255 179.834 244.39C179.834 243.525 179.65 242.769 179.284 242.124C178.932 241.479 178.455 240.987 177.854 240.65C177.267 240.298 176.629 240.122 175.94 240.122C175.25 240.122 174.605 240.298 174.004 240.65C173.402 240.987 172.918 241.479 172.552 242.124C172.2 242.769 172.024 243.525 172.024 244.39C172.024 245.255 172.2 246.011 172.552 246.656C172.918 247.301 173.402 247.8 174.004 248.152C174.605 248.489 175.25 248.658 175.94 248.658Z" fill="white"/>
<path d="M189.405 67.5655C187.206 67.5655 185.244 67.0783 183.518 66.104C181.792 65.1019 180.442 63.7518 179.468 62.0538C178.521 60.3279 178.048 58.3932 178.048 56.2497C178.048 54.1341 178.521 52.2134 179.468 50.4875C180.442 48.7616 181.792 47.4115 183.518 46.4372C185.244 45.435 187.206 44.934 189.405 44.934C191.577 44.934 193.525 45.435 195.251 46.4372C196.977 47.4115 198.313 48.7616 199.26 50.4875C200.234 52.2134 200.721 54.1341 200.721 56.2497C200.721 58.3932 200.234 60.3279 199.26 62.0538C198.313 63.7518 196.977 65.1019 195.251 66.104C193.525 67.0783 191.577 67.5655 189.405 67.5655ZM189.405 62.5131C190.463 62.5131 191.438 62.2625 192.328 61.7615C193.219 61.2604 193.929 60.5366 194.458 59.5902C194.987 58.6437 195.251 57.5302 195.251 56.2497C195.251 54.9971 194.987 53.8975 194.458 52.951C193.929 52.0046 193.219 51.2808 192.328 50.7797C191.438 50.2787 190.463 50.0281 189.405 50.0281C188.348 50.0281 187.373 50.2787 186.483 50.7797C185.592 51.2808 184.868 52.0046 184.311 52.951C183.783 53.8975 183.518 54.9971 183.518 56.2497C183.518 57.5024 183.783 58.6159 184.311 59.5902C184.868 60.5366 185.592 61.2604 186.483 61.7615C187.373 62.2625 188.348 62.5131 189.405 62.5131Z" fill="#912088"/>
<path d="M171.77 67.2306C170.712 67.2306 169.738 67.0775 168.847 66.7713C167.956 66.4372 167.232 65.9918 166.676 65.4351C165.367 64.1824 164.713 62.4008 164.713 60.0904V50.2778H160.997V45.6012H164.713V39.5884H170.183V45.6012H175.402V50.2778H170.183V59.0882C170.183 60.1739 170.42 60.9533 170.893 61.4266C171.283 61.8719 171.951 62.0946 172.897 62.0946C173.426 62.0946 173.857 62.025 174.191 61.8859C174.553 61.7467 175.013 61.5101 175.569 61.176V66.5207C174.372 66.994 173.106 67.2306 171.77 67.2306Z" fill="#912088"/>
<path d="M175.236 80.5249C179.582 78.0158 184.905 77.9372 189.312 80.2896L189.736 80.5249L191.501 81.5444C195.987 84.1346 198.751 88.9209 198.751 94.1011V96.1401C198.751 101.158 196.157 105.807 191.917 108.448L191.501 108.698L189.736 109.716C185.39 112.226 180.066 112.304 175.659 109.952L175.236 109.716H175.235L173.471 108.698C168.984 106.108 166.221 101.32 166.221 96.1401V94.1011C166.221 89.0827 168.815 84.4339 173.056 81.7935L173.471 81.5444L175.236 80.5249Z" fill="#912088" stroke="black" stroke-width="3"/>
<path d="M181.163 87.4948C181.71 86.4693 183.152 86.4375 183.755 87.3991L183.81 87.4948L185.334 90.3513C185.688 91.0153 186.202 91.5787 186.828 91.9909L187.102 92.1579L190.051 93.8112C191.009 94.3484 191.069 95.6744 190.231 96.3102L190.051 96.4284L187.102 98.0817C186.446 98.4499 185.894 98.9759 185.495 99.61L185.334 99.8884L183.81 102.744C183.263 103.769 181.821 103.802 181.218 102.841L181.163 102.744L179.64 99.8884C179.286 99.2241 178.771 98.6611 178.145 98.2487L177.871 98.0817L174.922 96.4284C173.964 95.8913 173.904 94.5653 174.742 93.9294L174.922 93.8112L177.871 92.1579C178.527 91.7897 179.079 91.2637 179.478 90.6296L179.64 90.3513L181.163 87.4948Z" fill="white" stroke="black" stroke-width="3"/>
<path d="M135.516 67.5651C133.595 67.5651 131.842 67.0919 130.255 66.1454C128.696 65.1711 127.457 63.8349 126.539 62.1369C125.648 60.411 125.203 58.4485 125.203 56.2493C125.203 54.078 125.648 52.1294 126.539 50.4035C127.457 48.6776 128.696 47.3415 130.255 46.395C131.842 45.4207 133.595 44.9336 135.516 44.9336C136.964 44.9336 138.244 45.2537 139.358 45.8939C140.471 46.5064 141.32 47.2719 141.905 48.1905H142.239L141.905 45.1841V37H147.333V66.897H142.239V64.3499H141.905C141.348 65.2685 140.499 66.034 139.358 66.6465C138.244 67.2589 136.964 67.5651 135.516 67.5651ZM136.435 62.5127C137.465 62.5127 138.425 62.2482 139.316 61.7193C140.207 61.1904 140.916 60.4527 141.445 59.5063C141.974 58.5598 142.239 57.4742 142.239 56.2493C142.239 55.0245 141.974 53.9388 141.445 52.9924C140.916 52.0459 140.207 51.3222 139.316 50.8211C138.425 50.2922 137.465 50.0277 136.435 50.0277C135.433 50.0277 134.486 50.2922 133.595 50.8211C132.705 51.3222 131.995 52.0459 131.466 52.9924C130.937 53.9388 130.673 55.0245 130.673 56.2493C130.673 57.4742 130.937 58.5598 131.466 59.5063C131.995 60.4527 132.705 61.1904 133.595 61.7193C134.486 62.2482 135.433 62.5127 136.435 62.5127Z" fill="#912088"/>
<path d="M109.685 67.5655C107.43 67.5655 105.579 66.9113 104.131 65.603C102.684 64.2668 101.96 62.527 101.96 60.3835C101.96 58.9638 102.336 57.7112 103.087 56.6255C103.839 55.5399 104.869 54.7048 106.177 54.1202C107.486 53.5356 108.933 53.2433 110.52 53.2433C112.719 53.2433 114.598 53.5634 116.157 54.2037V53.2851C116.157 52.1159 115.711 51.1695 114.821 50.4457C113.958 49.7219 112.788 49.3601 111.313 49.3601C110.311 49.3601 109.337 49.5967 108.39 50.0699C107.472 50.5153 106.706 51.1138 106.094 51.8654L102.586 49.1095C103.616 47.7733 104.911 46.7434 106.47 46.0196C108.028 45.2958 109.726 44.934 111.564 44.934C114.821 44.934 117.298 45.6856 118.996 47.1888C120.694 48.692 121.543 50.8911 121.543 53.7861V66.8974H116.157V64.7261H115.823C115.182 65.5612 114.333 66.2432 113.276 66.7721C112.246 67.301 111.049 67.5655 109.685 67.5655ZM110.979 63.3064C112.566 63.3064 113.818 62.8054 114.737 61.8032C115.683 60.7732 116.157 59.5763 116.157 58.2122C114.737 57.5441 113.248 57.2101 111.689 57.2101C108.85 57.2101 107.43 58.2679 107.43 60.3835C107.43 61.2465 107.736 61.9563 108.349 62.5131C108.961 63.042 109.838 63.3064 110.979 63.3064Z" fill="#912088"/>
<path d="M87.6688 67.5655C85.4697 67.5655 83.5072 67.0783 81.7814 66.104C80.0555 65.1019 78.7054 63.7518 77.7312 62.0538C76.7847 60.3279 76.3115 58.3932 76.3115 56.2497C76.3115 54.1341 76.7847 52.2134 77.7312 50.4875C78.7054 48.7616 80.0555 47.4115 81.7814 46.4372C83.5072 45.435 85.4697 44.934 87.6688 44.934C89.84 44.934 91.7886 45.435 93.5144 46.4372C95.2403 47.4115 96.5765 48.7616 97.5229 50.4875C98.4972 52.2134 98.9843 54.1341 98.9843 56.2497C98.9843 58.3932 98.4972 60.3279 97.5229 62.0538C96.5765 63.7518 95.2403 65.1019 93.5144 66.104C91.7886 67.0783 89.84 67.5655 87.6688 67.5655ZM87.6688 62.5131C88.7266 62.5131 89.7008 62.2625 90.5916 61.7615C91.4824 61.2604 92.1922 60.5366 92.7211 59.5902C93.25 58.6437 93.5144 57.5302 93.5144 56.2497C93.5144 54.9971 93.25 53.8975 92.7211 52.951C92.1922 52.0046 91.4824 51.2808 90.5916 50.7797C89.7008 50.2787 88.7266 50.0281 87.6688 50.0281C86.611 50.0281 85.6367 50.2787 84.7459 50.7797C83.8552 51.2808 83.1314 52.0046 82.5747 52.951C82.0458 53.8975 81.7814 54.9971 81.7814 56.2497C81.7814 57.5024 82.0458 58.6159 82.5747 59.5902C83.1314 60.5366 83.8552 61.2604 84.7459 61.7615C85.6367 62.2625 86.611 62.5131 87.6688 62.5131Z" fill="#912088"/>
<path d="M52.1775 37H63.0755C65.0241 37 66.7499 37.4036 68.2531 38.2109C69.7841 39.0182 70.9671 40.1456 71.8022 41.5931C72.6373 43.0128 73.0549 44.6274 73.0549 46.4368C73.0549 48.3575 72.4425 50.0695 71.2177 51.5727C70.0207 53.0481 68.5036 54.1198 66.6664 54.7879L66.6247 55.0802L74.6416 66.563V66.897H68.1696L60.445 55.6647H57.8144V66.897H52.1775V37ZM63.0338 50.4871C64.3142 50.4871 65.3581 50.0973 66.1654 49.3179C66.9726 48.5385 67.3762 47.5502 67.3762 46.3533C67.3762 45.2119 66.9865 44.2376 66.2071 43.4304C65.4555 42.6231 64.4256 42.2194 63.1173 42.2194H57.8144V50.4871H63.0338Z" fill="#912088"/>
<path d="M193.392 123.307H199.998V158.346H193.392V123.307Z" fill="white"/>
<path d="M169.872 123.307H177.456L190.618 158.346H183.328L180.392 149.977H166.985L164.049 158.346H156.759L169.872 123.307ZM178.239 143.909L175.156 135.101L173.884 130.892H173.493L172.22 135.101L169.089 143.909H178.239Z" fill="white"/>
<path d="M123.65 123.307H130.06V132.165L129.668 136.52H130.06C130.777 135.345 131.821 134.399 133.191 133.682C134.561 132.964 136.045 132.605 137.644 132.605C140.677 132.605 142.993 133.518 144.592 135.345C146.223 137.14 147.038 139.636 147.038 142.833V158.346H140.628V143.616C140.628 142.017 140.188 140.777 139.307 139.897C138.459 139.016 137.317 138.575 135.882 138.575C134.186 138.575 132.783 139.26 131.674 140.631C130.598 142.001 130.06 143.681 130.06 145.671V158.346H123.65V123.307Z" fill="white"/>
<path d="M115.78 158.738C114.541 158.738 113.399 158.558 112.355 158.199C111.311 157.808 110.463 157.286 109.811 156.633C108.278 155.165 107.511 153.077 107.511 150.369V138.869H103.156V133.389H107.511V126.342H113.921V133.389H120.037V138.869H113.921V149.195C113.921 150.467 114.198 151.381 114.753 151.935C115.21 152.457 115.992 152.718 117.101 152.718C117.721 152.718 118.227 152.637 118.618 152.474C119.042 152.311 119.581 152.033 120.233 151.642V157.906C118.83 158.46 117.346 158.738 115.78 158.738Z" fill="white"/>
<path d="M97.2115 130.648C96.0698 130.648 95.0912 130.24 94.2757 129.424C93.4602 128.609 93.0525 127.63 93.0525 126.488C93.0525 125.346 93.4602 124.384 94.2757 123.601C95.0912 122.785 96.0698 122.378 97.2115 122.378C98.3532 122.378 99.3155 122.785 100.098 123.601C100.914 124.384 101.322 125.346 101.322 126.488C101.322 127.63 100.914 128.609 100.098 129.424C99.3155 130.24 98.3532 130.648 97.2115 130.648ZM93.9821 133.388H100.392V158.346H93.9821V133.388Z" fill="white"/>
<path d="M52 133.387H59.1927L63.4985 149.585H63.841L68.8318 133.387H75.3884L80.3793 149.585H80.7218L85.0276 133.387H92.1224L84.1469 158.345H77.2478L72.1591 142.196H71.8166L66.7768 158.345H59.9266L52 133.387Z" fill="white"/>
<path d="M142.322 113.415C140.071 113.415 138.016 112.86 136.157 111.751C134.33 110.609 132.878 109.043 131.802 107.053C130.758 105.03 130.236 102.73 130.236 100.153C130.236 97.6082 130.758 95.3245 131.802 93.3018C132.878 91.2791 134.33 89.7131 136.157 88.6039C138.016 87.4621 140.071 86.8911 142.322 86.8911C144.018 86.8911 145.518 87.2663 146.823 88.0167C148.128 88.7344 149.123 89.6316 149.808 90.7082H150.199L149.808 87.1848V77.5932H156.169V112.632H150.199V109.647H149.808C149.156 110.723 148.161 111.62 146.823 112.338C145.518 113.056 144.018 113.415 142.322 113.415ZM143.398 107.493C144.605 107.493 145.73 107.183 146.774 106.564C147.818 105.944 148.65 105.079 149.27 103.97C149.889 102.861 150.199 101.588 150.199 100.153C150.199 98.7175 149.889 97.4451 149.27 96.3359C148.65 95.2267 147.818 94.3784 146.774 93.7912C145.73 93.1713 144.605 92.8614 143.398 92.8614C142.224 92.8614 141.115 93.1713 140.071 93.7912C139.027 94.3784 138.195 95.2267 137.575 96.3359C136.956 97.4451 136.646 98.7175 136.646 100.153C136.646 101.588 136.956 102.861 137.575 103.97C138.195 105.079 139.027 105.944 140.071 106.564C141.115 107.183 142.224 107.493 143.398 107.493Z" fill="white"/>
<path d="M121.091 77.5932H127.501V112.632H121.091V77.5932Z" fill="white"/>
<path d="M113.147 84.9341C112.005 84.9341 111.027 84.5263 110.211 83.7107C109.396 82.8951 108.988 81.9163 108.988 80.7745C108.988 79.6326 109.396 78.6702 110.211 77.8872C111.027 77.0716 112.005 76.6638 113.147 76.6638C114.289 76.6638 115.251 77.0716 116.034 77.8872C116.849 78.6702 117.257 79.6326 117.257 80.7745C117.257 81.9163 116.849 82.8951 116.034 83.7107C115.251 84.5263 114.289 84.9341 113.147 84.9341ZM109.918 87.6745H116.327V112.632H109.918V87.6745Z" fill="white"/>
<path d="M91.1955 113.414C88.1945 113.414 85.9111 112.484 84.3454 110.624C82.7796 108.765 81.9967 106.171 81.9967 102.843V87.6732H88.4065V102.06C88.4065 103.757 88.8143 105.095 89.6298 106.073C90.4453 107.019 91.5217 107.492 92.8591 107.492C94.6859 107.492 96.1374 106.824 97.2139 105.486C98.2904 104.148 98.8286 102.452 98.8286 100.397V87.6732H105.238V112.631H99.22V109.499H98.8286C98.0783 110.706 97.0182 111.668 95.6481 112.386C94.3107 113.071 92.8265 113.414 91.1955 113.414Z" fill="white"/>
<path d="M53.3495 77.5932H67.0498C69.007 77.5932 70.8011 78.001 72.4321 78.8166C74.0957 79.6322 75.4005 80.7414 76.3465 82.1443C77.2924 83.5471 77.7654 85.0805 77.7654 86.7443C77.7654 88.506 77.3251 90.0394 76.4443 91.3444C75.5962 92.6167 74.4708 93.5954 73.0682 94.2805V94.672C74.8949 95.3245 76.3465 96.3685 77.4229 97.804C78.4994 99.2068 79.0376 100.903 79.0376 102.893C79.0376 104.818 78.5157 106.531 77.4718 108.032C76.4606 109.5 75.0743 110.642 73.3128 111.457C71.584 112.24 69.6594 112.632 67.5391 112.632H53.3495V77.5932ZM66.5605 91.8827C67.9958 91.8827 69.1375 91.4912 69.9856 90.7082C70.8663 89.8926 71.3067 88.8812 71.3067 87.6741C71.3067 86.4996 70.8826 85.5209 70.0345 84.7379C69.219 83.9223 68.1263 83.5145 66.7562 83.5145H59.955V91.8827H66.5605ZM67.2944 106.613C68.8928 106.613 70.1324 106.205 71.0131 105.389C71.9265 104.541 72.3831 103.448 72.3831 102.11C72.3831 100.773 71.9265 99.6799 71.0131 98.8316C70.0998 97.9834 68.795 97.5593 67.0987 97.5593H59.955V106.613H67.2944Z" fill="white"/>
<path fill-rule="evenodd" clip-rule="evenodd" d="M152.865 169.837H62.3063C57.9969 169.837 54.4947 173.35 54.4947 177.694C54.4947 182.038 57.9969 185.551 62.3063 185.551H152.865C157.174 185.551 160.676 182.038 160.676 177.694C160.676 173.35 157.174 169.837 152.865 169.837ZM62.3063 168.879C57.4628 168.879 53.5364 172.825 53.5364 177.694C53.5364 182.562 57.4628 186.509 62.3063 186.509H152.865C157.708 186.509 161.635 182.562 161.635 177.694C161.635 172.825 157.708 168.879 152.865 168.879H62.3063Z" fill="white"/>
<path d="M72.2736 170.948L65.2485 175.002C63.7765 175.851 63.4407 177.498 64.4984 178.68L64.5023 178.685C65.56 179.867 67.6107 180.136 69.0827 179.287L76.1077 175.233C77.5797 174.383 77.9155 172.737 76.8578 171.554L76.854 171.55C75.7963 170.368 73.7456 170.098 72.2736 170.948Z" fill="#EA4335" stroke="#1E1E1E" stroke-width="2" stroke-miterlimit="10"/>
<path d="M64.5023 175.559L64.4984 175.564C63.4407 176.746 63.7765 178.393 65.2485 179.242L72.2736 183.296C73.7456 184.146 75.7963 183.876 76.854 182.694L76.8578 182.69C77.9155 181.507 77.5797 179.861 76.1077 179.011L69.0827 174.957C67.6107 174.108 65.56 174.377 64.5023 175.559Z" fill="#4285F4" stroke="#1E1E1E" stroke-width="2" stroke-miterlimit="10"/>
<path d="M89.2258 174.955L82.2007 179.009C80.7288 179.858 80.3929 181.505 81.4506 182.687L81.4545 182.691C82.5122 183.874 84.5629 184.143 86.0349 183.294L93.06 179.24C94.532 178.39 94.8678 176.743 93.8101 175.561L93.8062 175.557C92.7485 174.375 90.6978 174.105 89.2258 174.955Z" fill="#F9AB00" stroke="#1E1E1E" stroke-width="2" stroke-miterlimit="10"/>
<path d="M81.4545 171.553L81.4506 171.557C80.3929 172.739 80.7288 174.386 82.2007 175.235L89.2258 179.29C90.6978 180.139 92.7485 179.869 93.8062 178.687L93.8101 178.683C94.8678 177.501 94.532 175.854 93.06 175.004L86.0349 170.95C84.5629 170.101 82.5122 170.37 81.4545 171.553Z" fill="#34A853" stroke="#1E1E1E" stroke-width="2" stroke-miterlimit="10"/>
<path d="M135.628 173.139H137.534L140.842 181.944H139.01L138.272 179.841H134.903L134.165 181.944H132.333L135.628 173.139ZM137.731 178.316L136.956 176.103L136.636 175.045H136.538L136.218 176.103L135.431 178.316H137.731Z" fill="white"/>
<path d="M128.526 182.14C127.829 182.14 127.218 181.952 126.694 181.575C126.177 181.19 125.816 180.669 125.611 180.013L127.136 179.386C127.243 179.771 127.415 180.066 127.653 180.271C127.89 180.468 128.181 180.566 128.526 180.566C128.903 180.566 129.198 180.444 129.411 180.198C129.632 179.952 129.743 179.607 129.743 179.165V173.139H131.403V179.152C131.403 179.792 131.276 180.337 131.022 180.788C130.768 181.23 130.423 181.567 129.989 181.796C129.554 182.026 129.067 182.14 128.526 182.14Z" fill="white"/>
<path d="M122.625 173.139H124.285V181.944H122.625V173.139Z" fill="white"/>
<path d="M114.831 173.139H118.041C118.614 173.139 119.123 173.258 119.565 173.496C120.016 173.734 120.365 174.066 120.611 174.492C120.856 174.91 120.979 175.385 120.979 175.918C120.979 176.484 120.799 176.988 120.438 177.431C120.086 177.865 119.639 178.181 119.098 178.378L119.086 178.464L121.447 181.845V181.944H119.541L117.266 178.636H116.491V181.944H114.831V173.139ZM118.028 177.111C118.405 177.111 118.713 176.996 118.951 176.767C119.188 176.537 119.307 176.246 119.307 175.894C119.307 175.558 119.192 175.271 118.963 175.033C118.741 174.795 118.438 174.676 118.053 174.676H116.491V177.111H118.028Z" fill="white"/>
<path d="M108.429 173.139H110.335L113.643 181.944H111.811L111.073 179.841H107.704L106.966 181.944H105.134L108.429 173.139ZM110.532 178.316L109.757 176.103L109.437 175.045H109.339L109.019 176.103L108.232 178.316H110.532Z" fill="white"/>
<path d="M101.316 174.713H98.8569V173.139H105.435V174.713H102.976V181.944H101.316V174.713Z" fill="white"/>
<path fill-rule="evenodd" clip-rule="evenodd" d="M190.561 169.837H172.108C167.89 169.837 164.433 173.334 164.433 177.694C164.433 182.054 167.89 185.551 172.108 185.551H190.561C194.779 185.551 198.236 182.054 198.236 177.694C198.236 173.334 194.779 169.837 190.561 169.837ZM172.108 168.879C167.339 168.879 163.473 172.825 163.473 177.694C163.473 182.562 167.339 186.509 172.108 186.509H190.561C195.33 186.509 199.196 182.562 199.196 177.694C199.196 172.825 195.33 168.879 190.561 168.879H172.108Z" fill="white"/>
<path d="M191.412 181.85C191.01 181.85 190.623 181.776 190.252 181.627C189.88 181.471 189.553 181.24 189.27 180.935C188.995 180.623 188.805 180.24 188.701 179.786L190.017 179.273C190.107 179.652 190.27 179.953 190.508 180.177C190.746 180.392 191.044 180.5 191.401 180.5C191.758 180.5 192.055 180.381 192.293 180.143C192.531 179.905 192.65 179.604 192.65 179.239C192.65 178.882 192.531 178.585 192.293 178.347C192.063 178.102 191.765 177.979 191.401 177.979C191.178 177.979 190.973 178.027 190.787 178.124C190.609 178.213 190.456 178.336 190.33 178.492L188.913 177.856L189.348 174.041H193.654V175.324H190.564L190.285 177.109L190.374 177.131C190.746 176.826 191.189 176.674 191.702 176.674C192.126 176.674 192.52 176.781 192.884 176.997C193.256 177.213 193.554 177.518 193.777 177.912C194 178.299 194.112 178.741 194.112 179.239C194.112 179.745 193.996 180.195 193.766 180.589C193.535 180.984 193.215 181.292 192.806 181.515C192.397 181.738 191.932 181.85 191.412 181.85Z" fill="white"/>
<path d="M182.569 180.344C182.814 180.099 183.286 179.626 183.985 178.927C184.692 178.221 185.146 177.759 185.346 177.544C185.614 177.254 185.796 177.012 185.893 176.819C185.997 176.625 186.049 176.406 186.049 176.16C186.049 175.9 185.953 175.681 185.759 175.502C185.566 175.324 185.309 175.234 184.989 175.234C184.677 175.234 184.424 175.324 184.231 175.502C184.038 175.681 183.9 175.904 183.818 176.172L182.502 175.625C182.584 175.335 182.732 175.056 182.948 174.788C183.171 174.513 183.457 174.29 183.807 174.119C184.157 173.948 184.558 173.862 185.012 173.862C185.518 173.862 185.96 173.963 186.339 174.163C186.719 174.357 187.012 174.625 187.221 174.967C187.429 175.301 187.533 175.677 187.533 176.093C187.533 176.919 187.131 177.726 186.328 178.514C186.001 178.834 185.395 179.437 184.51 180.322L184.543 180.389H187.633V181.672H182.569V180.344Z" fill="white"/>
<path d="M178.329 181.85C177.69 181.85 177.128 181.679 176.645 181.337C176.161 180.987 175.786 180.511 175.518 179.909C175.258 179.299 175.128 178.615 175.128 177.856C175.128 177.097 175.258 176.417 175.518 175.815C175.786 175.205 176.161 174.729 176.645 174.387C177.128 174.037 177.69 173.862 178.329 173.862C178.969 173.862 179.531 174.037 180.014 174.387C180.497 174.729 180.869 175.205 181.13 175.815C181.397 176.417 181.531 177.097 181.531 177.856C181.531 178.615 181.397 179.299 181.13 179.909C180.869 180.511 180.497 180.987 180.014 181.337C179.531 181.679 178.969 181.85 178.329 181.85ZM178.329 180.478C178.686 180.478 178.995 180.366 179.255 180.143C179.523 179.913 179.724 179.6 179.858 179.206C179.999 178.804 180.07 178.354 180.07 177.856C180.07 177.083 179.914 176.454 179.601 175.971C179.289 175.48 178.865 175.234 178.329 175.234C177.801 175.234 177.381 175.48 177.069 175.971C176.756 176.462 176.6 177.09 176.6 177.856C176.6 178.354 176.667 178.804 176.801 179.206C176.942 179.6 177.143 179.913 177.403 180.143C177.671 180.366 177.98 180.478 178.329 180.478Z" fill="white"/>
<path d="M168.952 180.344C169.197 180.099 169.669 179.626 170.369 178.927C171.075 178.221 171.529 177.759 171.73 177.544C171.997 177.254 172.18 177.012 172.276 176.819C172.38 176.625 172.432 176.406 172.432 176.16C172.432 175.9 172.336 175.681 172.142 175.502C171.949 175.324 171.692 175.234 171.373 175.234C171.06 175.234 170.807 175.324 170.614 175.502C170.421 175.681 170.283 175.904 170.201 176.172L168.885 175.625C168.967 175.335 169.115 175.056 169.331 174.788C169.554 174.513 169.841 174.29 170.19 174.119C170.54 173.948 170.941 173.862 171.395 173.862C171.901 173.862 172.343 173.963 172.722 174.163C173.102 174.357 173.396 174.625 173.604 174.967C173.812 175.301 173.916 175.677 173.916 176.093C173.916 176.919 173.515 177.726 172.711 178.514C172.384 178.834 171.778 179.437 170.893 180.322L170.926 180.389H174.017V181.672H168.952V180.344Z" fill="white"/>
</svg>
