<?xml version="1.0" encoding="UTF-8"?>
<!DOCTYPE svg PUBLIC "-//W3C//DTD SVG 1.1//EN" "http://www.w3.org/Graphics/SVG/1.1/DTD/svg11.dtd">
<!-- Creator: CorelDRAW X7 -->
<svg xmlns="http://www.w3.org/2000/svg" xml:space="preserve" width="100mm" height="11.9268mm" version="1.1" style="shape-rendering:geometricPrecision; text-rendering:geometricPrecision; image-rendering:optimizeQuality; fill-rule:evenodd; clip-rule:evenodd"
viewBox="0 0 11466 1367"
 xmlns:xlink="http://www.w3.org/1999/xlink">
 <defs>
  <style type="text/css">
   <![CDATA[
    .fil2 {fill:#0096D6;fill-rule:nonzero}
    .fil1 {fill:#0083C7;fill-rule:nonzero}
    .fil0 {fill:#0072B9;fill-rule:nonzero}
   ]]>
  </style>
 </defs>
 <g id="Capa_x0020_1">
  <metadata id="CorelCorpID_0Corel-Layer"/>
  <path class="fil0" d="M10953 1338l-689 0 0 -1314 689 0c163,0 292,69 390,209 57,83 95,177 115,284l-336 0c-10,-37 -23,-71 -40,-102 -44,-76 -104,-114 -181,-114l-325 0 0 752 325 0c74,0 133,-41 178,-121 20,-35 34,-73 44,-115l343 0c-16,123 -56,229 -120,320 -96,134 -227,201 -393,201z"/>
  <path class="fil1" d="M10134 1330l-801 0c-120,0 -215,-41 -285,-124 -64,-75 -96,-166 -96,-274 0,-47 7,-92 21,-136 13,-43 33,-83 60,-120 -25,-34 -45,-73 -59,-119 -15,-45 -22,-90 -22,-135 0,-107 32,-199 96,-273 70,-84 165,-125 285,-125l801 0 0 277 -749 0c-33,0 -60,12 -80,36 -20,24 -30,52 -30,84 0,31 10,58 29,81 19,22 46,33 81,33l749 0 0 276 0 8 -791 0c-22,9 -38,23 -50,44 -12,20 -18,43 -18,68 0,32 10,59 29,82 19,22 46,34 81,34l749 0 0 283z"/>
  <path class="fil1" d="M8825 1367l-885 -356 0 326 -309 0 0 -435c0,-104 28,-189 84,-254 65,-75 160,-113 285,-113l382 0c35,0 63,-12 83,-35 18,-22 27,-48 27,-79 0,-32 -9,-60 -27,-82 -20,-25 -48,-38 -83,-38l-751 0 0 -277 802 0c120,0 215,41 285,124 63,74 95,166 95,273 0,109 -31,200 -94,274 -70,82 -165,124 -286,124l-193 0 585 237 0 311z"/>
  <path class="fil2" d="M7555 1338l-333 0 -367 -1011c-2,-10 -11,-16 -24,-16 -15,0 -24,6 -29,16l-360 1011 -337 0c26,-83 67,-207 123,-373 63,-184 124,-359 185,-527 66,-183 107,-285 122,-307 29,-37 69,-65 122,-84 53,-20 111,-29 173,-29 61,0 119,9 172,29 53,19 93,47 120,84 17,22 59,123 125,306 46,129 107,304 183,527 41,125 83,250 125,374z"/>
  <polygon class="fil2" points="6035,1338 5723,1338 5723,24 6035,24 "/>
  <path class="fil2" d="M5595 819l-875 0 0 519 -313 0 0 -667c0,-124 13,-230 39,-316 32,-105 82,-184 150,-238 77,-62 180,-93 308,-93l691 0 0 277 -691 0c-54,0 -98,20 -130,61 -22,28 -38,66 -47,112 -3,21 -5,41 -7,61l875 0 0 276 0 8z"/>
  <path class="fil1" d="M4279 1072c0,84 -37,153 -111,208 -69,50 -151,76 -248,76 -83,0 -158,-20 -224,-61 -74,-46 -126,-111 -156,-197 -6,-17 -35,-110 -84,-279 -47,-159 -86,-279 -119,-360 -46,-118 -84,-176 -114,-172 -20,5 -34,12 -41,23 -7,10 -11,24 -11,43l0 984 -312 0 0 -1053c0,-96 38,-169 116,-219 67,-44 153,-65 258,-65 139,0 250,66 333,197 55,87 108,229 158,424 55,214 96,347 122,400 6,13 16,24 28,31 11,7 23,11 36,11 15,0 29,-6 39,-17 11,-12 17,-27 17,-47l0 -985 313 0 0 1058z"/>
  <path class="fil1" d="M2199 1053c74,0 134,-41 179,-121 40,-73 61,-161 61,-264 0,-100 -20,-184 -59,-253 -44,-76 -104,-114 -181,-114l-356 0c-77,0 -137,38 -180,114 -40,69 -59,153 -59,253 0,103 20,191 60,264 44,80 104,121 179,121l356 0zm51 285l-460 0c-165,0 -296,-67 -392,-201 -85,-120 -128,-269 -128,-445 0,-180 43,-333 131,-459 97,-140 226,-209 389,-209l460 0c163,0 293,69 390,209 87,126 130,279 130,459 0,177 -42,325 -128,445 -95,134 -226,201 -392,201z"/>
  <path class="fil0" d="M8 517c19,-107 58,-201 115,-284 97,-140 227,-209 389,-209l689 0 0 277 -637 0c-75,0 -135,38 -179,114 -18,31 -31,65 -41,102l-336 0z"/>
  <path class="fil0" d="M1201 1338l-689 0c-165,0 -296,-67 -391,-201 -65,-91 -105,-198 -121,-320l342 0c10,41 25,80 44,115 44,80 104,121 178,121l637 0 0 285z"/>
 </g>
</svg>
