<svg width="82" height="82" viewBox="0 0 82 82" fill="none" xmlns="http://www.w3.org/2000/svg">
<path d="M35.228 58.3C32.4187 58.2673 29.887 57.81 27.633 56.928C25.379 56.046 23.468 54.8373 21.9 53.302C20.332 51.7667 19.1233 49.97 18.274 47.912C17.4247 45.8213 17 43.5673 17 41.15C17 38.7327 17.4247 36.495 18.274 34.437C19.1233 32.3463 20.332 30.5333 21.9 28.998C23.5007 27.4627 25.4117 26.254 27.633 25.372C29.887 24.49 32.4187 24.0327 35.228 24H40.52V30.86H35.424C33.8887 30.8927 32.484 31.1703 31.21 31.693C29.9687 32.2157 28.8907 32.9343 27.976 33.849C27.094 34.7637 26.408 35.8417 25.918 37.083C25.4607 38.3243 25.232 39.68 25.232 41.15C25.232 42.62 25.4607 43.9757 25.918 45.217C26.408 46.4583 27.094 47.5363 27.976 48.451C28.8907 49.3657 29.9687 50.0843 31.21 50.607C32.484 51.1297 33.8887 51.4073 35.424 51.44H40.52V58.3H35.228Z" fill="#E4A1D3"/>
<path fill-rule="evenodd" clip-rule="evenodd" d="M40.2997 50.6982L40.0404 33.6223C39.91 30.2182 41.9821 27.2745 45.1977 26.3063C45.9759 26.0759 46.7869 25.97 47.6098 25.9915C49.7577 26.0475 51.8068 26.9437 53.3779 28.5148C54.3919 29.5288 55.1259 30.7451 55.5331 32.0591C49.8504 33.2349 45.579 38.2684 45.579 44.2996C45.579 47.1024 46.5014 49.6897 48.0593 51.7745L41.2724 51.6726L40.2997 51.6726V50.6982ZM65.579 44.2996C65.579 48.4417 62.2211 51.7996 58.079 51.7996C53.9369 51.7996 50.579 48.4417 50.579 44.2996C50.579 40.1575 53.9369 36.7996 58.079 36.7996C62.2211 36.7996 65.579 40.1575 65.579 44.2996Z" fill="#9EDDDC"/>
</svg>
